<svg xmlns="http://www.w3.org/2000/svg" viewBox="0 0 100 125" version="1.1" x="0px" y="0px">
    <g stroke="none" stroke-width="1" fill="none" fill-rule="evenodd">
        <g fill="#000000">
            <path
                d="M50.6832666,20.2922411 L62.6892767,32.3727539 C63.6312763,33.3156917 62.2187763,34.7295985 61.2767767,33.7866606 L51.7053766,24.202018 C51.3178047,23.81391 50.9989392,23.9441644 50.9989392,24.4987261 L50.9989392,66.5981277 C50.9989392,67.1513345 50.5516989,67.6022506 50,67.6022506 C49.4444548,67.6022506 49.0010608,67.1526894 49.0010608,66.5981277 L49.0010608,24.4987261 C49.0010608,23.9455193 48.684778,23.8113236 48.2946234,24.202018 L38.7232233,33.7866606 C37.7812237,34.7295985 36.3687237,33.3156917 37.3107233,32.3727539 L49.2826557,20.2922411 C49.6687424,19.9026527 50.2959489,19.9025199 50.6832666,20.2922411 Z M32.3223305,37.3223305 C32.7128548,36.9318062 33.3460197,36.9318062 33.736544,37.3223305 C34.1270683,37.7128548 34.1270683,38.3460197 33.736544,38.736544 C24.7544853,47.7186027 24.7544853,62.2813973 33.736544,71.263456 C42.7186027,80.2455147 57.2813973,80.2455147 66.263456,71.263456 C75.2455147,62.2813973 75.2455147,47.7186027 66.263456,38.736544 C65.8729317,38.3460197 65.8729317,37.7128548 66.263456,37.3223305 C66.6539803,36.9318062 67.2871452,36.9318062 67.6776695,37.3223305 C77.4407768,47.0854378 77.4407768,62.9145622 67.6776695,72.6776695 C57.9145622,82.4407768 42.0854378,82.4407768 32.3223305,72.6776695 C22.5592232,62.9145622 22.5592232,47.0854378 32.3223305,37.3223305 Z"
                transform="translate(50.000000, 50.000000) rotate(-270.000000) translate(-50.000000, -50.000000) "/>
        </g>
    </g>
</svg>
