<svg xmlns="http://www.w3.org/2000/svg" viewBox="0 0 30 37.5"
     version="1.1" x="0px" y="0px">
    <g stroke="none" stroke-width="1" fill="none" fill-rule="evenodd">
        <g transform="translate(-45.000000, -180.000000)" fill="#000000">
            <path
                d="M55.5153842,193.056892 L55.514459,195.941507 L53.014459,197.384615 L50.5153842,195.943108 L50.5163095,193.058493 L53.0163095,191.615385 L55.5153842,193.056892 Z M54.5153842,193.621154 L54.5148291,195.353654 L53.0148291,196.220385 L51.5153842,195.354615 L51.5159394,193.622115 L53.0159394,192.755385 L54.5153842,193.621154 Z M62.5153842,193.056892 L62.514459,195.941507 L60.014459,197.384615 L57.5153842,195.943108 L57.5163095,193.058493 L60.0163095,191.615385 L62.5153842,193.056892 Z M61.5153842,193.621154 L61.5148291,195.353654 L60.0148291,196.220385 L58.5153842,195.354615 L58.5159394,193.622115 L60.0159394,192.755385 L61.5153842,193.621154 Z M69.5153842,193.056892 L69.514459,195.941507 L67.014459,197.384615 L64.5153842,195.943108 L64.5163095,193.058493 L67.0163095,191.615385 L69.5153842,193.056892 Z M68.5153842,193.621154 L68.5148291,195.353654 L67.0148291,196.220385 L65.5153842,195.354615 L65.5159394,193.622115 L67.0159394,192.755385 L68.5153842,193.621154 Z"
                transform="translate(60.015384, 194.500000) rotate(-270.000000) translate(-60.015384, -194.500000) "/>
        </g>
    </g>
</svg>
