<svg xmlns="http://www.w3.org/2000/svg" data-name="Layer 1" viewBox="0 0 5 6.25" x="0px" y="0px">
    <title>magic_witch_HALLOWEEN_mistery_magician</title>
    <path
        d="M1.6906,4.0677c.00155.09119.02253.17593.02309.254a.08818.08818,0,0,0,.07758.03793c.03177.00043.06624.01094.09373-.018-.002-.014-.00475-.02906-.006-.04421-.00286-.03385-.02077-.07088.02149-.0959.03887.0035.05214.03406.069.05941.02029.03048.03778.06259.05865.09763.02436.01568.05092.03357.07831.05027a.31958.31958,0,0,0,.25294.0322c.03173-.00785.06289-.01769.07884-.02223.051-.02594.05577-.06688.09213-.10211l.08361-.03426a.40689.40689,0,0,1,.04244.0002.5162.5162,0,0,1,.16849.05927.41642.41642,0,0,0,.37826.01267.19726.19726,0,0,1,.14339-.0172.79538.79538,0,0,0,.23589.02953c.04476.02305.03816.05356.02724.08372a.08449.08449,0,0,1-.06922.059.2327.2327,0,0,1-.06509.00021c-.03774-.00523-.075-.01377-.09675-.01793-.05856.001-.08005.03885-.11681.04955a.70353.70353,0,0,1-.16336.01.34772.34772,0,0,1-.15905-.03254c-.04438-.02024-.08886-.04048-.13435-.05836a.09151.09151,0,0,0-.07892.00318.10948.10948,0,0,0-.03676.06693.2013.2013,0,0,1-.15.13094c-.0523.01458-.10654.023-.16231.03472-.04685-.01427-.09393-.02758-.14015-.04314A.225.225,0,0,1,2.17862,4.625c-.05235-.03725-.10446-.075-.15379-.11568a.82268.82268,0,0,1-.06364-.07038.2985.2985,0,0,0-.03735-.02833c-.02312.02563-.04373.04939-.06541.07227a.1088.1088,0,0,1-.089.03137A.22088.22088,0,0,1,1.65238,4.48L1.578,4.38372a.07284.07284,0,0,0-.07162,0,.22381.22381,0,0,1-.17453-.01453,1.17614,1.17614,0,0,1-.126-.072.12817.12817,0,0,1-.05669-.122.3238.3238,0,0,1,.02075-.08963.29506.29506,0,0,1,.04663-.08111A.66666.66666,0,0,0,1.34237,3.69c.01124-.05549.02209-.11112.03008-.16707a.88177.88177,0,0,0,.00924-.123q.0004-.27772-.002-.55545a1.19086,1.19086,0,0,0-.01583-.153A2.39666,2.39666,0,0,1,1.347,2.41482a.38414.38414,0,0,1,.02214-.09289.922.922,0,0,1-.02035-.242.05646.05646,0,0,1,.008-.02923.03542.03542,0,0,1,.024-.01527c.00833.0001.02261.0087.02391.01536a3.0833,3.0833,0,0,1,.08.56455.80354.80354,0,0,0,.01715.153,2.62556,2.62556,0,0,0,.09977.4048,1.241,1.241,0,0,1,.0412.19592,1.88164,1.88164,0,0,1,.03588.25943.57806.57806,0,0,1-.17156.43679c-.03219.03505-.06722.06782-.09912.10309a.09937.09937,0,0,0-.02039.04107.03209.03209,0,0,0,.00792.02738.02855.02855,0,0,0,.02658-.00092.95188.95188,0,0,1,.16717-.16878A.07893.07893,0,0,1,1.6906,4.0677Z"/>
    <path
        d="M1.73735,1.99515c-.01056.01126-.0218.01783-.02391.02638a.47132.47132,0,0,0-.01718.152c.00169.02086-.01464.03762-.04243.043-.00955-.00986-.02568-.01933-.03-.03225a1.25209,1.25209,0,0,1-.0417-.14862.37156.37156,0,0,0-.04626-.12312c-.03953-.03162-.08574-.0677-.13086-.10494a.069.069,0,0,1,.01738-.11612c.03938-.01694.08106-.02919.11473-.04105a.17286.17286,0,0,1,.12359.06575l-.02956.09559a.75772.75772,0,0,0,.25333.0619c.21328-.0229.22549-.02721.32614-.11538-.01867-.04476-.07128-.0406-.10483-.06386a.02819.02819,0,0,1,.02382-.02985.13819.13819,0,0,1,.06448.00191.53918.53918,0,0,1,.15438.08131.30165.30165,0,0,1,.0507.17814,2.94757,2.94757,0,0,0,.0381.30588.23817.23817,0,0,0,.07976.14884c.03474.03271.06916.06573.1032.09812l.03838.12621a.15214.15214,0,0,1-.05516.10221c-.02753.02479-.05763.04706-.08567.07138a.05438.05438,0,0,0,.00826.06986A.27513.27513,0,0,0,2.5679,2.872c.035.01433.07175.02529.10612.04083a.19189.19189,0,0,1,.1041.11421.25536.25536,0,0,1-.00565.20974,1.31059,1.31059,0,0,1-.0932.14491.10723.10723,0,0,0,.00091.12591c.024.01428.05664.0327.08818.0526a.16694.16694,0,0,1,.0847.18591c-.005.02515-.01562.04928-.02124.07436a.0891.0891,0,0,0,.04793.09112.56853.56853,0,0,0,.12263.04266,1.61281,1.61281,0,0,0,.29321.03325.599.599,0,0,1,.17871.02038.43808.43808,0,0,0,.09723.01295.51262.51262,0,0,1,.15708.04251.20089.20089,0,0,1,.10539.0935.13239.13239,0,0,1-.04385.17794.12481.12481,0,0,1-.17375-.0286A.29924.29924,0,0,0,3.40518,4.152a1.06328,1.06328,0,0,0-.19135-.0411A1.41614,1.41614,0,0,1,3.00337,4.078a.54079.54079,0,0,1-.2032-.09778.25241.25241,0,0,1-.09378-.15076c-.01025-.0434.03247-.09112.01294-.14834a.27143.27143,0,0,0-.03221-.02624c-.0136-.00841-.02953-.01342-.04412-.0205a.2154.2154,0,0,1-.07613-.32066.79444.79444,0,0,1,.06036-.07278.29112.29112,0,0,0,.06-.10875A.11985.11985,0,0,0,2.608,2.982c-.03093-.0098-.06418-.01316-.0951-.023a.1307.1307,0,0,1-.08617-.06721c-.02646-.06181-.06645-.11732-.093-.17839a.70036.70036,0,0,1-.06914-.2364.62387.62387,0,0,0-.04-.149.31954.31954,0,0,1-.014-.15217c.00139-.00856.01045-.0165.01724-.02368.00833-.00881.023-.002.03915.0179l.018.02428a.35215.35215,0,0,0,.00358-.21595.07884.07884,0,0,0-.02976-.00333c-.04672.01466-.09262.03159-.13912.04689a.41979.41979,0,0,1-.24244.00688C1.83013,2.01653,1.78244,2.006,1.73735,1.99515Zm.79071.53618c-.02038-.01541-.04188-.03081-.06233-.04735-.02481-.02007-.04784-.04215-.07347-.06122A.09943.09943,0,0,0,2.35087,2.406c-.01151-.002-.01547.03329-.00356.05695q.028.05558.05931.10966c.00482.00831.016.01336.02452.02006a.09306.09306,0,0,0,.09407-.01478Z"/>
    <path
        d="M1.82206.4728,1.87118.46168c.0091.01065.02372.02093.02823.03423.01987.05857.03592.11827.05538.177.00587.01771.01218.03806.03631.04385.02222-.01959.00954-.065.05626-.06619.00686.00644.01838.01207.02.01956.01706.08048.02567.16314.05013.24148a.96943.96943,0,0,1,.02472.33476.17789.17789,0,0,1-.081.14472l-.07308.051a.13508.13508,0,0,0-.02008.07918.38558.38558,0,0,1-.02373.10444.10573.10573,0,0,1-.11112.07093.05557.05557,0,0,1-.02535-.05568c.00868-.04.02187-.07923.02979-.11936A.09929.09929,0,0,0,1.83,1.48266c-.03206-.02056-.05659-.00185-.082.00261a.18167.18167,0,0,1-.09656-.008A.36105.36105,0,0,1,1.42518,1.212.13173.13173,0,0,1,1.424,1.151a.56245.56245,0,0,1,.08729-.2144A.27979.27979,0,0,1,1.54034.89932.521.521,0,0,0,1.67479.53c.00336-.06662.00429-.13336.00876-.1999A.02564.02564,0,0,1,1.717.30458c.0187.02765.03962.05692.05866.08723C1.79222.41813,1.80661.44563,1.82206.4728Zm.10715.80207c.01747.013.03353.016.04678.00484A.23054.23054,0,0,0,2.019,1.234a.08416.08416,0,0,0,.00342-.10156.56879.56879,0,0,1-.1-.22426A.05365.05365,0,0,0,1.88523.86348c-.02892.01091-.0371.035-.04393.06244a.85976.85976,0,0,1,.02584.133A.53629.53629,0,0,0,1.92921,1.27487ZM2.023.92407,2.01674.935l.00961.00165Z"/>
    <path
        d="M2.59086,3.93409c.05033.03813.102.076.15189.11578a.21083.21083,0,0,1,.04122.04693A.03484.03484,0,0,1,2.786,4.1259a.12769.12769,0,0,1-.1298.07572.20632.20632,0,0,1-.16138-.09341.69391.69391,0,0,0-.04773-.08075.5518.5518,0,0,1-.10967-.33377c-.00684-.1231-.0333-.244-.03653-.36757a.8692.8692,0,0,0-.04079-.21143.74384.74384,0,0,1-.025-.15151c-.00411-.056-.01393-.11163-.01916-.16759-.00057-.00607.01229-.018.01978-.01869.008-.00071.01778.00793.02544.014l.006.014c.04174.15413.08505.3079.12425.46259.01766.06971.02685.1413.04026.212a1.29677,1.29677,0,0,0,.09583.30958C2.54719,3.83135,2.5649,3.87452,2.59086,3.93409Z"/>
    <path
        d="M2.07853,4.19926a.071.071,0,0,1-.03216-.0714.08381.08381,0,0,1,.00716-.02951,3.14246,3.14246,0,0,0,.13033-.312c.00373-.01.02341-.01488.03878-.024a.8736.8736,0,0,1,.05093.28843.3531.3531,0,0,1-.00314.04554.13417.13417,0,0,1-.13391.11005C2.11518,4.20417,2.09394,4.20118,2.07853,4.19926Z"/>
    <text x="0" y="20" fill="#000000" font-size="5px" font-weight="bold"
          font-family="'Helvetica Neue', Helvetica, Arial-Unicode, Arial, Sans-serif">Created by Alice Noir
    </text>
    <text x="0" y="25" fill="#000000" font-size="5px" font-weight="bold"
          font-family="'Helvetica Neue', Helvetica, Arial-Unicode, Arial, Sans-serif">from the Noun Project
    </text>
</svg>
