<svg xmlns="http://www.w3.org/2000/svg" data-name="Layer 1" viewBox="0 0 5 6.25" x="0px" y="0px">
    <title>magic_witch_HALLOWEEN_mistery_magician</title>
    <path
        d="M2.73816.7243A.079.079,0,0,1,2.8065.76056a.03912.03912,0,0,1,.00587.02554.071.071,0,0,1-.07894.0446A.11488.11488,0,0,1,2.70225.81257.04915.04915,0,0,1,2.69534.75389.04626.04626,0,0,1,2.73816.7243Z"/>
    <path
        d="M2.238.93066A.21754.21754,0,0,1,2.209.92384.02759.02759,0,0,1,2.19533.91259.05981.05981,0,0,1,2.19128.86016a.03843.03843,0,0,1,.036-.02294.08254.08254,0,0,1,.065.04357.02934.02934,0,0,1-.013.03861C2.26524.92451,2.25045.92736,2.238.93066Z"/>
    <path
        d="M2.49243.77943a.05712.05712,0,0,1-.04575-.0268.03639.03639,0,0,1-.0069-.0343A.04154.04154,0,0,1,2.47514.693a.05577.05577,0,0,1,.053.03.0359.0359,0,0,1,.00176.035A.03914.03914,0,0,1,2.49243.77943Z"/>
    <path
        d="M1.92747,2.71082l-.01782.04863a1.03264,1.03264,0,0,0,.02356.17687l.0103.01593a.07127.07127,0,0,0,.10474.023l.02516-.01179a.1055.1055,0,0,0,.05832-.06819l.015-.05767a.65787.65787,0,0,1-.0161-.18021.21733.21733,0,0,1,.03857-.12156l.0204-.03095a.12659.12659,0,0,1,.07179-.05524c.01471-.0041.029-.00972.04391-.013l.01587.00868a.31986.31986,0,0,0-.121.182c-.00869.02956-.01842.05881-.02812.0896l.02049.06821c.0082.00319.0138.00749.01891.007a.04808.04808,0,0,1,.04189.01445l.0196.01907a.051.051,0,0,0,.005-.04558c-.00229-.01168-.01076-.023-.0039-.035.00247-.00431.01085-.00933.01443-.00806a.04977.04977,0,0,1,.02262.01483.24957.24957,0,0,1,.05512.20789c-.00681.03321-.01609.06592-.02471.09874a.09786.09786,0,0,0,.02455.09419.06275.06275,0,0,0,.06694.01966.18458.18458,0,0,0,.09934-.07922A.0772.0772,0,0,0,2.54244,3.058a.45749.45749,0,0,0-.00125-.0554c-.00113-.02157-.00259-.04313-.00449-.06464a.22043.22043,0,0,1,.04756-.1556c.005-.00671.007-.00666.0224.00313a.29086.29086,0,0,0-.0073.05432.67237.67237,0,0,0,.01112.09123.14769.14769,0,0,0,.03562.074.425.425,0,0,0,.06459.03637.16475.16475,0,0,1,.1088.13787.36321.36321,0,0,0,.00869.03574.031.031,0,0,0,.03063.01606A.15588.15588,0,0,0,2.894,3.22106a.29444.29444,0,0,0,.07986-.05547.077.077,0,0,0,.011-.04809c.00042-.04323-.00176-.08668.002-.12962a.1021.1021,0,0,1,.05538-.08994l-.00132-.00131.00465.03465c.00577.00555.00961.00375.01485-.00244A.3405.3405,0,0,1,3.0914,2.8954c.003-.0027.01106-.00066.01645.00062l.0049.00751a.18016.18016,0,0,1-.011.08445l.01776.07032c.01277.01377.025.02765.03792.04077a.074.074,0,0,0,.09391.00435.21536.21536,0,0,0,.06172-.06822.57049.57049,0,0,0,.05424-.12761A.63639.63639,0,0,0,3.38,2.80727L3.38566,2.802l.00882.00108a.23447.23447,0,0,1,.02515.03821c.02531.0562.04936.113.07379.16932l.01621-.00341a.37758.37758,0,0,0,.04684-.1393.35229.35229,0,0,0-.00654-.16515c-.01044-.02874-.00359-.06119-.019-.09a.89586.89586,0,0,1-.03452-.08409.647.647,0,0,1-.07369-.1082.42739.42739,0,0,0-.068-.08757.349.349,0,0,1-.0578-.09448.24773.24773,0,0,1-.02427-.16045.02763.02763,0,0,0-.042-.00466.09118.09118,0,0,0-.04164.059c-.00865.0422-.017.08447-.02637.13109L3.11531,2.302c-.01355-.00277-.02565-.00434-.03718-.00778a.07386.07386,0,0,1-.056-.06646c-.00268-.02138-.005-.04279-.00812-.06411-.00154-.01071-.02128-.01606-.03034-.00918a.07171.07171,0,0,0-.03117.05434.12727.12727,0,0,0,.00615.05481l.03624.09531a.2398.2398,0,0,1,.00955.02606.08645.08645,0,0,1-.154.07123.14283.14283,0,0,1-.02981-.086c-.00016-.03091.00006-.06187-.00172-.09271A.08323.08323,0,0,0,2.731,2.19012c-.07416-.00139-.14836-.00183-.22254-.00172a1.08645,1.08645,0,0,1-.29413-.02778.23737.23737,0,0,0-.03669-.00322.04636.04636,0,0,0-.0416.03137.37971.37971,0,0,1-.00971.045.05119.05119,0,0,1-.04973.035A.16136.16136,0,0,1,2.04,2.2646a.04751.04751,0,0,1-.035-.039c-.00182-.02462-.00177-.04939-.00412-.07395a.03183.03183,0,0,0-.02-.02869.03382.03382,0,0,0-.04349.01311c.00848.03309.01861.06851.02643.10443a.07267.07267,0,0,1-.04177.07571.0873.0873,0,0,1-.11217-.03587.11268.11268,0,0,1-.0075-.02274A.22694.22694,0,0,1,1.814,2.21844a.16311.16311,0,0,0-.00725-.1531c-.00935-.00567-.0195-.01255-.03028-.01825a1.1697,1.1697,0,0,1-.26912-.19486.40885.40885,0,0,1-.08954-.14993.15617.15617,0,0,1-.00447-.10015c.00136-.00482.008-.00876.01306-.01177a.02036.02036,0,0,1,.02351.00907.12955.12955,0,0,1,.01033.02535c.00377.01806.00589.03646.008.05A.26724.26724,0,0,0,1.57922,1.79a.63861.63861,0,0,0,.15935.073c.09793.02931.19876.0442.29769.06806a.59618.59618,0,0,0,.15541.02258.41622.41622,0,0,1,.055.00695c.02147.00238.043.0055.06453.00573.11437.00124.22875.00179.34313.00233a.33668.33668,0,0,0,.10112-.0102.11254.11254,0,0,1,.0274-.0044,1.38829,1.38829,0,0,0,.27194-.05357c.039-.00974.0776-.02021.11609-.03176.0535-.01607.10293-.04173.15455-.06217a.19624.19624,0,0,0,.04728-.02863c.04859-.038.09632-.07715.14017-.11247a.14814.14814,0,0,0,.01185-.02108c.00575-.01756.01065-.03539.01654-.05533l-.02163-.04944c.00211-.00711.00742-.0113.01348-.00807a.16554.16554,0,0,1,.07667.10036.074.074,0,0,1,.00237.03642.16292.16292,0,0,1-.01877.06159c-.03028.043-.04854.09284-.08266.13359a2.35453,2.35453,0,0,0-.149.21142.24378.24378,0,0,0,.00692.13361c.00762.00755.01121.01377.01646.01589a.72523.72523,0,0,1,.17907.12982.58744.58744,0,0,1,.11932.14112c.01832.02857.03685.05714.053.08695a.37893.37893,0,0,1,.0386.26032.53367.53367,0,0,0-.00894.11062l-.00447.00529.00309-.00666a.11721.11721,0,0,0,.0372-.082.12661.12661,0,0,1,.01785-.06156.01746.01746,0,0,1,.0238-.004.07168.07168,0,0,1,.03077.04471.70672.70672,0,0,1,.0225.19237.094.094,0,0,0,.00448.02645c.00707.00047.01369.00292.01836.00088.02262-.00986.04458-.02122.06709-.03135a.02283.02283,0,0,1,.03138.0074l.00081.00891-.00884.01612c-.00972.012-.02112.02272-.03009.03522-.05147.07175-.05533.07664-.01633.1496.0058.01085.00959.02277.01469.034l.01.0114a.17726.17726,0,0,0,.02982.00807c.0306.00368.0615.00495.092.009a.21194.21194,0,0,0,.07356-.00383.06606.06606,0,0,1,.05193.01484c.00343.00506.0091.00979.0099.01525a.24.24,0,0,0,.03172.09576.3517.3517,0,0,1,.0223.05227.34516.34516,0,0,1-.13177.19519l-.00857.00113-.009-.01238c.0164-.04326.03373-.08617.051-.12911.008-.02.01782-.03947.02407-.06a.03751.03751,0,0,0-.009-.04231l-.01624.00482A.375.375,0,0,1,4.133,3.512a.14951.14951,0,0,0-.05136.0704.30583.30583,0,0,0,.00944.04022.35169.35169,0,0,1,.036.117.14774.14774,0,0,1-.08484.02634c-.102.00135-.204.00142-.306.00164-.04327.00009-.08665-.00279-.12979-.00062a1.0904,1.0904,0,0,1-.24884-.021l.00682-.01472A.10845.10845,0,0,1,3.426,3.71446c.04637,0,.09277.00082.1391-.00046a.84626.84626,0,0,0,.16624-.01032.03733.03733,0,0,1,.0182-.0011A.32045.32045,0,0,0,3.878,3.69921c.04613-.004.09266-.00329.139-.00544a.23118.23118,0,0,0,.033-.00588.04225.04225,0,0,0,.00137-.03854.16489.16489,0,0,0-.05357-.087l-.01918.02793c-.0294.01923-.06047.00014-.09072.00406-.03365.00435-.06776.00521-.1017.00714-.03082.00175-.06167.0029-.09517.00444l-.10852.06478a1.36691,1.36691,0,0,1-.18631.00855.63378.63378,0,0,0-.14633.01852l-.00487.00575c.01273.01707.03224.02778.042.04806a.12165.12165,0,0,0,.04639.04435c.01793.0121.03621.02377.05354.03669a.19366.19366,0,0,1,.05694.07206.04752.04752,0,0,1-.0075.0518c-.00867.00867-.01921.01545-.02807.024a.07234.07234,0,0,0-.02617.05809l.02429.04068c-.00338.00654-.0054.01693-.01165.02137A.2323.2323,0,0,1,3.311,4.139a.9207.9207,0,0,0-.19269.06491c-.0275.01312-.02794.01219-.08133.004-.02244-.015-.03363-.04185-.05859-.05711a.44615.44615,0,0,1-.05931-.05788C2.89883,4.0743,2.88567,4.0484,2.862,4.035a.35106.35106,0,0,1-.1772.00684c-.03885-.02763-.07864-.05676-.1193-.08462s-.08192-.05427-.12573-.08317c-.0026.009-.00819.01757-.00646.0242.01166.0448.02475.08922.03762.13369.00428.0148.01036.02915.01369.04413a.05911.05911,0,0,1-.03013.06244.31693.31693,0,0,1-.04286.01754.13831.13831,0,0,0-.047.02773A.29716.29716,0,0,1,2.301,4.2212c-.02223.01-.047.01413-.06946.02372-.01968.00841-.03752.02106-.05646.03129a.09634.09634,0,0,1-.01757.0056A.89921.89921,0,0,1,1.959,4.18627a.3286.3286,0,0,1-.001-.17348c-.00391-.004-.00729-.01031-.01189-.01138a.02286.02286,0,0,0-.01723.00389c-.0338.02692-.06771.05378-.10028.08215-.0512.04459-.10138.09034-.15467.138-.005.01414-.01009.03191-.01742.04872a.0539.0539,0,0,1-.05178.03259.07682.07682,0,0,1-.02749-.002A.42288.42288,0,0,0,1.4775,4.286.22908.22908,0,0,1,1.415,4.27a.079.079,0,0,1-.03555-.02793A.41479.41479,0,0,1,1.343,4.16732a.25656.25656,0,0,1-.00926-.05.3999.3999,0,0,1,.18333-.19342l.00712.00762a.2911.2911,0,0,1-.02327.02838,1.43192,1.43192,0,0,0-.11918.12742c.00282.00714.0034.01447.00732.01754a.33421.33421,0,0,0,.08553.05451.1395.1395,0,0,1,.051.03862l.017.00606a1.54669,1.54669,0,0,1,.14884-.13771q.12252-.11978.24495-.23966a.03376.03376,0,0,0,.01438-.03148.046.046,0,0,0-.04411-.00249c-.05589.01785-.11258.03386-.167.0555a1.11449,1.11449,0,0,1-.2155.05037c-.02718.005-.05482.00746-.0824.0111a.06734.06734,0,0,1-.046-.05355c.01552-.02086.03049-.04031.04467-.06032a.0435.0435,0,0,0-.00287-.044c-.0179-.01692-.03605-.03372-.0554-.04891a.36124.36124,0,0,1-.07-.06026.11545.11545,0,0,0-.08968-.04126l.00152.00141c-.0164-.02172-.048-.0309-.04566-.06078-.02858-.01045-.0475.00626-.06886.00632a.55462.55462,0,0,0-.07384.0035.58328.58328,0,0,0-.06495.01643.33027.33027,0,0,0-.07216.07808l.01008.01933a.04781.04781,0,0,0,.05464.025.15535.15535,0,0,1,.06335-.01037c.01292.00231.02327.007.02555.02343-.00539.00581-.01041.01619-.01784.01837a.87466.87466,0,0,1-.09878.024.08264.08264,0,0,1-.04509-.00581.84859.84859,0,0,1-.08989-.0474.16561.16561,0,0,1-.0739-.08047.19526.19526,0,0,0-.02643-.0377c.00033-.02212.02618-.0239.0344-.04427.00432-.02049.0088-.0446.015-.06826a.01761.01761,0,0,1,.01429-.00853c.00365.0001.00974.00712.01021.01154.003.02759.00446.05534.00684.083l.00424.02728a.03514.03514,0,0,0,.02659.02283.02312.02312,0,0,0,.02413-.01015.81748.81748,0,0,1,.07443-.1054.06134.06134,0,0,0,.0055-.06984.13019.13019,0,0,0-.04036-.04974C.85356,3.34633.83292,3.32779.81217,3.30948A.01952.01952,0,0,1,.82041,3.2794a.40831.40831,0,0,1,.04468-.01062.45682.45682,0,0,0,.11206-.0277.44475.44475,0,0,0,.07066-.07488c.00317-.028-.01687-.04208-.02576-.06119a.061.061,0,0,1-.00624-.01735.02344.02344,0,0,1,.00273-.01636.022.022,0,0,1,.016-.00655.331.331,0,0,1,.0863.03208.06386.06386,0,0,0,.045.00324c.00406-.00158.00945-.011.00812-.01337a.38841.38841,0,0,0-.02955-.04615.32332.32332,0,0,1-.07037-.206c.00063-.03387.00232-.0678.00549-.10152a.02429.02429,0,0,1,.02423-.02254c.011.00885.01005.0218.01142.03384a.79294.79294,0,0,0,.04009.16154.08468.08468,0,0,0,.07527.062l.01839-.01761c-.00321-.02531-.00742-.04958-.00906-.074-.00165-.02462-.00079-.04941-.00091-.07413a.965.965,0,0,1,.05925-.30742.11684.11684,0,0,1,.01173-.025,2.83517,2.83517,0,0,1,.1671-.24413c.02087-.02677.04113-.054.06194-.08085A.14489.14489,0,0,0,1.5766,2.0429.04875.04875,0,0,1,1.582,2.01611c.00383-.00659.01293-.01012.01968-.015.02456.03332.02456.03332.04087.12222a.99546.99546,0,0,0-.033.10528.12164.12164,0,0,1-.01813.04224q-.04284.07687-.08708.153c-.00929.01591-.0216.03-.03151.0456a.45667.45667,0,0,0-.08664.20208.81849.81849,0,0,0-.01411.26686.14637.14637,0,0,0,.012.05388.83436.83436,0,0,0,.078.14705A.095.095,0,0,0,1.4835,3.156l.00492.00461-.00624-.00331L1.468,3.09216A.18459.18459,0,0,0,1.47637,3.004a.2842.2842,0,0,1,.04309-.15756.01523.01523,0,0,1,.02777.00369.22048.22048,0,0,1,.00789.04483c.0017.03066-.00082.06172.003.092a.15269.15269,0,0,0,.0896.12783.11363.11363,0,0,0,.07925-.02687A.3556.3556,0,0,0,1.7741,3.044a.08.08,0,0,0,.0214-.05c.00122-.01533.00129-.03074.00235-.04609a.3489.3489,0,0,1,.09022-.21712.05435.05435,0,0,1,.04063-.01862Zm2.0463.79869.06079-.04424a.38552.38552,0,0,0,.08434-.08483l.001-.00866c-.00322-.0044-.00747-.01058-.01193-.01115a.39486.39486,0,0,0-.12861.00654c-.02406.00485-.04846.008-.07271.01192a.22313.22313,0,0,0-.04522.008.20788.20788,0,0,1-.07254.01061c-.05235.00134-.105.00117-.15686.00744a1.097,1.097,0,0,1-.11046.00794c-.037.00073-.074.00227-.111.00207a.32766.32766,0,0,0-.11778.02094.99484.99484,0,0,1-.14182.04145.10871.10871,0,0,0-.03326.01521.02131.02131,0,0,0-.00729.01552c-.00051.01527.01419.03347.02646.03348a.23689.23689,0,0,0,.05525-.002.70828.70828,0,0,1,.1471-.0103,1.1119,1.1119,0,0,0,.221-.01441.0934.0934,0,0,1,.02755-.002c.08945.00631.17825-.01018.26758-.00723A.25179.25179,0,0,1,3.97377,3.50951Zm-2.048-.091a.14822.14822,0,0,0-.04245.00557.53923.53923,0,0,1-.13235.03828.28682.28682,0,0,0-.04448.01212.39972.39972,0,0,1-.09911.02046.257.257,0,0,0-.05426.01024,1.272,1.272,0,0,0-.19806.07309c-.00413.002-.00533.01009-.00789.01536a.28455.28455,0,0,0,.13267.10908c.12-.03754.24123-.07148.363-.10394.06215-.01657.122-.04186.18258-.06413.00681-.0025.01141-.011.01711-.01679A.565.565,0,0,0,1.92581,3.4185Zm.73686.15744a.109.109,0,0,0,.01906.02177c.03395.02143.06878.04145.103.06248a1.3761,1.3761,0,0,0,.29071.14194.14856.14856,0,0,1,.03384.01459.10421.10421,0,0,1,.01885.02184l-.0237.07594a.67657.67657,0,0,1-.11489.06835.08811.08811,0,0,0,.00588.02681.04252.04252,0,0,0,.0398.01882.09454.09454,0,0,0,.052-.0176.84072.84072,0,0,1,.13932-.07314l.06887-.0314c-.00131-.00949.00067-.02121-.00415-.02583-.03338-.032-.06746-.06339-.10267-.09339-.07279-.062-.15183-.11621-.22482-.17814a.39768.39768,0,0,0-.125-.07759H2.7465Zm-.59791.4542a.38672.38672,0,0,1,.1952.02451c.02654.008.05324.01543.08012.0221.00487.00121.011-.0025.01652-.004A.04437.04437,0,0,0,2.35978,4.056c-.007-.02992-.01384-.06-.023-.08929a1.61383,1.61383,0,0,1-.075-.38847A.10526.10526,0,0,0,2.2574,3.551a.0196.0196,0,0,0-.01185-.01154.018.018,0,0,0-.01567.00544.2783.2783,0,0,0-.04027.10214.7825.7825,0,0,1-.055.20436c-.01.02246-.01853.04565-.02906.06787A.50993.50993,0,0,0,2.06477,4.03014ZM2.794,3.90628a.12176.12176,0,0,0-.02023-.02549.98064.98064,0,0,0-.09434-.05851.90719.90719,0,0,1-.2124-.14771.12285.12285,0,0,0-.06132-.03848l-.007.00507c-.00749.03627-.0074.03629.02108.13274a1.35967,1.35967,0,0,0,.25755.19739.12507.12507,0,0,0,.02662.00977A.25371.25371,0,0,0,2.794,3.90628ZM1.07643,3.4508a1.455,1.455,0,0,1,.16795-.06708c.05977-.02311.12558-.02769.1872-.04749A.06964.06964,0,0,0,1.3858,3.2803a.46528.46528,0,0,1-.07271.00142,1.229,1.229,0,0,0-.24813.00779.67758.67758,0,0,0-.09053.01685c-.00512.00108-.00937.00625-.0152.01036.00928.02838.04168.03414.05688.05755A.25121.25121,0,0,0,1.07643,3.4508Zm1.89667.38388a.08465.08465,0,0,0-.01568-.01441,2.60282,2.60282,0,0,1-.23353-.13279,1.06677,1.06677,0,0,0-.18982-.09562.05411.05411,0,0,0-.04462.00125.01947.01947,0,0,0-.00538.03056c.06173.04638.12261.094.18559.13857a.66973.66973,0,0,0,.17115.09055.18519.18519,0,0,0,.11812.00043C2.96509,3.85127,2.96859,3.84087,2.9731,3.83468Zm.18221.28053a.29915.29915,0,0,0,.161-.06565.28078.28078,0,0,0,.0162-.04019c.00171-.0067-.004-.01529-.007-.0252A1.23111,1.23111,0,0,0,3.15,4.063C3.14144,4.084,3.13013,4.10119,3.1553,4.11521Zm-.9089.012A.17123.17123,0,0,0,2.14628,4.109l-.02905.01635-.03146.01887c-.02417.01533-.02286.03279.00418.047.01327.007.02755.012.04278.01855.0378-.02232.07452-.04367.11067-.06595Z"/>
    <path
        d="M3.29837,1.55136c.03227.03157.069.05706.07032.108a.24859.24859,0,0,1-.07752.07662.856.856,0,0,1-.279.12077,1.02206,1.02206,0,0,1-.13636.02474,1.33527,1.33527,0,0,1-.156.016.06544.06544,0,0,0-.01827.00273.58084.58084,0,0,1-.26555.00192l-.02751-.00383a.907.907,0,0,1-.13776-.013.799.799,0,0,0-.12695-.023.72846.72846,0,0,1-.10017-.01695.4656.4656,0,0,1-.07033-.02213.2153.2153,0,0,0-.06168-.01874.53643.53643,0,0,1-.13818-.047l.03037-.03477c-.00544-.013-.026-.00807-.02463-.02784.04128-.01052.08513.00679.12638-.00781L1.912,1.67944a.25079.25079,0,0,0-.01295-.02275c-.01235-.0175-.02535-.03455-.03412-.04642a.09728.09728,0,0,0-.07835-.00883c-.036.00844-.07163.01881-.10764.02737a.06631.06631,0,0,1-.04567.00043l.00421-.01339a.37567.37567,0,0,1,.12807-.05175.96083.96083,0,0,0,.14073-.0453.71859.71859,0,0,1,.08978-.02457c.02061.00438.04157.00925.0627.01324a.26769.26769,0,0,0,.08272.00314c.03361-.00406.0678-.00329.10173-.00479a1.04028,1.04028,0,0,0,.20265-.015.31163.31163,0,0,1,.07382-.00357q.1945.00085.389.00272c.01841.00017.0368.00246.05518.00406.046.004.09223.00677.138.01272.03657.00475.0728.01265.10884.02068C3.23779,1.53347,3.26429,1.54194,3.29837,1.55136ZM2.068,1.66114a.04167.04167,0,0,0,.04393.006c.0169-.007.03179-.01876.04848-.02644a.39161.39161,0,0,1,.23574-.05638c.0163.00731.03951.016.061.02781.0242.01332.04715.029.07009.0445a.14459.14459,0,0,0,.10581.02955.13765.13765,0,0,0,.02063-.01529.11784.11784,0,0,1,.08253-.03619l.0462-.002a.11152.11152,0,0,1,.087.02232.0299.0299,0,0,0,.01657.00726.24019.24019,0,0,0,.09162.00338.36247.36247,0,0,1,.10066-.01233.10423.10423,0,0,0,.05191-.01763l.00653-.014A.19278.19278,0,0,0,3.11056,1.612c-.07531-.016-.15024-.03451-.22623-.04614a.61392.61392,0,0,0-.17459-.00131.1326.1326,0,0,0-.01567.024.07822.07822,0,0,1-.08864.05077A.06479.06479,0,0,1,2.53921,1.586a.09835.09835,0,0,0-.01369-.02387L2.4817,1.55169c-.0504.00267-.09024.00508-.1301.0068-.04.00173-.08011.0032-.12018.004a.44437.44437,0,0,0-.12227.02243A.18387.18387,0,0,0,2.068,1.66114Zm.24636-.00421c-.03675.00824-.06675.0136-.09589.022a.067.067,0,0,0-.04435.04282.03569.03569,0,0,0,.01851.04559.3413.3413,0,0,0,.16212.01A.04625.04625,0,0,0,2.38811,1.738.05987.05987,0,0,0,2.359,1.67577.34814.34814,0,0,0,2.31439,1.65694Z"/>
    <path
        d="M2.34511,1.33594c-.00353-.01809-.00729-.03281-.0091-.04776a.07511.07511,0,0,1,.01875-.06878c.01935-.01808.01643-.04636.03661-.07178.00693-.00448.01949-.01333.03271-.021a.26174.26174,0,0,1,.249-.00536.057.057,0,0,1,.02164.017A.13483.13483,0,0,1,2.7284,1.232c-.00247.03036-.00709.06055-.01108.09352a.20441.20441,0,0,0,.1234.00666l.00589-.01151c.00913-.06468.0091-.06469.07267-.09157a.15655.15655,0,0,1,.074.02656c.02409.02677.00264.06332.02224.08723a.0679.0679,0,0,0,.01824.00949,1.139,1.139,0,0,1,.20787.04381c.04686.01518.09562.02465.14376.03565a.15123.15123,0,0,1,.05843.02684c.00527.004.00567.01441.00811.02134a.09578.09578,0,0,1-.057.00759.14309.14309,0,0,1-.04568-.00618.75629.75629,0,0,0-.2561-.03186c-.04019-.00007-.08039-.00078-.12058-.00141a.23536.23536,0,0,1-.04626-.002A1.47053,1.47053,0,0,0,2.63981,1.434c-.068-.00154-.136-.00042-.204-.00161A.434.434,0,0,1,2.362,1.42564a.8085.8085,0,0,0-.26719-.001,1.26042,1.26042,0,0,1-.14805.00672.39565.39565,0,0,0-.12851.0121.05646.05646,0,0,1-.01836.00229.75875.75875,0,0,0-.209.0375A.02866.02866,0,0,1,1.574,1.47886c-.00533-.00245.0012-.01772.00932-.02172a.15023.15023,0,0,1,.02507-.0119c.03862-.01067.07706-.02277.11635-.03015.10016-.0188.20241-.02267.30285-.03961a1.49111,1.49111,0,0,1,.2676-.02107.14053.14053,0,0,0,.03569-.00785Zm.03779-.07752a.086.086,0,0,0,.03559.06268.07773.07773,0,0,0,.05133.01519.10781.10781,0,0,0,.10831-.06872.0833.0833,0,0,0,.01067-.04392.06456.06456,0,0,0-.06662-.05115.49135.49135,0,0,0-.05189.00386l-.04178.04031Z"/>
    <path
        d="M2.78961,2.6445a.035.035,0,0,1,.00891.03388c-.01064.04152-.02195.08288-.03266.12438a.06284.06284,0,0,0,.0104.06072.17705.17705,0,0,1,.01642.0221.044.044,0,0,1-.01162.05757.04905.04905,0,0,1-.05194.00158.15848.15848,0,0,1-.05265-.0627c-.00523-.011-.00853-.023-.013-.03443a.13555.13555,0,0,1,.01662-.13127.17542.17542,0,0,1,.09189-.073A.04932.04932,0,0,1,2.78961,2.6445Z"/>
    <path
        d="M2.75167,2.36607a.136.136,0,0,1-.01409.13837c-.00657.005-.01829.01465-.03073.02327s-.02049.02316-.03734.025A.02578.02578,0,0,1,2.643,2.53229a.11375.11375,0,0,1-.00445-.04508,1.14605,1.14605,0,0,0,.0134-.1368A.03111.03111,0,0,1,2.70071,2.329C2.71867,2.34028,2.73516,2.35393,2.75167,2.36607Z"/>
    <path
        d="M2.75709,1.02926a.627.627,0,0,1,.06416-.02139A.13388.13388,0,0,1,2.867,1.00724a.07132.07132,0,0,1,.05738.0535.07264.07264,0,0,1-.03176.07221.08855.08855,0,0,1-.07929.013.16117.16117,0,0,1-.02553-.0108C2.74374,1.11361,2.73661,1.09229,2.75709,1.02926Z"/>
    <path
        d="M2.469.97248a.066.066,0,0,1-.034.05451.10708.10708,0,0,1-.05179.01774A.07.07,0,0,1,2.30984.978a.10218.10218,0,0,1,.0246-.068A.03576.03576,0,0,1,2.367.89625c.02409.0046.0477.01184.07135.01858A.0425.0425,0,0,1,2.469.95616Z"/>
    <path
        d="M1.65279,2.83316c.00477-.01973.01047-.03741.01314-.05553A.20065.20065,0,0,1,1.737,2.65018c.00594.00568.016.01065.01751.01748a.4786.4786,0,0,1,.00485.14681.0729.0729,0,0,1-.03291.05315A.04015.04015,0,0,1,1.663,2.85757.176.176,0,0,1,1.65279,2.83316Z"/>
    <path
        d="M2.02612,1.19154a.0731.0731,0,0,1-.07173-.052.05241.05241,0,0,1,.02012-.05667.16532.16532,0,0,1,.02438-.01273.08009.08009,0,0,1,.10541.04616.03661.03661,0,0,1-.00434.035A.07929.07929,0,0,1,2.02612,1.19154Z"/>
    <path
        d="M2.88541,3.06036a.07912.07912,0,0,1-.04393-.06956.404.404,0,0,1,.04054-.089.03329.03329,0,0,1,.03314-.01056c.0162.0049.03022.02028.02783.03274a.443.443,0,0,1-.02895.116A.03175.03175,0,0,1,2.88541,3.06036Z"/>
    <path
        d="M3.21939,2.66727a.18908.18908,0,0,1,.05908.03981.06847.06847,0,0,1,.00378.07132.03862.03862,0,0,1-.03574.02447.0518.0518,0,0,1-.05864-.0559.421.421,0,0,1,.00646-.055A.03106.03106,0,0,1,3.21939,2.66727Z"/>
    <path
        d="M3.16764,1.2015a.20593.20593,0,0,1,.00618-.0263.03369.03369,0,0,1,.01056-.01444.06622.06622,0,0,1,.093.02708.041.041,0,0,1,.0007.02654.068.068,0,0,1-.0538.04492.05141.05141,0,0,1-.05174-.0302A.21539.21539,0,0,1,3.16764,1.2015Z"/>
    <path
        d="M2.2014,1.309a.07125.07125,0,0,1-.041-.03409A.04625.04625,0,0,1,2.1875,1.209a.10555.10555,0,0,1,.06267.0026.03.03,0,0,1,.01744.03692.06151.06151,0,0,1-.01388.02293C2.23747,1.28483,2.21956,1.29619,2.2014,1.309Z"/>
    <path
        d="M2.42371,3.05817a.03154.03154,0,0,1-.02638-.03229.19034.19034,0,0,1,.035-.07475.024.024,0,0,1,.03888.00181.06414.06414,0,0,1-.00764.08422A.06083.06083,0,0,1,2.42371,3.05817Z"/>
    <path d="M1.92869,2.71224l.00937-.01269.0076-.00111c.0069.00408.006.00833-.00218.01039l-.016.002Z"/>
    <polygon points="3.042 2.898 3.049 2.89 3.047 2.894 3.041 2.897 3.042 2.898"/>
    <text x="0" y="20" fill="#000000" font-size="5px" font-weight="bold"
          font-family="'Helvetica Neue', Helvetica, Arial-Unicode, Arial, Sans-serif">Created by Alice Noir
    </text>
    <text x="0" y="25" fill="#000000" font-size="5px" font-weight="bold"
          font-family="'Helvetica Neue', Helvetica, Arial-Unicode, Arial, Sans-serif">from the Noun Project
    </text>
</svg>
