<svg xmlns="http://www.w3.org/2000/svg" data-name="Layer 1" viewBox="0 0 5 6.25" x="0px" y="0px">
    <title>magic_witch_HALLOWEEN_mistery_magician</title>
    <path
        d="M1.54869,3.371a.53718.53718,0,0,0-.13044-.13341,1.189,1.189,0,0,1-.13995-.14295,1.95521,1.95521,0,0,1-.134-.167,1.15354,1.15354,0,0,1-.18145-.45693,1.61979,1.61979,0,0,1-.00868-.214A1.13486,1.13486,0,0,1,.996,1.91259c.01618-.05541.02226-.11326.04061-.16874A1.3093,1.3093,0,0,1,1.18484,1.43a.36634.36634,0,0,0,.02775-.04581A.38437.38437,0,0,1,1.312,1.25937c.02681-.0236.05234-.04865.07926-.07211a.06915.06915,0,0,1,.04949-.0166L1.43892,1.1688a.16861.16861,0,0,1-.00756.0387.11449.11449,0,0,1-.02394.03194A1.27,1.27,0,0,0,1.127,1.7216a1.35739,1.35739,0,0,0-.05976.4891c.01957.1007.03067.203.05831.30217a.26438.26438,0,0,0,.01417.03762,1.369,1.369,0,0,0,.41494.55029.32728.32728,0,0,0,.04184.03332,1.38219,1.38219,0,0,0,.44254.18482,1.942,1.942,0,0,0,.237.04128.25018.25018,0,0,0,.09283-.00176c.0528-.008.10478-.0213.15743-.03059a.19524.19524,0,0,1,.0663-.00345.2913.2913,0,0,0,.10632-.00572,2.09161,2.09161,0,0,0,.261-.0589,1.00481,1.00481,0,0,0,.47069-.31855l.00084-.011a.016.016,0,0,0-.0234-.00131,1.29351,1.29351,0,0,1-.3084.15784,2.11318,2.11318,0,0,0-.27367.0622.214.214,0,0,1-.05334.004c-.09834-.0001-.19669-.00039-.295-.00141A.28135.28135,0,0,1,2.3383,3.113c.00483-.01109.00623-.0207.01179-.02533a.04325.04325,0,0,1,.02456-.00816c.058-.00242.11617-.00618.1742-.00518a.56836.56836,0,0,0,.184-.03166C2.788,3.025,2.844,3.00951,2.899,2.9915a.2976.2976,0,0,0,.06042-.02759c.05743-.03453.11459-.0696.1705-.10651A.25134.25134,0,0,0,3.19,2.80481,2.37123,2.37123,0,0,0,3.34064,2.6a.81242.81242,0,0,0,.0966-.22047c.01813-.069.0349-.1381.04632-.209a2.24164,2.24164,0,0,0,.02753-.29308A.1238.1238,0,0,1,3.517,1.83807a.06885.06885,0,0,1,.02169-.03274.102.102,0,0,1,.11374-.00852.535.535,0,0,1,.07275.05826c.01308.01129.01709.03155.03659.03777.00392-.00623.0115-.01269.01131-.0189a.63214.63214,0,0,0-.00689-.09317c-.00716-.03944-.01876-.07809-.02887-.117a.47478.47478,0,0,0-.056-.13569c-.0166-.02635-.02964-.055-.04374-.08284a.64033.64033,0,0,0-.21586-.25141c-.093-.06179-.18641-.12343-.28348-.17835A.99985.99985,0,0,0,2.88554.92811C2.80765.90853,2.72923.891,2.6516.87049A.49389.49389,0,0,0,2.5465.85128a.39923.39923,0,0,1-.0661-.00981.71993.71993,0,0,0-.31869-.0014c-.08675.0201-.17444.03618-.26195.05277-.004.00075-.01111-.01053-.01513-.0172l.004-.01119A.6345.6345,0,0,1,2.20434.76626a.311.311,0,0,0,.0667-.005A.8513.8513,0,0,1,2.61659.7598a.54357.54357,0,0,0,.10687.00641.72632.72632,0,0,1,.22516.0295q.14765.04368.29275.09574a.57892.57892,0,0,1,.10627.05664c.057.03527.11206.07357.16868.10943a1.06589,1.06589,0,0,1,.22664.20755.30594.30594,0,0,1,.03152.04316c.03689.06113.07279.12286.10945.18413a1.21135,1.21135,0,0,1,.12789.35111,1.60892,1.60892,0,0,1,.02984.46647,1.32774,1.32774,0,0,1-.0603.2881,2.34947,2.34947,0,0,1-.09449.2649.87666.87666,0,0,1-.18623.27538,1.53939,1.53939,0,0,1-.53606.34688.9933.9933,0,0,1-.32489.07523.3464.3464,0,0,0-.07934.01146.47453.47453,0,0,1-.1191.01618A.29278.29278,0,0,0,2.575,3.596a.47843.47843,0,0,1-.14636.012,1.88218,1.88218,0,0,1-.7138-.16075c-.02819-.013-.05362-.03191-.081-.04679a.18386.18386,0,0,0-.08727-.03157Zm1.985-.56327-.0066.0075.00464-.00946.02774-.02733A.0946.0946,0,0,0,3.61276,2.699c.0211-.0121.0233-.03327.026-.05421l.00833-.00584-.00635.00783a.06778.06778,0,0,0-.02583.05406.08085.08085,0,0,0-.05356.07951A.03685.03685,0,0,0,3.53371,2.80774Z"/>
    <path
        d="M2.2719,3.77284a.60672.60672,0,0,0,.24722.04766.68517.68517,0,0,0,.23937-.01482c.08481.00006.16791-.01987.25263-.02162.02667-.00055.05322-.00543.07987-.00793a.89642.89642,0,0,0,.46378-.15528A.08632.08632,0,0,0,3.59594,3.57c-.003-.05311-.04674-.08421-.0697-.12591.00225-.009.00194-.019.00675-.02479a.0354.0354,0,0,1,.0479-.00767.08793.08793,0,0,1,.02208.01482.46846.46846,0,0,1,.05317.05976.308.308,0,0,1,.04392.30375c-.01511.037-.02415.0764-.0365.11647-.03231.03017-.065.06025-.09718.09086a.543.543,0,0,1-.15477.10408.45431.45431,0,0,0-.04841.02287.6101.6101,0,0,1-.3205.081.79672.79672,0,0,0-.1592.01581c-.074.01486-.15034.01693-.22442.03411a.22988.22988,0,0,1-.0534.00112c-.08034-.00088-.16067-.002-.241-.003A1.57986,1.57986,0,0,1,2.165,4.23735c-.12821-.01782-.25488-.04192-.37668-.06826-.04335-.02368-.08166-.04677-.12177-.06613a.93422.93422,0,0,1-.29034-.25338A.18045.18045,0,0,1,1.33167,3.726c.00119-.04459-.00064-.08941.00334-.13373a.23175.23175,0,0,1,.06336-.14445A.20981.20981,0,0,1,1.54869,3.371l-.00217-.0021a.13444.13444,0,0,1-.00615.06581q-.03287.0805-.06419.16163a.06609.06609,0,0,0,.04164.08637c.04717.01348.0944.02738.1424.03725.10486.02157.211.03758.31515.06185a.94509.94509,0,0,0,.23971.01665.07625.07625,0,0,0,.0585-.02773Z"/>
    <path
        d="M1.20363,1.93082c.0129-.05332.02164-.10185.03648-.14845a1.06292,1.06292,0,0,1,.22712-.3905A1.37446,1.37446,0,0,1,1.742,1.15861a.56073.56073,0,0,1,.25565-.10986c.00523-.00044.01211.00938.01663.01558l-.0037.01152a.22643.22643,0,0,1-.03134.02465.551.551,0,0,1-.05859.03234.3551.3551,0,0,0-.13267.11035,2.34691,2.34691,0,0,0-.18264.264,1.87645,1.87645,0,0,0-.13222.26238.74952.74952,0,0,0-.05588.24665c-.00054.01782-.00173.03569-.0038.0534a.07978.07978,0,0,1-.12211.05678A.1359.1359,0,0,1,1.22721,2.044C1.21841,2.00946,1.21253,1.97419,1.20363,1.93082Z"/>
    <path
        d="M1.9443,2.18135c-.03-.02543-.05851-.0469-.08386-.0716A.49748.49748,0,0,0,1.68912,1.983l.00551-.03728a.263.263,0,0,1,.0337-.02328A.31553.31553,0,0,0,1.89623,1.708c.01418-.05151.02142-.10491.033-.15719a.09355.09355,0,0,1,.01669-.03548c.00339-.00443.01971-.00616.02191-.00312a.20226.20226,0,0,1,.03357.05622.45161.45161,0,0,0,.05219.12279c.0074.0111.0129.02655.02342.032.04919.02529.0751.07631.1254.109.02012.01487.05812.00107.07925.02974-.002.00839-.00126.01933-.00637.02437-.01579.01558-.03413.02854-.0509.04317a.51582.51582,0,0,0-.16583.341.30167.30167,0,0,1-.0134.10511c-.003.00595-.01357.00885-.02125.0112l-.01012-.00754c-.01521-.04165-.02987-.08351-.04453-.12536Z"/>
    <path
        d="M2.72363,1.40462a.70012.70012,0,0,0-.1148.23379l-.02323-.0006a.22608.22608,0,0,1-.02652-.04517.121.121,0,0,0-.089-.07384.47128.47128,0,0,1-.06429-.018.17929.17929,0,0,1-.03259-.02021.07818.07818,0,0,1,.006-.02615.03755.03755,0,0,1,.02105-.015.17639.17639,0,0,0,.13955-.16059c.00893-.0431.01048-.08771.016-.13156l.00939-.0092a.016.016,0,0,1,.02321.0028.10473.10473,0,0,1,.01334.02281.15045.15045,0,0,1,.01227.03815.26948.26948,0,0,0,.083.1642A.28282.28282,0,0,1,2.72363,1.40462Z"/>
    <path
        d="M1.703,2.54474l.082.08741a.06553.06553,0,0,1-.00964.06945.2113.2113,0,0,0-.06033.11713.08822.08822,0,0,1-.0051.02613c-.00328.00743-.0093.01737-.01567.0187a.02731.02731,0,0,1-.02269-.0099c-.01506-.022-.02721-.046-.04171-.06838-.00964-.0149-.0214-.02843-.03315-.0438-.03321-.01132-.06694-.022-.09981-.03493-.00463-.00182-.005-.01441-.00782-.02341.03274-.022.06624-.04365.09861-.06686a.2652.2652,0,0,0,.0321-.03428c.00591-.0383.01248-.082.01949-.1256A.01434.01434,0,0,1,1.65936,2.444l.0101.00683C1.68026,2.47972,1.69031,2.50891,1.703,2.54474Z"/>
    <path
        d="M2.42284,2.62739a.09331.09331,0,0,1-.02558-.00591.06611.06611,0,0,1-.01874-.01855c-.01579-.02143-.02944-.04459-.04663-.06476a.444.444,0,0,0-.04578-.04156l.0059-.01686a.72549.72549,0,0,0,.06513-.06625.66519.66519,0,0,0,.03589-.07c.0027-.00468.0152-.00371.02319-.00533.022.01971.01565.05008.03219.08229l.05661.05594c-.002.0125-.0006.023-.0051.02926-.01549.02154-.0348.04046-.04923.06261A.44637.44637,0,0,0,2.42284,2.62739Z"/>
    <text x="0" y="20" fill="#000000" font-size="5px" font-weight="bold"
          font-family="'Helvetica Neue', Helvetica, Arial-Unicode, Arial, Sans-serif">Created by Alice Noir
    </text>
    <text x="0" y="25" fill="#000000" font-size="5px" font-weight="bold"
          font-family="'Helvetica Neue', Helvetica, Arial-Unicode, Arial, Sans-serif">from the Noun Project
    </text>
</svg>
