<svg xmlns="http://www.w3.org/2000/svg" data-name="Layer 1" viewBox="0 0 5 6.25" x="0px" y="0px">
    <title>magic_witch_HALLOWEEN_mistery_magician</title>
    <path
        d="M1.41858,1.50212a.18308.18308,0,0,0,.014.052c.0465.07388.095.14652.14372.21895.004.00593.01521.007.02387.01066.02519-.032.04974-.06478.076-.09611.023-.02742.02042-.07231.05856-.08849a.05085.05085,0,0,1,.0331.04271.94849.94849,0,0,1,.00541.09616.82962.82962,0,0,0,.017.17809.562.562,0,0,1,.00952.10951c.00231.11495.00271.22993.0046.34489a.516.516,0,0,0,.0067.10988c.012.05051.00007.10112.00779.15042a1.11963,1.11963,0,0,1,.01.15117c.002.09659.00294.1932.0055.28978a.83643.83643,0,0,0,.00869.12371,1.08914,1.08914,0,0,1,.0125.17866c.00061.0506.00218.10121.00157.15179a.35605.35605,0,0,0,.03551.176l-.04019.11613a.61624.61624,0,0,1-.06036.03765.85273.85273,0,0,0-.15485.08963.26794.26794,0,0,1-.06116.03128.12423.12423,0,0,1-.094.00083,1.00069,1.00069,0,0,1-.21343-.12534.09791.09791,0,0,1-.03641-.05643,4.22613,4.22613,0,0,1-.08647-.48819c-.01106-.14264-.0386-.28211-.05863-.423a.37821.37821,0,0,0-.0383-.11727c-.0463-.09-.07779-.18642-.12368-.27659C.8814,2.40472.84085,2.3171.80053,2.22947c-.05-.10857-.1-.21717-.14652-.32721-.025-.05915-.04174-.12175-.06433-.182a.94473.94473,0,0,0-.04582-.09954C.541,1.61517.52827,1.61469.52,1.61181a.16074.16074,0,0,0-.00968.08053.51039.51039,0,0,1-.06355.22355C.44318,1.92237.433,1.926.42511,1.9291c-.0093.00363-.0224-.01563-.02095-.02974C.41592,1.785.44395,1.6735.46561,1.5609a.06523.06523,0,0,1,.05891-.05044,1.76817,1.76817,0,0,1,.17893-.00106.481.481,0,0,1,.10053.031c.01238-.00093.03509-.00355.05785-.00407a.0522.0522,0,0,1,.046.02593c.01682.02706.03091.05581.04641.08432.009-.00329.01976-.00382.02262-.00887.01588-.02793.02885-.05751.04474-.08543a.35829.35829,0,0,1,.0453-.0686.53008.53008,0,0,0,.10678-.159.10549.10549,0,0,1,.07092-.06137.11019.11019,0,0,1,.07566.0274c.02584.019.04943.04117.07342.06262a1.41794,1.41794,0,0,0,.19572.15211.28718.28718,0,0,1,.06194.05394.03977.03977,0,0,1,.00331.03724.04579.04579,0,0,1-.03477.01508A.074.074,0,0,1,1.58191,1.598c-.03836-.02531-.07486-.05352-.11379-.07789a.20954.20954,0,0,0-.05134-.01614l-.02831-.02825a.03267.03267,0,0,0-.027-.02674l-.00713-.00667.00908.00473a.034.034,0,0,0,.027.02676Zm-.13974.33119.10864.0016a.138.138,0,0,0,.07628-.025.04408.04408,0,0,0,.02213-.05182c-.03353-.05-.07085-.1067-.10937-.16254A.21011.21011,0,0,0,1.33986,1.556c-.005-.00424-.01564-.0018-.02787-.00271-.00715.09434-.02994.18688-.03137.28212l-.03052.00016c-.01581-.12321-.02093-.24714-.02516-.37114L1.22,1.45188,1.2049,1.44211a3.13045,3.13045,0,0,0-.1968.27029.64908.64908,0,0,0,.00791.25322c.03511.17573.072.3511.10815.52662a.41786.41786,0,0,1,.01321.06748c.00312.08751.01826.17343.02915.26.01375.1093.01979.21957.02931.3294q.00238.02748.006.05485c.01629.12285.03319.24562.049.36854a1.06436,1.06436,0,0,0,.046.19819l.22866.13609a.28512.28512,0,0,0,.19015-.09768.33387.33387,0,0,0,.00022-.15307,1.5649,1.5649,0,0,1-.04869-.35387c-.00072-.0598-.00207-.11959-.00342-.17937a.70245.70245,0,0,0-.01492-.17815A.08906.08906,0,0,1,1.65865,2.878c.00553-.01044.0108-.02378.02982-.01421.0052.07622.01045.15368.01608.23112l.00962.00366a.26941.26941,0,0,0,.006-.04012c.00021-.1242.00176-.24844-.00108-.37258a1.79617,1.79617,0,0,0-.02078-.35736.2887.2887,0,0,1-.00359-.06879,1.49156,1.49156,0,0,1,.01149-.2615.09643.09643,0,0,0,.00221-.02735C1.70161,1.898,1.6942,1.8251,1.68691,1.7516c-.00976.00352-.02059.004-.02391.00921-.017.02673-.032.05468-.05217.09-.08425.00507-.16633.0374-.25448.03939a.15361.15361,0,0,0-.05226.01345.02738.02738,0,0,0-.01464.0209c.00313.03162.00981.06287.014.09441.00666.05.00971.10061.019.15008a1.39067,1.39067,0,0,1,.04123.29939.20637.20637,0,0,0,.00833.0681.58585.58585,0,0,1,.0172.164.80023.80023,0,0,0,.00937.13727.88281.88281,0,0,1,.01509.15057,1.557,1.557,0,0,0,.0239.30184.69183.69183,0,0,1,.00674.12373.6198.6198,0,0,0,.00718.12363c.02184.08533.01947.17316.03688.25562-.01076.01638-.02868.0218-.03227.0079a.72.72,0,0,1-.03525-.20232c.00509-.148-.03109-.2922-.03565-.43911a1.369,1.369,0,0,1-.0224-.28819,1.06033,1.06033,0,0,0-.0204-.24679.22717.22717,0,0,1-.00411-.05491A2.16989,2.16989,0,0,0,1.29656,2.256a.8912.8912,0,0,1-.01487-.10883.90462.90462,0,0,0-.04523-.22853c-.01709-.01129-.032-.02185-.04755-.03125-.01967-.01186-.04058-.02178-.05967-.03447a.11.11,0,0,1-.02907-.02853.0262.0262,0,0,1-.00115-.024.02794.02794,0,0,1,.02311-.0094c.04519.00793.08142.04385.13.04221C1.26094,1.84742,1.26985,1.85035,1.27884,1.83331Zm-.22256.77007a.53446.53446,0,0,0-.00051-.08031c-.02068-.09878-.03234-.19921-.05619-.29744a2.0052,2.0052,0,0,1-.05127-.31256.72675.72675,0,0,0-.09-.28724.0661.0661,0,0,0-.05408-.03825C.74474,1.585.6851,1.58551.62555,1.58644c-.00626.0001-.01234.01123-.02144.0201a1.89555,1.89555,0,0,0,.12166.33389c.033.06575.06668.13144.09445.19945.05746.14073.12722.27544.19481.41125A.46567.46567,0,0,0,1.05628,2.60339Zm.674.69213.004.011.004-.01085Z"/>
    <path
        d="M2.50081,3.3996c-.00137-.05488-.004-.10976-.00387-.16463a2.03931,2.03931,0,0,0-.01816-.34381A.26594.26594,0,0,1,2.48,2.83638a.21543.21543,0,0,0,.00236-.05453A.90555.90555,0,0,1,2.477,2.61732a1.23133,1.23133,0,0,1,.008-.15051c.0063-.08242.005-.16542.00711-.24817.00186-.07357.00364-.14715.0061-.2207a.13719.13719,0,0,1,.0319-.08943c.074-.08235.13322-.17582.20106-.26276a.0953.0953,0,0,1,.02-.01886.07313.07313,0,0,1,.06512-.01346.311.311,0,0,1,.11833.0683.85536.85536,0,0,0,.08454.07052.953.953,0,0,1,.21886.22719.12156.12156,0,0,1,.02194.10448.934.934,0,0,0-.02179.1916.82138.82138,0,0,1-.01082.08183q-.00719.05457-.01384.10921c-.00109.00911.00015.01854-.00134.02755-.01734.10423-.02358.20981-.03741.31429a2.13717,2.13717,0,0,0-.01828.23349,2.3463,2.3463,0,0,1-.02036.33,1.5911,1.5911,0,0,0-.00845.20666.15224.15224,0,0,1-.0263.097,2.494,2.494,0,0,1-.3393.19674L2.74865,3.871A.08593.08593,0,0,1,2.725,3.85787c-.05273-.05769-.10526-.11559-.15656-.17454a.2477.2477,0,0,1-.02754-.04739L2.539,3.62252a.02206.02206,0,0,1,.03339-.01037.31394.31394,0,0,1,.05087.04569c.03667.0409.07221.08279.1076.12207.01263-.0046.02528-.00559.027-.0105a.1913.1913,0,0,0,.01169-.053c.00291-.0505.00295-.10117.00579-.15169a.07963.07963,0,0,1,.03582-.07014l.00736.00787c.02024.07132-.00654.14672.019.21755l.0099.0078c.03435.00375.06023-.01865.08995-.02947.02994-.0109.06041-.02037.08943-.03006A.06467.06467,0,0,0,3.046,3.61734c.00155-.03677.00191-.07358.00353-.11035a.49177.49177,0,0,1,.00681-.09616,1.06314,1.06314,0,0,0,.02-.2331.987.987,0,0,1,.00954-.17884c.01121-.05378-.00773-.11043.01422-.16346.00309-.11963.02981-.23722.03014-.3572a.46791.46791,0,0,1,.01167-.10941.78175.78175,0,0,0,.01185-.25675.05516.05516,0,0,0-.0471-.02984c-.03646-.00246-.07294-.00457-.11014-.00688.0118-.03548.0118-.03548.16407-.05693l-.00367-.01309c-.105-.08224-.18485-.19177-.29582-.27373-.00973.00878-.026.01653-.02652.02525a.37943.37943,0,0,0,.005.0818.38637.38637,0,0,1-.00482.20411A.15342.15342,0,0,0,2.83,2.09719a.44081.44081,0,0,0,.00464.09622,1.08675,1.08675,0,0,1,.01079.34343,4.1486,4.1486,0,0,0-.01663.427c.00055.02727-.00316.05462-.005.0836-.01183-.00358-.023-.00373-.02509-.00817a.10364.10364,0,0,1-.01718-.051c.008-.05525-.00431-.11007-.00082-.16407a.79259.79259,0,0,1,.0119-.20522,2.1414,2.1414,0,0,0-.01184-.44023.26988.26988,0,0,1,.00781-.13457.541.541,0,0,1-.04623-.243c-.02116.00529-.03235.00472-.038.01a1.24624,1.24624,0,0,1-.11821.11494.08562.08562,0,0,0-.03556.07185,1.5634,1.5634,0,0,0,.00974.23386,1.32646,1.32646,0,0,1,.01629.23324l-.00173.22083a.37341.37341,0,0,1-.001.06888c-.02429.12208-.01742.24774-.04383.36957a.49151.49151,0,0,0-.00665.08223c-.00281.06408-.00485.1282-.00721.1923Z"/>
    <path
        d="M4.53111,1.47644c.02457.01283.04532.02213.06406.03449.00487.00321.00613.01662.00422.02412a.0498.0498,0,0,1-.01519.02241c-.02718.02469-.05374.05037-.083.0724-.19073.14359-.37944.28988-.57336.42925a.87676.87676,0,0,0-.0936.08112.60428.60428,0,0,1-.13455.09535.141.141,0,0,1-.03949.00957.03928.03928,0,0,1-.031-.023.36926.36926,0,0,1-.0051-.06834c.01738-.18383.003-.36771.00266-.55155-.00018-.09652,0-.193,0-.27853a.28046.28046,0,0,1,.06091-.10385A1.25658,1.25658,0,0,0,3.84212,1.022c.0209-.00511.04267-.0117.06492-.01548a.29252.29252,0,0,1,.055-.00369A.88672.88672,0,0,0,4.23363.96206C4.251.95693,4.26883.95328,4.278.951a.068.068,0,0,1,.05916.04361c.00925.0209.01419.04366.02266.065q.05348.13449.10808.26853C4.487,1.37489,4.50748,1.42112,4.53111,1.47644Zm-.781-.12463a.14145.14145,0,0,1,.043-.00737c.11211.023.22392.04747.33584.07136a.03964.03964,0,0,0,.04234-.02734c.01049-.08621.02085-.17244.02984-.25881a.03251.03251,0,0,0-.049-.02832c-.02926.01322-.05834.02691-.087.0414q-.129.06522-.25753.1313c-.02042.01046-.04059.02143-.06058.0327a.08808.08808,0,0,0-.04847.09071,1.44012,1.44012,0,0,1,.00631.17869,2.14323,2.14323,0,0,1-.01705.3151.6885.6885,0,0,0-.00585.12363.12891.12891,0,0,0,.00874.06786l.02291-.00048A2.01708,2.01708,0,0,0,3.84116,1.904a.79914.79914,0,0,1,.17741-.22647.726.726,0,0,0,.08459-.09045.34587.34587,0,0,0,.03511-.05876.03965.03965,0,0,0-.02295-.05573c-.01254-.00568-.02474-.01232-.03765-.017a1.11545,1.11545,0,0,0-.23943-.06112.2063.2063,0,0,1-.05336-.01195C3.77348,1.37783,3.7652,1.36562,3.75014,1.35181Zm.70222.20961a.3756.3756,0,0,0-.22134-.069.21052.21052,0,0,0-.03316.03939.90246.90246,0,0,1-.13534.189,1.30355,1.30355,0,0,0-.19361.282l.00546.01047.01207.00123C4.07856,1.87476,4.2631,1.72568,4.45235,1.56141Zm-.19052-.13c.12069.043.12069.043.1716.02937a.1433.1433,0,0,0-.00619-.03805q-.0627-.13646-.128-.27169c-.0027-.00559-.01527-.0064-.02647-.01067-.0107.06314-.02254.12558-.03126.18845a.22915.22915,0,0,0,.00332.06791A.1281.1281,0,0,0,4.26184,1.43143Zm-.385-.35135c-.02971.04054-.05889.08018-.08757.12019l.00471.01328a.15105.15105,0,0,0,.03624-.00775.96251.96251,0,0,0,.18409-.11128l.00586-.0114a.0959.0959,0,0,0,.00022-.01784A.26551.26551,0,0,0,3.87679,1.08008Z"/>
    <path
        d="M4.40256,3.04723l.01456.04774c-.00923.01139-.01351.021-.02086.02511a1.31147,1.31147,0,0,1-.25018.11322,1.09857,1.09857,0,0,0-.31368.137.05863.05863,0,0,1-.08507-.04078,1.38612,1.38612,0,0,0-.05977-.32306c-.02326-.08819-.03348-.17983-.05-.27278l.02979-.05913c.14465-.05336.28928-.09721.43334-.14271a.10608.10608,0,0,1,.02722-.00309.06587.06587,0,0,1,.06024.0263c.01564.0225.02766.04748.04178.07107q.04945.0826.09947.16486c.00714.01176.01595.02256.02251.0346.01748.03209.03171.06623.05182.09651a.99077.99077,0,0,0,.066.08142c.00322.02715-.00748.0396-.02807.04319-.01345.00234-.02731.00228-.041.0033-.02388-.039-.05513-.07244-.07575-.11449-.02815-.05738-.06444-.11077-.09768-.1656l-.0111-.004c-.0071.00435-.01874.01081-.01852.016.00156.03657.00507.0731.00938.10948a.08744.08744,0,0,0,.01137.02453c.02172.02937.07413.01842.08444.067a.1488.1488,0,0,1-.03629.01c-.03634.00068-.06905-.02764-.1161-.01155-.02674.02627-.05986.05772-.0917.09041-.02564.02633-.05.0539-.07432.0815a.09045.09045,0,0,0-.01354.0238l-.00015.01322c.006.00557.015.01421.02064.01281A1.74408,1.74408,0,0,0,4.40256,3.04723Zm-.65279-.31629c-.02353-.00118-.0366.00905-.03844.02976a.08854.08854,0,0,0,.00366.03988,1.43689,1.43689,0,0,1,.06553.22119c.007.03048.018.06006.0267.08863L3.8329,3.1101a1.05472,1.05472,0,0,0,.04228-.184.132.132,0,0,0-.03106-.10126.16966.16966,0,0,0-.017-.02118C3.80117,2.77874,3.77474,2.75434,3.74976,2.73094Zm.31364.23764a.13347.13347,0,0,0-.08433-.07172.0322.0322,0,0,0-.04378.02025c-.018.07551-.03593.151-.05265.22684-.0015.00681.006.0156.00954.02409.03933-.00891.05688-.04379.082-.06925A.30538.30538,0,0,0,4.0634,2.96859Zm-.13473-.19448a.55405.55405,0,0,0,.15111-.12458L4.08222,2.637c-.0068-.00411-.01559-.01039-.022-.00885-.05684.01375-.11352.02829-.1698.04417a.10019.10019,0,0,0-.05631.03491C3.85095,2.752,3.851,2.75195,3.92867,2.77411Zm.06918.04215a.14022.14022,0,0,0,.11791.04689.34924.34924,0,0,0,.00074-.14922C4.06583,2.73648,4.06583,2.73648,3.99785,2.81625Z"/>
    <path
        d="M2.06334,1.40419a.37552.37552,0,0,1,.04147-.06929.383.383,0,0,0,.09326-.16556.20921.20921,0,0,1,.01884-.03788l.04066-.01494a.55575.55575,0,0,0,.19578.14174c-.00317.02318-.00091.0387-.00743.04821a.90433.90433,0,0,1-.06.07484.23451.23451,0,0,0-.05653.1373c-.00321.04088-.00464.08191-.00876.12269-.00069.00682-.0102.01394-.01717.01863a.03208.03208,0,0,1-.03585-.011.09277.09277,0,0,1-.01389-.02331.20678.20678,0,0,0-.122-.13967c-.01622-.00805-.03178-.01742-.04756-.02613Z"/>
    <path
        d="M3.09829,1.34685l-.086-.02218a.12453.12453,0,0,1,.00881-.04031,1.58031,1.58031,0,0,0,.11956-.21555A.04515.04515,0,0,1,3.196,1.04015a.15562.15562,0,0,1,.05178.062.165.165,0,0,0,.10789.07823.11929.11929,0,0,1,.03394.02088c-.00171.06709-.05406.104-.08752.1564-.013.04856-.027.10107-.0415.15342l-.00922.009a.08659.08659,0,0,1-.02509-.00552l-.00932-.00931A.35857.35857,0,0,0,3.09829,1.34685Z"/>
    <path
        d="M1.06162,3.36719l-.01113.00526a.017.017,0,0,1-.01224-.00358A.163.163,0,0,1,1.012,3.33735C.98772,3.293.96479,3.24787.94151,3.203c-.03175-.06124-.06073-.1241-.09561-.1835A2.87839,2.87839,0,0,1,.66709,2.632C.6482,2.58515.62535,2.53987.60381,2.4941.57054,2.42341.538,2.35236.503,2.2825.47422,2.225.44155,2.16941.41252,2.112A.19435.19435,0,0,1,.3998,2.0595l.0077-.01066.01137.00064a.1279.1279,0,0,1,.02677.03c.07467.14778.1496.29545.22205.44433a1.96093,1.96093,0,0,1,.08063.19035,1.12425,1.12425,0,0,0,.07225.14838c.05656.10532.1095.21259.16361.31922.027.05325.05377.10664.07946.16054C1.06675,3.34879,1.06249,3.3588,1.06162,3.36719Z"/>
    <path
        d="M1.99649,2.55129c.01875-.028.031-.04691.044-.06541A.23989.23989,0,0,0,2.08524,2.373a.3303.3303,0,0,1,.01311-.05279c.00639-.0226.02346-.03952.03557-.0336a.05785.05785,0,0,1,.02923.02434.4718.4718,0,0,0,.10779.14935.09922.09922,0,0,1,.00107.03263,1.31177,1.31177,0,0,0-.06647.16347.06342.06342,0,0,1-.09339.02238c-.027-.02429-.05272-.05018-.07771-.07659A.59089.59089,0,0,1,1.99649,2.55129Z"/>
    <path
        d="M2.25042,3.86041a.07262.07262,0,0,1,.03575.04485.19352.19352,0,0,0,.102.10681c.01647.0079.03466.01392.04306.03152a.05576.05576,0,0,1,.002.02587.016.016,0,0,1-.00654.01138.34244.34244,0,0,0-.136.18326l-.02147-.00344c-.01051-.025-.01788-.05134-.02761-.07672a.08044.08044,0,0,0-.058-.05362.52953.52953,0,0,1-.06679-.01526c-.00984-.00374-.01554-.01837-.02419-.02943l.07641-.05622a.4763.4763,0,0,0,.05581-.14479C2.22722,3.87465,2.24242,3.86765,2.25042,3.86041Z"/>
    <path
        d="M.85109.85033c.0371.01156.0371.01156.09313.11623l.073.05014c-.00129.01126.00094.02366-.00369.02726A.23792.23792,0,0,0,.93072,1.181c-.00651.026-.014.05182-.02092.07733a.09008.09008,0,0,1-.06605-.04848.41575.41575,0,0,0-.12509-.12716.62685.62685,0,0,0,.05862-.074C.793.98149.80065.94973.8138.92083.82492.8964.83884.87324.85109.85033Z"/>
    <path
        d="M4.33389,2.144c.017-.03965.01445-.08328.04054-.11754.01028-.0135.03773-.02066.04759-.0088.03745.045.07452.09041.11344.13774-.016.03-.03216.05717-.04528.08571-.01135.02469-.0183.05137-.02907.07636a.03712.03712,0,0,1-.042.027c-.0207-.02287-.04039-.048-.06357-.06927-.023-.02115-.04957-.03846-.07171-.05529C4.27742,2.17991,4.31242,2.17376,4.33389,2.144Z"/>
    <path
        d="M3.53828,3.55589c.01024.00258.02835.0017.03351.00944a.83922.83922,0,0,1,.04357.08131c.0247.02869.071.02639.08435.06547l.00131.01416c-.02095.04505-.0419.09013-.06447.13437-.003.00592-.01493.0073-.02569.0121-.02339-.01887-.0468-.04031-.0728-.05792a.71382.71382,0,0,0-.07027-.03756A.1239.1239,0,0,1,3.466,3.734c.011-.02959.02636-.05753.03941-.08638C3.51832,3.619,3.51129,3.58359,3.53828,3.55589Z"/>
    <path
        d="M1.57577.93623l.0051-.015A.20206.20206,0,0,0,1.67415.76309c.00058-.00873.01733-.01638.03048-.028.02073.03505.0372.06728.05787.09653A.85609.85609,0,0,0,1.8214.90019L1.81973.91932c-.02076.04028-.042.08034-.06441.1231-.01372-.00125-.03072.00239-.03761-.00432A.399.399,0,0,0,1.60689.95984.17591.17591,0,0,1,1.57577.93623Z"/>
    <path
        d="M1.66133,2.151a.39345.39345,0,0,0,.001.12062c.00578.06858.00457.13779.00517.20674a.5046.5046,0,0,0,.01484.1501.04879.04879,0,0,1-.00507.02614.01882.01882,0,0,1-.00946.0097c-.01011.00456-.0197.00188-.0213-.00746-.00305-.01782-.00364-.03608-.005-.05418A.72352.72352,0,0,0,1.6331,2.493a1.73241,1.73241,0,0,1-.01787-.45266c.00049-.01481.0206-.0304.02723-.02243a.08171.08171,0,0,1,.01508.021.08078.08078,0,0,1,.00363.02716C1.6616,2.09358,1.66133,2.12115,1.66133,2.151Z"/>
    <text x="0" y="20" fill="#000000" font-size="5px" font-weight="bold"
          font-family="'Helvetica Neue', Helvetica, Arial-Unicode, Arial, Sans-serif">Created by Alice Noir
    </text>
    <text x="0" y="25" fill="#000000" font-size="5px" font-weight="bold"
          font-family="'Helvetica Neue', Helvetica, Arial-Unicode, Arial, Sans-serif">from the Noun Project
    </text>
</svg>
