<svg xmlns="http://www.w3.org/2000/svg" data-name="Layer 1" viewBox="0 0 5 6.25" x="0px" y="0px">
    <title>magic_witch_HALLOWEEN_mistery_magician</title>
    <path
        d="M2.48939,1.40691l-.05418-.0823c.01117-.01227.02026-.03022.03439-.03611A.15954.15954,0,0,1,2.557,1.26657a1.21412,1.21412,0,0,0,.20181.00747q.092.00884.18435.01305a.33814.33814,0,0,1,.18876.06843c.05955.044.119.08857.17443.13751.04635.04093.09435.07847.14441.11486a.545.545,0,0,1,.19605.241.84785.84785,0,0,1,.07087.17041.1046.1046,0,0,0,.0126.03466,1.64648,1.64648,0,0,1,.10119.17626.81922.81922,0,0,0,.0856.17284c-.00405.06466-.00881.11956-.01058.17456-.002.06168-.002.12344-.00153.18516a.78458.78458,0,0,1-.04347.25437c-.03675.11122-.0691.22389-.10553.33523a.24171.24171,0,0,1-.04169.08144.736.736,0,0,0-.11932.18525,2.25636,2.25636,0,0,1-.3457.22448,1.05135,1.05135,0,0,0-.14157.02333,1.78146,1.78146,0,0,1-.38123.0712.38272.38272,0,0,1-.14615-.001.11625.11625,0,0,0-.05506-.00361.7308.7308,0,0,1-.2743-.02351c-.152-.02595-.301-.06481-.45285-.10145-.02937.00857-.05973.01477-.088.02614a.34485.34485,0,0,1-.31691-.04487c-.00966-.00562-.01475-.0191-.02179-.0287-.00884-.082.097-.11343.08586-.19795a.26545.26545,0,0,0-.08831-.11462.51507.51507,0,0,1-.12459-.18173C1.22564,3.22134,1.202,3.1779,1.17964,3.134a1.08,1.08,0,0,1-.12683-.49734c.00012-.07412.00222-.14827.001-.22236a.92884.92884,0,0,1,.04645-.27292.50364.50364,0,0,1,.07945-.16652,1.04362,1.04362,0,0,1,.23382-.26054.65473.65473,0,0,0,.1103-.09874,1.285,1.285,0,0,1,.25446-.18243.74652.74652,0,0,1,.28-.08888c.01494-.00286.02323.004.05665.04385-.01143.013-.02063.03138-.03538.03895-.05482.02815-.11035.05557-.16764.0781a1.28658,1.28658,0,0,0-.32253.21306,2.56584,2.56584,0,0,1-.21364.25509.73119.73119,0,0,0-.12789.28418.08.08,0,0,0,.00515.03577c.00134.0052.00686.00933.01369.018a.2029.2029,0,0,0,.04853.01158,1.96463,1.96463,0,0,0,.42487-.01741.40513.40513,0,0,1,.129-.00039.603.603,0,0,0,.18944-.012.21189.21189,0,0,0,.07615-.09489c.10234-.19724.19942-.39707.289-.60037C2.45092,1.53615,2.468,1.47,2.48939,1.40691ZM1.4219,2.44406a.102.102,0,0,0-.01842-.02656c-.01133-.00852-.022-.0036-.0252.0098-.00048.002.008.008.013.00918a.32332.32332,0,0,0,.0331.00473.42126.42126,0,0,0,.05573.04677,3.41231,3.41231,0,0,0,.395.19185c.05757-.0327.06861-.08935.09079-.13859a.04366.04366,0,0,0-.03152-.05684A1.83793,1.83793,0,0,0,1.4219,2.44406Zm.33339.92412a.29728.29728,0,0,0,.06847-.022c.13505-.083.26887-.168.40568-.254-.005-.02062-.00345-.04311-.01381-.05251a.58926.58926,0,0,0-.16488-.10609c-.06195.03776-.07626.047-.09557.08825a1.5334,1.5334,0,0,1-.13395.21859.25438.25438,0,0,0-.06334.13027c-.015.00611-.01771.0107-.008.011Zm1.1892-1.09095a.76676.76676,0,0,0,.22627.01686,1.438,1.438,0,0,1,.294.02488.76275.76275,0,0,0,.16527.00693.05594.05594,0,0,0,.05156-.06343.80292.80292,0,0,0-.10974-.32952.44724.44724,0,0,1-.04692-.10642,2.5449,2.5449,0,0,0-.45929-.41333.41361.41361,0,0,0-.32352-.02057.09664.09664,0,0,0,.00059.03557.69617.69617,0,0,1,.05717.2879,1.602,1.602,0,0,0,.04926.32828A.56047.56047,0,0,0,2.94448,2.27723Zm-1.0977.56554a.10774.10774,0,0,0-.06818-.06925,1.21811,1.21811,0,0,1-.2281-.12181,2.02058,2.02058,0,0,1-.224-.12833.07753.07753,0,0,0-.06944-.0179c-.00345.0046-.00875.00879-.01022.01405a.39438.39438,0,0,0,.00254.20107,1.55836,1.55836,0,0,0,.29164.61381c.00864.01083.03059.011.05057.01757.09081-.13853.141-.293.22117-.4317A.68908.68908,0,0,0,1.84678,2.84277ZM2.91761,3.648a.19728.19728,0,0,0-.01914-.04477A2.79318,2.79318,0,0,0,2.607,3.32068a.1053.1053,0,0,0-.12091-.01309l-.01646.00835c-.13728.09352-.27484.18666-.41106.28171-.01178.00822-.01466.02919-.02438.05a1.065,1.065,0,0,0,.367.06225c.09821-.00576.1969-.00535.29534-.00457A.44175.44175,0,0,0,2.91761,3.648Zm.43577-.24117a.54493.54493,0,0,0,.17838-.17813,1.4339,1.4339,0,0,0,.139-.32216.44847.44847,0,0,0,.01407-.2013c-.00225-.013-.03014-.0333-.04206-.02934a.39352.39352,0,0,0-.06906.02461q-.18555.10393-.36924.21115a.07962.07962,0,0,0-.035.08033.127.127,0,0,0,.00576.0364c.04371.10853.08761.217.13323.32474A.29489.29489,0,0,0,3.35338,3.40686Zm-.90611-.44672c.19827-.08242.21469-.09174.28679-.16214a.55529.55529,0,0,0-.107-.27089A1.19518,1.19518,0,0,0,2.283,2.52189a.57162.57162,0,0,0-.16821.244.0792.0792,0,0,0,.04567.05514c.059.03317.11836.06594.1789.09619C2.37223,2.9337,2.40782,2.9447,2.44727,2.96014Zm.59759-.433c-.02733.06923-.02427.07828.04117.12972a2.34208,2.34208,0,0,0,.22988-.097l.00346-.01653C3.25431,2.51557,3.25431,2.51557,3.04487,2.52709Zm-.63929-.25914c.03121.04448.07443.03944.11589.03894.01972-.00024.043-.03046.04288-.05075a.37.37,0,0,0-.046-.15308c-.00309-.00664-.01983-.00692-.03028-.01011a.1362.1362,0,0,0-.02184.02778C2.44489,2.17015,2.42507,2.22021,2.40557,2.26795Zm.4376.85783a.16907.16907,0,0,0-.04707.011.0438.0438,0,0,0-.00687.075c.02429.01791.05009.03382.07558.05006a.0197.0197,0,0,0,.03089-.00662A.03285.03285,0,0,0,2.901,3.239.15175.15175,0,0,0,2.84317,3.12578Z"/>
    <path
        d="M4.15471,2.4444c.0065-.06037.01179-.115.01843-.16938a.2539.2539,0,0,1,.05392-.11565.13736.13736,0,0,1,.22124-.00113.21788.21788,0,0,1,.05272.15305c-.004.04256-.0098.08494-.01357.117a.2191.2191,0,0,1-.15177.11226.11335.11335,0,0,1-.10442-.02129A1.06471,1.06471,0,0,1,4.15471,2.4444Z"/>
    <path
        d="M3.50127,4.0266a.20118.20118,0,0,1-.00757.04784.96308.96308,0,0,0-.04176.15893.1156.1156,0,0,1-.111.08064.21607.21607,0,0,1-.17971-.07469.42331.42331,0,0,1-.05186-.07473.05881.05881,0,0,1,.0051-.051.16031.16031,0,0,1,.06629-.06.99707.99707,0,0,0,.23037-.11016C3.44819,3.92028,3.50329,3.95782,3.50127,4.0266Z"/>
    <path
        d="M2.77016,1.01368c-.03182.02663-.05917.05087-.088.07317a.06582.06582,0,0,1-.0692-.002.12161.12161,0,0,1-.05821-.06814A.49981.49981,0,0,0,2.47842.87029c.0542-.05881.13291-.05346.20766-.08305.0199-.01887.04648-.04369.07261-.069.04753-.046.0766-.04357.11784.01163A.21823.21823,0,0,1,2.894.771L2.85417.888l.02447.08206L2.86957.98538C2.84093.99439,2.81187,1.002,2.77016,1.01368Z"/>
    <path
        d="M1.38176,4.05743c-.00592.05138-.05958.07558-.069.12788-.00986.05479-.05878.05975-.10093.04033A.12687.12687,0,0,1,1.13,4.13253a.18994.18994,0,0,0-.05732-.11263.03862.03862,0,0,1-.01-.01545.131.131,0,0,1-.00283-.09009.08433.08433,0,0,1,.05344-.04685.11544.11544,0,0,1,.03579.0043c.05539.02609.11054.05281.16466.08143C1.34323,3.96885,1.3606,3.99906,1.38176,4.05743Z"/>
    <path
        d="M.657,2.40181c-.02808.02222-.04638.03775-.06573.05182-.04736.03443-.08065.0217-.08859-.0343-.00339-.02388-.0036-.0482-.00449-.0611C.5059,2.30644.54294,2.28978.56533,2.262c.01873-.02323.04024-.04422.05655-.0619.0202,0,.03444-.00434.04349.00068a.44045.44045,0,0,1,.17982.19686c.00256.00591-.00916.02475-.0173.02713a.12279.12279,0,0,1-.05272.00247C.73946,2.4214.70432,2.41224.657,2.40181Z"/>
    <text x="0" y="20" fill="#000000" font-size="5px" font-weight="bold"
          font-family="'Helvetica Neue', Helvetica, Arial-Unicode, Arial, Sans-serif">Created by Alice Noir
    </text>
    <text x="0" y="25" fill="#000000" font-size="5px" font-weight="bold"
          font-family="'Helvetica Neue', Helvetica, Arial-Unicode, Arial, Sans-serif">from the Noun Project
    </text>
</svg>
