<svg xmlns="http://www.w3.org/2000/svg" data-name="Layer 1" viewBox="0 0 5 6.25" x="0px" y="0px">
    <title>magic_witch_HALLOWEEN_mistery_magician</title>
    <path
        d="M3.1226,3.54887a.54692.54692,0,0,0,.404-.26856A.73737.73737,0,0,0,3.644,2.97922a2.6765,2.6765,0,0,0,.00146-.91169.47854.47854,0,0,0-.09415-.21368A.25978.25978,0,0,0,3.2977,1.738c-.0781.01047-.15687.01619-.23544.02286a1.1939,1.1939,0,0,0-.59717.23676.66526.66526,0,0,0-.12707.12254,1.822,1.822,0,0,0-.29266.47671q-.0973.24764-.18513.499a1.49344,1.49344,0,0,1-.47788.69485,1.96376,1.96376,0,0,1-.41875.27344A.8697.8697,0,0,1,.67953,4.138c-.03405.003-.0743-.01372-.07106-.03222a.1034.1034,0,0,1,.01786-.053c.04844-.04885.10111-.09347.15069-.14124a1.0449,1.0449,0,0,0,.24-.33367A1.998,1.998,0,0,0,1.1846,3.106a1.3102,1.3102,0,0,1,.05173-.16909,2.70008,2.70008,0,0,0,.10218-.33878,1.66739,1.66739,0,0,1,.268-.5846,2.388,2.388,0,0,1,.78056-.62019.5793.5793,0,0,1,.111-.03975c.144-.03291.28812-.06535.43316-.09293a.76731.76731,0,0,1,.14693-.00321c.10835.00077.21674.0012.325.00408a1.32735,1.32735,0,0,0,.69849-.21027,1.97038,1.97038,0,0,0,.18137-.15c.028-.021.05877-.05245.10265-.03394a.14279.14279,0,0,1,.00417.05355c-.07044.20491-.14311.40905-.21417.61375-.0128.03685-.02137.0752-.03107.11308a1.323,1.323,0,0,0,.01844.64261.69184.69184,0,0,1,.0225.23314.76151.76151,0,0,0,.00337.17674,1.06447,1.06447,0,0,1-.09136.51838.59033.59033,0,0,1-.07284.12784c-.028.0403-.06515.07427-.09354.11437a1.20735,1.20735,0,0,1-.57566.39717.42372.42372,0,0,1-.11453.02677c-.19614.01956-.39251.03671-.58881.05464a.12973.12973,0,0,1-.0295.00142,3.39541,3.39541,0,0,0-.70731.02231.54154.54154,0,0,1-.11515-.01262c-.006-.00092-.01275-.0122-.01476-.01984a.03809.03809,0,0,1,.00122-.02824.13148.13148,0,0,1,.041-.04077.90552.90552,0,0,1,.309-.09533c.13719-.0145.27422-.03065.41147-.04448a1.574,1.574,0,0,0,.48914-.10612.18058.18058,0,0,0,.09059-.07135Z"/>
    <path
        d="M3.12788,3.54428a.36174.36174,0,0,1-.14662-.09469,2.40813,2.40813,0,0,1-.30252-.43274,1.05862,1.05862,0,0,1-.101-.7128.83985.83985,0,0,1,.04217-.13992c.02345-.06405.04992-.127.076-.1901A.09754.09754,0,0,1,2.821,1.933a.36143.36143,0,0,1,.071.05062,1.72134,1.72134,0,0,1,.336.51354.85063.85063,0,0,1,.05271.5176c-.01613.0765-.03608.15242-.05864.2273-.031.10292-.06615.20461-.09953.30682Z"/>
    <text x="0" y="20" fill="#000000" font-size="5px" font-weight="bold"
          font-family="'Helvetica Neue', Helvetica, Arial-Unicode, Arial, Sans-serif">Created by Alice Noir
    </text>
    <text x="0" y="25" fill="#000000" font-size="5px" font-weight="bold"
          font-family="'Helvetica Neue', Helvetica, Arial-Unicode, Arial, Sans-serif">from the Noun Project
    </text>
</svg>
