<svg xmlns="http://www.w3.org/2000/svg" data-name="Layer 1" viewBox="0 0 5 6.25" x="0px" y="0px">
    <title>magic_witch_HALLOWEEN_mistery_magician</title>
    <path
        d="M2.08668,3.29335a.1893.1893,0,0,1-.03813.0282.4196.4196,0,0,1-.06661.01758.65613.65613,0,0,0-.15381.053c-.02116.01054-.04366.01682-.06544.02554-.02542.01018-.05121.01936-.076.03175-.06019.03014-.11987.06188-.18237.09434a.38326.38326,0,0,1-.15834-.073c-.04239-.03526-.08648-.06845-.12841-.10424a.48.48,0,0,1-.06558-.066c-.02383-.03011-.05175-.05555-.07782-.08311-.0545-.05762-.10645-.11792-.158-.17846a.25754.25754,0,0,1-.0392-.062c-.03612-.08135-.07139-.16326-.10481-.2462a.34753.34753,0,0,1-.03373-.12608.1673.1673,0,0,0-.01785-.06252.36772.36772,0,0,1-.02779-.12865A.51967.51967,0,0,0,.685,2.34661a.37266.37266,0,0,1-.00608-.15779A.12135.12135,0,0,0,.6797,2.15447a1.41184,1.41184,0,0,1,.05457-.439,1.73281,1.73281,0,0,1,.048-.17255.83535.83535,0,0,1,.1371-.24482.97874.97874,0,0,1,.16984-.17759,1.39042,1.39042,0,0,1,.14017-.095c.0342-.019.07361-.02355.10947-.03929A.266.266,0,0,1,1.47124.96707a.49388.49388,0,0,1,.224.0571.36608.36608,0,0,0,.09658.0394.29416.29416,0,0,1,.10866.05939c.04576.03654.09018.07475.13476.11275a.151.151,0,0,1,.02845.03.50621.50621,0,0,0,.0755.08547.23512.23512,0,0,1,.06382.09525,2.32953,2.32953,0,0,0,.10784.23161.26713.26713,0,0,1,.02072.04932.74879.74879,0,0,0,.05689.13852c.056.12312.09987.25305.15075.379.03357.08313.0546.17244.08479.25719a.06361.06361,0,0,1-.00155.02265c-.00639.00563-.01348.006-.017-.00157-.03-.06433-.05943-.129-.08919-.19352-.00744-.01612-.0146-.03251-.02338-.04767a1.57341,1.57341,0,0,1-.12283-.27184.97255.97255,0,0,0-.05277-.11671q-.04775-.09477-.09846-.18755a.04654.04654,0,0,0-.04005-.0296c-.00394.00646-.01122.01343-.01115.019a1.19631,1.19631,0,0,1-.04664.324,1.65659,1.65659,0,0,0-.03636.174,1.098,1.098,0,0,0-.03389.19671c.00181.06026-.01054.12331-.008.18413a.14314.14314,0,0,1-.007.03313c-.00865-.00156-.018-.0003-.02138-.0045a.05693.05693,0,0,1-.013-.02832,1.15248,1.15248,0,0,1,.00611-.3429c.01907-.10445.03219-.20905.04609-.31352a.40985.40985,0,0,0,.002-.09165c-.00633-.06716-.01482-.13377-.02477-.19982-.002-.01329-.01436-.02312-.022-.03454.005-.01018.00438-.01333-.00127-.00858l.00349.00812a.15281.15281,0,0,0-.03594.06351c-.03374.11908-.07436.237-.09711.35786a1.662,1.662,0,0,0-.03166.30109c-.00009.02288-.00078.046-.003.06908-.0005.00511-.00885.01082-.01362.01629-.00459-.00416-.01188-.00709-.0133-.01259A.71653.71653,0,0,1,1.80364,2.15c.01-.12365.03494-.24769.05417-.37157.01324-.08528.02933-.17059.04293-.25587A.71439.71439,0,0,0,1.90953,1.43a.08326.08326,0,0,0-.02138-.05994c-.014-.01512-.02747-.03154-.05355-.02863a.07144.07144,0,0,0-.01371.01781,2.71548,2.71548,0,0,0-.0879.32326c-.01637.08128-.0362.16245-.04528.24394a.10752.10752,0,0,1-.01421.033l-.01035.00283-.00776-.00542a.115.115,0,0,1-.00332-.033c.011-.09666.02282-.19337.03452-.29007.007-.058.01359-.11609.02167-.17417.00806-.0579.01775-.11585.02594-.1687a.11585.11585,0,0,0-.0962-.063.05.05,0,0,0-.0529.00778A3.45776,3.45776,0,0,0,1.5356,1.64l-.00663.01c-.00825.00512-.01561.00364-.01817-.0043a.22794.22794,0,0,1-.01407-.052c-.00343-.045-.0021-.09135-.00612-.13621a.97412.97412,0,0,0-.0422-.20486.13974.13974,0,0,0-.014-.02863.12365.12365,0,0,0-.013-.01581c-.076-.01389-.08373-.01239-.12263.024a.09089.09089,0,0,0,.00923.06494,1.34354,1.34354,0,0,1,.0872.30369,2.70948,2.70948,0,0,0,.11551.39752.93074.93074,0,0,0,.08952.19328.40262.40262,0,0,1,.035.06535,1.87644,1.87644,0,0,0,.21661.36057.12179.12179,0,0,0,.01844.02524c.06458.05212.11166.12311.17512.17591.07947.0661.16123.1297.24576.18921a.71841.71841,0,0,0,.13107.06276.15879.15879,0,0,0,.04407.00457c.004-.01451.012-.02808.00919-.03572a.73737.73737,0,0,1-.03278-.19664,1.23692,1.23692,0,0,1-.006-.318A.16812.16812,0,0,1,2.444,2.49031c.00227-.00567.01088-.01.0171-.01387l.00659.00563a1.08205,1.08205,0,0,1,.02289.234,1.1008,1.1008,0,0,0,.05092.36365A.14221.14221,0,0,0,2.6397,3.18c.00813.00252.02019-.00408.03235-.00691a.134.134,0,0,0-.00077-.03581,1.22954,1.22954,0,0,1-.05095-.2599q-.00365-.033-.0059-.06648L2.62179,2.803l.00994.00013a.12148.12148,0,0,1,.01423.02835c.02767.094.0543.18851.08238.28233.0083.02771.01983.05391.0306.08038a.1357.1357,0,0,0,.10845.08834L2.89,3.28426c.00584-.03856-.02093-.05917-.03219-.08791-.01177-.03-.02535-.05908-.03646-.08947a.344.344,0,0,1-.0255-.09189c.0099-.00732.01611-.00684.02.00034a1.12257,1.12257,0,0,1,.05458.10282,1.31185,1.31185,0,0,0,.08733.15692.17094.17094,0,0,0,.07422.07081,1.22961,1.22961,0,0,0,.21688.07716.02338.02338,0,0,0,.01774-.00991.04229.04229,0,0,0,.00185-.02186l-.00475-.00933c-.02126-.02747-.042-.05543-.06418-.082-.02664-.03195-.05526-.062-.08171-.09417a.53723.53723,0,0,0-.10052-.089.96188.96188,0,0,1-.22549-.25581.02194.02194,0,0,1,.00552-.03122c.01523.01778.03011.036.04587.05331a.42283.42283,0,0,1,.043.04481.63583.63583,0,0,0,.17919.15436c.00832.00586.02023.00065.02706-.01562-.01666-.05311-.03438-.10791-.05091-.16328a.07093.07093,0,0,1,.00149-.0558l.00885-.00425a.03323.03323,0,0,1,.01425.0127,1.751,1.751,0,0,0,.16711.3061,1.21606,1.21606,0,0,0,.07917.13663c.01613.018.029.03937.04625.056a.52191.52191,0,0,1,.06759.07844.16625.16625,0,0,0,.11079.07206.133.133,0,0,0,.03048-.002.08686.08686,0,0,0-.03227-.067.56535.56535,0,0,1-.13381-.32187.07074.07074,0,0,1,.00887-.03363l.018-.00469a.77353.77353,0,0,0,.11208.27654.24439.24439,0,0,0,.06392.06717c.004.00291.01154.00111.01858.00156-.00443-.03781-.03557-.06177-.03115-.10253l.006-.01048.0094-.00238a.09754.09754,0,0,1,.03205.0239,1.2671,1.2671,0,0,0,.13046.17584.63246.63246,0,0,0,.06529.0663c.061.05062.12346.09946.18572.14852a.375.375,0,0,0,.09727.05889.29451.29451,0,0,1,.09419.06323.13827.13827,0,0,1,.038.04891.36058.36058,0,0,0,.06927.10419.08069.08069,0,0,1,.008.02336c-.00909.00533-.01969.01594-.02742.01518a.13853.13853,0,0,1-.05016-.01446c-.09807-.05142-.19546-.104-.29307-.15615l-.00922-.00478a3.9609,3.9609,0,0,0-.38316-.14113l-.0308-.00792a.29542.29542,0,0,0-.18529.0197,1.1915,1.1915,0,0,0-.26575.163.01827.01827,0,0,1-.01891-.00223A.02493.02493,0,0,1,3.0632,3.87a.05692.05692,0,0,1,.01371-.02011c.01166-.01147.02522-.02092.03637-.03283q.042-.04492.08238-.09154a.099.099,0,0,0,.01065-.02476c-.0089-.00317-.0181-.01085-.02687-.00886a1.10282,1.10282,0,0,0-.16652.04245c-.14214.05625-.28591.10154-.42906.1511a.52176.52176,0,0,1-.21047.033,2.20256,2.20256,0,0,1-.24728-.02431.38224.38224,0,0,1-.1447-.05634l-.00262-.01093a.15169.15169,0,0,1,.08556.00525,1.04622,1.04622,0,0,0,.37951.01655A.32824.32824,0,0,1,2.477,3.84733a.21962.21962,0,0,0,.11975-.04016.44178.44178,0,0,1,.1062-.05181c.09145-.03392.18251-.06985.27387-.10424.04723-.01778.09478-.0339.1421-.05121l.00547-.009L3.122,3.58037a.04447.04447,0,0,0-.01584-.0129q-.14272-.05207-.286-.103A.1147.1147,0,0,0,2.77865,3.456a.81538.81538,0,0,0-.18833.01536c-.04445.01177-.08921.01964-.13381.02961a.26237.26237,0,0,0-.04446.01193,1.69111,1.69111,0,0,1-.37792.087.91393.91393,0,0,0-.21095.049.16226.16226,0,0,1-.0222.00631c-.03109.00826-.05555.00006-.05271-.01751a.054.054,0,0,1,.03969-.0412c.04747-.01757.09526-.03418.14325-.048a.98774.98774,0,0,0,.1536-.055c.05351-.02536.10889-.04375.16385-.06369a1.68006,1.68006,0,0,0,.24059-.09073c.00844-.00458.01342-.02482.00767-.03069l-.00654-.00791a.17122.17122,0,0,0-.02428-.01918c-.057-.03245-.11338-.06592-.17191-.09575a.53474.53474,0,0,1-.07947-.04825,1.79018,1.79018,0,0,1-.26009-.21989.39744.39744,0,0,0-.16771-.11876.4443.4443,0,0,1-.10213-.05119.98855.98855,0,0,0-.28063-.11168.44329.44329,0,0,1-.066-.03l0,.00231a.095.095,0,0,1,.06531-.011,1.23732,1.23732,0,0,1,.27149.05441.06722.06722,0,0,0,.021-.00026l-.00269-.00956c-.04525-.04732-.08794-.09768-.13685-.14073-.06464-.05691-.13367-.10874-.20193-.16131a.76124.76124,0,0,0-.07052-.04293c-.02391-.01455-.02648-.01875-.04334-.06682.00634.00061.01426-.00094.01874.00222a.43292.43292,0,0,0,.10225.05033.52472.52472,0,0,1,.15488.08348.13225.13225,0,0,0,.02762.01353c.004-.00806.01121-.01662.00983-.02083a.66091.66091,0,0,0-.10927-.20417c-.03211-.04095-.06619-.08018-.097-.12225a.44152.44152,0,0,0-.08572-.08967q-.094-.07281-.18786-.14578a.14994.14994,0,0,1-.05289-.0497L1.037,1.7418a.43018.43018,0,0,1,.12972.06487.16865.16865,0,0,0,.04439.02658.64561.64561,0,0,1,.1565.10018c.0106.00841.02263.015.03344.02209.00636-.008.013-.01327.01441-.019a.04215.04215,0,0,0-.00156-.02216c-.046-.14115-.07278-.29063-.11041-.43541-.01841-.07085-.04609-.1366-.06794-.20549a.0334.0334,0,0,0-.03719-.01358.45771.45771,0,0,0-.12041.07931.12578.12578,0,0,0-.01545.01921.03728.03728,0,0,0-.00054.04234c.02.019.03992.03808.0608.056a.7612.7612,0,0,1,.10675.11284.24657.24657,0,0,1,.04131.08566.02816.02816,0,0,1-.006.02124l-.01837.0032a.33819.33819,0,0,1-.05068-.05117.2363.2363,0,0,0-.11368-.08683c-.02961-.01064-.058-.02386-.08767-.03442A.11688.11688,0,0,0,.96364,1.505a.28859.28859,0,0,0-.05929.09459,1.09827,1.09827,0,0,0-.09273.32435.366.366,0,0,0,.03129.03866c.01741.01669.037.03091.05537.04661.02268.01942.02889.03687.0162.04377a.03348.03348,0,0,1-.03886-.006c-.01739-.01122-.03436-.0231-.05235-.03338A.05411.05411,0,0,0,.803,2.01128a.32545.32545,0,0,0-.02232.17A.0575.0575,0,0,0,.7952,2.209a.263.263,0,0,0,.10213.069,1.155,1.155,0,0,0,.18373.04978.07482.07482,0,0,1,.05408.02826.02247.02247,0,0,1,.00111.01994.0264.0264,0,0,1-.01869.01138.54162.54162,0,0,1-.167-.03108C.90225,2.33429.84838,2.33006.8,2.3125c-.01873.0282-.01873.0282-.00712.09952a.16067.16067,0,0,0,.01661.02459.26077.26077,0,0,0,.12035.07811.53808.53808,0,0,1,.07693.03205l.004.00866c-.00382.00585-.009.0143-.01392.01546a.12735.12735,0,0,1-.04394.00482C.92094,2.57138.89017,2.56293.85823,2.5586.84935,2.5574.838,2.56478.82884,2.56789a.06181.06181,0,0,0,.017.06312.27357.27357,0,0,0,.16468.0832c.05016.00542.1.01208.14992.01844.01582.002.02739.01418.02018.01913a.08371.08371,0,0,1-.02932.0149.25807.25807,0,0,1-.129-.00959.31177.31177,0,0,0-.13146-.00769A.1044.1044,0,0,0,.88231,2.783a.27416.27416,0,0,0,.0622.13972c.01331.002.03045.00586.04818.0071.13005.0091.26026.0175.39031.02663a.33532.33532,0,0,1,.05284.0086c.00569.00133.01271.007.01312.0123a.02462.02462,0,0,1-.01275.01614.34208.34208,0,0,1-.08856.02321,1.28992,1.28992,0,0,1-.26451.00933.06889.06889,0,0,0-.03259.00323c-.0047.00149-.0083.0112-.01243.01721a1.29258,1.29258,0,0,0,.18081.212.07736.07736,0,0,0,.064.00253,1.42664,1.42664,0,0,1,.27839-.05064,1.2024,1.2024,0,0,0,.13388-.02381.75.75,0,0,1,.19914-.01284c.01417.001.02781.00432.03883.00611.00625.01193.00422.01947-.0046.02191-.03323.00918-.06652.018-.09985.02583-.05943.01391-.119.02606-.17836.04067a.8848.8848,0,0,1-.15557.03287.50538.50538,0,0,0-.151.05415c.00182.00661.00153.01594.00588.01933a.1717.1717,0,0,0,.04344.02723c.02931.011.06022.01879.09388.02894a.63976.63976,0,0,0,.07443-.02261,1.5592,1.5592,0,0,1,.254-.08143.66931.66931,0,0,0,.09988-.02717.30774.30774,0,0,1,.15356-.01386c.00662.00061.01192.00658.01783.01007Z"/>
    <path
        d="M2.2754,2.70588a.06237.06237,0,0,1-.02085-.05616c.00133-.0684.00291-.13687.0061-.20554.00621-.13358.02617-.268.04383-.39982.011-.008.01781-.008.02183-.001a.28679.28679,0,0,1,.024.18405c-.01266.096-.02923.19215-.04291.2882-.00547.03839-.008.07672-.01129.115A.15873.15873,0,0,1,2.2754,2.70588Z"/>
    <path
        d="M2.08659,3.29578a.05553.05553,0,0,1,.05119-.01125c.00765.00212.0098.00883.00555.01677l-.00969.00583a.049.049,0,0,1-.047-.01376Z"/>
    <path d="M1.33819,2.60588l-.00858.00418c-.00321-.00452.00009-.0055.00862-.00187Z"/>
    <text x="0" y="20" fill="#000000" font-size="5px" font-weight="bold"
          font-family="'Helvetica Neue', Helvetica, Arial-Unicode, Arial, Sans-serif">Created by Alice Noir
    </text>
    <text x="0" y="25" fill="#000000" font-size="5px" font-weight="bold"
          font-family="'Helvetica Neue', Helvetica, Arial-Unicode, Arial, Sans-serif">from the Noun Project
    </text>
</svg>
