<svg xmlns="http://www.w3.org/2000/svg" data-name="Layer 1" viewBox="0 0 5 6.25" x="0px" y="0px">
    <title>magic_witch_HALLOWEEN_mistery_magician</title>
    <path
        d="M2.58032,1.32838l-.07969-.02171c-.04854.008-.09675.01551-.14475.02412-.07865.01409-.1567.033-.23589.04215a1.69164,1.69164,0,0,0-.1829.03588c-.13416.03075-.26811.06242-.40222.09341-.03868.00894-.07761.01685-.11588.02511-.01765-.03-.01744-.04368-.00292-.05844a.09625.09625,0,0,1,.07-.0344.94222.94222,0,0,0,.27322-.05335c.08169-.02116.1638-.04069.24564-.06129.04875-.01227.0644-.03518.05833-.088-.00355-.03084-.01039-.06128-.015-.092a.09424.09424,0,0,1,.04171-.0923.17781.17781,0,0,1,.04623-.02591A.93683.93683,0,0,1,2.3318.98521.19543.19543,0,0,0,2.42351.9821a.657.657,0,0,1,.09314-.004c.05782-.00018.11567-.00033.17344.00163.03982.00134.07955.0059.11926.00966a1.0007,1.0007,0,0,0,.11912.01173,2.09024,2.09024,0,0,1,.40758.06208.53078.53078,0,0,1,.12245.0514c.02015.00919.03911.021.05923.03191l.08372.10361a.29587.29587,0,0,1,.00081.17086l-.046.167L3.538,1.65146a.15783.15783,0,0,0,.0276.03115.16149.16149,0,0,0,.03774.01224c.05487.01778.11025.03418.16438.054a1.83307,1.83307,0,0,0,.20252.06624,1.011,1.011,0,0,1,.165.05248,3.28979,3.28979,0,0,0,.32663.11575.20556.20556,0,0,1,.13078.1105.12831.12831,0,0,1-.011.07414c-.06078.17657-.12025.35347-.16685.53457-.02211.08592-.04813.17121-.07856.25452q-.05942.16263-.1274.3222c-.03844.08982-.07513.18024-.1187.26781a.77425.77425,0,0,0-.02557.0757.62414.62414,0,0,1-.04033.09841.42989.42989,0,0,0-.04741.12336.14356.14356,0,0,1-.14285.11783.73945.73945,0,0,1-.13273-.0055,1.26276,1.26276,0,0,1-.29725-.0717A.15549.15549,0,0,0,3.36591,3.873.78277.78277,0,0,1,3.149,3.81164a1.56743,1.56743,0,0,1-.3115-.11654.35283.35283,0,0,1-.13831-.10226l-.04178-.04921a.35958.35958,0,0,0-.0696.00073.95974.95974,0,0,1-.158.02344.466.466,0,0,0-.13717.03354c-.02961.15155-.02961.15155-.115.24091a.47252.47252,0,0,1-.20255.04566.51566.51566,0,0,0-.17007.02766c-.04586.01547-.09683.01589-.14257.0316a.482.482,0,0,1-.14474.02058L1.42095,4.013a.83548.83548,0,0,1-.24117.00061l-.14118-.0813a.71256.71256,0,0,1-.09523-.2002.996.996,0,0,0-.10173-.21637c-.0395-.06423-.07291-.13239-.10627-.20016a3.951,3.951,0,0,1-.17674-.38836C.5237,2.8313.49546,2.73284.46747,2.6346a2.85948,2.85948,0,0,1-.05373-.28785C.40912,2.32062.41136,2.29334.4076,2.267a.18.18,0,0,1,.08752-.18167.496.496,0,0,1,.17733-.08945c.03037-.00659.05984-.01746.09026-.02375A.4668.4668,0,0,0,.85094,1.943c.06945-.02947.13985-.05681.21053-.08325A.40938.40938,0,0,1,1.17755,1.831a.29394.29394,0,0,0,.06462-.01509c.091-.02778.10708-.02935.10208-.13882-.00142-.031-.00534-.06334.02129-.08692a.02315.02315,0,0,1,.02255.0005.21308.21308,0,0,1,.03336.09942,1.114,1.114,0,0,0,.03838.15506.70486.70486,0,0,1,.0195.09086c.00533.03055.0067.06188.01336.09208a1.48054,1.48054,0,0,1,.04611.2484.94841.94841,0,0,0,.03022.14315c.01447.06947.03139.13867.04086.20885a.84372.84372,0,0,0,.02895.12978,3.46926,3.46926,0,0,1,.08754.36259,1.94518,1.94518,0,0,1,.02137.22554,1.2172,1.2172,0,0,0,.02662.16385.07753.07753,0,0,0,.06487.02865.37609.37609,0,0,0,.0789-.01059c.05589-.01449.111-.03182.16649-.048.15344-.04481.30982-.07815.46449-.11821a.72044.72044,0,0,1,.09256-.01193A.137.137,0,0,0,2.74678,3.277a.24342.24342,0,0,0,.03656-.11311c.00171-.03993.00194-.08008-.00026-.12-.00318-.05753-.00755-.1151-.01457-.17226a.19851.19851,0,0,1,.00233-.07895.27765.27765,0,0,0,.00486-.13231c-.01327-.06134-.01188-.12409-.02237-.185-.02031-.11807-.02675-.2382-.05444-.35506a.28209.28209,0,0,1-.013-.06514,2.13224,2.13224,0,0,0-.03245-.27778.367.367,0,0,1-.00624-.1183.185.185,0,0,0-.00383-.07927.92355.92355,0,0,1-.02251-.15824A.1429.1429,0,0,0,2.58032,1.32838Zm1.32045,2.24a1.63022,1.63022,0,0,1,.086-.27q.04181-.10507.08249-.21059a2.19964,2.19964,0,0,0,.08289-.22464,1.13211,1.13211,0,0,1,.09548-.21837.55452.55452,0,0,0,.03083-.08766,2.64848,2.64848,0,0,1,.09993-.28939c.02115-.04852.03832-.09878.05725-.14812-.011-.01286-.01752-.02819-.028-.03162a1.87577,1.87577,0,0,1-.2527-.11874.26038.26038,0,0,0-.10092-.0314.41207.41207,0,0,1-.16435-.05c-.063-.03275-.12751-.06276-.192-.09248a.48174.48174,0,0,0-.15321-.04291.06167.06167,0,0,0-.05659.02262c-.01086.02744-.02556.06429-.0399.10128a.02672.02672,0,0,0-.001.01308l.00472.01121.01016.00815c.04334.00956.08689.01818.13021.02782q.05846.013.11655.02762a.1316.1316,0,0,1,.06568.0434l.00844.0103c.008.00944.00871.03055.00012.0359-.00722.0045-.01644.01078-.02361.00954-.05667-.00983-.11347-.01954-.16943-.03272A.8706.8706,0,0,0,3.419,1.99843a.36113.36113,0,0,0-.03833.037.24014.24014,0,0,0-.03943.08375c-.04828.17092-.12179.33364-.1649.50634a.35416.35416,0,0,1-.02767.07488.52036.52036,0,0,0-.05151.17817c-.00522.044-.01314.08777-.02175.13126a.50683.50683,0,0,1-.01779.05748l-.07131.05152-.0537.28942A.3985.3985,0,0,1,2.8948,3.443c-.03928.02827-.07956.05514-.118.08157a.0617.0617,0,0,0,.02579.05967.14765.14765,0,0,0,.04535.02712.62954.62954,0,0,0,.142.03432.49993.49993,0,0,1,.09174.01456c.176.04591.35694.0691.533.11482a.40431.40431,0,0,0,.09258.007.10486.10486,0,0,0,.08215-.0379.37874.37874,0,0,0,.03992-.05286C3.85264,3.65359,3.874,3.61472,3.90076,3.5684Zm-1.81223.12742a.26332.26332,0,0,0,.03056-.02857.08919.08919,0,0,0,.01031-.02431A.038.038,0,0,0,2.099,3.59422a.2687.2687,0,0,0-.09155.0137A.31837.31837,0,0,1,1.811,3.6037c-.02065-.00762-.04324-.00984-.06461-.01572a.17192.17192,0,0,1-.02782-.01413l-.04-.04249c-.01635-.05486-.03036-.10619-.047-.15665A1.01932,1.01932,0,0,1,1.587,3.1536a1.50784,1.50784,0,0,0-.0347-.19621c-.009-.039-.01615-.07786-.02216-.11744-.01262-.08312-.02755-.16622-.0478-.24777a1.88631,1.88631,0,0,1-.05733-.354,1.13841,1.13841,0,0,0-.03527-.19614.05827.05827,0,0,0-.06019-.04243,1.26926,1.26926,0,0,0-.15789.02179c-.05223.01324-.10591-.00046-.15765.018a.11672.11672,0,0,1-.1125-.02414A.10026.10026,0,0,0,.87663,2.0053a.21163.21163,0,0,0-.11755.058.92728.92728,0,0,0-.20877.23917.07748.07748,0,0,0-.00449.026,1.01384,1.01384,0,0,0,.05908.23132c.03465.07731.05893.158.08739.23729.01049.02923.01972.05907.03256.08726.06992.15351.13815.30787.21211.45942a3.55089,3.55089,0,0,1,.19213.40957.07432.07432,0,0,0,.07.05283.15674.15674,0,0,0,.09462-.01028.22717.22717,0,0,0-.02416-.02719c-.01684-.01382-.03661-.02439-.052-.03952-.01014-.01-.00639-.02415.00826-.03677.03161.00408.06591.01.10045.01253a.23227.23227,0,0,1,.10592.011l.0221.05432c.07371-.00644.14422-.01212.21461-.019.02639-.00257.05263-.00722.07874-.012a1.80289,1.80289,0,0,1,.27654-.03634C2.04611,3.70232,2.068,3.69817,2.08853,3.69582Zm.89511-1.01018c.021-.004.02738-.0222.03281-.03814.03573-.10488.0671-.211.095-.31834a2.09177,2.09177,0,0,1,.08145-.25326,1.98042,1.98042,0,0,1,.09219-.26273,1.46236,1.46236,0,0,1,.10527-.27246,1.01618,1.01618,0,0,0,.05355-.19818.05868.05868,0,0,0-.03863-.04138,1.65826,1.65826,0,0,0-.18137-.04078,1.82456,1.82456,0,0,0-.31571-.04378c-.1105-.00733-.22126-.0162-.33064-.03275-.06587-.01-.13217-.0157-.19773-.02634-.07017-.01139-.14159-.00014-.21116-.01573a.02.02,0,0,0-.01283.0018c-.00752.00407-.01737.00785-.02091.01457a.12809.12809,0,0,0-.00462.11439.04527.04527,0,0,0,.03195.01982.223.223,0,0,0,.0525-.00423c.09228-.0106.18144-.04012.2749-.04447a.22871.22871,0,0,0,.06358-.01737.11736.11736,0,0,1,.09056.00552c.04.018.07906.0379.11931.05736a.2511.2511,0,0,1,.0478.13549c.0068.09728.034.1923.03226.2906a.13375.13375,0,0,0,.00538.0395.70717.70717,0,0,1,.019.14492c.00214.02652.00451.05316.00927.0793.02934.16134.05785.32267.07735.48571.00791.06611.01538.13193.01891.19835A.06964.06964,0,0,0,2.98365,2.68564Z"/>
    <path
        d="M1.60694,1.67912c.03088-.01111.06349-.02471.09718-.03463a3.99187,3.99187,0,0,1,.398-.10025,1.316,1.316,0,0,0,.128-.03245c.02965-.00863.05962-.01614.091-.02456l.12527.03422a.19945.19945,0,0,1,.11072.15793c-.02247.04108-.02261.04091-.08012.05626a.07723.07723,0,0,1-.02286-.0126.315.315,0,0,1-.04-.0525.14128.14128,0,0,0-.16733-.07615c-.08275.01864-.16769.01411-.25.02805a1.95308,1.95308,0,0,0-.29625.06961.37282.37282,0,0,1-.07667.01817C1.61031,1.71171,1.60221,1.69872,1.60694,1.67912Z"/>
    <path
        d="M2.23736,2.55268a.05286.05286,0,0,1-.06793-.00508c-.04554-.04753-.08992-.09628-.13267-.14634a.0843.0843,0,0,1,.00039-.10951.06559.06559,0,0,1,.05559-.03c.03054.00052.061.00428.0955.00695.01649-.00829.0355-.01939.05567-.02764a.06271.06271,0,0,1,.0873.05208.15762.15762,0,0,1-.00714.09065c-.007.01611-.01436.03213-.02261.04763C2.27889,2.47382,2.258,2.51722,2.23736,2.55268Z"/>
    <path
        d="M2.11887,3.38112a.33454.33454,0,0,1-.17962-.04329.13158.13158,0,0,1-.04037-.03377.30188.30188,0,0,1-.06452-.14335A.11537.11537,0,0,1,1.83969,3.122c.00221-.01054.02231-.02463.02956-.02069.00745.00406.0169.00925.01965.01624.008.02029.0122.042.01949.06264a.44911.44911,0,0,0,.02535.06064.05547.05547,0,0,0,.05411.03162c.035-.00278.06974-.00982.10467-.01442a.46506.46506,0,0,1,.06553-.00624.06433.06433,0,0,1,.05464.032.05271.05271,0,0,1-.01944.07879.17324.17324,0,0,1-.0369.014A.28751.28751,0,0,1,2.11887,3.38112Z"/>
    <path
        d="M3.61456,2.97868c.00792.02058.01684.04084.02354.06181a.05933.05933,0,0,1-.0342.07665A.2725.2725,0,0,1,3.56214,3.13c-.06011-.01973-.12292-.04028-.18565-.06109l-.01126-.007a.03641.03641,0,0,1-.00885-.04708c.01858-.01856.03775-.03655.05784-.0559C3.411,2.9146,3.365,2.89759,3.34816,2.852V2.76146a.25361.25361,0,0,1,.01792-.02756.70931.70931,0,0,1,.20779-.14055.09722.09722,0,0,1,.11192.01645.15351.15351,0,0,1,.06213.11314,1.10992,1.10992,0,0,0,.02056.17156.11808.11808,0,0,1-.0001.02645.06509.06509,0,0,1-.04955.0558c-.03527.00267-.07075.00268-.10613.00383-.00361-.01273-.007-.015-.009-.00647Z"/>
    <path
        d="M4.10276,2.17A.03837.03837,0,0,1,4.1482,2.153a.12179.12179,0,0,1,.09557.10746c-.01487.07424-.02664.15769-.04915.23813a1.64748,1.64748,0,0,1-.083.22319.52893.52893,0,0,1-.06939.0961q-.05182.06838-.10463.136L3.926,2.958c-.00556-.00465-.01435-.01224-.01336-.01688a1.51817,1.51817,0,0,1,.03653-.154c.04517-.13854.09257-.27636.14083-.41386A.24341.24341,0,0,0,4.10276,2.17Z"/>
    <path
        d="M3.11266,3.45084a.24852.24852,0,0,1,.1571.085A.02156.02156,0,0,1,3.27,3.5569a.02616.02616,0,0,1-.0229.00692q-.0743-.03965-.14677-.08265c-.00551-.00326-.00645-.01426-.0095-.02167Z"/>
    <path
        d="M1.11775,2.897A1.12133,1.12133,0,0,1,1.20069,2.597a.18676.18676,0,0,1,.03627.00061.04683.04683,0,0,1,.02215.014.8336.8336,0,0,0,.12244.10148.23388.23388,0,0,1,.04065.04886.23424.23424,0,0,1-.00691.04233.36993.36993,0,0,0-.02873.20681c.00377.01858-.026.04029-.04687.03641a.07589.07589,0,0,1-.03726-.0115,1.306,1.306,0,0,0-.1625-.11316A.17177.17177,0,0,1,1.11775,2.897Z"/>
    <path
        d="M1.2999,2.082a.41528.41528,0,0,1,.0435.01959.029.029,0,0,1,.00341.04532.15646.15646,0,0,1-.03387.02055,1.10034,1.10034,0,0,1-.12806.03635,2.43438,2.43438,0,0,0-.38464.10727.11694.11694,0,0,1-.07594.01593.01773.01773,0,0,1-.00993-.0085l.00029-.01274a.05871.05871,0,0,1,.01711-.01908.48632.48632,0,0,1,.0594-.03014c.15648-.06361.31474-.1223.47685-.17011A.24806.24806,0,0,1,1.2999,2.082Z"/>
    <path
        d="M3.1473,1.44456c-.03429-.02065-.07038-.0126-.093-.03829a.01764.01764,0,0,1-.00265-.01261l.00609-.00957a.19884.19884,0,0,1,.1543.0137.08314.08314,0,0,1,.04725.0882,1.2145,1.2145,0,0,1-.02339.15792.20336.20336,0,0,1-.13725.15114A.02792.02792,0,0,1,3.0742,1.792a.06484.06484,0,0,1-.01494-.03467.08388.08388,0,0,1,.01018-.03806c.01912-.04011.04026-.07926.05925-.11943.01135-.024.02089-.049.0298-.074C3.16483,1.508,3.16176,1.49228,3.1473,1.44456Z"/>
    <text x="0" y="20" fill="#000000" font-size="5px" font-weight="bold"
          font-family="'Helvetica Neue', Helvetica, Arial-Unicode, Arial, Sans-serif">Created by Alice Noir
    </text>
    <text x="0" y="25" fill="#000000" font-size="5px" font-weight="bold"
          font-family="'Helvetica Neue', Helvetica, Arial-Unicode, Arial, Sans-serif">from the Noun Project
    </text>
</svg>
