<svg xmlns="http://www.w3.org/2000/svg" data-name="Layer 1" viewBox="0 0 5 6.25" x="0px" y="0px">
    <title>magic_witch_HALLOWEEN_mistery_magician</title>
    <path
        d="M1.69668,1.07816l-.04209.03973a.1181.1181,0,0,0-.00968.02679.83235.83235,0,0,0,.05519.327.28043.28043,0,0,0,.15553.05774,1.65538,1.65538,0,0,0,.33675.0235c.02318-.00179.04668.00047.07.001a.76138.76138,0,0,0,.24332-.01857,1.06369,1.06369,0,0,0,.25454-.06006.07566.07566,0,0,0,.02918-.05508,1.34921,1.34921,0,0,0-.00624-.23276l-.00629-.00773c-.00681.00269-.01642.0034-.02.00841a.4101.4101,0,0,1-.27641.15632c-.02673.005-.05428.00588-.08082.01161a.44423.44423,0,0,1-.17389.00139.4898.4898,0,0,0-.06954-.00758.9193.9193,0,0,1-.305-.07257.77708.77708,0,0,1-.1219-.06734.10211.10211,0,0,1-.02846-.03621c-.00277-.00468.00142-.01348.00247-.02062.00685,0,.01523-.00261.0203.00039a.86143.86143,0,0,0,.26361.09075.39535.39535,0,0,0,.08113.00739c.08561.00036.17124-.0022.25683-.001a.72317.72317,0,0,0,.14857-.02738.86324.86324,0,0,0,.22107-.07265.16313.16313,0,0,0,.0979-.10861.02176.02176,0,0,1,.0376-.00379.25394.25394,0,0,1,.02506.05158.159.159,0,0,1,.00334.04639.57775.57775,0,0,0,.01623.13838,1.547,1.547,0,0,1,.02213.167.3331.3331,0,0,1-.06044.16765c-.04718.02813-.098-.006-.13.03741.00152.01144.0024.023.00464.03422a1.33777,1.33777,0,0,1,.0311.28936.9057.9057,0,0,0,.01968.19727l-.03141.05019-.01709.02454A.05153.05153,0,0,1,2.6744,2.208a.56889.56889,0,0,1-.04879-.22626c-.00013-.08561-.0018-.17122-.00324-.25682a.04256.04256,0,0,0-.02352-.04166c-.02632.00421-.05656.01028-.08711.01358-.027.00291-.05436.00316-.08158.00382-.03113.00076-.06228.00044-.09341.001-.018.00034-.019.00113-.05438.022A.40468.40468,0,0,0,2.2772,1.768c-.00067.0467-.00257.09357.00048.14009a.15033.15033,0,0,1-.06153.14278c-.0314.02278-.05076.05935-.08772.07592a.0274.0274,0,0,1-.03161-.00644.08358.08358,0,0,1-.01117-.02.66429.66429,0,0,1-.01647-.09149A.8144.8144,0,0,0,2.044,1.80124a.34247.34247,0,0,1-.00679-.08162.0983.0983,0,0,0-.1016-.04126c-.00549.00051-.01021.00928-.01566.0146a1.21037,1.21037,0,0,1,.04734.15529,1.23157,1.23157,0,0,1,.00745.16305.11826.11826,0,0,0,.00136.02327.20934.20934,0,0,1-.02964.15662c-.03452.06089-.065.12364-.09514.18675-.02168.04537-.05341.08581-.07775.13-.05052.09183-.10376.18208-.15151.27557a1.199,1.199,0,0,1-.11571.18877c-.026.0337-.04566.07222-.069.108-.09348.14345-.19271.28289-.29335.42139a1.38547,1.38547,0,0,0-.1375.21623,1.46615,1.46615,0,0,1-.09119.149.22657.22657,0,0,0-.03981.12012.2636.2636,0,0,1-.00866.06932A.36976.36976,0,0,0,.861,4.19513a.26459.26459,0,0,0,.07523.16645.61367.61367,0,0,0,.19032.15188.14426.14426,0,0,1,.02778.02076.02979.02979,0,0,1-.00113.04157.06957.06957,0,0,1-.01862.01346c-.02211.00719-.04474.01276-.06385.018a.20761.20761,0,0,1-.10033-.0386.67116.67116,0,0,1-.21661-.22489.28514.28514,0,0,1-.04293-.13194c-.00152-.03109-.00345-.06217-.0047-.09327a.60778.60778,0,0,1,.11032-.3627C.859,3.691.90225,3.62639.95,3.56458c.0855-.11077.16467-.22642.24668-.33989.07749-.10721.145-.22083.21521-.33272.04538-.07227.09609-.14118.14354-.21217.04538-.06788.08974-.13645.1343-.20489a.29022.29022,0,0,1,.01705-.03045A.91084.91084,0,0,0,1.835,2.19705a.76951.76951,0,0,0,.04083-.1575.27818.27818,0,0,0-.00348-.08107.85882.85882,0,0,1-.0143-.092A.83346.83346,0,0,0,1.824,1.66591c-.01508-.032-.04238-.04141-.06408-.05721-.022-.016-.04563-.02981-.06741-.04608a.15029.15029,0,0,1-.05715-.07229.61957.61957,0,0,1-.03262-.12364,1.07942,1.07942,0,0,1-.00541-.19809.17192.17192,0,0,1,.11791-.15884c.02559-.009.05263-.01367.07884-.02092.06361-.01759.1269-.03639.19078-.05287A.28613.28613,0,0,1,2.054.92736c.109-.00063.21811-.00357.32685.00162.07739.00369.15433.01831.23128.02939.03457.005.06878.01274.103.0202a.06689.06689,0,0,1,.03792.02527.038.038,0,0,1-.01567.05792.07891.07891,0,0,1-.057.00208A.90214.90214,0,0,0,2.56707,1.038,1.11223,1.11223,0,0,0,2.312,1.01677a.91.91,0,0,1-.1976-.01246.17267.17267,0,0,0-.08083.00074c-.10145.02817-.20681.03611-.30837.06287C1.71774,1.06988,1.71062,1.07311,1.69668,1.07816Z"/>
    <path
        d="M2.1364,3.91409a.42652.42652,0,0,0-.17014-.06385c-.00561-.00179-.0137.00421-.02065.0066-.00142.00692-.00554.01459-.00384.02063a1.39635,1.39635,0,0,0,.09709.2212.76418.76418,0,0,1,.05994.1494.06839.06839,0,0,1,.00293.02259.0295.0295,0,0,1-.02833.02993A.3072.3072,0,0,1,2.00669,4.239a.07607.07607,0,0,1-.01056-.02024l-.00173.00178c.02344-.02568.02344-.02568-.0001-.04933l.00164.00275a.05579.05579,0,0,0-.025-.04939L1.9726,4.127c-.00549-.01852-.00973-.03752-.01667-.05548-.0377-.09764-.07606-.195-.11315-.28982a.10429.10429,0,0,1,.02092-.05628c.04423-.08209.092-.16229.12927-.24807a.06355.06355,0,0,1,.05662-.0446c.04553.02489.09584.05326.14705.07989a.23442.23442,0,0,0,.0543.01846c.00458.00108.01541-.00686.01652-.01211a.08451.08451,0,0,0-.00053-.03446,1.57158,1.57158,0,0,0-.057-.15255c-.01555-.04765-.01916-.09887-.03889-.14593-.01037-.02473-.01748-.05083-.02607-.07633a.02785.02785,0,0,0-.04136.01043,1.12647,1.12647,0,0,0,.04542.11647c.00709.02209.01654.04345.0228.06574a.021.021,0,0,1-.00923.01847.02486.02486,0,0,1-.02123-.00472.23262.23262,0,0,1-.03127-.03389c-.02562-.03319-.05031-.06711-.07973-.09962L1.98589,3.241,1.97735,3.23c-.00709-.04793.01876-.09051.01938-.13086a.08431.08431,0,0,1,.05774-.046c.045-.01109.09023-.02156.1362-.03248a.86419.86419,0,0,0,.08747-.1519c.02155-.04992.04534-.09891.06943-.14767a.04893.04893,0,0,1,.0773-.02138c.10669.08407.21775.16217.32678.236a.31762.31762,0,0,1,.0348.12821,1.53222,1.53222,0,0,0,.02913.215c.01454.01366.02441.00742.03121-.00146a1.73116,1.73116,0,0,1,.17256-.1895.08225.08225,0,0,1,.05945-.02848.08612.08612,0,0,1,.02035.0148,1.69592,1.69592,0,0,1,.17072.291c.009.02031-.002.03611-.03075.03346l-.01607-.00524A1.57954,1.57954,0,0,0,3.06435,3.133a.07288.07288,0,0,0-.05029.03322c-.0409.05686-.0866.10965-.13288.162l-.00324.0114c.01266.01962.03375.01249.05154.01583l-.00133-.00186c-.01334.02424-.03928.02148-.06072.02854a.0403.0403,0,0,0-.02782.04517c.01542.11538.0307.23079.04655.34611a.41347.41347,0,0,0,.012.05688.76567.76567,0,0,1,.02958.21878,1.22676,1.22676,0,0,0,.03194.26193.04672.04672,0,0,0,.04147.0237,1.03677,1.03677,0,0,0,.26673-.01713,1.6244,1.6244,0,0,0,.3406-.07435.4271.4271,0,0,0,.20926-.14061c.02312-.02552.04188-.055.05965-.07867.01429-.0049.02189-.003.02624.00487.01491.02713.03.0542.04368.082s.02524.05663.03879.08449a.11372.11372,0,0,1,.006.08524L3.937,4.3617a.39388.39388,0,0,1-.13954.08384,1.091,1.091,0,0,1-.12477.02867,1.85787,1.85787,0,0,1-.39473.0246.15576.15576,0,0,1-.04636-.00222,1.63852,1.63852,0,0,0-.21832-.03237A.86075.86075,0,0,0,2.90894,4.456c-.04631-.00426-.09306-.00674-.13858-.01544a.58537.58537,0,0,0-.10394-.01183c-.07387-.00081-.14785-.004-.22161-.00138a.908.908,0,0,1-.264-.03117c.00547-.00465.00994-.01137.01581-.013a.81143.81143,0,0,1,.18457-.02337c.03881-.00144.07762-.00329.11635-.0061a.03917.03917,0,0,0,.03281-.05128.299.299,0,0,0-.01023-.03337,2.68634,2.68634,0,0,1-.11067-.33146c-.013-.04854-.03084-.09578-.04627-.14294-.03225.0047-.0321.0049-.05659.06961.00551.02208.01133.04851.01878.07448a.48211.48211,0,0,1,.01981.10271.60535.60535,0,0,0,.01557.09168.42945.42945,0,0,1,.00941.13885c-.00059.00558-.00784.01046-.012.0157-.00432-.006-.01123-.01146-.0125-.018-.01486-.07617-.03827-.15024-.05108-.22712a1.66231,1.66231,0,0,0-.0495-.17895.06426.06426,0,0,0-.06453-.01674c-.0267.00333-.03759.01474-.0441.04555a.173.173,0,0,0-.00183.02323ZM2.86,4.24172c.00252.01.00516.012.00665.00568l-.00823-.00412A.62875.62875,0,0,0,2.847,4.03573a.61755.61755,0,0,1-.01155-.09179.78582.78582,0,0,0-.00813-.08073c-.01121-.07642-.02778-.15237-.03367-.22916-.005-.0658-.01438-.13057-.02545-.1953-.00781-.04569-.0173-.09109-.026-.13663A.22135.22135,0,0,1,2.7385,3.188a.102.102,0,0,0,.00135-.04607c-.00853-.0532-.01881-.10612-.0274-.15349-.00915-.011-.01357-.01745-.01913-.02272a.3575.3575,0,0,0-.0348-.03073q-.08448-.06136-.16983-.12152a.16118.16118,0,0,0-.02408-.01118c-.00633.00706-.01915.01471-.0194.02276-.00145.04628-.0008.09269.00127.139.00046.01028.00948.02018.01537.03186.01946.00265.03843.00564.05749.00769.01535.00165.031.001.04614.00377.00551.001.01363.00888.01362.01362a.0224.0224,0,0,1-.011.0179c-.03345.00844-.0674.0149-.10281.02235l-.02716.03723L2.44,3.09695l-.03648-.02146-.03573-.02321c.00266-.01135.00442-.023.00815-.034a.33137.33137,0,0,0,.01154-.13839c-.00057-.00629-.00564-.01618-.01014-.01712a.0224.0224,0,0,0-.01944.00805c-.03194.05779-.0629.11613-.09369.17454a.03978.03978,0,0,0-.00573.02187c.00078.00579.00783.01072.01212.016l.09916-.03293a.13872.13872,0,0,1-.05317.06015c-.01937.01278-.03872.02577-.05679.04028a.07835.07835,0,0,0-.02581.084.20845.20845,0,0,0,.00968.03347c.01736.04314.03619.0857.05295.12907a2.31929,2.31929,0,0,1,.08.21809c.03091.11211.06934.22213.10209.33376.03718.12671.08712.24872.13323.37215a.08063.08063,0,0,0,.01382.01833c.06313.02149.07362.02029.15179-.01727a.05371.05371,0,0,0,.00254-.04481c-.01133-.04113-.0249-.08173-.03444-.12326-.01389-.06041-.0386-.11758-.04719-.17985a1.30046,1.30046,0,0,0-.06419-.1864L2.62648,3.7661a1.37216,1.37216,0,0,1-.0703-.36421l-.00178.00144c.00532.00534.0133.00976.0155.01617.01126.03274.02143.06587.03126.09908.02075.07014.03768.14163.06249.21028a1.84439,1.84439,0,0,1,.06323.19807.3423.3423,0,0,0,.022.06577,1.05159,1.05159,0,0,1,.07655.2052A.06079.06079,0,0,0,2.86,4.24172Zm-.96867-.461.00882.007c.0411.01047.0823.02055.1235.0306l.01154.00124.01166.00011A.0387.0387,0,0,0,2.0809,3.793a.12187.12187,0,0,0,.003-.03444.92388.92388,0,0,0-.056-.17635l-.009-.00609c-.00722.00136-.01743.00013-.02121.00448a.55529.55529,0,0,0-.108.1777A.05794.05794,0,0,0,1.89129,3.78073Zm.3843-.05653A.089.089,0,0,0,2.28647,3.628a.4229.4229,0,0,0-.14072-.07492c-.00859-.003-.01389.00148-.015.01419Zm-.17671-.0744c-.01.04089-.00583.05941.03165.13845a.07238.07238,0,0,0,.08122-.02417C2.15956,3.66723,2.15554,3.66318,2.09888,3.64981Z"/>
    <path
        d="M1.26367,4.55847A.09927.09927,0,0,1,1.2931,4.5477c.05051-.00182.10109-.00149.15162-.00275.04661-.00116.09283-.00587.13926-.0114a.83185.83185,0,0,1,.186-.00571,4.70082,4.70082,0,0,0,.51175.01426c.14391-.00014.28783.00207.43173.00432a.67012.67012,0,0,1,.16235.01457A.19365.19365,0,0,0,2.9221,4.566a2.93122,2.93122,0,0,0,.37305-.006.149.149,0,0,1,.04608-.00248,1.32178,1.32178,0,0,0,.23272.0123,1.19007,1.19007,0,0,0,.2997-.03431.53537.53537,0,0,0,.18129-.07714.14419.14419,0,0,1,.07189-.03375.01732.01732,0,0,1,.007.02063.37273.37273,0,0,1-.07175.14545.21124.21124,0,0,1-.13223.08984c-.03887.0073-.07262.0295-.11024.03627a.46147.46147,0,0,0-.11153.03064.34735.34735,0,0,0-.11592-.00033.11265.11265,0,0,1-.05756.00174.37684.37684,0,0,0-.12723-.0005c-.02321.00227-.04642.00576-.06967.00616-.2528.00436-.5056.00827-.75844.0031a.6976.6976,0,0,1-.15077-.014.11767.11767,0,0,0-.0462-.00433.9322.9322,0,0,1-.19661.00153c-.03091-.00107-.0617-.00288-.09259-.0043-.12807-.00587-.25489-.02986-.3836-.02568a1.07331,1.07331,0,0,1-.25469-.02556.43007.43007,0,0,1-.15169-.05771A.075.075,0,0,1,1.26367,4.55847Z"/>
    <path
        d="M2.83179,2.27577a.24854.24854,0,0,1,.02692.02162,1.18422,1.18422,0,0,0,.132.13037,1.58793,1.58793,0,0,1,.12573.121.49847.49847,0,0,0,.0526.04591.33554.33554,0,0,1,.07447.07288.35463.35463,0,0,0,.06251.0688,2.102,2.102,0,0,1,.17988.18176c.03.03012.055.06519.08249.09777.05506.06517.11042.13009.16545.19527.04.04735.07816.09632.11988.14207.03924.043.07909.08507.11409.132.03939.05281.08506.10089.12555.15294a1.271,1.271,0,0,1,.17851.32562.38289.38289,0,0,1,.00955.22906.16472.16472,0,0,1-.03.06232c-.02391.03022-.0523.05692-.07922.08471l-.0108.00129c-.00454-.00508-.01093-.012-.0104-.01754.00333-.03459.012-.069.01215-.1035a.7597.7597,0,0,0-.072-.33831,1.47186,1.47186,0,0,0-.14476-.23858c-.067-.09035-.127-.18605-.20253-.27-.01816-.02018-.03466-.04188-.05334-.06154-.08825-.09291-.16991-.19114-.24872-.29229a2.04039,2.04039,0,0,0-.16468-.19573.29254.29254,0,0,1-.03835-.0437,1.10619,1.10619,0,0,0-.14688-.165,2.32354,2.32354,0,0,1-.257-.30029.19274.19274,0,0,1-.01443-.03019Z"/>
    <path
        d="M2.07794,2.22813a.04186.04186,0,0,1,.02993.03523.20252.20252,0,0,1-.00344.11539c-.0344.09556-.04881.19578-.0734.29358a.71194.71194,0,0,1-.07023.197.66186.66186,0,0,1-.12346.2228c-.05838.0777-.11117.1596-.1697.23718-.05611.07437-.11659.14542-.17487.21817a.99874.99874,0,0,0-.07092.09223.58639.58639,0,0,1-.081.099,1.45189,1.45189,0,0,0-.24529.29378c-.00326-.00607-.00983-.01253-.00914-.01808a.16978.16978,0,0,1,.01187-.05616,1.99246,1.99246,0,0,1,.13687-.244c.03814-.0539.0723-.1106.11-.1648.07328-.10527.15027-.208.22111-.3149A2.9702,2.9702,0,0,0,1.76538,2.933a.14832.14832,0,0,1,.01853-.02961A1.10826,1.10826,0,0,0,1.95,2.59676,1.46584,1.46584,0,0,0,2.03064,2.354c.00743-.03411.01714-.06781.02784-.101C2.06161,2.24326,2.07171,2.2358,2.07794,2.22813Z"/>
    <path
        d="M3.21077,4.19665a.07212.07212,0,0,1,.02132-.05252c.04126-.04108.08319-.0815.12477-.12226.01655-.01623.03365-.032.049-.04928a.39559.39559,0,0,0,.02755-.0399,1.05164,1.05164,0,0,0-.0518-.16567.13606.13606,0,0,0-.021-.02939.12157.12157,0,0,0-.03232.00955.89406.89406,0,0,0-.14456.13468c-.04781.09824-.04907.21139-.10018.31035-.004-.00554-.00938-.00958-.00992-.01418a.55108.55108,0,0,1,.01191-.18451c.02995-.13674.07748-.26854.10779-.405a.13065.13065,0,0,1,.03638-.07163l.011-.00274.00743.00661a.05281.05281,0,0,1,.00258.02227c-.01216.0568-.02551.11334-.03753.17017a.0856.0856,0,0,0,.00015.0345c.00108.00511.012.01325.01529.01195a.21036.21036,0,0,0,.051-.02579c.03675-.02833.06682-.06485.10205-.0871a.227.227,0,0,1,.10906-.00561c.06172.00611.1231.016.18448.02513a.05524.05524,0,0,1,.05085.05423.71931.71931,0,0,1-.01022.18554c-.00885.04143-.0128.0839-.01887.12538a.15814.15814,0,0,1-.02663.02421q-.1019.05619-.20493.11031c-.00539.00283-.01455-.00055-.02168-.00223-.009-.00213-.00447-.01895.00754-.02752l.00964-.00655.10972-.06572.06684-.04a.96376.96376,0,0,0,.01011-.24562l-.01912.00326a1.73925,1.73925,0,0,0-.156.18754c-.07063.06653-.1407.13368-.21239.19906a.22648.22648,0,0,1-.051.02689Zm.27-.33714.01175.001a.20127.20127,0,0,0,.09967-.1041.03358.03358,0,0,0-.02528-.043A.27293.27293,0,0,0,3.45368,3.708c-.00621.00118-.01122.00875-.01944.01558A.25166.25166,0,0,0,3.48081,3.85951Z"/>
    <path
        d="M1.68832,4.39168a.04469.04469,0,0,1-.02329.03771c-.04473.02327-.08971.04606-.12826.06579-.05475,0-.10134.00063-.14791-.00012a.272.272,0,0,1-.2529-.17481.03877.03877,0,0,1-.00274-.02258.04716.04716,0,0,1,.011-.019l.01045-.002.01106.00236a.272.272,0,0,0,.1419.04788c.085.00882.16959.01958.25416.03144.03065.0043.062.0032.093.00554A.038.038,0,0,1,1.68832,4.39168Z"/>
    <path
        d="M1.62036,3.9383a.30848.30848,0,0,0,.05407.08909c.02345.03094.04652.06221.0687.09408q.07647.10989.15139.22085a.0212.0212,0,0,1-.0037.01994.023.023,0,0,1-.02.00306.08476.08476,0,0,1-.03-.01721.36186.36186,0,0,1-.03787-.04394c-.02551-.03417-.05081-.06853-.0749-.1037-.04822-.07041-.10162-.1369-.15289-.205A.22441.22441,0,0,1,1.52868,3.906c.00193-.01121.00449-.03026.00854-.049q.03076-.14226.06226-.28437a.05756.05756,0,0,1,.06725-.04981.92874.92874,0,0,1,.17013.03547.115.115,0,0,1,.01922.0129c-.00021.01658-.01419.01478-.02191.01213a.2525.2525,0,0,0-.126-.01356.08767.08767,0,0,0-.021.00991.15222.15222,0,0,0,.02139.08826.83887.83887,0,0,1,.05223.20189l.00211-.00113a.09827.09827,0,0,1-.04493-.05051c-.02-.04987-.03957-.0999-.061-.14913-.0033-.00756-.01559-.01121-.02738-.01912-.01529.06058-.02977.11609-.0431.17186a.356.356,0,0,0-.00837.05652.04275.04275,0,0,0,.02031.03876l-.0015-.00251a.03962.03962,0,0,0,.02563.02568Z"/>
    <path
        d="M2.34258,1.15922c-.03877,0-.07756-.00065-.11632.00018-.03858.00082-.07618-.01786-.11524-.00544-.05327-.00818-.10661-.01594-.15969-.02523-.00492-.00086-.01095-.01125-.01139-.01757a.024.024,0,0,1,.00878-.01941.12872.12872,0,0,1,.0526-.02189c.08517-.00125.17006-.009.255-.0129.08557-.004.16921.01258.254.01023a.07561.07561,0,0,1,.022.00645.04.04,0,0,1,.01172.05928.08692.08692,0,0,1-.062.02751c-.0465.001-.093.00028-.13955.00028Z"/>
    <path
        d="M2.08012.49814A.08759.08759,0,0,1,2.09171.479a.27788.27788,0,0,0,.08643-.1851.19046.19046,0,0,1,.0084-.03357c.00246-.00911.02074-.02336.0261-.01986a.038.038,0,0,1,.01555.01443c.00831.02169.01553.04387.02175.06626a.13427.13427,0,0,0,.082.09186.21941.21941,0,0,1,.04066.02111l.00216.02a.14729.14729,0,0,1-.03392.03013A.18794.18794,0,0,0,2.26.57022.27741.27741,0,0,1,2.26145.6128.0963.0963,0,0,1,2.24988.645a.024.024,0,0,1-.0391.00169C2.19289.61266,2.17575.5782,2.161.54928,2.13621.52124,2.0952.53092,2.08012.49814Z"/>
    <path
        d="M2.628,2.66a.05767.05767,0,0,1,.00048-.02212.21965.21965,0,0,1,.02309-.03995.24526.24526,0,0,0,.0504-.12825.03683.03683,0,0,1,.02837-.0336.06231.06231,0,0,1,.01829.01192.09492.09492,0,0,1,.016.03054.21919.21919,0,0,0,.09221.13011.08986.08986,0,0,1,.01539.01715.0397.0397,0,0,1-.01365.04147c-.01863.01971-.03781.0389-.05757.05914-.00508.02268-.00963.0454-.01537.06782a.02678.02678,0,0,1-.03912.00936l-.00858-.00772Z"/>
    <path
        d="M1.90911.61355c.02464.03375.06133.03531.06113.07612-.01434.017-.0332.03628-.04845.05813-.01548.02219-.026.04786-.04166.06988-.00511.00717-.01962.00765-.0283.01065a.27424.27424,0,0,1-.0549-.0784C1.77936.72475,1.7597.701,1.74324.67961a.09418.09418,0,0,1,.02647-.0557.17337.17337,0,0,0,.0364-.10857A.28038.28038,0,0,1,1.81087.47351c.01273-.01641.02357-.02717.04159-.02225A.04518.04518,0,0,1,1.8852.48153a.36649.36649,0,0,1,.01106.05662c.0027.01919.00314.0387.00586.05788A.06362.06362,0,0,0,1.90911.61355Z"/>
    <path
        d="M2.50555.86285A.04329.04329,0,0,1,2.46088.84448a.17027.17027,0,0,1-.017-.03026C2.42726.77516,2.41132.73581,2.3947.69553c-.00073-.02826.0231-.047.03181-.07234.00881-.0256.01578-.052.0267-.07667a.10249.10249,0,0,1,.0399-.0553c.009-.005.02688-.00172.0298.00788a.21111.21111,0,0,1,.00931.033.41543.41543,0,0,0,.01462.10829c.0207.01636.04473.0351.06845.05425a.02263.02263,0,0,1-.0035.03083.0857.0857,0,0,1-.0194.01221.09532.09532,0,0,0-.05386.05761A.15527.15527,0,0,1,2.50555.86285Z"/>
    <path
        d="M2.92949,3.35548c.01231-.023.03979-.0222.05912-.03771a.58516.58516,0,0,0,.04065-.10613.01188.01188,0,0,1,.01784-.00633l.00615.00906a.16681.16681,0,0,0,.012.09951l.03745.032c.02949.02507.05941.04967.08809.07564.00419.0038.00411.01427.00318.02128a.02571.02571,0,0,1-.02783.01495c-.01806-.00672-.03638-.01307-.05367-.02147a.09214.09214,0,0,0-.05762-.017c-.0081.03615-.01612.07365-.025.11095-.00892.03769-.01933.075-.02783.1128s-.01675.07575-.02273.114a.73766.73766,0,0,1-.03074.10994c-.02021.00031-.01957-.013-.0179-.02162.011-.05707.02357-.11385.03525-.17079a.24242.24242,0,0,0,.007-.04584c.00069-.08141.00032-.16282.00032-.24581-.00722-.01948-.02649-.0239-.0451-.02929Z"/>
    <path
        d="M3.348,3.44789a.45489.45489,0,0,0,.08475-.17455l.0204-.0049a.433.433,0,0,1,.06213.05108.37932.37932,0,0,1,.03916.05744c.01232.01926.04116.0236.04585.05471a.35978.35978,0,0,0-.05171.0547.28488.28488,0,0,0-.02176.06544l-.00572.00994A.04183.04183,0,0,1,3.47,3.57556a.17949.17949,0,0,1-.03485-.02985c-.01439-.018-.02425-.03976-.03911-.05732A.39035.39035,0,0,0,3.348,3.44789Z"/>
    <path
        d="M2.425,2.54455a.13774.13774,0,0,1-.021.00094l-.00936-.00632c-.01587-.022-.02967-.04574-.04745-.066a.678.678,0,0,0-.05617-.05221c-.00328-.03584.02709-.04841.03869-.07179.0103-.02076.02183-.04091.02829-.05293.01556-.05.00115-.095.02258-.13418l.00876-.005.0101.00219a.04428.04428,0,0,1,.01025.02.24668.24668,0,0,0,.07578.16506.07273.07273,0,0,1,.0186.02888.05626.05626,0,0,1-.00043.03322.07348.07348,0,0,1-.02068.02746.1432.1432,0,0,0-.047.09084A.06451.06451,0,0,1,2.425,2.54455Z"/>
    <path
        d="M1.99614,4.21879a.0566.0566,0,0,1-.04147-.01839c-.03973-.05269-.07848-.10612-.11735-.15946-.01141-.01565-.02134-.03243-.0333-.04762A.26347.26347,0,0,0,1.77585,3.967c-.05011-.00835-.09841-.04025-.15549-.02871l.00216.00192a.03824.03824,0,0,0-.02563-.02568l.0015.00251a.0578.0578,0,0,1,.07082-.04059c.022.0034.04372.009.065.01344l.0287-.02124-.00211.00113a.21447.21447,0,0,1,.08939.08382c.02623.04133.05163.08318.07677.12518a.10588.10588,0,0,0,.04568.0482L1.971,4.12461c.00207.01962.00406.03929.025.04939L1.9943,4.17124l.0001.04933Z"/>
    <path
        d="M2.96323,2.73494c.01619.02128.031.04306.04819.0627.01767.02015.03774.0382.05415.05457a.08474.08474,0,0,1,.00225.02723.30279.30279,0,0,1-.05755.08569c-.00394.00514-.0136.0059-.02062.00867-.0816-.04984-.0816-.04984-.10438-.08482C2.93146,2.767,2.93146,2.767,2.96323,2.73494Z"/>
    <path
        d="M2.23008,4.17081c-.02391-.017-.01925-.0442-.02438-.06791l-.00188.00156c.02417.01691.0197.04408.02432.068Z"/>
    <path
        d="M2.22814,4.17244a.08792.08792,0,0,1,.02286.07064l.00166-.00164a.0433.0433,0,0,1-.01988-.0373l-.00271-.03334Z"/>
    <path d="M2.18086,4.03407c.026.01747.01994.04541.023.07038L2.2057,4.1029a.093.093,0,0,1-.023-.07047Z"/>
    <path d="M2.13456,3.91569l.01373.01632-.0023.00854L2.1364,3.91409Z"/>
    <path d="M2.18274,4.03243l-.01331-.01584.00213-.00829.0093.02578Z"/>
    <polygon points="2.251 4.243 2.258 4.247 2.253 4.241 2.251 4.243"/>
    <polygon points="3.209 4.195 3.2 4.206 3.202 4.2 3.211 4.197 3.209 4.195"/>
    <path d="M2.48453,3.21623a.07066.07066,0,0,1,.02379.0689L2.51,3.28371c-.02768-.01625-.02244-.04375-.02362-.06907Z"/>
    <path
        d="M2.53124,3.333c.02618.01734.02136.04491.02316.07028l.00178-.00144c-.02461-.0179-.02078-.04515-.02314-.07037Z"/>
    <path d="M2.533,3.33152c-.02-.01-.022-.02867-.023-.04781l-.00169.00141a.04862.04862,0,0,1,.02292.04792Z"/>
    <path d="M2.4864,3.21465l-.01579-.014L2.46954,3.1904c.00606-.00858.01139-.00685.01327.00429l.00172.02153Z"/>
    <path d="M2.43814,3.09847l.01539.01361.00111.01c-.00587.00817-.01123.00648-.01317-.00422L2.44,3.09695Z"/>
    <text x="0" y="20" fill="#000000" font-size="5px" font-weight="bold"
          font-family="'Helvetica Neue', Helvetica, Arial-Unicode, Arial, Sans-serif">Created by Alice Noir
    </text>
    <text x="0" y="25" fill="#000000" font-size="5px" font-weight="bold"
          font-family="'Helvetica Neue', Helvetica, Arial-Unicode, Arial, Sans-serif">from the Noun Project
    </text>
</svg>
