<svg xmlns="http://www.w3.org/2000/svg" data-name="Layer 1" viewBox="0 0 5 6.25" x="0px" y="0px">
    <title>magic_witch_HALLOWEEN_mistery_magician</title>
    <path
        d="M3.97666,2.7809c.02412.02792.05181.0268.05954.0535l-.04136.05124-.01058.06779L3.96566,2.953A.14424.14424,0,0,1,3.94383,2.924a.15223.15223,0,0,0-.06508-.0633c-.00419-.00208-.00576-.00946-.00853-.01439l.00315-.0085a.10625.10625,0,0,0,.04154-.08816.04089.04089,0,0,1,.0108-.0241c.00225-.00287.01145-.00273.016-.00069a.03011.03011,0,0,1,.01241.01273C3.96313,2.7537,3.9712,2.77027,3.97666,2.7809Z"/>
    <path
        d="M1.54246,3.92921l-.02882.06113a.09633.09633,0,0,1-.07984.05558c-.00784.001-.01656-.005-.0239-.00745-.0068-.02677.01772-.04013.02179-.06787-.00337-.027-.00863-.06041-.0114-.094-.00254-.03077.00139-.06245-.00413-.09252a1.63714,1.63714,0,0,1-.01576-.2586.10651.10651,0,0,0-.00188-.02768A1.70649,1.70649,0,0,1,1.371,3.30561a.50218.50218,0,0,1-.00742-.06429A.607.607,0,0,0,1.352,3.13087a.3399.3399,0,0,1-.00532-.06448c-.00171-.04324-.00266-.08652-.00392-.12978a.18323.18323,0,0,0-.00146-.037,1.2895,1.2895,0,0,1-.01654-.25843c-.00242-.06469-.00222-.1296-.00954-.19388a2.19174,2.19174,0,0,1-.0094-.25917c.00083-.17311.00267-.34621-.0005-.51933a.83594.83594,0,0,0-.008-.11078.3571.3571,0,0,1-.00394-.09222c.00894-.07968.01906-.15942.03352-.23825A.77421.77421,0,0,1,1.44178.93639.44727.44727,0,0,1,1.50417.85612.22729.22729,0,0,0,1.54081.81453.26907.26907,0,0,1,1.66018.71487.55821.55821,0,0,0,1.73241.67375.62784.62784,0,0,1,1.90074.59868c.01478-.00437.02967-.00856.04406-.014a.68646.68646,0,0,1,.217-.04213c.03382-.00143.06745-.00694.10123-.00987.02414-.00209.04839-.003.07238-.00438.00239-.00588.0076-.0122.00627-.01649A.30415.30415,0,0,1,2.32535.39334a.12861.12861,0,0,1,.0264-.068A.25528.25528,0,0,1,2.48823.23412a.17737.17737,0,0,1,.15855.02776A.06827.06827,0,0,1,2.66562.282c.01093.01849.02034.03788.03009.05636-.00635.0443-.01194.087-.01875.12945A.06953.06953,0,0,1,2.62108.523.27311.27311,0,0,1,2.538.52474c-.01234-.00245-.0221-.01091-.0292-.03038l.02483-.0101A.05369.05369,0,0,0,2.56787.41764.0711.0711,0,0,0,2.51124.36278a.09556.09556,0,0,0-.086.02381.07919.07919,0,0,0-.01933.03079.10626.10626,0,0,0-.00218.06392.059.059,0,0,0,.02575.037A.14057.14057,0,0,0,2.51625.5456a.12013.12013,0,0,1,.04566.0041c.04935.01735.10516.00849.15129.03793.003.005.00019.00821-.0086.0088-.01541.001-.03092.00106-.04627.00265C2.6211.60294,2.58541.58266,2.54815.59175A.57042.57042,0,0,1,2.4373.59738.3627.3627,0,0,1,2.38172.59676.5258.5258,0,0,1,2.329.5861L2.2082.60016a.21583.21583,0,0,0-.03652.00545,1.93816,1.93816,0,0,0-.28084.09416C1.83239.72762,1.77657.761,1.71961.79194L1.71206.79728a.6215.6215,0,0,0-.18275.2411,1.47,1.47,0,0,0-.076.28587.17746.17746,0,0,1-.00534.02724,1.05071,1.05071,0,0,0-.02682.34015.14246.14246,0,0,0,.00363.03684.588.588,0,0,1,.01291.16574q.00039.24111.00069.48221a.36184.36184,0,0,0,.00991.10111.30472.30472,0,0,1,.00735.05487.48146.48146,0,0,0,.0041.05544,1.14684,1.14684,0,0,1,.014.22164.82649.82649,0,0,0,.01262.18457.20945.20945,0,0,1,.00322.05537,1.022,1.022,0,0,0,.01616.22052A1.19251,1.19251,0,0,1,1.53,3.42546.39542.39542,0,0,0,1.54039,3.48.75047.75047,0,0,1,1.553,3.682C1.54592,3.75882,1.54608,3.83627,1.54246,3.92921Z"/>
    <path
        d="M1.88208,4.42106a.0411.0411,0,0,0,.0271.02334A.498.498,0,0,0,2.044,4.475a.4619.4619,0,0,1,.12711.02268.43821.43821,0,0,0,.128.01817.45046.45046,0,0,1,.09211.00849.367.367,0,0,0,.06453.005c.07416.00187.14836.0023.22249.00488A1.10239,1.10239,0,0,0,2.798,4.542c.03676-.00281.07354-.00891.1106-.00935a.92588.92588,0,0,0,.1753-.01385.2003.2003,0,0,1,.04616-.0037.732.732,0,0,0,.23516-.04648c.01477-.00445.02891-.011.04367-.01545a.6119.6119,0,0,0,.21247-.12833.27235.27235,0,0,0,.0214-.023.78116.78116,0,0,1,.0887-.15824c.00324-.00446.01139-.00993.015-.00863a.05365.05365,0,0,1,.0207.01523.033.033,0,0,1,.006.01722c.00147.01224.00177.02462.00249.03695l.009.15485a.35136.35136,0,0,1-.20146.20838c-.03035.01518-.0619.028-.09291.04185l-.017.0074c-.11706.02862-.22695.07957-.3434.11012a.74943.74943,0,0,1-.1638.029.13625.13625,0,0,0-.03683.00333.52825.52825,0,0,1-.17477.01318,1.20153,1.20153,0,0,1-.23091-.01427.41656.41656,0,0,0-.074-.00473.46448.46448,0,0,1-.092-.00926.49085.49085,0,0,0-.06425-.00717.33061.33061,0,0,1-.04611-.00347.69334.69334,0,0,0-.13811-.0143A.24688.24688,0,0,1,2.01,4.69882a.18313.18313,0,0,0-.04363-.0151A1.42874,1.42874,0,0,1,1.772,4.62278a.842.842,0,0,1-.23151-.13443.23522.23522,0,0,1-.03611-.04179.43768.43768,0,0,0-.075-.08379l-.05772-.15419a.45337.45337,0,0,0,.02312-.0501.54714.54714,0,0,0,.01131-.0537L1.412,4.09857c.00554.00127.013.00264.01556.00664a.08271.08271,0,0,1,.00976.02535c.00729.03.01392.0601.02041.08847a.36392.36392,0,0,0,.1694.12757,1.11786,1.11786,0,0,0,.25682.07577Z"/>
    <path
        d="M3.2181,3.01086A.11486.11486,0,0,0,3.25574,2.947L3.242,2.89649a.39594.39594,0,0,0,.06562-.17763c-.00929-.0309-.02029-.06616-.03007-.10175a.01723.01723,0,0,1,.0068-.01523l.01573.00526L3.306,2.614a.16837.16837,0,0,1,.02373.06963.29916.29916,0,0,1-.027.18033.07583.07583,0,0,0-.00495.019l.011.048a.49648.49648,0,0,1-.14831.21935.23522.23522,0,0,1-.20529.01377.18682.18682,0,0,0-.09476.06466,2.50165,2.50165,0,0,0-.162.20209.15852.15852,0,0,0-.02582.05886,2.32455,2.32455,0,0,0-.04857.31038.48086.48086,0,0,0,.01317.16534.08855.08855,0,0,1-.014.07936.17535.17535,0,0,1-.04733.05609A.04248.04248,0,0,1,2.519,4.08815l-.00784-.01677a.22668.22668,0,0,1-.01189-.03506C2.49224,4,2.48438,3.9636,2.48077,3.92684a.38953.38953,0,0,1,.00193-.08311.4755.4755,0,0,1,.019-.09971c.01149-.03314-.00176-.06721.01208-.10017.013-.031.01751-.06543.02757-.09779a.19759.19759,0,0,0-.03976-.191c-.01146-.01451-.023-.029-.0353-.0428a.07945.07945,0,0,0-.01757-.01088.43515.43515,0,0,0-.08338.05333.45036.45036,0,0,1-.369-.02027c-.00494-.0064-.0139-.013-.01562-.02111-.00739-.03489-.03934-.04583-.06145-.06625-.02054-.019-.022-.052-.04876-.06615A.07346.07346,0,0,1,1.82692,3.115a.091.091,0,0,0-.02486-.04851.22456.22456,0,0,1-.02658-.18631A.04409.04409,0,0,1,1.792,2.859L1.80836,2.859a.07057.07057,0,0,1,.01828.02039.25877.25877,0,0,0,.11868.09989.5321.5321,0,0,0,.05907.02662.21.21,0,0,0,.04536.00479l.00519.004-.0064-.00282C2.05,2.98446,2.02662,2.96862,2.018,2.946a.031.031,0,0,1,.00522-.036.21645.21645,0,0,1,.06331.0649.29177.29177,0,0,0,.07588.07875c.01655-.01232.0044-.02249.001-.03246-.003-.00871-.008-.01672-.01112-.0254-.00417-.01153-.0076-.02336-.011-.03516l-.00688-.028c-.02214-.00934-.0449-.018-.06676-.02847-.01936-.0093-.03771-.0207-.05876-.03243l-.04875.02348a.17938.17938,0,0,1-.07649-.02774l-.004-.0076L1.89,2.84937c.0182.00154.03626.00482.05476.00757l.0393-.02253a.27695.27695,0,0,1,.12479.04416l.06174-.005a.363.363,0,0,1,.26192.30277c.01627.0223.04519.03066.061.05518a.5476.5476,0,0,0,.04776.05632l.05608.066a.69737.69737,0,0,0,.06048-.13837c.02642-.08208.06151-.16119.0827-.245a.186.186,0,0,1,.0135-.0344.46.46,0,0,0,.0352-.13356c.00639-.04258.011-.08543.01714-.13457a.48082.48082,0,0,1-.01421-.14029l-.00131.00172.02535-.00859a.16274.16274,0,0,1,.05131.12282c.00137.07641-.00015.15287-.00117.2293a.12033.12033,0,0,1-.00661.03588c-.01931.05778-.03469.11674-.05384.17462a.3454.3454,0,0,0-.03213.13257c-.00879.00235-.0104.00472-.0046.00619l.00334-.00746a.69028.69028,0,0,0,.09672-.07034A.10862.10862,0,0,0,2.91692,3.049a.1661.1661,0,0,0-.00174-.02767.186.186,0,0,1,.01166-.08513l.04357-.04435c.00168-.02773.00419-.05533.0048-.083a.16886.16886,0,0,1,.032-.09513.31744.31744,0,0,1,.094-.10064c.01843-.01077.03335-.02738.05089-.03992A.2056.2056,0,0,1,3.183,2.55765c.00946.00469.01325.01148.00853.01606-.02868.02778-.05858.0543-.08735.082a.38839.38839,0,0,0-.06777.09274c-.00193.02425-.00446.05179-.00618.07938-.00115.01848-.00069.037-.00172.05553a.113.113,0,0,1-.03652.08226.19252.19252,0,0,0-.02065.02465.08336.08336,0,0,0,.01013.05753.011.011,0,0,0,.01635.00193.46874.46874,0,0,0,.08366-.08611.23275.23275,0,0,0-.00706-.128.06626.06626,0,0,1-.00253-.04526.022.022,0,0,1,.01164-.01266.0179.0179,0,0,1,.01609.00381.12726.12726,0,0,1,.01789.0316c.00634.01683.01054.03446.01615.05346A.04247.04247,0,0,0,3.142,2.82884c-.00341-.02127-.00978-.04207-.013-.06335a.31779.31779,0,0,1-.002-.046A.01738.01738,0,0,1,3.153,2.7046l.02439.01639c.00584-.0067.01453-.01239.01679-.02a.311.311,0,0,1,.03017-.0869.07557.07557,0,0,1,.02034-.01526.04528.04528,0,0,1,.00929.045c-.00558.03027-.01318.06017-.01943.09033a.21467.21467,0,0,0-.00238.02528l.01708.01016c.0228.01212.02538.02407.008.04131-.0109.01083-.02246.021-.034.03116l-.01908.015-.065.123c.01772.01843.03727.00131.06029.00928l.02.02307c-.0413.00873-.08281.01662-.12382.02656a.06174.06174,0,0,0-.04836.03631c.01714.01549.0283.02177.0377.01867.0258-.00851.05158-.01721.07693-.027A.09707.09707,0,0,0,3.2181,3.01086ZM2.179,2.93788,2.1738,2.93422l.00647.00237a.23507.23507,0,0,0,.06552.14705.06478.06478,0,0,0,.02155.01677c.01911.00943.03878.01779.05855.02576.006.00243.01068-.00164.01242-.00833A.31.31,0,0,0,2.179,2.93788Zm-.06837.17389c-.01878-.00731-.03891-.0145-.05852-.0229A.57174.57174,0,0,1,1.84827,2.967a.0861.0861,0,0,0-.0231-.01428l-.0075.00168-.00429.00763a.05268.05268,0,0,0,.00177.01811A.15441.15441,0,0,0,1.89,3.07a.031.031,0,0,1,.01958.02816l-.00312.00857-.01037.01523a.02124.02124,0,0,0,.00988.02982c.01965.008.04388-.00009.06048.01728.00859.01194-.00979.03133.01344.04031a.206.206,0,0,1,.12246-.07229l.00675-.00574Zm-.05258.19011a.58358.58358,0,0,0,.11872.00475.11847.11847,0,0,0,.04447-.01c.03043-.01455.05973-.03154.08889-.04856a.018.018,0,0,0,.00524-.0158.0219.0219,0,0,0-.01159-.0121.04974.04974,0,0,0-.018-.00291.12445.12445,0,0,0-.06241.01345.24773.24773,0,0,1-.09519.03209c-.004.00018-.0089-.00647-.0123-.01081l.00046-.00864a.09306.09306,0,0,1,.01759-.02075c.01711-.01273.03539-.02388.0529-.0361l.002-.00807-.01068-.01211a.40929.40929,0,0,0-.14244.04084.35934.35934,0,0,1,.00818.04549C2.04461,3.26718,2.035,3.2828,2.05807,3.30188Z"/>
    <path
        d="M3.82551,4.03305a.14213.14213,0,0,1-.05071.06262.035.035,0,0,1-.035.00041.19524.19524,0,0,1-.06063-.06862.11909.11909,0,0,1-.01263-.05352c-.00194-.07717-.00425-.15434-.00644-.23151a.18865.18865,0,0,0-.002-.04613.77855.77855,0,0,1-.015-.17481c-.00111-.01846-.00094-.03713-.00371-.05535a1.07568,1.07568,0,0,1,.00018-.32238.15919.15919,0,0,0,.00036-.0552,1.32589,1.32589,0,0,1-.01264-.25851c-.002-.13584-.00216-.2717-.00315-.40755a.104.104,0,0,0-.00112-.02768.77628.77628,0,0,1-.011-.13727c-.00505-.04591-.00363-.09252-.00534-.13881a.24767.24767,0,0,0-.00385-.0553.67893.67893,0,0,1-.0144-.13784c-.002-.03072-.00669-.06125-.00979-.09191-.00248-.02453-.00453-.04911-.00648-.07369a1.42,1.42,0,0,0-.03062-.23777A.16644.16644,0,0,1,3.53437,1.486a.574.574,0,0,0-.05314-.19521c-.00892-.02291-.01642-.04637-.02462-.06957A.3277.3277,0,0,0,3.444,1.18653c-.027-.0555-.05363-.11124-.08226-.16591A.5939.5939,0,0,0,3.21532.84323.85389.85389,0,0,0,3.08949.74914a.52772.52772,0,0,1-.1309-.1015C2.96232.64489,2.966.64,2.97026.63942A.0523.0523,0,0,1,3.0135.6515a.41265.41265,0,0,0,.09209.06156.31948.31948,0,0,1,.03793.02622.53111.53111,0,0,0,.06863.04695,1.298,1.298,0,0,1,.18565.13721.0884.0884,0,0,1,.019.02007,1.55354,1.55354,0,0,1,.09568.1359,1.31115,1.31115,0,0,1,.09689.19976c.00945.026.02256.05074.03393.07608a.51342.51342,0,0,1,.03912.13263,1.04852,1.04852,0,0,1,.019.21144l.00074.00921a.91121.91121,0,0,1,.017.2025.1519.1519,0,0,0,.00279.02763,1.01486,1.01486,0,0,1,.01955.221.32211.32211,0,0,0,.006.0551.13052.13052,0,0,1-.00087.05494.178.178,0,0,0-.00082.08272.4517.4517,0,0,1,.00828.1013c.0017.11116.00088.22243.00584.33344.003.068-.00169.13556-.00176.20332-.00006.06481-.00085.12961-.00118.19442-.00022.04324-.00063.08649-.00013.12972a1.313,1.313,0,0,0,.01471.15638,2.01444,2.01444,0,0,1,.02447.30411.29282.29282,0,0,0,.00884.0825.337.337,0,0,1,.007.06415c.00123.01847-.00038.0372.0018.05551S3.82117,4.01323,3.82551,4.03305Z"/>
    <path
        d="M2.40238,1.82514a.11781.11781,0,0,0-.07082.017c-.02744.01407-.0552.02761-.08341.04a.07291.07291,0,0,1-.0269.00273L2.214,1.88a.02384.02384,0,0,1,.00566-.0321c.04377-.04353.08727-.08737.132-.12987a.30654.30654,0,0,0,.0751-.10442c-.00811-.01631-.00811-.01631-.052-.02454V1.53628a.10425.10425,0,0,0-.0899-.00188.5508.5508,0,0,0-.07545.03493c-.01364.007-.02538.0177-.03881.02525a.23834.23834,0,0,0-.096.09781c-.00577.01086-.01264.02112-.01761.02935a.04885.04885,0,0,0,.01572.04418.03643.03643,0,0,0,.05666.00308c.00909-.00836.01839-.0166.02659-.0258a.90994.90994,0,0,1,.15687-.1292.01882.01882,0,0,1,.02507.00175.02383.02383,0,0,1,.0038.02568c-.00734.01693-.01575.03339-.02449.05165a.53451.53451,0,0,0-.1489.14847.6438.6438,0,0,1-.04838.056.1324.1324,0,0,0-.03155.05588.03449.03449,0,0,0,.00859.03421.5008.5008,0,0,0,.03986.03133.05956.05956,0,0,1,.00349.049.04839.04839,0,0,1-.0598.03014.24618.24618,0,0,1-.04112-.02085A.05808.05808,0,0,1,2.011,2.03173a.27187.27187,0,0,1,.00969-.11906c.00413-.01078-.00064-.02263-.00655-.02385a.02762.02762,0,0,0-.02473.00976.25813.25813,0,0,0-.06343.10105.09756.09756,0,0,0-.00561.03625c.00029.01838.00319.03672.00464.05159a.194.194,0,0,0,.08052.07965.03253.03253,0,0,1,.01329.0123.02332.02332,0,0,1,.00225.0169.02239.02239,0,0,1-.01213.01251.12643.12643,0,0,1-.064.00293l-.03143-.00739a.03328.03328,0,0,0-.027.02751.02725.02725,0,0,0,.00179.01775.0684.0684,0,0,0,.07924.03124.27274.27274,0,0,0,.03282-.017c.02371-.0145.04714-.02949.07045-.04464A.23392.23392,0,0,1,2.211,2.167c.04441-.03668.09326-.07447.139-.11574.02765-.025.05749-.04664.08677-.06926A.23475.23475,0,0,1,2.547,1.93719c.02731-.00421.05448-.0093.08141-.01394.01831.00653.0346.01465.038.03624-.00372.0041-.00707.01129-.01115.01172a.22874.22874,0,0,0-.07083.02006.67769.67769,0,0,0-.1839.123.03745.03745,0,0,0,.00628.05661c.01286.00829.02669.01511.04028.02222a.9028.9028,0,0,1,.14656.09642.10248.10248,0,0,1,.038.07165c.00048.00436-.00465.00989-.00829.01387l-.0088.00026c-.01441-.01153-.028-.02411-.04259-.03539a.33168.33168,0,0,0-.05986-.043.61649.61649,0,0,0-.19158-.06627c-.01521-.00158-.0299-.00772-.04507-.01032a.19254.19254,0,0,0-.13454.02c-.03191.01874-.06437.03679-.09484.0577a.15951.15951,0,0,1-.10525.02722.0886.0886,0,0,1-.06378-.03309.11483.11483,0,0,1-.02454-.05205c.00165-.0338.03106-.045.03688-.07317l-.03026-.0533a.11969.11969,0,0,1-.014-.08072.28483.28483,0,0,1,.08738-.17928c.028-.02393.0547-.04942.0841-.07613l-.01746-.04807a.34839.34839,0,0,1,.1003-.15326A.89.89,0,0,1,2.24718,1.455a1.17863,1.17863,0,0,1,.15849-.04363.7351.7351,0,0,1,.24814-.12179l.06523.02269.06172.096a.11052.11052,0,0,0,.02645-.0061.09685.09685,0,0,0,.02124-.01769.15518.15518,0,0,1,.10933-.043c.02469-.00054.0494-.00122.07407-.00057a.09609.09609,0,0,1,.02669.00654.04469.04469,0,0,1,.02587.06044.30573.30573,0,0,1-.02249.03507.0536.0536,0,0,1-.048-.00708l-.031-.01347a.08943.08943,0,0,0-.02123.00413.33246.33246,0,0,0-.06452.03559.70846.70846,0,0,0-.09253.09c-.03718.04508-.06978.094-.10339.14191a.15133.15133,0,0,0-.02723.04612c.0789.04769.11233.08034.13141.12753a.21811.21811,0,0,1-.00122.12913c-.00781-.00492-.01867-.00779-.0213-.0141-.01186-.02844-.02033-.05828-.032-.08679a.082.082,0,0,0-.07818-.05506.25634.25634,0,0,0-.1497.03973.30371.30371,0,0,1-.03115.02.71769.71769,0,0,0-.22253.17819c-.00823.0091-.01768.01711-.02673.02545-.00656.006-.02083.00775-.02531.00175-.00526-.007-.01246-.01633-.01151-.02371A.16028.16028,0,0,1,2.232,1.99361c.05462-.05831.10991-.116.16905-.16985l.019-.01948A.06414.06414,0,0,0,2.4382,1.8017a.59741.59741,0,0,1,.13871-.0423c.01909-.02348.03729-.04425.05352-.06646a.14172.14172,0,0,0,.02117-.04052.66636.66636,0,0,0,.02534-.09785A.45574.45574,0,0,0,2.679,1.46292a.10883.10883,0,0,0-.03106-.06543.0521.0521,0,0,0-.0404-.01915.23336.23336,0,0,0-.06338.00769.21844.21844,0,0,0-.07294.03566c-.001.01591.00941.02238.01957.02872a.05637.05637,0,0,1,.02981.04411.25864.25864,0,0,0,.02239.08852.07571.07571,0,0,1-.00446.07088.39036.39036,0,0,1-.10089.12975.08791.08791,0,0,0-.01626.02191Z"/>
    <path
        d="M2.79216,2.52766a.1504.1504,0,0,0-.03561.05338.33639.33639,0,0,1-.03017.04589c-.00263.00344-.01107.00312-.01683.0031l-.00573-.00679c-.00415-.02046-.00778-.041-.01233-.06565-.00951.00874-.01835.01347-.0219.02076-.01078.02215-.01854.04578-.02945.06785a.09272.09272,0,0,1-.0231.02846.033.033,0,0,1-.02431.0084.035.035,0,0,1-.01856-.01821.07307.07307,0,0,1-.005-.02692c-.00137-.0183-.00187-.03667-.00263-.05286-.02287-.0225-.04787-.0156-.07365-.01362a.10426.10426,0,0,0-.02224.01367.19832.19832,0,0,1-.12366.057l-.0183.00289a.43277.43277,0,0,1-.31769-.0449c-.03939-.03529-.03125-.08294-.044-.12252-.02117-.01517-.04182-.0287-.061-.044a.13549.13549,0,0,1-.049-.07658.01952.01952,0,0,1,.00651-.01582l.01627-.00234a.47893.47893,0,0,1,.04236.03533.09446.09446,0,0,0,.06719.02641c.04942-.00037.09916.00289.1482-.00152a.715.715,0,0,1,.31608.057c.02313.00859.04507.02083.06862.02776a.69082.69082,0,0,0,.07292.01368.02955.02955,0,0,0,.024-.02468.14484.14484,0,0,1,.03975-.08191.30932.30932,0,0,0,.04725-.08935.4097.4097,0,0,0,.03128-.086.82515.82515,0,0,0,.02152-.12742.02672.02672,0,0,1,.02026-.02769.1893.1893,0,0,1,.02746.08323c.00409.03036.00586.061.00865.09147l.01952-.00156a.40548.40548,0,0,0,.11812-.18471.05352.05352,0,0,0,.00354-.01812c.0009-.0679.00249-.13581.00146-.20369a.19777.19777,0,0,0-.0138-.05353c-.01018-.03239-.02153-.06441-.03173-.0968a.311.311,0,0,1-.00855-.13752.10515.10515,0,0,1,.00908-.026A.04165.04165,0,0,1,2.95233,1.495c.00869.00094.01888.01.01822.01778-.00182.02132-.00442.04258-.00687.06523a.68223.68223,0,0,0,.06687.18032.4045.4045,0,0,1,.04427.14979c.00027.00862.00735.01625.02285.01427a.39946.39946,0,0,0,.08373-.26469.28665.28665,0,0,0-.00506-.03662.04989.04989,0,0,0-.04729-.03752c-.0274.00173-.05467.00548-.08067.00823a.02713.02713,0,0,1-.01049-.04064.0771.0771,0,0,1,.08681-.03822c.02391.00573.04727.01373.07242.02116.01916.01931.03937.03834.058.05881a.13017.13017,0,0,1,.03456.07466.55678.55678,0,0,1-.0057.17509.47448.47448,0,0,1-.08406.17358.81249.81249,0,0,1-.12091.13989.4553.4553,0,0,0-.09.10526.33275.33275,0,0,1-.03236.04514A.488.488,0,0,1,2.92,2.3417c-.00306.01047-.00061.01544.00651.018a.13564.13564,0,0,0,.08124.011c.0043-.00108.01085.00412.01543.00762s.00109.01862-.00412.02543a.07407.07407,0,0,1-.05551.02947c-.02153.00163-.0432.00125-.06481.002a.28394.28394,0,0,0-.07444.0092.19953.19953,0,0,0-.03345.085Zm-.4597-.00995a.32861.32861,0,0,0-.185-.01434A.15547.15547,0,0,1,2.06512,2.502a.03823.03823,0,0,0-.01776.00075.01074.01074,0,0,0-.00885.01421.0629.0629,0,0,0,.053.04537.24189.24189,0,0,0,.07339.00327c.04849-.00724.0964-.01865.14425-.02963C2.31659,2.53431,2.3225,2.52579,2.33246,2.51772Z"/>
    <path
        d="M1.884,4.42238a.28667.28667,0,0,0-.09619-.05368.36533.36533,0,0,1-.08044-.04513,2.1431,2.1431,0,0,1-.17615-.14964.188.188,0,0,1-.04907-.07749A.01592.01592,0,0,1,1.495,4.07552c.00452.00128.01157.00124.01558.00471a.71645.71645,0,0,0,.225.14254.6943.6943,0,0,0,.09261.041c.08748.01787.17268.04582.261.05971a.68127.68127,0,0,0,.08307.00462.71169.71169,0,0,1,.1289.01056.40631.40631,0,0,0,.08288.00622q.24074.00163.48149.00175a.25093.25093,0,0,0,.06422-.00622A.41716.41716,0,0,1,3.04911,4.329a.5933.5933,0,0,0,.15571-.01851c.03887-.00944.07911-.01437.11694-.0268a.83663.83663,0,0,0,.266-.12629.06717.06717,0,0,1,.01711-.00688.02706.02706,0,0,1,.01984.03535c-.00475.02721-.012.054-.0183.08144a.063.063,0,0,1-.00945.015.51444.51444,0,0,1-.11079.09679,1.67008,1.67008,0,0,1-.16529.05856c-.026.00935-.05394.0129-.08058.02056a.66849.66849,0,0,1-.174.02009,1.32474,1.32474,0,0,0-.2215.01158.26528.26528,0,0,1-.02769.00189,1.13836,1.13836,0,0,0-.12863-.00129A.79469.79469,0,0,1,2.55,4.49527c-.04321.00037-.08643-.00065-.12964-.00089a.40332.40332,0,0,1-.101-.01.28559.28559,0,0,0-.06422-.00649A.71.71,0,0,1,2.14528,4.467a1.92058,1.92058,0,0,1-.18968-.04.35826.35826,0,0,0-.07352-.00592Z"/>
    <path
        d="M1.70576,3.61068c-.00647-.00314-.0181-.005-.02009-.01041a.423.423,0,0,1-.02381-.07944c-.01475-.09437-.02422-.18964-.04147-.28351-.01294-.07036-.01132-.14117-.01836-.2115C1.59343,2.94,1.58712,2.854,1.57969,2.768c-.00451-.0521-.01052-.10417-.01061-.15638q-.00078-.426.0005-.852a.21162.21162,0,0,1,.00577-.04517c.00091-.00409.00865-.00716.01379-.00952l.0076.00339a.11233.11233,0,0,1,.01819.03111.25969.25969,0,0,1,.00644.05484.432.432,0,0,0,.01038.09166.388.388,0,0,1,.00716.0733.56512.56512,0,0,0,.01571.14682,1.87175,1.87175,0,0,0,.03895.24638c.00764.03925.01039.07944.01547.11919a.18984.18984,0,0,1-.00325.07356.39277.39277,0,0,0-.00946.10112c-.00015.05866-.00071.11731-.00085.176a.4425.4425,0,0,0,.01027.10093.49483.49483,0,0,1,.00155.19318.67192.67192,0,0,0,.00008.23873c.01028.05444.01518.10992.02154.165a.11217.11217,0,0,1-.00237.03671A.10587.10587,0,0,1,1.70576,3.61068Z"/>
    <path
        d="M2.07274.75448l-.0023.01087a.07636.07636,0,0,1-.02067.01781A.38173.38173,0,0,0,1.8637.99182c-.01955.04176-.03629.08486-.054.12746-.00827.01988-.01464.04065-.02405.06a.29732.29732,0,0,0-.03292.10487.14591.14591,0,0,1-.05828.10155.11856.11856,0,0,1-.0407.02043.05449.05449,0,0,1-.05854-.01818.09269.09269,0,0,1-.02146-.09432c.02023-.05811.037-.11726.05484-.176a.44234.44234,0,0,1,.0902-.16A.52083.52083,0,0,1,1.835.8526c.03136-.01947.061-.04174.09253-.06089A.2286.2286,0,0,1,2.04775.749.12117.12117,0,0,1,2.07274.75448Z"/>
    <path
        d="M3.34489,1.33936c-.03993.04017-.03993.04017-.09265.03494l-.04314-.0524a.18925.18925,0,0,1-.00726-.02952c-.0022-.03065-.00335-.06137-.00515-.09691A1.68509,1.68509,0,0,0,3.10509.99935c-.01242-.0212-.02247-.04377-.034-.06553a.23713.23713,0,0,0-.078-.08919C2.96.82249,2.928.79864,2.89575.77521L2.89438.767,2.907.75645l.009.00026a.86059.86059,0,0,1,.15432.06052.16494.16494,0,0,1,.04593.03061A.917.917,0,0,1,3.26543,1.01c.00486.00785.00875.01638.01425.02372a.30691.30691,0,0,1,.0587.13377A.45263.45263,0,0,1,3.34489,1.33936Z"/>
    <path
        d="M2.69362,3.8214c.00448-.01012.00567-.02086.01129-.02424a.19166.19166,0,0,1,.13467-.02,1.664,1.664,0,0,0,.16586.01344c.02762.002.0551.00612.08258.00981.01527.00205.0303.00673.04559.00764a3.3776,3.3776,0,0,1,.34542.06256.111.111,0,0,1,.08122.056.03191.03191,0,0,1-.0127.0397.07344.07344,0,0,1-.02638.00721.24758.24758,0,0,1-.055-.00549c-.04488-.01116-.08908-.025-.13385-.03666a.98871.98871,0,0,0-.11694-.02683.901.901,0,0,1-.09978-.019,1.3402,1.3402,0,0,0-.13645-.024,1.32027,1.32027,0,0,0-.17468-.01647A.22274.22274,0,0,1,2.75877,3.839C2.738,3.8344,2.71755,3.828,2.69362,3.8214Z"/>
    <path
        d="M2.22269,3.73345a.46352.46352,0,0,1,.054.00778.03094.03094,0,0,1,.0193.01736.02942.02942,0,0,1-.0074.02388.07225.07225,0,0,1-.03009.02049.74113.74113,0,0,1-.09875.02316c-.064.00917-.12881.0128-.19254.0233a.97182.97182,0,0,0-.3095.08871.03513.03513,0,0,1-.01738.00541c-.00449-.00029-.00916-.00513-.01268-.00894l.0007-.00852a.20184.20184,0,0,1,.0687-.0608.66535.66535,0,0,1,.19737-.07607c.08473-.0155.16934-.03193.25419-.04695C2.1728,3.738,2.19745,3.73638,2.22269,3.73345Z"/>
    <path
        d="M3.4103,3.34114a.13271.13271,0,0,1,.04237.06905.54343.54343,0,0,1,.02277.08947.78638.78638,0,0,0,.04872.18749.10964.10964,0,0,1-.00722.0982.073.073,0,0,1-.0513.03573.01807.01807,0,0,1-.01583-.00627.13676.13676,0,0,1-.015-.04279c-.006-.0612-.00991-.12262-.01486-.18393-.00149-.01843-.00323-.03688-.00592-.05517A.70672.70672,0,0,1,3.4103,3.34114Z"/>
    <path
        d="M3.90922,1.66243a.30625.30625,0,0,0,.03828.061.30937.30937,0,0,0,.06233.03842.08879.08879,0,0,1-.0141.02436.1499.1499,0,0,0-.05445.131.24594.24594,0,0,1-.00243.03407c-.01231.00854-.01995.00319-.0241-.00428-.01335-.024-.02543-.0487-.03631-.06984-.03062-.01764-.05724-.03269-.08355-.04827a.01828.01828,0,0,1,.00321-.03052c.011-.00538.02246-.00966.03368-.01453a.05166.05166,0,0,0,.032-.04185c.00326-.02125.00535-.04267.00859-.06392C3.87425,1.66576,3.88725,1.66041,3.90922,1.66243Z"/>
    <path
        d="M2.50036,1.12425l.0435-.07231c.00971-.04-.00569-.09087.03363-.12522a.031.031,0,0,1,.025.02685.25231.25231,0,0,0,.035.09258c.01988.0227.05342.02149.06992.04855a.12554.12554,0,0,1-.01384.02244.44539.44539,0,0,0-.03944.03893.273.273,0,0,0-.02278.04748c-.00887.00154-.0154.00466-.02059.00316a.90275.90275,0,0,1-.10592-.07106Z"/>
    <path
        d="M2.13964,1.08355A.27268.27268,0,0,1,2.16455.97923c.00433-.00691.01346-.01081.0201-.01587.02778.01559.0303.04671.0482.06718.01775.0203.04733.02978.05521.06112a.07839.07839,0,0,1-.01268.02214A.127.127,0,0,0,2.2328,1.202a.01946.01946,0,0,1-.03273.0152.30089.30089,0,0,0-.0896-.04471c-.02758-.01044-.03079-.03594-.0078-.0573C2.11377,1.1049,2.12568,1.09546,2.13964,1.08355Z"/>
    <path
        d="M3.07877,3.483c-.00422.03313-.04416.03089-.05849.06427-.00211.013-.00484.03413-.00943.05482-.00094.00423-.00883.00692-.01353.01032l-.01627-.00608a.263.263,0,0,0-.10341-.08691c.00376-.03076.03767-.03876.04865-.06367.01295-.02054-.00248-.04226.00317-.063a.06188.06188,0,0,1,.02774-.03513c.00634-.00384.02155-.00037.024.00642.00514.01421.01034.02848.01411.04309a.06345.06345,0,0,0,.04036.04632.2287.2287,0,0,1,.03311.0149C3.07342,3.471,3.07555,3.478,3.07877,3.483Z"/>
    <path
        d="M1.0721,2.54284c.01808.01213.01105.03354.01867.04943l.023.04853.051.02472.00548.00686L1.16588,2.689a.09239.09239,0,0,1-.02125.01694.08929.08929,0,0,0-.03867.04958c-.00473.01417-.00706.03032-.02419.0368L1.067,2.78617a.16991.16991,0,0,0-.09832-.07733L.96385,2.70189.971,2.68628a.03931.03931,0,0,1,.01581-.0086.0591.0591,0,0,0,.04286-.05388.30372.30372,0,0,1,.0098-.05394A.03343.03343,0,0,1,1.0721,2.54284Z"/>
    <path
        d="M3.25134,2.08929c.02245.009.02305.02611.03009.0389a.08277.08277,0,0,0,.06192.049c.00523.00073.00974.00658.0163.01131a.12643.12643,0,0,1-.0038.02465.03236.03236,0,0,1-.01179.01372.1258.1258,0,0,0-.0508.07369c-.00127.00524-.00724.00935-.0125.01577-.00737-.00089-.01808.001-.02416-.00347-.02447-.01792-.04752-.0378-.06874-.055-.00632-.01492-.00847-.02786.00088-.03732a.1229.1229,0,0,0,.03451-.08224A.06051.06051,0,0,1,3.25134,2.08929Z"/>
    <path
        d="M3.06352.34733c.00236.0233-.01441.03563-.02069.05236-.00641.01707-.00939.03551-.01666.05213-.00285.0065-.01329.00968-.02194.01549A.59585.59585,0,0,0,2.95358.42609C2.93584.41451,2.91506.40763,2.89718.39624,2.89128.39248,2.89025.38108,2.88673.37255a.17187.17187,0,0,1,.023-.01741.08932.08932,0,0,0,.0495-.0625A.07545.07545,0,0,1,2.967.26645.031.031,0,0,1,2.98806.2529.0315.0315,0,0,1,3.0094.26673c.01.01518.01623.03281.02619.048A.29957.29957,0,0,0,3.06352.34733Z"/>
    <path
        d="M1.93391,1.48368l.05563.01884V1.5286c-.01608.01836-.041.01951-.05314.03978-.0091.01524-.01323.03509-.03568.04322a.19039.19039,0,0,1-.02042-.01335c-.00941-.00782-.01735-.01743-.02693-.025-.01363-.01075-.03879-.00981-.03914-.0335-.00024-.01656.01576-.02517.027-.03529a.07655.07655,0,0,0,.0243-.04841.07749.07749,0,0,1,.01384-.04323l.00754-.00462.01556.00454a.08609.08609,0,0,1,.01246.02439C1.92,1.45137,1.91855,1.46791,1.93391,1.48368Z"/>
    <path
        d="M1.31824,3.26611c-.00218.03266-.02415.04315-.03687.05986-.01083.01424-.00648.03773-.02917.0454-.0269-.00647-.02891-.037-.04909-.05331l-.03823-.02069.00039-.01789A.30673.30673,0,0,0,1.217,3.19259c.00472-.01317.0197-.02355.02739-.01974s.01791.0101.01984.01724A.16326.16326,0,0,0,1.31824,3.26611Z"/>
    <text x="0" y="20" fill="#000000" font-size="5px" font-weight="bold"
          font-family="'Helvetica Neue', Helvetica, Arial-Unicode, Arial, Sans-serif">Created by Alice Noir
    </text>
    <text x="0" y="25" fill="#000000" font-size="5px" font-weight="bold"
          font-family="'Helvetica Neue', Helvetica, Arial-Unicode, Arial, Sans-serif">from the Noun Project
    </text>
</svg>
