<svg xmlns="http://www.w3.org/2000/svg" data-name="Layer 1" viewBox="0 0 5 6.25" x="0px" y="0px">
    <title>magic_witch_HALLOWEEN_mistery_magician</title>
    <path
        d="M1.19566,2.21067a.60387.60387,0,0,1,.18352.10593,1.04818,1.04818,0,0,0,.11425.076.17859.17859,0,0,0,.058.01376c.00354.00062.00978-.00441.01192-.00837a.01672.01672,0,0,0,.00063-.01474,1.78087,1.78087,0,0,0-.31858-.30361.49132.49132,0,0,1-.16452-.17739.08137.08137,0,0,1-.00458-.08608l.01237.00446a.86727.86727,0,0,0,.19967.20757.74231.74231,0,0,1,.121.116.88342.88342,0,0,0,.088.0842c.01185.01093.03688.01.04037-.001.00287-.009.0081-.02113.00458-.02781a1.04777,1.04777,0,0,0-.19358-.29032,1.69962,1.69962,0,0,1-.15053-.17179.37578.37578,0,0,1-.09778-.21794c.00389-.01013.01081-.00984.02151-.00048a.82294.82294,0,0,1,.174.21081.62107.62107,0,0,0,.16029.202.17014.17014,0,0,0,.039.02293.03427.03427,0,0,0,.028-.00222.03907.03907,0,0,0,.012-.026.04071.04071,0,0,0-.00618-.0288,1.77682,1.77682,0,0,1-.21706-.3129A.80866.80866,0,0,0,1.245,1.50213c-.03185-.03957-.0632-.07955-.0951-.11907a.1519.1519,0,0,1-.02448-.14453,1.00389,1.00389,0,0,1,.03532-.10066A1.00534,1.00534,0,0,0,1.22689.85635C1.22858.83817,1.21881.822,1.206.8214a.03878.03878,0,0,0-.03619.02185,1.14513,1.14513,0,0,0-.09565.20741,2.24253,2.24253,0,0,1-.124.3c-.04206.03841-.0863.08051-.13241.12045a.42061.42061,0,0,0-.10164.13239q-.06794.13669-.13234.27512a.136.136,0,0,0-.012.059.07057.07057,0,0,0,.01993.038c.00731.00856.03155.00072.04026-.01081.04907-.0649.0979-.13.14715-.19475C.80369,1.7377.829,1.70593.85063,1.67818c.01884-.00554.02615-.00148.02737.01042a.11486.11486,0,0,1-.02452.08571c-.05064.06377-.10067.1281-.15367.18987A.67047.67047,0,0,0,.606,2.10289a.19489.19489,0,0,0-.009.03318A.10737.10737,0,0,0,.63922,2.142.09253.09253,0,0,0,.6743,2.11467c.056-.05912.11071-.1194.16738-.17782a.11.11,0,0,1,.03819-.01621A.12833.12833,0,0,1,.89581,1.998a.982.982,0,0,0,.02787.2571c.02055.08919.037.17941.0522.26969.00757.045.00755.09121.0123.13673A.287.287,0,0,1,.96658,2.811a1.14126,1.14126,0,0,0-.05689.20566A.12234.12234,0,0,0,.91293,3.061l.00991.00954C.93219,3.07063.9479,3.071.95,3.06626c.03077-.06943.05961-.13971.08949-.20954A.0166.0166,0,0,1,1.052,2.85a.01832.01832,0,0,1,.02084.01818.30493.30493,0,0,1,.00428.06051c-.00985.091-.02167.18179-.03262.27266a.02781.02781,0,0,0,.00066.015c.00429.00814.00917.01914.01639.02172a.03093.03093,0,0,0,.02714-.00539.32562.32562,0,0,0,.06176-.12128.19094.19094,0,0,1,.02888-.03906c.02847.03529.05259.06775.07948.09772.02373.02645.05093.04976.07593.07513a.25839.25839,0,0,0,.10042.06744.16911.16911,0,0,0,.04337.003c.00782-.04638-.03486-.05966-.05056-.08888-.0168-.03127-.04036-.05891-.05707-.09022a.73457.73457,0,0,1-.042-.09793c-.01194-.03329-.02036-.06784-.02982-.10012a.02326.02326,0,0,1,.03641-.0121c.018.00893.0336.02278.05178.03113.00664.003.01821-.00258.02652-.00643l.00284-.01417a1.04619,1.04619,0,0,0-.09109-.13862c-.02967-.0346-.05476-.07312-.08191-.10988a.34906.34906,0,0,1-.06121-.13851c-.01035-.0498-.02511-.0987-.03476-.14861-.00223-.01153.00843-.02555.015-.04356a1.34823,1.34823,0,0,1,.16342.09054,1.024,1.024,0,0,1,.1579.09222.39544.39544,0,0,0,.09316.05058A.03207.03207,0,0,0,1.605,2.58537c.00582-.00489.00564-.01692.00858-.0275a1.42435,1.42435,0,0,0-.2238-.18162,1.541,1.541,0,0,1-.13533-.09907.4776.4776,0,0,1-.058-.06966l-.00985-.00232Z"/>
    <path
        d="M3.95535,2.83178a.53917.53917,0,0,0,.09518.19A.4912.4912,0,0,0,4.1992,3.151a.43075.43075,0,0,1,.05991.0463c.00452.00406.00289.016.00205.02417l-.0136.00369a.63687.63687,0,0,1-.297-.20218c-.00481-.00724-.01589-.01033-.02406-.01533a.04639.04639,0,0,0-.01175.00958A.02854.02854,0,0,0,3.9114,3.032a.43616.43616,0,0,0,.10914.353.09058.09058,0,0,1,.015.02559c.00264.01077-.00528.01753-.018.01875l-.06227-.04174c-.0071.00679-.0197.01384-.019.01894.00511.03492.0124.06957.02021.104.0067.02958.0153.05873.02221.08826L3.97233,3.61c-.00893.00085-.02161.003-.02659-.00186a.3052.3052,0,0,1-.07142-.133c-.02007-.063-.03738-.127-.058-.18983-.00361-.011-.01771-.01858-.02711-.02787a.23349.23349,0,0,0-.04259.08548.55906.55906,0,0,1-.03333.06853c-.01539.0247-.014.06018-.04656.07407a.09934.09934,0,0,1-.01132-.0273.44411.44411,0,0,1,.05568-.24971c.02608-.04948.05288-.09858.07637-.1423.00851-.072.017-.13746.02361-.20313a.05246.05246,0,0,0-.02142-.05345.512.512,0,0,0-.16089.178.42481.42481,0,0,1-.07585.11355c-.00529-.00928-.01329-.01667-.01251-.023a.56654.56654,0,0,1,.1769-.33009c.01781-.018.038-.03374.05745-.05018a.1627.1627,0,0,0,.05491-.0897,2.42825,2.42825,0,0,0,.05531-.26913c.01256-.11667.0444-.22975.05546-.34633.00237-.025.0093-.04967.01072-.07468.00141-.02484.01278-.05.00048-.075-.00954.00038-.02269-.0031-.02766.00176-.03258.03192-.06294.06608-.09488.09866a.43439.43439,0,0,1-.12754.10662l-.01392-.005-.00617-.01307a.64579.64579,0,0,1,.11211-.21324c.04133-.05162.08193-.10394.12024-.1578a.07264.07264,0,0,0,.01456-.07161c-.009.00188-.02112.00068-.026.00605-.02725.0301-.05268.06184-.07889.09289l-.03.0341a.03633.03633,0,0,1-.04206.00306.03541.03541,0,0,1-.01357-.0397.38077.38077,0,0,1,.086-.106c.02244-.02042.04689-.03864.06242-.0513a.06715.06715,0,0,0,.00953-.06716.03481.03481,0,0,0-.04791-.02384.25566.25566,0,0,0-.03929.0228.67269.67269,0,0,0-.187.25647.80168.80168,0,0,1-.03767.083c-.00508.00856-.0239.009-.03845.01378a.60544.60544,0,0,1,.152-.378c.04069-.04507.0849-.087.12554-.12828a.0752.0752,0,0,0-.00016-.06169.64233.64233,0,0,0-.12322-.24318A.34047.34047,0,0,1,3.65.92582a.41674.41674,0,0,0-.10639-.128A1.17166,1.17166,0,0,0,3.292.62708.33359.33359,0,0,1,3.25493.6023L3.2678.59351a.64425.64425,0,0,1,.31084.1152c.03311.02369.06858.04438.1.0701A.40053.40053,0,0,1,3.7532.85444a1.56239,1.56239,0,0,1,.2117.34243c.03994.04093.09074.03964.1322.0663a.96781.96781,0,0,1,.1493.14729.68962.68962,0,0,1,.15119.31229c.01253.05456.02276.10966.03331.16466a.16811.16811,0,0,1,.00735.06032,2.24982,2.24982,0,0,0,.00154.30432c-.006.09622-.0063.19295-.01336.28933a.957.957,0,0,1-.04416.21154c-.00936-.00888-.01868-.01342-.01934-.019a.78245.78245,0,0,1,.00585-.27322.37367.37367,0,0,0,.0064-.09092c-.00253-.13731-.0047-.27467-.01022-.41188a.81536.81536,0,0,0-.15581-.43981.419.419,0,0,0-.14583-.13153c-.00473-.00253-.01576.00673-.02624.01162.01849.08875.04336.17733.054.26759s.007.18233.00922.26091a.19016.19016,0,0,0,.05942.08387.32008.32008,0,0,1,.08446.15918c.002.01071-.00821.01618-.02065.014-.04587-.04448-.068-.11154-.12649-.14634-.00864.00577-.021.00938-.02312.01618-.01347.0437-.02469.0881-.03353.12077a3.04728,3.04728,0,0,0,.18879.62412.56706.56706,0,0,0,.0984.15349.04422.04422,0,0,1,.00262.0281c-.001.01038-.02981.00748-.04147-.00371A.83789.83789,0,0,1,4.087,2.67416c-.013-.03317-.02632-.06625-.04063-.09888-.01208-.02754-.01239-.06026-.03554-.08243-.01013-.00446-.022-.00026-.02077.01052.00408.03494.0117.06951.01861.10409a.7902.7902,0,0,0,.23085.42214.34043.34043,0,0,1,.03708.04715l-.0005.01353-.01367.00527a.63166.63166,0,0,1-.241-.20449A.15164.15164,0,0,0,3.9525,2.8334l-.00525-.00984Z"/>
    <path
        d="M1.85851,4.2715c-.06792.02368-.1311.04276-.19178.06788a.35923.35923,0,0,1-.13343.02724c-.03546.00067-.07079.00794-.10626.00887a.11934.11934,0,0,1-.03968-.01469.11431.11431,0,0,1,.08226-.04043.604.604,0,0,0,.2977-.14891c.01718-.04492-.0146-.08807-.0087-.13328a.42183.42183,0,0,1,.13193-.25188c.04353-.04271.08314-.08939.1256-.13323a.04708.04708,0,0,1,.0277-.00907c.00838-.00081.0145.02882.0083.041a.55674.55674,0,0,1-.02867.05353q-.063.09579-.12759.19048a.16287.16287,0,0,0-.029.11572.12152.12152,0,0,0,.0109.028c.00953.00158.02039.0069.02837.00409A.20541.20541,0,0,0,2.00211,4.004a.19336.19336,0,0,0,.03043-.06909c.00835-.03451.01021-.07053.01649-.10562a.28332.28332,0,0,1,.01444-.04312.03333.03333,0,0,1,.04971-.015c.0124.00842.02336.019.03383.02764.03239-.00306.04293-.02589.05233-.04944A.073.073,0,0,0,2.20027,3.69c-.01538-.03209-.03381-.0627-.05045-.09419a.395.395,0,0,1-.05194-.14253A.0154.0154,0,0,1,2.114,3.43451a.01828.01828,0,0,1,.0132.00663c.025.03822.04812.07767.07434.115a.2427.2427,0,0,0,.04325.04109c.00276.00236.0101.00134.01429-.0005.00439-.00191.0102-.00628.0108-.01027a.19214.19214,0,0,0-.02617-.131c-.01565-.02607-.03282-.05123-.04742-.07388a.257.257,0,0,1-.00487-.0497.29059.29059,0,0,1,.02488-.11864c.01671.01674.00907.03681.00793.05485a.20055.20055,0,0,0,.09319.18313c.01368-.01.03149-.01609.03622-.02755a2.556,2.556,0,0,0,.16358-.47532,1.1819,1.1819,0,0,1,.05009-.16023.12163.12163,0,0,1,.0283-.03486c.00872-.00963.03188-.0037.03914.00783a.065.065,0,0,1,.00746.05861.83009.83009,0,0,0-.03858.19433,2.86949,2.86949,0,0,1-.07926.4197c-.00249.00836.00353.01924.0056.029.00943-.00029.02221.00327.02771-.00153q.05152-.04486.1-.09315c.01429-.01427.02471-.03234.03764-.04807a.04385.04385,0,0,1,.0746.04383.18868.18868,0,0,1-.01839.05759.631.631,0,0,1-.25426.2562c-.02254.01156-.04337.02645-.05854.03582a.26716.26716,0,0,0-.06709.13984c.01264.0024.02321.008.03053.00519.0427-.01644.08459-.035.12686-.05254.01955-.00813.04855.00078.0535.016a.05551.05551,0,0,1-.01838.054.30687.30687,0,0,1-.14866.07376l-.13265.02251a.13506.13506,0,0,0-.02656.0198.66568.66568,0,0,1-.252.19338.12922.12922,0,0,0-.05974.04542.0341.0341,0,0,0,.00476.04141.25741.25741,0,0,0,.23119.042A.42155.42155,0,0,0,2.23795,4.294a.5627.5627,0,0,0,.38221-.36905,1.63,1.63,0,0,0,.13044-.30887.6225.6225,0,0,1,.05648-.12485.14179.14179,0,0,1,.02965-.03026l.02937.04015.04144-.06941a.76374.76374,0,0,1-.07661.34658c-.0166.03713-.03736.07242-.05674.10828a.34963.34963,0,0,0-.03953.09881.40109.40109,0,0,1-.13245.21859,1.42405,1.42405,0,0,1-.16861.13131.41287.41287,0,0,1-.38.04456A.49692.49692,0,0,1,1.85851,4.2715Z"/>
    <path
        d="M2.30582,1.37483a.08241.08241,0,0,0,.02634-.05631c.00263-.02187.00143-.0463.01765-.061.0047-.00425.01558-.00168.02368-.00225a.16517.16517,0,0,1,.01726.09641c-.0005.03631-.00544.07161-.00639.10783-.00015.00568.01057.01395.01942.02494.04168-.03341.08443-.06554.12472-.10046a1.83978,1.83978,0,0,0,.2105-.19027c.024-.02832.0459-.05856.06975-.087a.07721.07721,0,0,1,.02858-.02226.03259.03259,0,0,1,.02568.00638.03664.03664,0,0,1,.013.02368.19741.19741,0,0,1-.03663.10855c-.02122.03074-.04256.06145-.06207.09351a.63037.63037,0,0,1-.12013.15776c-.00578.005-.00724.01486-.0107.02248.00777.00538.01618.015.02321.01539.03156.00177.06267.00065.09406.00116.01291.00021.03509.01593.03285.02323a.0961.0961,0,0,1-.0173.03191.03885.03885,0,0,1-.0213.0123,1.39194,1.39194,0,0,1-.25472.04742.32666.32666,0,0,0-.0512.00743L2.447,1.64561l.006.01007a.38526.38526,0,0,0,.05388.00851c.04065.002.08085.00093.12162.00425a.08894.08894,0,0,1,.037.01984c.00734.00537-.00474.02493-.0183.029a.35065.35065,0,0,1-.04924.014c-.04732.007-.09522.01236-.14637.0188-.00558.0076-.0164.0157-.01918.02732a.09912.09912,0,0,1-.07734.07429.36647.36647,0,0,1-.14479.01012.21807.21807,0,0,0-.066.0015c-.00895.0018-.01274.01717-.01876.02621a.11975.11975,0,0,0,.0834.02834.2925.2925,0,0,0,.09226-.00445.54167.54167,0,0,0,.17642-.068.17284.17284,0,0,1,.09254-.0356.02727.02727,0,0,1,.016.03425l-.00409.012A.40607.40607,0,0,1,2.23382,2.03a.20316.20316,0,0,1-.09528-.0242c-.03034-.01524-.0602-.032-.09243-.04924-.04315.01278-.066.04931-.09713.07532a1.01654,1.01654,0,0,1-.08414.07292c-.028-.05511.00451-.12254.10986-.27235.00406-.0535.00533-.108.013-.16022a1.01167,1.01167,0,0,1,.03279-.14034.28432.28432,0,0,1,.03426-.067c.00232-.00376.01524-.00055.02316.00152l.0081.01129A.154.154,0,0,1,2.0801,1.53a.35629.35629,0,0,0-.02875.15473c.00006.0053.01092.01277.02019.023a.25486.25486,0,0,0,.08831-.08488.27387.27387,0,0,0,.03029-.09825.4823.4823,0,0,1,.059-.16912l.00971-.00673c.02073-.00261.034.01566.04979.02673a.04379.04379,0,0,0-.01689.05543c-.00546.01086-.00442.01521.00193.01135L2.289,1.43054A.04407.04407,0,0,0,2.30582,1.37483Zm-.01693.3891-.00925-.00139L2.2887,1.761l.01069.00205Z"/>
    <path
        d="M3.20475,1.16783l-.05433.12342c-.06046.04861-.0923.1276-.16795.16123-.00379-.00672-.01124-.01451-.01077-.02a.23809.23809,0,0,1,.05058-.10072.35386.35386,0,0,0,.04548-.1748.11256.11256,0,0,0-.014-.05467.30058.30058,0,0,0-.32695-.155.4901.4901,0,0,0-.22675.12524.16319.16319,0,0,1-.07823.0585.02111.02111,0,0,1-.01281-.0006.02013.02013,0,0,1-.01422-.023.43219.43219,0,0,1,.02574-.07171c.01349-.026.03227-.04835.04747-.07324A.37738.37738,0,0,1,2.98057.88758.4629.4629,0,0,1,3.20475,1.16783Z"/>
    <path
        d="M3.57033,1.97648c.01225.01594.0262.026.0271.03706a.1882.1882,0,0,1-.00807.05991c-.0138.05425-.02891.10817-.04381.16213a3.51053,3.51053,0,0,0-.10453.58369c-.0027.03033-.00962.06027-.0126.09058a1.14636,1.14636,0,0,0,.02661.42393c.01353.04855.03315.0954.05.14312a.11613.11613,0,0,1-.02224.011L3.47,3.48138a.5899.5899,0,0,1-.134-.33481.868.868,0,0,1-.00833-.25831.14066.14066,0,0,0-.00211-.04549,1.15232,1.15232,0,0,1,.079-.538c.0261-.071.06373-.13792.08678-.21091A.27595.27595,0,0,1,3.53,2.02851C3.541,2.01216,3.55411,1.99725,3.57033,1.97648Z"/>
    <path
        d="M2.8711,3.13279A.50362.50362,0,0,1,2.87,2.99772c-.00325-.04554-.0059-.09119-.00676-.13683a.28675.28675,0,0,0-.10853-.226.1663.1663,0,0,0-.14153-.04175c-.02493.00478-.05016.00795-.07162.01128l-.03114.01423a.33478.33478,0,0,0-.18621.21061c-.0143.038-.02751.07654-.04442.11337-.00508.01108-.02094.01721-.03309.02655a.10708.10708,0,0,1-.01036-.0327q.00381-.05315.01143-.106a.44.44,0,0,1,.25012-.32583.20541.20541,0,0,1,.1033-.022.74126.74126,0,0,1,.26448.06786.16535.16535,0,0,1,.06012.04539.38176.38176,0,0,1,.07437.372.09674.09674,0,0,1-.01937.04106.71426.71426,0,0,0-.06986.11758c-.00438.00683-.01691.00906-.02616.01178Z"/>
    <path
        d="M3.53365,3.591c.02749.03544.05473.07146.083.10669a.51844.51844,0,0,0,.111.10324.21056.21056,0,0,0,.11372.03793.80225.80225,0,0,0,.24016-.03177.21673.21673,0,0,0,.14486-.12474.58647.58647,0,0,0,.05954-.24942.22809.22809,0,0,1,.00834-.05936.03278.03278,0,0,1,.02087-.01893.035.035,0,0,1,.02695.00747.117.117,0,0,1,.0398.07961.47575.47575,0,0,1,.00009.12111.7389.7389,0,0,1-.07489.21279.31309.31309,0,0,1-.16415.12931.54467.54467,0,0,1-.267.04522.4414.4414,0,0,0-.06021-.00751.29864.29864,0,0,1-.24086-.10835.162.162,0,0,1-.04885-.0926c-.00592-.045-.00953-.09042-.01252-.13576C3.51272,3.59521,3.52244,3.59,3.53365,3.591Z"/>
    <path
        d="M1.63605,3.29294a1.12259,1.12259,0,0,1-.25436.19345c-.00712.00327-.011.015-.01488.0235s.02084.02267.03573.0218a.37432.37432,0,0,0,.15927-.04613.57635.57635,0,0,0,.18935-.173.30012.30012,0,0,0,.038-.08229.49462.49462,0,0,0,.015-.22581.2633.2633,0,0,0-.06945-.14939,1.7268,1.7268,0,0,0-.25112-.21883l-.019-.00282c-.004.01262-.01569.02954-.01127.03861a1.072,1.072,0,0,0,.08055.14613.788.788,0,0,1,.09867.22137A.37012.37012,0,0,1,1.63605,3.29294Z"/>
    <path
        d="M.879,3.21344C.85616,3.17512.84359,3.15351.83053,3.13219Q.78676,3.06073.74259,2.9895A.39075.39075,0,0,1,.6924,2.84715c-.01381-.08007-.023-.16059-.032-.24111a.61534.61534,0,0,1,.01164-.197.39582.39582,0,0,1,.09217-.1894.28325.28325,0,0,0,.08519-.12386.04522.04522,0,0,0-.00859-.02615C.83967,2.06746.831,2.06814.82627,2.06944l-.01248.00772c-.01936.01644-.03772.03415-.05787.04954a.50573.50573,0,0,0-.19578.45581,1.07147,1.07147,0,0,0,.02279.16562c.01543.07453.03591.148.05419.222a.20178.20178,0,0,0,.049.09363c.04585.04722.09435.0919.14274.13657C.8351,3.20609.84725,3.20549.879,3.21344Z"/>
    <path
        d="M3.58834,2.63395A.44289.44289,0,0,1,3.682,2.48156a.17312.17312,0,0,1,.08925-.052.0179.0179,0,0,1,.023.01283.03622.03622,0,0,1,.00077.0142l-.00462.014a1.38473,1.38473,0,0,1-.17061.188c-.0089.00772-.02021.00979-.02727.001A.03.03,0,0,1,3.58834,2.63395Z"/>
    <path
        d="M3.61316,2.39864l-.00658-.011c.0136-.06849.07171-.10824.1074-.16252a.24607.24607,0,0,1,.11047-.10194c.00433-.00171.01275-.002.01456.00049a.07354.07354,0,0,1,.01111.02412.02017.02017,0,0,1-.00346.01451A1.16265,1.16265,0,0,1,3.61316,2.39864Z"/>
    <path
        d="M2.26346,4.08208c.0119-.00989.02137-.02431.03252-.02575a.09331.09331,0,0,1,.08178.02684.03232.03232,0,0,1,.00776.02571.03761.03761,0,0,1-.0186.02115.05014.05014,0,0,1-.02886.00326A.107.107,0,0,1,2.26346,4.08208Z"/>
    <text x="0" y="20" fill="#000000" font-size="5px" font-weight="bold"
          font-family="'Helvetica Neue', Helvetica, Arial-Unicode, Arial, Sans-serif">Created by Alice Noir
    </text>
    <text x="0" y="25" fill="#000000" font-size="5px" font-weight="bold"
          font-family="'Helvetica Neue', Helvetica, Arial-Unicode, Arial, Sans-serif">from the Noun Project
    </text>
</svg>
