<svg xmlns="http://www.w3.org/2000/svg" data-name="Layer 1" viewBox="0 0 5 6.25" x="0px" y="0px">
    <title>magic_witch_HALLOWEEN_mistery_magician</title>
    <path
        d="M1.15567,1.36591a.20861.20861,0,0,1,.066-.11318c.1106-.10539.22267-.20922.33754-.31675a2.15032,2.15032,0,0,1,.2636-.0953A1.008,1.008,0,0,1,2.29163.80889c.07157.01732.14588.01762.21863.03263a1.46412,1.46412,0,0,1,.47774.20272,1.98745,1.98745,0,0,1,.503.45294,1.351,1.351,0,0,0,.10269.12017.91413.91413,0,0,1,.20609.33331c.02456.064.04994.1277.07289.19226a.87089.87089,0,0,1,.05842.27714c.00159.09491.00321.19-.0008.28478a.96879.96879,0,0,1-.10407.41c-.05325.103-.0995.20961-.154.31188a1.53246,1.53246,0,0,1-.26649.37079,1.1033,1.1033,0,0,1-.21373.16091,2.68246,2.68246,0,0,1-.239.12292.76345.76345,0,0,1-.11973.03944,3.61026,3.61026,0,0,1-.43472.081.666.666,0,0,1-.22007-.00705c-.151-.02745-.29488-.08015-.44351-.11537-.08495-.04214-.17019-.0837-.25466-.12679-.02337-.01192-.043-.03161-.06678-.04218a.52162.52162,0,0,1-.19507-.18.02586.02586,0,0,1,.00911-.03952.14769.14769,0,0,1,.08012.04744.63561.63561,0,0,0,.24328.14938.74873.74873,0,0,1,.10329-.02407.63345.63345,0,0,1,.11048.0033A.81382.81382,0,0,0,2.06,3.8278a1.26994,1.26994,0,0,0,.46567-.26014,1.74,1.74,0,0,0,.31163-.3349c.04565-.06593.074-.13931.11338-.2076a.53922.53922,0,0,0,.06086-.21126c.006-.05215.02039-.1034.02539-.15559a1.302,1.302,0,0,0-.10453-.61771.23264.23264,0,0,0-.01315-.02877,1.55264,1.55264,0,0,0-.37377-.48451,1.14436,1.14436,0,0,0-.2426-.14725,1.14119,1.14119,0,0,0-.29226-.06379,2.05968,2.05968,0,0,0-.40457.06549c-.06922.02523-.13882.04946-.20824.07413q-.12269.09934-.24544.19861c-.02008.01619-.04049.0321-.062.04618L1.06723,1.682a.58679.58679,0,0,1,.14028-.16691c.09757-.0803.19625-.15876.30069-.23517a.85228.85228,0,0,1,.1796-.04877,1.31419,1.31419,0,0,0,.1537-.03658.68407.68407,0,0,1,.49268.0399,1.94957,1.94957,0,0,0,.30761.12441.44327.44327,0,0,1,.1622.09533,1.65142,1.65142,0,0,1,.24669.28665.31061.31061,0,0,1,.02994.05553,3.19021,3.19021,0,0,1,.14808.36632,1.61421,1.61421,0,0,0,.06616.17763.3896.3896,0,0,1,.03209.16923.669.669,0,0,1-.03714.21747,2.883,2.883,0,0,0-.08344.28842.63268.63268,0,0,1-.06167.162,2.88956,2.88956,0,0,1-.159.27317.96129.96129,0,0,1-.36409.32032c-.02376.01132-.04738.0232-.06993.03672-.03163.019-.06157.04079-.09342.05935-.02663.01552-.055.02812-.08281.04213L2.38415,3.92a.85786.85786,0,0,0,.47666-.08133A1.01144,1.01144,0,0,0,3.2266,3.5679,1.31347,1.31347,0,0,0,3.40117,3.305c.01834-.038.03358-.07776.0547-.11411A.74887.74887,0,0,0,3.54263,2.889c.01083-.09943.01194-.19994.01646-.3A.21387.21387,0,0,0,3.554,2.54208c-.02058-.11394-.03673-.22847-.06677-.3409A.99558.99558,0,0,0,3.36476,1.912C3.339,1.87226,3.32,1.82811,3.29367,1.78886a1.33767,1.33767,0,0,0-.28265-.296,1.85313,1.85313,0,0,0-.18023-.12836c-.112-.06919-.2249-.1374-.341-.19933a.71822.71822,0,0,0-.3503-.08391c-.02637.0003-.05285.002-.07911.00035A1.55634,1.55634,0,0,0,1.607,1.136a.50787.50787,0,0,0-.17349.07326c-.048.03254-.09709.06337-.14574.09489A.72338.72338,0,0,1,1.15567,1.36591Z"/>
    <path
        d="M2.31473,2.56861,2.49,2.803a.06182.06182,0,0,1-.01627.063c-.02205.02184-.0462.04156-.0713.06382a1.099,1.099,0,0,1-.24551-.06215.16559.16559,0,0,0-.11253-.00606.76933.76933,0,0,0-.10583.08676.24634.24634,0,0,1-.11217.05479.17088.17088,0,0,1-.077-.00528A.09689.09689,0,0,1,1.67866,2.889a.54.54,0,0,1,.01179-.06176c.01393-.05587.02872-.11153.04356-.16877a.221.221,0,0,0-.03176-.0341c-.03016-.02106-.06225-.03933-.09294-.05966a.2744.2744,0,0,1-.087-.09c-.03353-.05719-.02924-.10093.0437-.11842A.55577.55577,0,0,1,1.65957,2.345a.34271.34271,0,0,0,.10647-.0268.15251.15251,0,0,0,.088-.08533c.02433-.05819.0475-.11687.07169-.17512.00592-.01426.01387-.02769.01849-.03679a.04527.04527,0,0,1,.0617-.00188.46355.46355,0,0,1,.10288.11845.41484.41484,0,0,1,.02969.05561.14555.14555,0,0,0,.15329.08709c.047-.00216.09418.00108.13182.00173a.09537.09537,0,0,1,.06162.07857.13807.13807,0,0,1-.05435.09228c-.02415.02018-.05082.03753-.07376.05893A.42736.42736,0,0,0,2.31473,2.56861Zm-.03362.15382c.00327.01317.00675.01584.00876.00761L2.279,2.72454a.79236.79236,0,0,0-.04735-.16562.256.256,0,0,1-.00207-.035l.06634-.09883c-.00834-.0131-.01189-.025-.01973-.02959a.09866.09866,0,0,0-.04354-.01531.14554.14554,0,0,1-.13841-.10908.18615.18615,0,0,0-.03014-.05447.13539.13539,0,0,0-.04072-.02237l-.13774.16535a.75485.75485,0,0,1-.27539.09295c.04317.026.07777.04912.11449.0682.04148.02155.08488.03943.12639.05843a.24164.24164,0,0,1,.01735.14014c-.00292.04566-.032.08917-.01583.13788.07951-.02151.07951-.02151.23174-.181a.35469.35469,0,0,1,.12134.02724C2.23039,2.71122,2.25594,2.71623,2.28111,2.72244Z"/>
    <path
        d="M1.27978,1.91c.00811-.05932.05926-.0608.0719-.07051.051-.03952.0391-.099.098-.10917a.957.957,0,0,0,.08405.0606c.02659.0155.05783.02283.08543.03687a.15508.15508,0,0,1,.03252.02991c.00677.05345.01379.10421.01941.15513A.05259.05259,0,0,1,1.60487,2.06c-.03367-.01317-.06574-.03047-.10435-.04875l-.12883.06925c-.01275-.00793-.024-.0114-.02925-.019a.20673.20673,0,0,1-.02-.04192C1.30709,1.98116,1.2924,1.94252,1.27978,1.91Z"/>
    <path
        d="M3.8056,3.85172,3.715,3.92484a.098.098,0,0,1-.08587-.03452.10337.10337,0,0,1-.00692-.02961c.0017-.02566.00689-.0511.00852-.07676A.14671.14671,0,0,0,3.622,3.74752c.0171-.02075.03722-.04392.0559-.06819.0158-.02053.02993-.04235.04481-.06362L3.77719,3.596a.13068.13068,0,0,1,.06965.04349c.01936.01692.04109.03114.06355.04786a.386.386,0,0,1-.01994.13539.04076.04076,0,0,1-.04872.0291C3.83155,3.85091,3.82118,3.85172,3.8056,3.85172Z"/>
    <path
        d="M3.66712.93857A.08132.08132,0,0,1,3.64365,1.03a.35346.35346,0,0,1-.13647.07543.05948.05948,0,0,1-.05881-.013A.28374.28374,0,0,1,3.3673.98079c.00371-.01146.00381-.0253.01048-.03019A.58651.58651,0,0,0,3.50491.83709a.05877.05877,0,0,1,.07253.00037C3.60916.87211,3.63985.90771,3.66712.93857Z"/>
    <path
        d="M2.17959,3.35108c-.02126.047-.01349.1014-.03138.14318-.03775.02639-.06766-.00309-.1006.00483-.01568.00939-.033.02138-.05177.0306a.04307.04307,0,0,1-.062-.02773c-.00819-.04085-.01514-.08194-.02292-.12459.02652-.03948.05206-.07887.079-.11724A.05174.05174,0,0,1,2.07142,3.256Z"/>
    <path
        d="M2.32592,2.104c-.05663-.014-.036-.05379-.03043-.08716-.00278-.02694-.03121-.04407-.02352-.07316.02114-.027.05645-.02679.08272-.04323a.64968.64968,0,0,0,.0629-.05085c.014.00726.03311.01068.03935.02149.02251.039.0672.04945.10048.08426a.24593.24593,0,0,1-.03652.14481c-.01051.02084-.03437.02107-.05794.018L2.3973,2.076Z"/>
    <text x="0" y="20" fill="#000000" font-size="5px" font-weight="bold"
          font-family="'Helvetica Neue', Helvetica, Arial-Unicode, Arial, Sans-serif">Created by Alice Noir
    </text>
    <text x="0" y="25" fill="#000000" font-size="5px" font-weight="bold"
          font-family="'Helvetica Neue', Helvetica, Arial-Unicode, Arial, Sans-serif">from the Noun Project
    </text>
</svg>
