<svg xmlns="http://www.w3.org/2000/svg" data-name="Layer 1" viewBox="0 0 5 6.25" x="0px" y="0px">
    <title>magic_witch_HALLOWEEN_mistery_magician</title>
    <path
        d="M.8515,1.43937.8392,1.43369c-.00231-.00832-.0067-.019-.00356-.02547.03789-.07852.07415-.15806.11694-.23388a.87367.87367,0,0,1,.08735-.11009A1.17639,1.17639,0,0,0,1.19474.95491.1561.1561,0,0,1,1.25488.9227,1.30881,1.30881,0,0,1,1.87645.83477c.08659.00928.17272.02379.2586.03856A.58341.58341,0,0,0,2.35.87607.14748.14748,0,0,0,2.39618.71C2.374.64,2.34646.57156,2.31868.5035a.215.215,0,0,0-.0388-.05622A.379.379,0,0,0,2.23815.41155c-.05786-.04969-.06-.06539-.017-.14468A.38177.38177,0,0,1,2.53653.24069a.18914.18914,0,0,1,.12114.1052.6827.6827,0,0,1,.07759.34578A.71243.71243,0,0,1,2.71255.8132c-.007.02593-.02693.04926-.01615.08162a.14049.14049,0,0,0,.035.01466A.31249.31249,0,0,0,2.85459.90414c.10669-.02786.21519-.04539.32385-.06358a1.73285,1.73285,0,0,1,.38488-.01.28358.28358,0,0,1,.067.015c.03947.01225.07846.02606.11748.03971A.8664.8664,0,0,1,4.1426,1.175a.7997.7997,0,0,1,.14417.3096.48358.48358,0,0,1,.01375.06756,1.4528,1.4528,0,0,0,.12179.43574.27626.27626,0,0,1,.01854.17958.63529.63529,0,0,1-.15793.149c-.0164.03684-.03608.07359-.0492.11255a.49882.49882,0,0,1-.059.10856.32347.32347,0,0,1-.15316.13377c-.01271.00506-.02449.01246-.03678.01882-.03391.03206-.0383.08226-.07517.114a1.17047,1.17047,0,0,0-.09007.1038.31906.31906,0,0,0-.06552.10382.91.91,0,0,1-.06318.12237c-.02032.036-.046.06913-.06392.10613s-.02926.07723-.04351.1161a.323.323,0,0,1-.08356.09078.13121.13121,0,0,1-.12965.023C3.349,3.46233,3.32734,3.4559,3.30953,3.45a.17085.17085,0,0,0-.10508.09085c-.01526.02833-.02872.05763-.0442.08583a.5245.5245,0,0,1-.03648.05832.11033.11033,0,0,1-.10973.04291.224.224,0,0,1-.11243-.04833c-.01446-.01126-.02637-.02591-.04121-.03656a.09212.09212,0,0,0-.07835-.01665c-.0354.00889-.07053.01885-.10817.029-.01989.04147-.03849.08315-.05973.12344a.35422.35422,0,0,1-.0451.06872.19679.19679,0,0,1-.26162.03684.35536.35536,0,0,1-.05371-.0429c-.06912-.06725-.13738-.13539-.22443-.22148a.61937.61937,0,0,0-.24349-.09564.09494.09494,0,0,0-.07376.07327.66854.66854,0,0,1-.02451.07882.13663.13663,0,0,1-.198.05756A.607.607,0,0,1,1.421,3.66871c-.00443-.03516-.00931-.06683-.01214-.09869-.002-.02286-.00081-.046-.00187-.069a.33577.33577,0,0,0-.2055-.30219c-.02462-.01205-.05163-.01913-.0769-.03a.27753.27753,0,0,1-.102-.06913A.8961.8961,0,0,1,.86926,2.8889c-.03247-.071-.0605-.144-.09026-.2162C.76683,2.64315.75528,2.61334.7472,2.59309A.211.211,0,0,0,.67007,2.543a.3253.3253,0,0,1-.06651-.04768.16581.16581,0,0,1-.04214-.17795A.55683.55683,0,0,1,.6076,2.21741a1.01686,1.01686,0,0,0,.11381-.38073.62637.62637,0,0,1,.1089-.293l.01607-.00374a.1325.1325,0,0,1,.00827.038.64518.64518,0,0,1-.02723.16262.43571.43571,0,0,0-.01962.1496,1.00951,1.00951,0,0,1-.0204.26049.18743.18743,0,0,0-.00048.0821,1.04863,1.04863,0,0,0,.08836.28874c.03244.0606.05724.12529.08555.18811a.88156.88156,0,0,0,.19445.28208.172.172,0,0,0,.13828.04887.09577.09577,0,0,0,.09021-.07223c.01191-.04909.01994-.09913.03216-.14813a.20243.20243,0,0,1,.14264-.15558c.02654.00448.05385.00779.08052.01387a.12823.12823,0,0,1,.10449.11341c.00274.01813.00335.03659.00506.05489a.37691.37691,0,0,0,.00726.06823.29665.29665,0,0,1,.00608.14972.12332.12332,0,0,0,.01978.09181l.01.00783c.00842-.00132.02077-.00253.024-.00815A1.706,1.706,0,0,1,1.9361,2.972a.1.1,0,0,1,.09647-.04136.39682.39682,0,0,1,.06729.01347.11741.11741,0,0,1,.08984.09431c.00254.01349.00724.02657.011.03983a.33155.33155,0,0,1-.0006.20341.49119.49119,0,0,0-.008.23215.41447.41447,0,0,0,.15535.253.05123.05123,0,0,0,.06223-.00807.27685.27685,0,0,0,.041-.1038.41367.41367,0,0,0-.0111-.052.66287.66287,0,0,1-.00144-.34018.11874.11874,0,0,1,.0261-.04756c.02093-.02687.03-.03055.09369-.05171a.09608.09608,0,0,1,.06351.04888c.02194.035.04211.07114.064.10619a.04559.04559,0,0,0,.07094-.00467.75692.75692,0,0,0,.02991-.09136c.00543-.0221.00438-.04571.00758-.06845a.34277.34277,0,0,1,.08814-.198.23888.23888,0,0,0,.02722-.03113.19439.19439,0,0,1,.1782-.085.64079.64079,0,0,1,.06863.00533A.0825.0825,0,0,1,3.22875,2.9c.00965.0257.01872.05179.03068.07642a.072.072,0,0,0,.09623.02566A.32378.32378,0,0,0,3.50383,2.811a.47971.47971,0,0,1,.0452-.11427.21773.21773,0,0,1,.16638-.12389.5881.5881,0,0,0,.0711.01543A.19692.19692,0,0,0,3.85414,2.585a.143.143,0,0,0,.11253-.10914c.0067-.02672.01391-.05336.01939-.08035q.03154-.1552.06193-.31063a.04775.04775,0,0,0-.01692-.04944.071.071,0,0,0-.02542-.00324.09619.09619,0,0,1-.07992,0,.155.155,0,0,1-.07878-.1079.92272.92272,0,0,1-.00483-.11011.5188.5188,0,0,0-.02776-.16231,1.6076,1.6076,0,0,0-.07226-.19352.08158.08158,0,0,1-.00519-.04A.03269.03269,0,0,1,3.75,1.39586a.02833.02833,0,0,1,.02533-.00169c.05955.04262.11812.08661.177.1301a.03009.03009,0,0,0,.04565-.011.20465.20465,0,0,0-.01089-.14745.63736.63736,0,0,0-.34459-.32047.73322.73322,0,0,0-.17329-.04394.393.393,0,0,0-.18978.01772,1.36791,1.36791,0,0,0-.32336.1519c-.03822.02539-.07948.04616-.11854.07035a.60622.60622,0,0,1-.29861.0915.86064.86064,0,0,1-.4944-.14211l-.00886-.01022c-.01135-.0105-.00792-.0218.01731-.04741a.86513.86513,0,0,0,.0896.022c.03166.00459.06441.00137.09621.00536.02708.0034.05319.01437.08027.0179A.26385.26385,0,0,0,2.387,1.17706a.02808.02808,0,0,0,.02619-.02741c-.001-.01164-.01009-.0303-.01873-.03231a2.40435,2.40435,0,0,0-.2646-.07393c-.059-.00689-.11613-.028-.175-.037a1.88574,1.88574,0,0,0-.273-.03159,2.75556,2.75556,0,0,0-.28762.02665.686.686,0,0,0-.31108.16715c-.05349.06285-.11429.11935-.16206.18752C.90031,1.38583.87454,1.41211.8515,1.43937Z"/>
    <path
        d="M2.26284,1.65717a.25985.25985,0,0,1,.14681.23253A.50687.50687,0,0,1,2.3213,2.215a1.15559,1.15559,0,0,1-.22148.261.463.463,0,0,1-.1554.08624.04906.04906,0,0,1-.027-.00067.06306.06306,0,0,1-.02314-.0133.03455.03455,0,0,1,.00237-.03794.61349.61349,0,0,1,.065-.04982A.5431.5431,0,0,0,2.08513,2.352a.27535.27535,0,0,0,.06869-.13275.16537.16537,0,0,0-.00194-.03917L2.138,2.18031a.83324.83324,0,0,1-.30922.22255.87147.87147,0,0,1-.14205.05111.2923.2923,0,0,1-.291-.11212A.22739.22739,0,0,1,1.36689,2.28a.2667.2667,0,0,1,.0208-.21291c.029-.04671.05328-.09663.08526-.14109a.51952.51952,0,0,1,.093-.10066,1.32129,1.32129,0,0,1,.2939-.17609.28155.28155,0,0,1,.2012-.01649A.78445.78445,0,0,0,2.26284,1.65717Z"/>
    <path
        d="M2.68446,1.83518a1.06542,1.06542,0,0,1,.06048-.093.22974.22974,0,0,1,.19126-.09048c.032.00059.06408.0029.09613.003a.33167.33167,0,0,1,.21349.0818.56354.56354,0,0,0,.063.05278.47757.47757,0,0,1,.183.25017.24077.24077,0,0,1,.01021.14862c-.00708.03119-.01737.06165-.028.09864a.30059.30059,0,0,1-.34145.09777A.524.524,0,0,1,2.963,2.29837c-.00771.01383-.01626.022-.0149.02787.01031.04444.02314.08829.03395.13262a.04489.04489,0,0,1-.01874.048.07464.07464,0,0,1-.076-.018.383.383,0,0,1-.05588-.06043.8681.8681,0,0,1-.12763-.22579.46382.46382,0,0,1-.0253-.13429A1.41248,1.41248,0,0,1,2.68446,1.83518Z"/>
    <path
        d="M2.70119,2.70253c-.01969.06677-.04325.11494-.09612.13452-.043.01341-.07427-.02032-.122-.01216a.66623.66623,0,0,1-.06233.03431.17005.17005,0,0,1-.2215-.08038A.09138.09138,0,0,1,2.191,2.71229a.29157.29157,0,0,1,.02319-.06408c.02147-.0402.04581-.07886.06855-.11745.01357-.04872.02652-.097.04057-.145a.1181.1181,0,0,1,.0736-.07585.08756.08756,0,0,1,.10029.02.15055.15055,0,0,1,.025.03235,2.33919,2.33919,0,0,0,.135.23772A.63742.63742,0,0,1,2.70119,2.70253Z"/>
    <path
        d="M2.00786,3.714a.03938.03938,0,0,1,.05153.01772.61084.61084,0,0,1,.039.11664.35639.35639,0,0,0,.064.14983.46567.46567,0,0,1,.04112.07109.26913.26913,0,0,1,.01634.18722.16662.16662,0,0,1-.12957.12828.10575.10575,0,0,1-.05378-.00152A.23569.23569,0,0,1,1.92262,4.31.16506.16506,0,0,1,1.88035,4.197a.41332.41332,0,0,1,.02277-.13479A.80215.80215,0,0,0,1.961,3.83692a.13022.13022,0,0,1,.0107-.03951C1.98349,3.76827,1.99664,3.73966,2.00786,3.714Z"/>
    <path
        d="M1.44354,1.1461a.05219.05219,0,0,1-.02753.04451.39712.39712,0,0,0-.09466.1147c-.05684.08895-.09757.186-.14923.27744a1.02859,1.02859,0,0,0-.0563.13946.0957.0957,0,0,1-.06995.05957c-.02909.00791-.04171.00386-.08742-.03211A.47263.47263,0,0,1,1.0384,1.3626a.67932.67932,0,0,1,.12894-.14144.19794.19794,0,0,1,.03332-.02389.54462.54462,0,0,1,.1935-.06464A.04992.04992,0,0,1,1.44354,1.1461Z"/>
    <path
        d="M2.51854,4.64225a.18573.18573,0,0,1-.03974.11288.06368.06368,0,0,1-.03376.02133.14418.14418,0,0,1-.10593-.01183A.13916.13916,0,0,1,2.278,4.67721.14963.14963,0,0,1,2.28109,4.57a.81184.81184,0,0,0,.05328-.16852.2051.2051,0,0,1,.02539-.04771.03341.03341,0,0,1,.04775-.00366,1.11149,1.11149,0,0,1,.1085.26379A.13081.13081,0,0,1,2.51854,4.64225Z"/>
    <path
        d="M2.80545,3.85485l.08423.28135a.10565.10565,0,0,1-.0475.09145.16642.16642,0,0,1-.11657.0284A.13789.13789,0,0,1,2.626,4.15469a.12854.12854,0,0,1,.00711-.08018c.00566-.01239.01232-.02435.019-.03626a.38731.38731,0,0,0,.06375-.1492.06134.06134,0,0,1,.02246-.03327A.04642.04642,0,0,1,2.80545,3.85485Z"/>
    <path
        d="M1.66611,1.59239c-.017-.00863-.02292-.023-.0105-.03192.04065-.02924.08356-.05533.12773-.084.04643-.01237.0946-.02633.14338-.03767a.09367.09367,0,0,1,.06666.00618.03185.03185,0,0,1,.01478.02.03093.03093,0,0,1-.00752.02419.07434.07434,0,0,1-.0345.02059.8198.8198,0,0,0-.18325.0536A.76851.76851,0,0,1,1.66611,1.59239Z"/>
    <path
        d="M3.087,1.47829c-.00651-.0184-.00081-.03128.01256-.03494a.16665.16665,0,0,1,.16432.03511.30368.30368,0,0,1,.09357.11392.0258.0258,0,0,1-.00752.02279.03069.03069,0,0,1-.024.002A.04892.04892,0,0,1,3.30332,1.603a.35754.35754,0,0,0-.18342-.10894A.18286.18286,0,0,1,3.087,1.47829Z"/>
    <text x="0" y="20" fill="#000000" font-size="5px" font-weight="bold"
          font-family="'Helvetica Neue', Helvetica, Arial-Unicode, Arial, Sans-serif">Created by Alice Noir
    </text>
    <text x="0" y="25" fill="#000000" font-size="5px" font-weight="bold"
          font-family="'Helvetica Neue', Helvetica, Arial-Unicode, Arial, Sans-serif">from the Noun Project
    </text>
</svg>
