<svg xmlns="http://www.w3.org/2000/svg" data-name="Layer 1" viewBox="0 0 5 6.25" x="0px" y="0px">
    <title>magic_witch_HALLOWEEN_mistery_magician</title>
    <path
        d="M3.26929,4.39433a.83046.83046,0,0,0-.15044.02991,1.60059,1.60059,0,0,1-.34546.04013c-.06458-.00248-.12935-.00014-.194-.00025a.30539.30539,0,0,1-.0645-.002A1.6897,1.6897,0,0,0,2.25753,4.441a.95611.95611,0,0,1-.42824-.13c-.07428-.04372-.14665-.09034-.219-.13727a.89361.89361,0,0,1-.20643-.19338L1.33912,3.9001a.40734.40734,0,0,1-.03276-.03987.98169.98169,0,0,1-.14118-.3304.37973.37973,0,0,0-.01679-.06225.55913.55913,0,0,1-.03181-.20294c.00059-.1207-.00181-.24141-.00147-.36211a.30969.30969,0,0,1,.011-.07617c.00266-.01024.01577-.01776.02734-.02987a.15366.15366,0,0,1,.01505.03717.724.724,0,0,0,.01635.12789.33633.33633,0,0,1,.00562.07707c.00154.04741.004.09488.00295.14225a1.50861,1.50861,0,0,0,.05942.38166,1.44279,1.44279,0,0,0,.094.18355,2.16385,2.16385,0,0,0,.28428.31708.25884.25884,0,0,0,.05124.03909c.09394.05275.18657.10845.28356.155a.75993.75993,0,0,0,.324.07842c.18539.00144.37081-.00031.55619.00129a.91535.91535,0,0,0,.17843-.02751,1.17917,1.17917,0,0,0,.23636-.06537,1.26916,1.26916,0,0,0,.38769-.25266,1.02026,1.02026,0,0,0,.17493-.23863c.02136-.037.04156-.07514.062-.11291a.82132.82132,0,0,0,.07556-.1641l.004-.01228A.81229.81229,0,0,0,4.051,3.11494c.01767-.04666-.0072-.09414.00275-.14095-.0111-.12007-.01494-.24083-.037-.35984a1.55914,1.55914,0,0,1-.031-.19084A3.13906,3.13906,0,0,0,3.85678,2.058a.59413.59413,0,0,0-.086-.1285q-.062-.07481-.11662-.1547a.40069.40069,0,0,0-.22439-.16435c-.09089-.02669-.18022-.05867-.271-.08568a.78212.78212,0,0,0-.33223-.0325.7087.7087,0,0,0-.23578.06438.38077.38077,0,0,1-.14714.04363c-.00488.0004-.01068-.01058-.01609-.01631.0047-.00616.00807-.01483.01426-.018a.6799.6799,0,0,0,.12788-.061,1.08107,1.08107,0,0,1,.34671-.09646.22027.22027,0,0,0,.05144-.00416.5397.5397,0,0,1,.26853.01113c.08833.01909.17517.04522.26246.069a1.05887,1.05887,0,0,1,.602.44163,2.81326,2.81326,0,0,1,.14778.24268,1.85278,1.85278,0,0,1,.17451.48483,1.16236,1.16236,0,0,1,.03023.34606c-.00367.05141.00538.10424-.00247.15469-.00715.04594-.03347.08859-.04412.13437a1.12459,1.12459,0,0,1-.1406.31715,1.094,1.094,0,0,1-.18155.23345.90552.90552,0,0,0-.089.09353.71809.71809,0,0,1-.11979.117,2.307,2.307,0,0,1-.30566.21646.79258.79258,0,0,1-.17462.08245C3.38339,4.35209,3.28039,4.40438,3.26929,4.39433Z"/>
    <path
        d="M2.79868,3.73971c.01269-.01131.03007-.02023.03726-.03435a.336.336,0,0,0,.04322-.18614c-.002-.02139-.00267-.04292-.00351-.0644-.00063-.01591.00928-.02891.01941-.02689a.03569.03569,0,0,1,.02729.02414c.00754.02012.01418.04059.02053.06112a.20994.20994,0,0,1-.00051.11446,1.00561,1.00561,0,0,1-.07159.16521l.00342.01059.01.00467a.24288.24288,0,0,0,.12113-.17269c.00474-.034.01077-.06792.01728-.1085-.01231-.06091-.026-.128-.039-.19517l.00758-.00989.01117-.0008a.15487.15487,0,0,1,.07878.12568c.00634.0467.00474.09447.00672.14177.00067.016-.004.03294.00841.04695.00628-.00586.01534-.01042.01781-.01733a.31083.31083,0,0,0,.0214-.07374.69326.69326,0,0,0-.00989-.22619c-.02983-.04329-.057-.08188-.08293-.12133a.04648.04648,0,0,1-.00191-.024c.00019-.00912.02086-.01116.0347-.00312a.363.363,0,0,1,.04382.02684.28788.28788,0,0,1,.08613.11127c.00682.01552.01245.03155.01808.04595A.021.021,0,0,0,3.254,3.34026a.169.169,0,0,0,.00356-.06343c-.00638-.03359-.01869-.066-.03007-.10425l-.09643-.09822L3.10488,3.046a.02523.02523,0,0,1,.00221-.03443.03616.03616,0,0,1,.02279-.00841.21858.21858,0,0,1,.1042.04832q.02843.02629.05754.05183c.00946.00828.01972.01563.0289.02284a.0172.0172,0,0,0,.01082-.02239.23.23,0,0,0-.05051-.089A.557.557,0,0,0,3.15288,2.907a.11279.11279,0,0,1-.03268-.03822c-.00285-.00451.00256-.01506.00573-.02217l.01012-.007a.06347.06347,0,0,1,.02545.0001c.037.01146.0734.02469.11045.03587.00672.002.01544-.00256.02327-.0041.00342-.03456-.0309-.04806-.0366-.07276a.34847.34847,0,0,0-.03695-.02341c-.02339-.01077-.0483-.01847-.071-.03042-.01023-.00539-.01669-.018-.02392-.02619a.044.044,0,0,1,.0494-.03553c.021.00136.0412.01155.06223.015a.14028.14028,0,0,0,.03622-.00335.07858.07858,0,0,0-.03382-.05569c-.02561-.02285-.053-.04373-.07978-.06526-.03034-.02439-.02452-.04881.01611-.065.012-.00477.02458-.00789.0369-.01176.00281.01056.00559.01259.00715.0058l-.009-.004a.06879.06879,0,0,0-.02442-.05716c-.01928-.01707-.03993-.03259-.05965-.04917a.0262.0262,0,0,1-.00229-.03424c.00649-.00482.01623-.01126.02243-.00951.03685.01039.07309.02294.10955.03477.00452-.00582.01347-.01219.01283-.01737a.23545.23545,0,0,0-.07072-.12172c.01052-.00645.02213-.01929.0301-.01733a.16212.16212,0,0,1,.05776.02632c.02041.01537.03609.03685.05516.05422a.448.448,0,0,0,.0415.03019l.05719-.035c.04711.03652.02636.10821.07363.14555.02009-.03641.00476-.07637.01315-.11327a.06167.06167,0,0,1,.012-.02187l.01141-.002.01.00543a.12236.12236,0,0,1,.01161.03584c.00366.05587.00465.11192.00887.16773a.06115.06115,0,0,0,.03.05518c.03048-.03957-.00157-.09141.02737-.13386.00843.0098.02051.01778.02334.02825.00891.033.01435.067.02188.10422l.04337.00549c0,.02961-.00083.05954.00032.0894a.11584.11584,0,0,0,.00785.05034.24688.24688,0,0,1,.02194.15079.10716.10716,0,0,0,.01242.0623.12621.12621,0,0,1,.00626.08815.371.371,0,0,1-.146.236c-.01379.01024-.02766.02043-.04083.03143L3.58746,3.3a.01543.01543,0,0,0,.01974.01061c.01985-.0037.04065-.01721.05992.00656-.03227.05583-.09084.09048-.12489.15013l.00532.034c.00834.06345-.00311.08447-.06112.11116-.01552.00714-.03159.01309-.04951.02045l-.02432.04428a.0962.0962,0,0,1-.117.056.03955.03955,0,0,0-.05063.02747c-.00628.01589-.0099.03289-.01691.0484a.05975.05975,0,0,1-.03942.03081.06864.06864,0,0,1-.02553.0027.10988.10988,0,0,0-.10074.04665.12626.12626,0,0,1-.01694.01563c-.06121.0095-.12025.01851-.17924.02787a.87788.87788,0,0,1-.08894.01458,3.037,3.037,0,0,1-.3874.00028.34627.34627,0,0,1-.159-.04588l-.00383-.01168.00674-.00845a.15188.15188,0,0,1,.03738.00036.61551.61551,0,0,0,.26857-.00521.25048.25048,0,0,0,.16047-.12067.49687.49687,0,0,0,.075-.17736c.00089-.00586.00978-.01051.015-.01573l.00679.01089c.00152.0559.00249.11181.00359.16772l-.02707.02647a.05584.05584,0,0,0-.02523.05134l-.01057.00282-.0021.00739c.00712.00222.01078-.002.01084-.012.02377-.00962.02329-.03109.02513-.05143Zm.87-1.06989a.21019.21019,0,0,0-.033.10415l.00556.01c.00667-.00092.01607-.00174.01908-.00623A.12579.12579,0,0,0,3.66867,2.66982Z"/>
    <path
        d="M.84429,1.50524c.01871.03132.03768.05992.05314.0903A.11446.11446,0,0,1,.90882,1.645a.04446.04446,0,0,1-.01475.033.04155.04155,0,0,1-.035-.00023.15787.15787,0,0,1-.04091-.03105C.7967,1.62555.777,1.60264.75638,1.58057a.2111.2111,0,0,0-.04494-.046.6365.6365,0,0,1-.12928-.12507.13011.13011,0,0,1-.038-.09374c-.00039-.03.0011-.05995.00154-.0803.02936-.054.05178-.10067.07907-.14423A.52438.52438,0,0,1,.74826.94307a3.03082,3.03082,0,0,1,.2684-.20163C1.08711.7,1.15708.65763,1.22846.61779A.74923.74923,0,0,1,1.48661.53814a.23227.23227,0,0,1,.19288.0542l.07829.0678A.33739.33739,0,0,1,1.69214.9522a1.25967,1.25967,0,0,1-.14191.16707c-.03618.0328-.29276.21817-.33557.24036a.72088.72088,0,0,1-.14382.05682c-.06637.018-.13094.04276-.19583.06589A.1371.1371,0,0,0,.84429,1.50524Zm.064-.484A.03608.03608,0,0,0,.93447.99553.03442.03442,0,0,0,.95972.97005.03375.03375,0,0,0,.98595.94376c.03937.00361.0585-.02331.077-.05109L1.07.88725,1.06486.89452C1.03122.8995.99732.90407.98753.94534A.03068.03068,0,0,0,.96146.97179.03047.03047,0,0,0,.93618.99727.03157.03157,0,0,0,.91,1.023a.03385.03385,0,0,0-.02638.02629.639.639,0,0,0-.11332.07947.5715.5715,0,0,0-.0677.17369.12315.12315,0,0,0,.07129.07674A.16038.16038,0,0,0,.87435,1.383c.01229-.00339.02431-.00776.03638-.01191.02818-.00969.0559-.021.08455-.029a.65259.65259,0,0,0,.22125-.12406.15791.15791,0,0,0,.02765-.04153.05355.05355,0,0,0,.052-.02522.0406.0406,0,0,0,.02633-.02678c.01132-.00356.02283-.00664.03384-.011l.006-.00948c-.001-.01119-.00779-.01372-.01593-.0054a.322.322,0,0,0-.02206.02775.03811.03811,0,0,0-.0264.02673.05387.05387,0,0,0-.05229.02526c-.024.00784-.04884.01384-.07185.02395-.03493.01534-.06828.03424-.10289.05035a.26762.26762,0,0,1-.13573.02743.0853.0853,0,0,1-.07989-.053C.84751,1.20788.84217,1.18766.8393,1.17888.846,1.1241.8823,1.09228.8819,1.0475A.03236.03236,0,0,0,.90828,1.02124Zm.50207.03629.0216-.00819a.96467.96467,0,0,0,.146-.1782A.17936.17936,0,0,0,1.59957.82463a.08935.08935,0,0,0-.02534-.105C1.56162.70842,1.5474.699,1.53791.69175A.19342.19342,0,0,0,1.41932.7046C1.3924.71626,1.36109.72127,1.344.75348A.34758.34758,0,0,1,1.4067.76609a.34381.34381,0,0,1,.067.037.0767.0767,0,0,1,.02807.09125.30641.30641,0,0,1-.05892.09872A.08454.08454,0,0,0,1.41035,1.05753Z"/>
    <path
        d="M1.918.97335C1.883.899,1.85335.8369,1.82506.7742,1.82292.76945,1.82989.76,1.834.75357L1.8459.75628c.03849.04048.07693.081.11461.12227.026.02847.05088.058.08047.09189a.2913.2913,0,0,1,.03009.1867l-.045.09035a.18727.18727,0,0,0,.0233.04385c.08559.09153.14865.2004.23285.29131a.44276.44276,0,0,1-.00677.05513.06725.06725,0,0,1-.05332.05A.18461.18461,0,0,1,2.04191,1.644c-.05692-.0528-.12554-.09123-.17858-.14859a.13108.13108,0,0,0-.031-.023.07652.07652,0,0,0-.07423-.00338c-.01541.00736-.02908.0183-.0439.027a.39015.39015,0,0,1-.06749.03768c-.09823.03352-.18616.089-.28118.12921a.19967.19967,0,0,0-.04364.027c-.00579.0045-.00748.01425-.011.02152a.06618.06618,0,0,0,.03063.04007c.02766.02052.05649.03947.08385.06036a.14634.14634,0,0,1,.05691.13644.2068.2068,0,0,1-.03884.121,1.22864,1.22864,0,0,0-.065.12525.761.761,0,0,0-.06081.1279c-.02472.05959-.055.11689-.08386.17471a.25321.25321,0,0,1-.02727.03517.13445.13445,0,0,1-.00843-.03675.54016.54016,0,0,1,.04107-.13547c.02142-.05629.03935-.11391.061-.1701A.47729.47729,0,0,0,1.3245,2.012a.24541.24541,0,0,0-.0885-.19314c-.026-.02239-.05264-.04415-.08185-.0686-.04489-.00418-.0916-.00811-.1381-.01373L1.00917,1.717a.14757.14757,0,0,1,.03731-.034.177.177,0,0,1,.04884-.0155.79276.79276,0,0,0,.24871-.105c.03659-.02273.0752-.0426.11-.06772a1.88341,1.88341,0,0,0,.37883-.3485A.46114.46114,0,0,0,1.918.97335Z"/>
    <path
        d="M3.28221,1.8393a.04811.04811,0,0,1-.03554.03137,2.45483,2.45483,0,0,0-.33762.08325c-.0872.023-.17277.0522-.26.075a.27277.27277,0,0,1-.26121-.01565.5691.5691,0,0,1-.09049-.04879c-.02805-.01989-.05658-.0391-.08479-.05876-.03523-.02454-.069-.05164-.10593-.07319-.03681-.02145-.0769-.03723-.11527-.05609l-.004-.01122c.0037-.00613.00945-.01531.01463-.01547a.15794.15794,0,0,1,.051.00457.65764.65764,0,0,1,.10886.04.361.361,0,0,0,.16228.03387.59168.59168,0,0,0,.28664-.064,1.11067,1.11067,0,0,1,.29611-.08675.2094.2094,0,0,1,.07691-.00058c.07173.01383.14269.03162.21406.04738a.108.108,0,0,1,.08415.0878A.12057.12057,0,0,1,3.28221,1.8393Z"/>
    <path
        d="M1.60893,2.4582a.08575.08575,0,0,1,.07418-.01065.06528.06528,0,0,1,.0503.05252.2163.2163,0,0,1-.00532.08953c-.0195.06595-.03858.132-.05886.19774-.01778.05759-.02993.11636-.04327.17506a.5082.5082,0,0,0,.01118.25492.63834.63834,0,0,1,.02109.07435.36173.36173,0,0,1,.00116.07678.04643.04643,0,0,1-.02975.03906.09263.09263,0,0,1-.06108.01365.36573.36573,0,0,1-.09079-.16662c-.01171-.05022-.0194-.10138-.03145-.15151a.55905.55905,0,0,1,.0075-.28088l.00942-.03756A.78214.78214,0,0,1,1.60893,2.4582Z"/>
    <path
        d="M1.86107,3.75207l.08308-.04563a.31582.31582,0,0,0,.04206-.11453c.01015-.0367-.00044-.077.0132-.1133l.0257.00287a.53244.53244,0,0,1,.04786.10444.27468.27468,0,0,0,.09413.14951l.00337.01222c-.00354.00745-.00516.01744-.011.02188-.017.013-.03626.023-.05374.03546a.12046.12046,0,0,0-.05689.096.098.098,0,0,1-.00951.03709.0305.0305,0,0,1-.0196.01437.02512.02512,0,0,1-.02166-.0073.22289.22289,0,0,1-.02637-.058.13315.13315,0,0,0-.06718-.08995C1.88624,3.78676,1.86508,3.77886,1.86107,3.75207Z"/>
    <path
        d="M2.10565,2.803l-.06843-.03667a.05162.05162,0,0,1-.00261-.01475c.00612-.03626.04508-.05116.05994-.10023l.01-.11249a.02531.02531,0,0,1,.03873-.01739.10562.10562,0,0,1,.02945.02383c.01948.02825.0339.06037.05552.08668a.7136.7136,0,0,0,.07158.06768.04464.04464,0,0,1-.01259.05006.09357.09357,0,0,1-.02036.01581.12105.12105,0,0,0-.06019.09424.10625.10625,0,0,1-.00753.02453c-.00477.013-.03692.018-.0448.00653-.00958-.014-.01824-.02863-.02642-.04348S2.11262,2.817,2.10565,2.803Z"/>
    <path
        d="M2.99244,2.49132,2.93861,2.566c-.00272.01984-.00562.04513-.01.07017a.04815.04815,0,0,1-.01043.02263.03415.03415,0,0,1-.02062.012.02723.02723,0,0,1-.02165-.00944c-.01267-.02192-.02289-.04526-.03285-.06565-.02654-.041-.082-.02879-.11-.06722-.00068-.04209.04046-.06208.058-.10476l.00652-.06745a.09338.09338,0,0,1,.04715-.072.02746.02746,0,0,1,.0333.00824.16983.16983,0,0,1,.01636.03448.2614.2614,0,0,0,.092.14871Z"/>
    <path
        d="M2.58192,3.22608c-.00657-.00385-.01547-.00621-.01918-.01193a.11065.11065,0,0,1-.01532-.03477A.16539.16539,0,0,0,2.445,3.043a.19736.19736,0,0,1,.018-.04108.31713.31713,0,0,0,.04976-.10272A.29809.29809,0,0,1,2.535,2.854a.02793.02793,0,0,1,.04369-.0023.08688.08688,0,0,1,.0122.02186.13328.13328,0,0,0,.05923.08014c.02051.01435.0472.02145.05889.05005-.01277.04215-.0613.05577-.08086.09362C2.60731,3.13824,2.624,3.19266,2.58192,3.22608Z"/>
    <text x="0" y="20" fill="#000000" font-size="5px" font-weight="bold"
          font-family="'Helvetica Neue', Helvetica, Arial-Unicode, Arial, Sans-serif">Created by Alice Noir
    </text>
    <text x="0" y="25" fill="#000000" font-size="5px" font-weight="bold"
          font-family="'Helvetica Neue', Helvetica, Arial-Unicode, Arial, Sans-serif">from the Noun Project
    </text>
</svg>
