<svg xmlns="http://www.w3.org/2000/svg" data-name="Layer 1" viewBox="0 0 5 6.25" x="0px" y="0px">
    <title>magic_witch_HALLOWEEN_mistery_magician</title>
    <path
        d="M2.04749,3.37037a.03714.03714,0,0,0,.01238-.042.20446.20446,0,0,0-.23442-.14205c-.02444.005-.04829.01288-.07248.01916l-.02629.0054.00033-.0175a.10256.10256,0,0,1,.04942-.0417.27693.27693,0,0,1,.11683-.03126.136.136,0,0,0,.02825-.005.13027.13027,0,0,0,.03016-.07594.02662.02662,0,0,0-.007-.01639.02014.02014,0,0,0-.02537-.00122l-.07862.07572a.11544.11544,0,0,1-.12343-.03131A.23254.23254,0,0,0,1.696,3.04791a.02335.02335,0,0,0-.03287.00579.25.25,0,0,0-.0237.06049.11385.11385,0,0,1-.097.1003c-.01206.00293-.02384.007-.03614.01064a.27977.27977,0,0,0-.02566.02754.07137.07137,0,0,0,0,.087c.01335.01726.02922.03274.04122.05084a.08056.08056,0,0,1,.00345.0965.13216.13216,0,0,0-.02331.07949.07228.07228,0,0,0,.03394.063c.02334.0156.04631.03175.06917.048l.00227.00824-.014.00728c-.0295-.01009-.05856-.02145-.0909-.03361-.012-.01532-.026-.032-.0385-.04963-.01082-.01525-.02-.03168-.027-.043a.26363.26363,0,0,1,.0064-.15483c-.01148-.021-.02453-.04212-.03493-.06446A.12377.12377,0,0,1,1.46031,3.186a.62711.62711,0,0,1,.0605-.02425.30773.30773,0,0,0,.03246-.0192l.008-.05647a.12394.12394,0,0,1,.09518-.11452L1.67459,2.967l.00946-.00081a.18676.18676,0,0,1,.06776.0304c.01776.01175.02081.0397.051.04242.02813-.02017.04936-.05237.08147-.07554a.09962.09962,0,0,1,.10169.02595c.0297.02488.02364.0624.02824.09127.01283.017.0257.00952.03725.00815a.13643.13643,0,0,1,.07347.00834.09639.09639,0,0,1,.06385.07534c-.00051.0304-.03258.0548-.01442.0971.00346.00688.01812.01308.03217.01963A.13495.13495,0,0,1,2.2821,3.39a.26652.26652,0,0,1-.00205.1389.12845.12845,0,0,1-.01847.04253.40894.40894,0,0,0-.03635.06534.1605.1605,0,0,1-.12414.0895l-.06454.00906-.09509.07992c.00512.02242.011.04321.01439.06439.00347.02146.00456.04331.00656.06356-.016.01558-.02988.01749-.03865.006a.14181.14181,0,0,1-.0207-.03084c-.0105-.02605-.0188-.053-.02747-.078a.02515.02515,0,0,0-.0342-.00717.03637.03637,0,0,0-.01947.02991.17318.17318,0,0,0,.01009.08279.65506.65506,0,0,0,.03748.0754.19935.19935,0,0,0,.02789.03189.1188.1188,0,0,0,.02214.007.8995.8995,0,0,1,.17689.01748.25314.25314,0,0,0,.06539.00176.84714.84714,0,0,1,.19521.02249c.1246.0294.24955.05733.37434.08594a2.15252,2.15252,0,0,1,.21768.055,1.36862,1.36862,0,0,0,.1921.04131.07815.07815,0,0,0,.03708.00006.20618.20618,0,0,1,.07414-.00175c.00678.00019.01382-.00894.02475-.01659-.01966-.01114-.0357-.01912-.05047-.029a.28024.28024,0,0,1-.02813-.02471.33975.33975,0,0,1-.09669-.13581c-.01538-.04085-.03563-.08-.05493-.11923a.54953.54953,0,0,1-.05278-.15964,1.0896,1.0896,0,0,1-.02834-.18491l-.00091-.00931a.75567.75567,0,0,1,.02691-.36981.301.301,0,0,1,.04616-.102c.01194-.01756.03031-.03205.03228-.058a.07958.07958,0,0,0-.0154-.02051A.54869.54869,0,0,0,2.909,2.96951c-.0207-.00666-.03968-.01851-.06-.02646-.03492-.01362-.06993-.02724-.10561-.03863-.04165-.01329-.08379-.02532-.12624-.03576-.03936-.00967-.07928-.01718-.11911-.02491-.06744-.0131-.13683-.013-.20318-.03244a.16185.16185,0,0,0-.03717-.00442A.63741.63741,0,0,1,2.118,2.79211l-.00927-.00134c-.07814-.0017-.15629-.00371-.23444-.00473a.04969.04969,0,0,0-.04667.03936c-.00617.02741-.01062.05522-.01711.08255a.19488.19488,0,0,1-.01364.03406l-.007.00458c-.00537-.00212-.01336-.00474-.0146-.00888a.19862.19862,0,0,1-.00891-.04522c-.00172-.03115-.00121-.06242-.00206-.09363a.03311.03311,0,0,0-.02314-.02645.16534.16534,0,0,0-.02761-.00448.46592.46592,0,0,1-.10247-.0099.227.227,0,0,0-.04652-.00453c-.05627-.0011-.11257-.00261-.16883-.00174A.86483.86483,0,0,0,1.29313,2.76a.30237.30237,0,0,1-.12082-.00157.13013.13013,0,0,0-.0555.00036c-.05522.01042-.11054.02112-.1648.03555A.39128.39128,0,0,1,.83154,2.808C.79413,2.80625.75644,2.80773.7193,2.80375a.03469.03469,0,0,1-.0317-.04039.16675.16675,0,0,1,.10308-.05815,1.84538,1.84538,0,0,1,.26622-.05156.91453.91453,0,0,1,.14827-.02.04156.04156,0,0,0,.03041-.032.15107.15107,0,0,0-.00015-.03728.79562.79562,0,0,0-.02375-.1002,2.1578,2.1578,0,0,1-.06091-.24534c-.01765-.08232-.03239-.16526-.048-.248-.00405-.02142-.00771-.043-.00981-.06469-.0054-.05585-.00829-.1117-.01733-.16746a1.10151,1.10151,0,0,1-.00619-.15916.73341.73341,0,0,0-.01111-.14935.14566.14566,0,0,1-.00256-.04664.96169.96169,0,0,1,.02691-.17538c.0254-.0837.05244-.16712.084-.24863a.44075.44075,0,0,1,.0808-.1364c.04178-.0464.0861-.09074.13183-.13327A.56246.56246,0,0,1,1.456.63646.0286.0286,0,0,1,1.47391.63281a.02459.02459,0,0,1,.0157.00813l.00093.01594C1.47179.6732,1.4522.6886,1.4324.70368a.69133.69133,0,0,0-.20758.23789,1.03135,1.03135,0,0,0-.05432.15943.68776.68776,0,0,0-.02653.17524,2.233,2.233,0,0,0,.007.2524c.005.07444.01889.14844.0207.22344.01819.05391.00808.11233.02647.16621.00728.08134.03816.15787.049.23841a2.23285,2.23285,0,0,1,.03545.269c.00037.02779.00814.0554.011.08326s.00331.056.00557.0839a.03039.03039,0,0,0,.02631.02281.10641.10641,0,0,0,.02788-.00145.42408.42408,0,0,1,.13029-.00943c.05615.0007.11173.00908.16777.01063.05626.00156.11252.00294.16878.00463a.21729.21729,0,0,1,.0467.00307.864.864,0,0,0,.18649.01568.44544.44544,0,0,1,.06511.0067,1.87887,1.87887,0,0,0,.25968.02909.65024.65024,0,0,1,.13888.01956c.07549.02.15148.03806.22726.05692a.05726.05726,0,0,1,.01808.00459c.06218.04253.13894.05568.19971.10215.062.04741.12759.09009.19183.13451a.49777.49777,0,0,0,.09664.05677.19393.19393,0,0,1,.08432.06623c.011.02695.02361.05888.03694.09053.0158.03754.02425.07736.03662.1158a.61457.61457,0,0,1,.01631.31431.45551.45551,0,0,0-.00439.05606.17034.17034,0,0,1-.05442.116c-.0159.01493-.0325.02913-.04481.04012a.1645.1645,0,0,1-.07862.01282c-.03439-.00019-.06877-.00126-.10316-.00123-.02854,0-.04292.0174-.03356.04122a1.91346,1.91346,0,0,0,.08042.18983.32467.32467,0,0,0,.08617.11131c.02926.00378.05982.00851.09054.01141a.6413.6413,0,0,0,.06551.00211.12214.12214,0,0,0,.07773-.02871.64356.64356,0,0,0,.1828-.23451.91529.91529,0,0,0,.08446-.372c.00095-.11255-.00112-.22512-.00189-.33768A.09836.09836,0,0,0,3.77074,3.224a1.3811,1.3811,0,0,1-.01344-.22434c-.00239-.06243-.00614-.12448-.013-.18677-.00815-.07445-.01437-.14924-.02319-.2237-.00477-.04031-.01072-.08049-.01545-.1208-.00254-.0217-.00388-.04355-.00534-.06536l-.00964-.14958c-.0041-.06237-.00928-.12468-.01219-.18709a1.662,1.662,0,0,0-.01109-.16806,1.11,1.11,0,0,1-.00377-.16855,1.61346,1.61346,0,0,1,.04116-.32453c.02138-.10083.04711-.20074.069-.30147.0101-.0465.035-.08684.04888-.13158A.40792.40792,0,0,1,3.92664.8534a.03724.03724,0,0,0,.0225-.02759A.186.186,0,0,0,3.84853.78175.60012.60012,0,0,1,3.77487.76924.30608.30608,0,0,0,3.67261.75971c-.04358.00278-.087.00847-.13047.01252-.01863.00174-.03734.00318-.056.0036-.07191.00161-.14383.00273-.21575.00406a.52075.52075,0,0,0-.10253.00934.46.46,0,0,1-.07449.00734A1.39326,1.39326,0,0,0,2.95352.81.63189.63189,0,0,1,2.77589.80978.16168.16168,0,0,0,2.7298.8032,1.58,1.58,0,0,1,2.49661.79787a.79551.79551,0,0,1-.16809-.012A.70509.70509,0,0,0,2.21628.77982.43279.43279,0,0,1,2.09548.767.19564.19564,0,0,0,2.04927.76038.42384.42384,0,0,1,1.95659.74763a.15.15,0,0,0-.04644-.005.58007.58007,0,0,1-.157-.02286C1.70749.70931,1.66248.69614,1.61747.68322A.13124.13124,0,0,1,1.55325.64657.02146.02146,0,0,1,1.54914.62972.01984.01984,0,0,1,1.56059.61716a.05789.05789,0,0,1,.02753-.002.88693.88693,0,0,0,.205.01577,1.11155,1.11155,0,0,1,.20554.01112A.886.886,0,0,0,2.139.64837c.0719.00139.14382.00148.21572.00266a.42833.42833,0,0,1,.07475.00434.39728.39728,0,0,0,.13006.00093.3236.3236,0,0,1,.08394.0002,1.22875,1.22875,0,0,0,.33626-.002A.38846.38846,0,0,1,3.02643.651c.0719-.002.1438-.00357.2157-.0055A.3048.3048,0,0,0,3.28884.64256.7639.7639,0,0,1,3.55.64274.322.322,0,0,0,3.606.64708a1.67972,1.67972,0,0,1,.36884.06038A.43176.43176,0,0,1,4.04444.735,1.31147,1.31147,0,0,1,4.2129.83492a.21508.21508,0,0,1,.0828.08792.37537.37537,0,0,0,.085.116.87226.87226,0,0,1,.04792.20557.68027.68027,0,0,1-.02141.29707,1.07248,1.07248,0,0,1-.07046.18361c-.01988.039-.03868.07848-.05882.11731a.17839.17839,0,0,1-.06138.06938.90789.90789,0,0,1-.1177.07642.09689.09689,0,0,1-.064.007c-.07582-.018-.15147-.03666-.23027-.05582-.00359.00657-.01114.0139-.01093.021a2.53811,2.53811,0,0,0,.01314.29015,1.28055,1.28055,0,0,1,.00625.14983A.61388.61388,0,0,0,3.823,2.5123c.00514.02436.00626.04957.00917.0744.004.03409.00823.06815.01193.10228.002.01862.00377.03731.00456.056a.79912.79912,0,0,0,.01259.13046.58646.58646,0,0,1,.00656.09339,1.2232,1.2232,0,0,0,.01489.18671.48884.48884,0,0,1,.00555.09351c.00025.09695-.0003.1939-.00112.29084a.87434.87434,0,0,1-.063.31945c-.01027.02618-.021.05222-.03011.07879a.35891.35891,0,0,1-.037.07549c-.01829.0289-.0308.06167-.05058.08936a.76379.76379,0,0,1-.06372.06841c-.00844.00916-.0154.01968-.02361.03033l-.07054.04468a.23481.23481,0,0,1-.058.03.158.158,0,0,0-.04948.02555.13029.13029,0,0,1-.06822.02779.0787.0787,0,0,0-.03458.0132A.13508.13508,0,0,1,3.249,4.364a.34233.34233,0,0,0-.11069.01377A.36662.36662,0,0,1,2.98023,4.376a.5374.5374,0,0,1-.07307-.01651.32523.32523,0,0,0-.1109-.01512A.22079.22079,0,0,1,2.696,4.32411a.0976.0976,0,0,0-.02643-.00943c-.084-.01221-.16236-.04533-.24432-.06505a1.04739,1.04739,0,0,0-.22153-.03432.30439.30439,0,0,1-.07423-.00785.34905.34905,0,0,0-.10206-.01086.293.293,0,0,1-.1202-.01424c-.08812-.00419-.1709-.0365-.25755-.0488-.05868-.00832-.11687-.02013-.17554-.02858a.41651.41651,0,0,0-.06551-.00117.48475.48475,0,0,1-.13943-.01405.33073.33073,0,0,0-.0649-.00742A.20336.20336,0,0,1,1.1068,4.054l-.00489-.01641.00676-.0052A.88221.88221,0,0,1,1.3128,4.019a.318.318,0,0,0,.05586.00424,1.41761,1.41761,0,0,1,.1965.00351.61124.61124,0,0,1,.08328.01149.37482.37482,0,0,0,.13045.00535c.011-.00211.024-.01674.02153-.02663-.00814-.03326-.01647-.06649-.02578-.09944-.00143-.00505-.00835-.00855-.015-.015l-.047.02244c-.00991-.00151-.0196-.00963-.01935-.017a.125.125,0,0,1,.00311-.03672c.00726-.0205.01782-.03982.02639-.05829a.03656.03656,0,0,0-.0192-.03147L1.6564,3.75115c-.00736-.00491-.01074-.02011-.0048-.02488.00682-.00547.01585-.01264.02332-.012.01848.0016.03649.008.05493.01108a.21361.21361,0,0,0,.11081-.00568.01109.01109,0,0,0,.00794-.01494l-.005-.00685c-.019-.0133-.04211-.00942-.06307-.01472a.18589.18589,0,0,1-.104-.059c-.01585-.01916-.03454-.036-.05149-.05334L1.5827,3.4036c.00365-.01556.00874-.0335.01192-.05178s.00307-.03744.00712-.0556A.02783.02783,0,0,1,1.62812,3.272a.22031.22031,0,0,1,.00482.09141.30225.30225,0,0,0,.009.0914.35581.35581,0,0,1,.03466.04583.439.439,0,0,1,.02357.06017.25261.25261,0,0,0,.25323.0045.24278.24278,0,0,0,.08482-.10565L2.0186,3.41464l.03047-.04582ZM4.178.87975C4.14189.873,4.10219.86444,4.06208.85867a.092.092,0,0,0-.046.00432.20711.20711,0,0,0-.08635.05457.47481.47481,0,0,0-.07038.11,1.13315,1.13315,0,0,0-.066.21436c-.01426.07053-.01934.14217-.03334.21262a.28762.28762,0,0,0,.0008.12131.7717.7717,0,0,1,.01264.168c.00045.04054.0038.08111.00745.12152a.03382.03382,0,0,0,.02691.02979c.02861-.004.06229-.00861.09591-.01364L3.9118,1.875a.2362.2362,0,0,0-.00646-.02637.56192.56192,0,0,1-.03487-.22053c.00242-.05332.012-.10551.01575-.15847a.497.497,0,0,1,.0535-.19762c.00859-.01646.01484-.03414.02254-.05214-.00739-.00779-.01258-.01827-.0199-.02007-.02416-.00593-.0492-.00813-.07367-.01294a.03.03,0,0,1-.02526-.02615.07426.07426,0,0,1,.01986-.01613A.0763.0763,0,0,1,3.89979,1.139.47945.47945,0,0,0,4.049,1.13745a.32271.32271,0,0,1,.04686-.00083.11616.11616,0,0,1,.094.09162.41527.41527,0,0,1-.06558.25887.077.077,0,0,1-.01343.01281.01815.01815,0,0,1-.02487-.00027.03447.03447,0,0,1-.00685-.0166.18481.18481,0,0,1,.02009-.06176.30075.30075,0,0,0,.02459-.1821c-.02157-.01976-.03152-.023-.04818-.01721a.09145.09145,0,0,0-.061.05423.69053.69053,0,0,0-.04193.12407c-.00864.05239-.0166.10489-.02481.15736a.58579.58579,0,0,0,.01388.11116l.00069.00936a.54825.54825,0,0,0,.04584.1617.043.043,0,0,0,.05467.02321.20761.20761,0,0,0,.10079-.08065c.0142-.02421.03131-.04677.0448-.07134a.37626.37626,0,0,1,.05231-.07751A.14413.14413,0,0,0,4.29476,1.578a.79126.79126,0,0,0,.02237-.08127,1.45245,1.45245,0,0,0,.02371-.28906A.55891.55891,0,0,0,4.27249.976.05861.05861,0,0,0,4.26142.961.498.498,0,0,0,4.178.87975ZM3.3262,3.57165a.78467.78467,0,0,0-.03471-.26623.29347.29347,0,0,0-.06307-.12295C3.18449,3.1328,3.138,3.13063,3.103,3.1959a.4581.4581,0,0,0-.0379.12435.02864.02864,0,0,0,.01922.02822c.02464.00292.04945.00476.07393.00868a.05747.05747,0,0,1,.04668.04077.12177.12177,0,0,1,.00743.03606.13359.13359,0,0,1-.0045.04614.19352.19352,0,0,0,0,.11923.32511.32511,0,0,1,.00508.04625.32344.32344,0,0,0,.02835.09777.03354.03354,0,0,0,.04866.00555.12576.12576,0,0,0,.036-.08376C3.32727,3.631,3.3262,3.5968,3.3262,3.57165ZM3.166,3.78846c-.012-.05541-.02315-.11-.03571-.16429a.32836.32836,0,0,1-.00111-.14786c.00842-.03787-.0038-.05026-.04424-.05026a.15634.15634,0,0,0-.02638.00429.07192.07192,0,0,0-.0114.016.08485.08485,0,0,0-.0053.0273c.00028.04667.00235.09333.002.14a.92523.92523,0,0,0,.02621.1557.0332.0332,0,0,0,.017.02071A.07714.07714,0,0,0,3.166,3.78846Zm-1.0131-.444.014.03366a.25459.25459,0,0,1,.022.13492.0175.0175,0,0,0,.00781.01467.01687.01687,0,0,0,.01508-.00625A.16192.16192,0,0,0,2.21,3.35431l-.00633-.00663A.03569.03569,0,0,0,2.15291,3.34442Zm-.01381.27609c-.01973-.014-.0082-.03742-.0311-.04806-.02012.02053-.04094.04159-.06142.063l-.00123.00845C2.07858,3.65582,2.07857,3.65559,2.1391,3.62051Zm-.02495-.45414a.016.016,0,0,0-.01574-.01883.01866.01866,0,0,0-.0154.00667c-.00411.00939.01277.02191.025.0188Z"/>
    <path
        d="M.68652,2.87264a.03714.03714,0,0,1,.00975.036c-.00767.03666-.016.07317-.02436.10968a.22765.22765,0,0,0-.00923.03627,2.46286,2.46286,0,0,0-.01808.2615c.00159.031.00855.06175.013.09262a.91338.91338,0,0,0,.07067.24237.86565.86565,0,0,0,.16688.24765.45144.45144,0,0,0,.08484.05794.03318.03318,0,0,1,.009.01557c.00246.00627-.00581.01677-.01615.01955a.13143.13143,0,0,1-.04522.00956.175.175,0,0,1-.10967-.04761.78183.78183,0,0,1-.08638-.09862.8468.8468,0,0,1-.12986-.27876L.59238,3.54a.85528.85528,0,0,1-.01563-.37149A1.37224,1.37224,0,0,1,.6212,2.9676.21266.21266,0,0,1,.66369,2.885.07664.07664,0,0,1,.68652,2.87264Z"/>
    <path
        d="M1.54113,2.41379a1.91446,1.91446,0,0,1,.22058.001.926.926,0,0,1,.121.0113.905.905,0,0,0,.14962.00687c.06567.00015.13134-.00284.197-.00332a.70342.70342,0,0,1,.168.01269.5755.5755,0,0,0,.06518.00718c.031.00361.06194.00763.10486.013a.29682.29682,0,0,1,.13636-.00012.39314.39314,0,0,0,.084.005c.08129.00147.1626.002.24389.00353a.2585.2585,0,0,1,.05578.00543,1.52971,1.52971,0,0,0,.18457.03178.0934.0934,0,0,1,.02659.00853.06218.06218,0,0,1,.01478.0112.03177.03177,0,0,1,.00587.03458.04752.04752,0,0,1-.02028.017.1084.1084,0,0,1-.03688.00414.32114.32114,0,0,1-.0822-.01741.76745.76745,0,0,0-.24851-.03963c-.05.00124-.1001.00046-.15013-.0004a.65739.65739,0,0,1-.08419-.005.21807.21807,0,0,0-.10167-.00263.07678.07678,0,0,1-.03682-.00281.53915.53915,0,0,0-.11166-.01247.18164.18164,0,0,1-.04656-.00432.45981.45981,0,0,0-.1398-.01074.49508.49508,0,0,1-.15482-.01345c-.019.004-.03418.008-.04957.01039a.27121.27121,0,0,1-.15651-.013.2398.2398,0,0,0-.15606-.01185.601.601,0,0,1-.15875.0097.1166.1166,0,0,1-.03546-.01055C1.53781,2.45508,1.53349,2.43742,1.54113,2.41379Z"/>
    <path
        d="M2.43358,1.4083c-.04627.00469-.08342.0083-.12053.01228-.02167.00233-.04347.00418-.06486.00815a.30507.30507,0,0,1-.13038-.00059.43056.43056,0,0,0-.13024-.01107.20921.20921,0,0,1-.10838-.024l-.00338-.00735.00994-.01283a.74117.74117,0,0,1,.17631.01514c.03057.00617.061.01318.08207.01777.07535-.00049.13849-.02266.20439-.02363.05311-.00078.1062-.00286.1593-.00353a1.20067,1.20067,0,0,0,.15871-.01054,1.81791,1.81791,0,0,1,.392-.024.62075.62075,0,0,1,.0837.00889.38656.38656,0,0,0,.0838.00779.47537.47537,0,0,1,.12887.02217c.00946.0025.01891.01414.01682.02a.02706.02706,0,0,1-.0198.01649.41089.41089,0,0,1-.175.01975A1.30616,1.30616,0,0,0,3.027,1.433a.41814.41814,0,0,0-.11175.00986.58054.58054,0,0,1-.18625.01289,2.005,2.005,0,0,1-.27732-.04343Z"/>
    <path
        d="M3.2018,1.94642a.14722.14722,0,0,1-.12573.02868,1.4006,1.4006,0,0,0-.26118-.017c-.09676-.00079-.19354.00094-.29031.00142a.57843.57843,0,0,1-.09291-.00834c-.04911-.00771-.09981-.00546-.14882-.0136a.69625.69625,0,0,0-.13911-.01534.22185.22185,0,0,1-.05535-.00665.18732.18732,0,0,0-.065-.00364.08476.08476,0,0,1-.02784.00156.27522.27522,0,0,0-.12957.01112.65127.65127,0,0,1-.1764.01616c-.03121-.00061-.06256.0009-.09358-.00173a.26271.26271,0,0,1-.05364-.01445c-.00866-.00268-.01554-.01775-.01073-.02263.00411-.00416.00869-.01066.01341-.011.04353-.003.0871-.00576.13071-.00673a1.37124,1.37124,0,0,0,.177-.01109.76632.76632,0,0,1,.23335.00224,1.15417,1.15417,0,0,0,.18632.01214.881.881,0,0,1,.18637.012.08788.08788,0,0,0,.03709.00234.41165.41165,0,0,1,.1298.00105c.01864.00133.03743.00061.05615.00077.08111.0007.16222.00121.24332.00215.02806.00032.0561.00168.08415.00261a.19115.19115,0,0,1,.04653.0023c.04255.01254.08707.00719.12957.01705C3.19178,1.92937,3.19611,1.93969,3.2018,1.94642Z"/>
    <path
        d="M1.97623,2.0563q.13116,0,.26233,0a.437.437,0,0,1,.15658.02378.23123.23123,0,0,0,.083.01164c.06246.0001.12494.00042.18739.0017a1.07959,1.07959,0,0,1,.14918.01131c.04595.00734.09343.00454.1401.008a.81066.81066,0,0,1,.13067.00878.13056.13056,0,0,0,.0368-.00255c.01235-.00084.02475-.00208.03708-.00172a.03542.03542,0,0,1,.02917.03162.03925.03925,0,0,1-.02081.02877.11855.11855,0,0,1-.027.00691.2517.2517,0,0,1-.09294-.00675.32252.32252,0,0,0-.0925-.012.26783.26783,0,0,1-.056-.00328.83776.83776,0,0,0-.177-.01439.73816.73816,0,0,1-.13033-.01164.60744.60744,0,0,0-.10261-.00571.23151.23151,0,0,1-.10889-.02259.14691.14691,0,0,0-.07276-.01433c-.09058-.00024-.18115-.00112-.27173-.00091-.08741.0002-.17482.00167-.26224.00213a.4407.4407,0,0,0-.09283.01007c-.03649.008-.07385.01213-.1109.01753a.14886.14886,0,0,1-.08984-.01729l-.00519-.007a.03557.03557,0,0,1,.00831-.01535.03228.03228,0,0,1,.0167-.00738,2.14549,2.14549,0,0,1,.30774-.022c.05619.00144.11237.00343.16855.00517Z"/>
    <path
        d="M2.08869,2.28761a.3495.3495,0,0,1-.1632.00058.0185.0185,0,0,1-.0096-.01409c-.00017-.00354.00694-.01048.01114-.01075a1.076,1.076,0,0,1,.149-.00467c.06531.00484.1311.00383.19669.00431a.58741.58741,0,0,1,.1211.01019.36916.36916,0,0,0,.06505.00653c.05308.00184.1062.00241.15929.00374a.47053.47053,0,0,1,.07483.0033,1.37353,1.37353,0,0,0,.26146.01365,1.36284,1.36284,0,0,1,.19531.02184.16755.16755,0,0,1,.05072.02208.02147.02147,0,0,1,.00856.02444.02517.02517,0,0,1-.01933.01788.24777.24777,0,0,1-.02767-.00151,1.52486,1.52486,0,0,0-.26949-.03024.13144.13144,0,0,1-.03732-.00263,1.86425,1.86425,0,0,0-.24211-.02313A1.58734,1.58734,0,0,1,2.43608,2.32c-.05932.00065-.1187-.0039-.178-.00342a.66277.66277,0,0,1-.12933-.01964C2.11646,2.29462,2.10438,2.2913,2.08869,2.28761Z"/>
    <path
        d="M3.13767,1.70826a.19771.19771,0,0,1-.11713.01352.42357.42357,0,0,0-.16719.00651.145.145,0,0,1-.03678.00625c-.04056.00092-.08116,0-.12172.001a.348.348,0,0,1-.10793-.01408,1.64686,1.64686,0,0,1-.25511.01569c-.02807.00072-.05625-.00176-.08428-.00051a.17906.17906,0,0,1-.12179-.03905l-.00221-.00894.0069-.00522c.04934-.00533.09869-.01358.1481-.014.02478-.00023.04935-.00125.07411-.00214a2.29412,2.29412,0,0,1,.24326-.00047c.01847.0013.03714-.00037.05572-.00038a1.18386,1.18386,0,0,1,.224.00855.83949.83949,0,0,0,.112.00565c.04046.00208.081.00407.12128.0077A.03064.03064,0,0,1,3.13767,1.70826Z"/>
    <path
        d="M1.98543,3.343c.00418.0279-.02084.03888-.02821.05887-.00629.01707.00027.03818-.01571.0515a.05262.05262,0,0,1-.03691-.00208.06087.06087,0,0,0-.04567-.00244c-.02153.01154-.03372-.00923-.05143-.01071-.01158.00992-.02287.02062-.03535.02967l-.01573.00028a.02147.02147,0,0,1-.005-.01675c.00234-.01514.00657-.03.00967-.0433l-.03178-.04395c0-.01717.00348-.02939.01584-.0354.01944-.00944.03964-.01731.05884-.02556.01165-.01573.02249-.03088.03391-.0456.00849-.01094.01693-.012.04461-.00577l.0238.04787a.075.075,0,0,0,.0141.01228C1.94221,3.32294,1.96446,3.33311,1.98543,3.343Z"/>
    <path
        d="M2.60476,1.51706A.26941.26941,0,0,1,2.695,1.4999c.09932-.00572.19867-.00866.29823-.00689.07149.00128.14306-.00172.2146-.00244a.05686.05686,0,0,1,.04377.01106.02322.02322,0,0,1-.01927.02657A.18037.18037,0,0,1,3.14915,1.53c-.0152-.003-.03012-.00741-.04224-.01046a.82009.82009,0,0,0-.10431.01292.78433.78433,0,0,1-.15712.01456c-.0278.00135-.05535.0072-.0831.0101s-.05555.006-.08337.00646a.09618.09618,0,0,1-.06748-.02737Z"/>
    <path
        d="M1.55519,1.57581c.00664-.00855.01087-.01986.01741-.02141A.59758.59758,0,0,1,1.682,1.53356c.07444-.00331.14912-.00171.22369-.00116a.03024.03024,0,0,1,.03342.02483.16822.16822,0,0,1-.0876.02656c-.031.00085-.06208.003-.09306.00545s-.06168.00576-.1047.00986l-.04207-.01022A.18445.18445,0,0,1,1.55519,1.57581Z"/>
    <path
        d="M2.4111,1.539a.16861.16861,0,0,1-.06115.04117.18292.18292,0,0,1-.08352-.00148.51386.51386,0,0,0-.13006-.0131.089.089,0,0,1-.04526-.009c-.008-.00448-.01565-.0155-.01177-.0219a.04039.04039,0,0,1,.01214-.01327A.035.035,0,0,1,2.109,1.516q.1404-.00018.2808.00066a.02689.02689,0,0,1,.01706.00633Z"/>
    <path
        d="M1.82576,1.38933c-.03274.00629-.066.01176-.09884.01924-.03345.00763-.06629.01791-.09972.02562a.13845.13845,0,0,1-.03711.00155.04543.04543,0,0,1-.032-.017.0202.0202,0,0,1,.00319-.02479.05967.05967,0,0,1,.01656-.00787c.01849-.00257.03712-.00468.05576-.00541a.31543.31543,0,0,0,.08326-.011.1842.1842,0,0,1,.08346-.00539A.0258.0258,0,0,1,1.82576,1.38933Z"/>
    <path
        d="M1.73219,1.68017a.24387.24387,0,0,1,.09194.00586l.00614.00547-.00453.01586a.29131.29131,0,0,1-.06884.02477.71306.71306,0,0,1-.11071.00476.07658.07658,0,0,1-.03228-.0157A.01727.01727,0,0,1,1.61506,1.697a.07951.07951,0,0,1,.02509-.01085C1.674,1.683,1.70793,1.68164,1.73219,1.68017Z"/>
    <path
        d="M3.06025,2.6631c.005.01182,0,.02063-.00833.02271a.12169.12169,0,0,1-.046.00486c-.06761-.01014-.13558-.01637-.20359-.02257l-.00581-.00516a.03742.03742,0,0,1,.0079-.01548.0276.0276,0,0,1,.01668-.00707.35724.35724,0,0,1,.08361.00267.70347.70347,0,0,0,.12966.01461A.16.16,0,0,1,3.06025,2.6631Z"/>
    <path
        d="M1.7563,2.25117c-.009.00992-.0135.01875-.02055.02185a.13849.13849,0,0,1-.03563.00821c-.01519.00223-.03062.00284-.04583.00494-.01213.00167-.02409.00453-.03879.00738-.01878-.0051-.03975-.00989-.06-.01674a.05557.05557,0,0,1-.02187-.01562.01967.01967,0,0,1-.0027-.01655c.00164-.005.00736-.009.012-.01255l.00892-.00158a1.00082,1.00082,0,0,0,.16509.0125A.25949.25949,0,0,1,1.7563,2.25117Z"/>
    <circle cx="1.88061" cy="3.53961" r="0.01332" transform="translate(-0.16222 0.09108) rotate(-2.65959)"/>
    <path
        d="M2.04906,3.36881A.08612.08612,0,0,1,2.03121,3.367.00974.00974,0,0,1,2.025,3.35225L2.03152,3.346a.00987.00987,0,0,1,.01461.00644.08053.08053,0,0,1,.00135.0179Z"/>
    <text x="0" y="20" fill="#000000" font-size="5px" font-weight="bold"
          font-family="'Helvetica Neue', Helvetica, Arial-Unicode, Arial, Sans-serif">Created by Alice Noir
    </text>
    <text x="0" y="25" fill="#000000" font-size="5px" font-weight="bold"
          font-family="'Helvetica Neue', Helvetica, Arial-Unicode, Arial, Sans-serif">from the Noun Project
    </text>
</svg>
