<svg xmlns="http://www.w3.org/2000/svg" data-name="Layer 1" viewBox="0 0 5 6.25" x="0px" y="0px">
    <title>magic_witch_HALLOWEEN_mistery_magician</title>
    <path
        d="M3.83652,2.64177c.00459.058.00772.10355.01195.149a.383.383,0,0,0,.01146.08631A.2657.2657,0,0,1,3.833,3.07a.14612.14612,0,0,1-.02607.04247,1.54281,1.54281,0,0,0-.14072.20527A2.37457,2.37457,0,0,1,3.4873,3.558a1.04526,1.04526,0,0,1-.19951.18849c-.04114.01887-.06688-.00562-.09532-.00475a.07372.07372,0,0,0-.04879.05353l.0599.0291.03441.07618a.115.115,0,0,0,.03576-.00849c.01732-.01112.03207-.0262.04838-.039l.01167-.00121c.00564.00466.01349.01089.01393.017a.29674.29674,0,0,1-.02415.14626c-.01189.02626-.02027.05412-.03171.08527a.43408.43408,0,0,1-.21141.1047c-.01791-.00553-.04223-.01136-.06525-.02048A.54169.54169,0,0,0,2.819,4.15318a1.27353,1.27353,0,0,0-.33254.0482c-.04837.0124-.09747.02238-.14506.03724a.70149.70149,0,0,1-.27254.01614.25914.25914,0,0,1-.157-.07A.17247.17247,0,0,1,1.88572,4.158c-.0259-.03758-.05161-.07537-.07535-.11432-.00683-.0112.001-.02289.01346-.029a.37728.37728,0,0,0,.21685.03727.09451.09451,0,0,0,.06751-.03326c-.02-.00772-.03862-.01642-.05812-.02217a.15476.15476,0,0,1-.11391-.13438.02416.02416,0,0,1,.01066-.02005.0253.0253,0,0,1,.02217.00412.20989.20989,0,0,1,.02409.0281l.0214.02453c.039.022.07849.003.11342.01487.03532.00681.0467.04944.0861.05319a.659.659,0,0,1,.0628-.03564A.2192.2192,0,0,1,2.34768,3.909a1.13974,1.13974,0,0,0,.18367-.03546A.4921.4921,0,0,1,2.717,3.86779c.037.00531.07426.01031.11157.01225a.44156.44156,0,0,0,.12674-.00319L3.0186,3.8382c.0113.00156.02338.004.03556.00475.02111.00135.044-.01645.04284-.0346-.00158-.02461-.00776-.049-.00793-.07358s.00567-.04923.00639-.07392c.00017-.00577-.00872-.01459-.01527-.017a.036.036,0,0,0-.02359.00262.04255.04255,0,0,0-.01931.01482c-.011.01758-.0201.03632-.02986.05465-.01171.022-.0227.04438-.03514.06593a.03242.03242,0,0,1-.05282-.0015c-.01216-.021-.02055-.04415-.03123-.06781-.01564.013-.00511.03417-.01242.04981-.00871.01862-.01727.03744-.02775.05506a.03831.03831,0,0,1-.04508.0092A.06524.06524,0,0,1,2.779,3.80061a.077.077,0,0,1-.00526-.03654c.00221-.029.00827-.05775.00964-.08675a.05329.05329,0,0,0-.032-.04953.09611.09611,0,0,0-.0862-.00537.13105.13105,0,0,0-.0111.03256c-.00293.03728-.00318.07475-.00562.11207a.03229.03229,0,0,1-.02046.028c-.00911.00408-.02417-.00489-.02813-.01783L2.586,3.72927a.12519.12519,0,0,0-.02594-.061A.1839.1839,0,0,0,2.52945,3.663a.02662.02662,0,0,0-.02654.02213c-.00478.02858-.00537.05785-.00833.08677a.05386.05386,0,0,1-.0067.02369.03093.03093,0,0,1-.01886.01363.02165.02165,0,0,1-.01776-.01128c-.01065-.0401-.01956-.08065-.0281-.11721a.06268.06268,0,0,0-.08973-.00583c-.02386.063.02713.10571.03283.15667-.0062.01417-.0158.02185-.029.01751a.093.093,0,0,1-.05436-.04894c-.01633-.03339-.02928-.06844-.043-.10116-.00949-.0044-.01723-.01135-.02407-.01056-.02558.003-.03128.00819-.032.02835-.00061.01623.00629.03394-.00782.04692a.0249.0249,0,0,1-.02117.00448.03848.03848,0,0,1-.01759-.01677c-.00829-.01419-.01476-.02945-.02192-.04415-.0213-.014-.04023.005-.06015.00322-.02037-.00186-.04068-.00444-.061-.00671-.023-.02727-.04362-.05331-.06606-.07762a.07457.07457,0,0,0-.0698-.026l-.02416.03612a.10591.10591,0,0,0-.00168.02805c.01095.04437.02341.08836.03433.13274a.11978.11978,0,0,1,.00269.03693.04844.04844,0,0,1-.02861.03743.09033.09033,0,0,1-.02665.00055.367.367,0,0,1-.02937-.03775,2.45171,2.45171,0,0,0-.14107-.20578.86615.86615,0,0,1-.07142-.117A1.25683,1.25683,0,0,0,1.34371,3.186a.37385.37385,0,0,1-.094-.17341.72191.72191,0,0,1-.0113-.346.8865.8865,0,0,0,.00612-.21516.95955.95955,0,0,0-.12178-.16983.76733.76733,0,0,1-.1292-.21231.27893.27893,0,0,1-.02293-.10944.85789.85789,0,0,1,.00356-.1123.90979.90979,0,0,1,.06368-.27824A.29839.29839,0,0,1,1.086,1.48261a.08115.08115,0,0,0,.01463-.0202,1.13753,1.13753,0,0,1,.228-.2793.773.773,0,0,1,.16559-.132q.09047-.05548.18028-.112A.95839.95839,0,0,1,2.03667.81119a.2762.2762,0,0,1,.08715-.001A.44628.44628,0,0,0,2.28451.79833c.03669-.00723.07418-.01126.11016-.021A2.568,2.568,0,0,1,2.66673.74117a.36187.36187,0,0,1,.07452.00137,1.7932,1.7932,0,0,1,.3812.05893.52315.52315,0,0,1,.07126.02291c.1449.06308.2934.1181.43225.19482a.40333.40333,0,0,1,.1.0738,1.19993,1.19993,0,0,1,.17228.19718,1.11518,1.11518,0,0,1,.12324.29907.36305.36305,0,0,1,.008.0869c.00069.075-.00064.15-.00087.225a.231.231,0,0,1-.0207.097c-.02432.05291-.04588.10738-.07416.15808a.448.448,0,0,0-.05748.2019A1.14481,1.14481,0,0,1,3.83652,2.64177ZM2.80765,2.303c-.02163-.014-.02361-.0289-.01347-.04486.01319-.02076.04292-.027.05054-.06219.00136-.03094-.0326-.06059-.02774-.09941a.03162.03162,0,0,1,.04364-.0109c.02539.01351.04885.03064.07443.04709l.18676-.00463c.068-.0451.14738-.06209.22015-.11107A.33319.33319,0,0,1,3.4161,1.8398c.0116-.07969.02248-.158.03478-.23611a.20678.20678,0,0,1,.016-.04641.03988.03988,0,0,1,.044-.0145.04988.04988,0,0,1,.03262.035.42014.42014,0,0,1,.00024.17359.757.757,0,0,0-.016.0983c-.00218.03706-.00877.07386-.01344.11079a.3781.3781,0,0,0,.12739.1362.03171.03171,0,0,0,.04153-.01531.11331.11331,0,0,0,.0092-.07319,1.08461,1.08461,0,0,1-.01587-.16138c-.00214-.02486-.00616-.04959-.01-.07428a1.74288,1.74288,0,0,0-.18083-.51669.51413.51413,0,0,0-.22046-.23135.7735.7735,0,0,0-.267-.101C2.93239.91561,2.86789.8973,2.8023.8868a1.74765,1.74765,0,0,0-.38519-.03.77107.77107,0,0,0-.26668.05789A.18374.18374,0,0,1,2.103.92947a.501.501,0,0,0-.26628.12761.54123.54123,0,0,1-.05966.04523c-.06966.046-.13373.09916-.199.151a.72224.72224,0,0,0-.17788.23795c-.01953.03646-.03578.07476-.05637.1111a1.19443,1.19443,0,0,0-.051.11357.16926.16926,0,0,0-.0085.11.13492.13492,0,0,1,.00568.0613.42459.42459,0,0,0,.00567.13645.45787.45787,0,0,0,.03006.14637c.00412.01029.00931.01368.0233.00632a.744.744,0,0,0,.06947-.1407l-.00019-.02333c-.01018-.02723-.02138-.05408-.03127-.0814a.23289.23289,0,0,1,.00842-.1935c.00254-.00494.01208-.00628.01823-.00923a.06984.06984,0,0,1,.011.048.16063.16063,0,0,0,.02752.08213,1.14181,1.14181,0,0,0,.1132.14856.213.213,0,0,1,.06776.1439,1.02163,1.02163,0,0,1-.14383.26036c.00169.02878.00393.05768.00493.08663.00114.03331.00187.06667.00152.1a.16707.16707,0,0,0,.0438.11393c.02176.02519.0462.04821.06634.07458a.095.095,0,0,1,.01608.0459.04671.04671,0,0,1-.01108.03348A.084.084,0,0,1,1.498,2.862c-.01808-.02253-.03175-.04856-.04869-.0721-.00333-.00463-.01263-.005-.02559-.00956-.00234.03891-.01444.07416-.01782.11135a.21584.21584,0,0,0,.03961.14157.15128.15128,0,0,0,.11462.06807c.05388.00507.10817.0057.16211.01031a.36205.36205,0,0,1,.16564.05093.16444.16444,0,0,1,.09085.16464.48729.48729,0,0,1-.00485.04962.05157.05157,0,0,1-.04008.04264A.11247.11247,0,0,0,1.899,3.4301a.04713.04713,0,0,0-.02146.0425c.00042.01374.0163.02665.03471.02964a.21085.21085,0,0,0,.08681.00113.06826.06826,0,0,0,.059-.06957.23316.23316,0,0,1,.02554-.12047c.004-.00981.01755-.01573.02508-.02206a.05211.05211,0,0,1,.03764.03373c.019.04622.03613.09318.055.13945a.1915.1915,0,0,0,.01929.03011.14624.14624,0,0,0,.12336-.07538c.00529-.00946.01789-.01484.02315-.019.05542-.00012.06961.04856.10764.07542.01177,0,.02807.00075.04428-.00015.04169-.00231.06-.04248.09813-.06124a.27575.27575,0,0,1,.04133.01733c.01765.01061.033.025.0502.03643a.04256.04256,0,0,0,.0544-.01513c.00713-.01943.0107-.04024.01856-.05931a.06055.06055,0,0,1,.05447-.04385c.02021.01387.01659.03659.0216.05606a.05589.05589,0,0,0,.05336.04456.26492.26492,0,0,0,.06207-.00073.06037.06037,0,0,0,.04929-.04593.201.201,0,0,1,.0131-.21566.32609.32609,0,0,0,.0627-.018A.33053.33053,0,0,1,3.266,3.12957a.21778.21778,0,0,0,.0726-.01595c.03551-.01187.0701-.02653.105-.04028a.166.166,0,0,1,.08517-.01443.061.061,0,0,1,.04073.05894.1595.1595,0,0,1-.07706.0922.36492.36492,0,0,1-.14014.04954.83942.83942,0,0,0-.10941.02715c.00646.00991.00927.01938.01526.0223a.088.088,0,0,0,.03553.00925.40333.40333,0,0,0,.22188-.07337.33258.33258,0,0,0,.11085-.11644.59207.59207,0,0,0,.07508-.28653.27577.27577,0,0,0-.01077-.0738A.0552.0552,0,0,0,3.662,2.7286c-.02864.02908-.05733.05887-.08675.08792a.32448.32448,0,0,1-.18994.08518l-.01125-.004c-.00889-.00412-.0144-.01262-.00941-.02062a.5778.5778,0,0,1,.09786-.09483A.55139.55139,0,0,0,3.62,2.45008a.13008.13008,0,0,0-.02267-.095c-.00962-.0136-.01919-.02728-.02949-.04036a.23688.23688,0,0,0-.11241-.07585.1372.1372,0,0,0-.09792.00431A.52068.52068,0,0,1,3.138,2.2833c-.025-.001-.05-.00177-.075-.00146A.89773.89773,0,0,0,2.80765,2.303ZM1.794,3.294a.15414.15414,0,0,0-.00909-.02231l-.011-.00207c-.00948.00331-.00919.01373.00086.03165l.00835.0081C1.79055,3.31048,1.79433,3.30442,1.794,3.294Z"/>
    <path
        d="M2.38515,2.51507a.20966.20966,0,0,1-.0487.11839.43988.43988,0,0,1-.32164.16739.14864.14864,0,0,1-.04934-.00315.43056.43056,0,0,1-.23256-.13554c-.01365-.01562-.02812-.03054-.04246-.04554a.21861.21861,0,0,1-.0585-.2298.35753.35753,0,0,1,.165-.11552,1.22878,1.22878,0,0,1,.2385.04085.88121.88121,0,0,0,.1595.0209.0991.0991,0,0,1,.07683.03543c.01922.02063.03.04977.0638.05569.009.00157.01721.01716.02252.02793C2.369,2.47424,2.37772,2.49746,2.38515,2.51507Z"/>
    <path
        d="M3.33608,2.35395l.07157.05119.018.038a.20019.20019,0,0,1,.00438.169.21746.21746,0,0,1-.12667.12991.58653.58653,0,0,1-.3543.03329.40349.40349,0,0,1-.23926-.26851.06581.06581,0,0,1,.0219-.04611l.066-.062-.02561-.02573.011-.01109c.07071-.003.14142-.00593.21216-.00806a.47113.47113,0,0,0,.0872-.00075A.57548.57548,0,0,1,3.33608,2.35395Z"/>
    <path
        d="M2.6398,2.78278c.02254.04566.04724.09323.06943.14193a.2002.2002,0,0,1,.01553.05911.07757.07757,0,0,1-.064.09144.42717.42717,0,0,1-.14758.00653.108.108,0,0,1-.09078-.10238A.44682.44682,0,0,1,2.44361,2.858a.1239.1239,0,0,1,.07645-.09041A.11546.11546,0,0,1,2.6398,2.78278Z"/>
    <path
        d="M2.06122,2.25533A.22847.22847,0,0,1,2.01483,2.25a.563.563,0,0,1-.21059-.10084c-.02488-.02164-.05262-.04-.07852-.06051a.1277.1277,0,0,1-.01522-.01892A.0224.0224,0,0,1,1.718,2.03815a.11283.11283,0,0,1,.03508-.009.7645.7645,0,0,1,.26586.05137.49945.49945,0,0,0,.13174.03112.06375.06375,0,0,1,.04772.07569.04918.04918,0,0,1-.018.03061A.2392.2392,0,0,1,2.06122,2.25533Z"/>
    <path
        d="M2.63929,1.91178c.01032.00855.02455.01445.0269.02344a.33478.33478,0,0,1,.00991.0732.65918.65918,0,0,0,.02073.20894c.00291.008-.0086.0213-.01258.03025a.0605.0605,0,0,1-.07594-.03139.19856.19856,0,0,1-.02714-.13141A1.47392,1.47392,0,0,1,2.613,1.93965C2.61555,1.92964,2.62886,1.9224,2.63929,1.91178Z"/>
    <path
        d="M2.03886,2.89708a.61063.61063,0,0,1,.13025-.05463c.01947-.018.043-.041.068-.06229a.25212.25212,0,0,1,.04159-.02639.04729.04729,0,0,1,.06493.01489.04887.04887,0,0,1-.01282.056.52154.52154,0,0,1-.09251.06056.9744.9744,0,0,1-.14123.0437.10464.10464,0,0,1-.0483-.00344C2.03469,2.92207,2.03317,2.9098,2.03886,2.89708Z"/>
    <path
        d="M2.53936,2.022a.15665.15665,0,0,1,.01009.03857.172.172,0,0,1-.08637.155c-.01415.0083-.02858.01617-.04309.02384a.03691.03691,0,0,1-.03381-.01022.03316.03316,0,0,1-.00212-.03463.117.117,0,0,1,.01569-.019.38771.38771,0,0,0,.10814-.13412C2.51225,2.0329,2.52676,2.02949,2.53936,2.022Z"/>
    <path
        d="M2.80877,2.823a.07686.07686,0,0,1,.02189-.0099.23208.23208,0,0,1,.14056.03458.03906.03906,0,0,1,.01989.04153.06837.06837,0,0,1-.05055.03075.20177.20177,0,0,1-.12092-.05318A.03685.03685,0,0,1,2.80877,2.823Z"/>
    <path
        d="M2.64926,3.27405a.92025.92025,0,0,1-.27077.00341l-.00435-.00782a.42441.42441,0,0,1,.24064-.0325A.07355.07355,0,0,1,2.647,3.254Z"/>
    <text x="0" y="20" fill="#000000" font-size="5px" font-weight="bold"
          font-family="'Helvetica Neue', Helvetica, Arial-Unicode, Arial, Sans-serif">Created by Alice Noir
    </text>
    <text x="0" y="25" fill="#000000" font-size="5px" font-weight="bold"
          font-family="'Helvetica Neue', Helvetica, Arial-Unicode, Arial, Sans-serif">from the Noun Project
    </text>
</svg>
