<svg xmlns="http://www.w3.org/2000/svg" data-name="Layer 1" viewBox="0 0 5 6.25" x="0px" y="0px">
    <title>magic_witch_HALLOWEEN_mistery_magician</title>
    <path
        d="M1.65843,3.42061a.85318.85318,0,0,0-.17784.21491c-.04716.07236-.0953.14409-.14315.216l-.01352.01687a.126.126,0,0,1-.15512.03951.48452.48452,0,0,1-.06687-.04012.2509.2509,0,0,1,.01113-.2553c.06925-.11819.13591-.238.20853-.35409a.41672.41672,0,0,0,.07257-.24479c-.00656-.13682.00891-.27332-.00122-.41053a1.71175,1.71175,0,0,1,.00981-.28068,1.3655,1.3655,0,0,0,.00284-.345.38111.38111,0,0,1,.01-.12832c.00351-.01834.02317-.0336.03842-.0542.01991.01353.04632.0214.05191.03683a1.52317,1.52317,0,0,1,.11187.5473.93913.93913,0,0,0,.02772.3c.00614.01961.03734.03254.051.02057a.36388.36388,0,0,0,.03276-.02794.46968.46968,0,0,0,.03993-.051,2.99882,2.99882,0,0,1,.20469-.27773,2.2817,2.2817,0,0,0,.24269-.331.75119.75119,0,0,1,.101-.14033,2.67447,2.67447,0,0,0,.291-.40219c.03132-.04837.06523-.09508.10075-.14658.01625-.07344.03388-.15067.05033-.22814A.86082.86082,0,0,0,2.77859.837,1.04425,1.04425,0,0,1,2.79683.5164l.02733.00442a.24934.24934,0,0,1,.019.082,1.64676,1.64676,0,0,0,.02952.40887.90443.90443,0,0,1,.00743.19378c-.00343.0932-.00288.18655-.00454.32181a.527.527,0,0,1-.07556.156c-.09263.13709-.18193.27642-.27258.41485a.07559.07559,0,0,0,.08043-.00705c.09418-.053.18868-.10589.27932-.1646.13355-.0865.27662-.15528.41508-.23261a1.01292,1.01292,0,0,1,.51917-.12414c.0573.00079.11466-.00266.16812-.00407.06879-.05113.1318-.09894.19623-.14476a.03991.03991,0,0,1,.03685-.00326.04294.04294,0,0,1,.00947.038c-.01134.0334-.0275.06517-.04.09352a.06829.06829,0,0,0,.07334.04364A1.78262,1.78262,0,0,1,4.654,1.604a.16356.16356,0,0,1,.061.01926c.00857.005.01033.02387.0123.03689.00074.00494-.00571.01211-.01054.01642a.03741.03741,0,0,1-.01848.01,4.47778,4.47778,0,0,1-.86269.032.5036.5036,0,0,0-.20625.01817c-.02062.02274-.04732.05656-.07852.08551a.534.534,0,0,1-.13287.10891c-.127.05534-.22545.15659-.35356.20871a.33228.33228,0,0,0-.07092.04915.91438.91438,0,0,1-.20052.12689.39179.39179,0,0,0-.08753.06248.20455.20455,0,0,0-.02859.04c.01589.01038.03119.02885.04728.02956.15136.00661.2979.05035.4493.05657a.05845.05845,0,0,1,.0563.05527,1.52208,1.52208,0,0,1-.41723.06166c-.145.01206-.28786-.01149-.43778-.00553-.03236.02213-.06905.04464-.10287.07085q-.13681.10607-.27132.2151a.51327.51327,0,0,0-.09348.08946A1.28444,1.28444,0,0,0,1.65843,3.42061Z"/>
    <path
        d="M2.54858,3.32851c.02478-.00732.049-.00738.06212-.01946a3.09545,3.09545,0,0,1,.40523-.2865,1.52863,1.52863,0,0,0,.26178-.19.3793.3793,0,0,1,.108-.07059q.11689-.05561.238-.10229A.15883.15883,0,0,1,3.74985,2.66c.00894.0042.01258.02226.01589.03468a.0262.0262,0,0,1-.00552.02025,1.43388,1.43388,0,0,1-.30913.29849,1.088,1.088,0,0,0-.18243.15149c-.0407.04076-.079.08405-.12133.123-.042.03862-.0877.07319-.13972.11609.02553.01224.04345.02879.05926.027.057-.00658.11322-.02042.17006-.02937a.27281.27281,0,0,1,.10643-.00311c.00932.04331.00521.06578-.01346.07311a.36232.36232,0,0,1-.06012.02169c-.08478.01677-.16971.033-.255.047a1.98524,1.98524,0,0,0-.30845.09664.37955.37955,0,0,0-.11089.06545c-.06719.05356-.13075.11167-.19651.1685-.00766.02562.00972.03949.03.04309.08494.01506.17068.02565.25549.04137a.41935.41935,0,0,1,.10215.034.15194.15194,0,0,1,.07336.076.0509.0509,0,0,1-.01615.05675.3371.3371,0,0,1-.23073.02912,1.53392,1.53392,0,0,0-.34419-.02051.56091.56091,0,0,0-.35912.12688c-.03891.03191-.07743.06438-.11467.09819a.7149.7149,0,0,1-.1796.11855.1152.1152,0,0,1-.13541-.03565A.16977.16977,0,0,1,1.47,4.23719,1.24431,1.24431,0,0,1,1.61575,4.079c.091-.08157.18922-.15512.28068-.23623a1.5442,1.5442,0,0,1,.20271-.161.65123.65123,0,0,0,.26813-.35464c.031-.08831.06412-.17591.09868-.26288a.76472.76472,0,0,1,.05027-.09541.27469.27469,0,0,1,.027-.03345.04939.04939,0,0,1,.05869-.00292.05245.05245,0,0,1,.01619.03645,2.04227,2.04227,0,0,0-.07454.29185A.497.497,0,0,0,2.54858,3.32851Z"/>
    <path
        d="M.426,2.50591a.62344.62344,0,0,0-.1104-.30756.16123.16123,0,0,1-.04128-.12561c.019.002.04405-.00291.05612.0074a.85426.85426,0,0,1,.071.08094.62344.62344,0,0,0,.04691.04348A.04212.04212,0,0,0,.505,2.19333a.7545.7545,0,0,0,.05815-.25055c.01063-.07848.018-.1575.03179-.2354a.38979.38979,0,0,1,.0384-.09978c.00527-.01079.025-.02441.03334-.02177a.173.173,0,0,1,.05095.0331c.00485.00385.00593.0129.00789.01981a.08937.08937,0,0,1,.00407.02113c.00522.1583.01375.31661.01382.47493a1.041,1.041,0,0,1-.03255.25668,2.136,2.136,0,0,0-.05746.44941c-.005.13663-.022.2729-.036.40908a.12565.12565,0,0,1-.11265.114.11339.11339,0,0,1-.11512-.0424.1968.1968,0,0,1-.05-.1805A5.35677,5.35677,0,0,0,.426,2.50591Z"/>
    <text x="0" y="20" fill="#000000" font-size="5px" font-weight="bold"
          font-family="'Helvetica Neue', Helvetica, Arial-Unicode, Arial, Sans-serif">Created by Alice Noir
    </text>
    <text x="0" y="25" fill="#000000" font-size="5px" font-weight="bold"
          font-family="'Helvetica Neue', Helvetica, Arial-Unicode, Arial, Sans-serif">from the Noun Project
    </text>
</svg>
