<?xml version="1.0" standalone="no"?>
<!DOCTYPE svg PUBLIC "-//W3C//DTD SVG 20010904//EN"
 "http://www.w3.org/TR/2001/REC-SVG-20010904/DTD/svg10.dtd">
<svg version="1.0" xmlns="http://www.w3.org/2000/svg"
 width="140.000000pt" height="300.000000pt" viewBox="0 0 140.000000 300.000000"
 preserveAspectRatio="xMidYMid meet">
<metadata>
Created by potrace 1.10, written by Peter Selinger 2001-2011
</metadata>
<g transform="translate(0.000000,300.000000) scale(0.050000,-0.050000)"
fill="#000000" stroke="none">
<path d="M2480 5904 c-244 -143 -598 -535 -680 -754 -30 -78 -14 -61 75 86
165 270 379 482 630 623 121 68 147 92 119 109 -10 6 -74 -23 -144 -64z"/>
<path d="M2492 5726 c-24 -25 -92 -189 -92 -225 0 -18 -11 -44 -24 -57 -13
-13 -17 -29 -10 -37 19 -19 74 32 75 70 0 18 17 82 38 143 38 109 41 133 13
106z"/>
<path d="M2193 5388 c-40 -50 -69 -68 -95 -62 -26 7 -38 0 -38 -24 0 -47 -39
-82 -93 -82 -27 0 -62 -24 -88 -61 -56 -79 -40 -95 28 -26 30 29 60 47 67 40
7 -8 3 -24 -10 -37 -34 -34 -30 -50 16 -62 59 -15 50 -82 -25 -181 -76 -101
-346 -451 -376 -488 -12 -15 -41 -20 -70 -13 -34 8 -50 4 -51 -15 -2 -15 -5
-36 -7 -47 -3 -11 -6 -31 -8 -45 -2 -14 -25 -25 -51 -25 -26 0 -53 -14 -60
-32 -9 -23 -27 -29 -63 -20 -39 10 -53 4 -67 -33 -10 -25 -41 -70 -70 -101
-29 -31 -52 -67 -52 -79 0 -13 26 8 59 46 44 52 56 59 51 29 -4 -22 -8 -51 -8
-65 -1 -14 -15 -25 -31 -25 -45 0 -103 -120 -69 -141 21 -13 19 -25 -10 -57
-35 -39 -33 -102 4 -102 9 0 65 36 124 80 59 44 98 80 86 80 -11 0 -43 -18
-71 -40 -70 -55 -95 -50 -95 18 0 105 18 130 66 88 40 -35 40 -35 27 30 -19
100 46 78 77 -26 22 -74 20 -84 -28 -139 l-52 -58 58 44 c79 59 92 36 22 -37
-31 -33 -52 -65 -46 -71 6 -6 31 14 55 44 42 54 96 52 115 -5 9 -28 -48 -101
-65 -83 -8 8 -3 28 12 46 18 22 2 18 -48 -12 -49 -29 -71 -54 -64 -73 6 -16
11 -33 11 -38 0 -4 25 -8 55 -8 53 0 55 -3 48 -92 -6 -72 -1 -91 20 -84 15 5
30 40 34 77 8 83 34 119 88 119 33 0 37 -9 26 -53 -10 -42 -7 -50 18 -40 25 9
131 -68 131 -96 0 -42 -75 -18 -132 42 -67 71 -124 82 -64 12 53 -62 67 -99
23 -60 -95 83 -89 -44 7 -162 73 -88 75 -89 87 -42 7 27 23 47 35 44 13 -3 28
20 35 50 6 30 21 72 32 93 15 27 14 42 -4 52 -13 9 -18 26 -10 38 7 12 0 22
-18 22 -17 0 -31 11 -31 25 0 14 -27 40 -60 59 -57 32 -83 96 -40 96 11 0 20
-10 20 -21 0 -12 8 -16 19 -10 10 6 24 2 31 -9 25 -41 156 -83 172 -56 9 14
23 18 31 9 9 -8 7 -21 -5 -29 -22 -15 -28 -106 -6 -93 24 15 52 -40 50 -99 -1
-32 -15 -63 -30 -68 -18 -6 -24 1 -17 19 6 16 -2 51 -16 78 -30 53 -36 37 -29
-81 5 -86 35 -145 66 -134 13 5 47 -12 75 -38 69 -65 232 -44 224 28 -5 50 25
60 42 14 7 -16 30 -30 52 -30 122 0 9 -67 -174 -104 -58 -12 -105 -32 -105
-45 0 -13 -22 -45 -50 -71 -38 -35 -44 -53 -27 -73 26 -32 89 -36 107 -7 18
30 50 24 50 -9 0 -16 -16 -39 -35 -51 -30 -19 -29 -20 10 -10 54 15 61 -20 9
-48 -19 -10 -48 -42 -63 -70 -15 -29 -55 -60 -89 -69 -73 -20 -214 -103 -176
-103 15 0 20 -10 12 -24 -8 -13 18 -3 58 22 74 45 74 45 89 4 19 -50 40 -36
110 73 67 103 67 103 69 14 1 -40 7 -76 12 -82 12 -12 153 77 154 97 0 38 -41
31 -76 -14 -82 -104 -80 -37 2 85 55 80 67 81 84 4 8 -34 24 -57 37 -53 13 5
20 20 17 34 -3 13 5 37 19 53 35 43 40 127 7 127 -15 0 -30 -8 -33 -17 -11
-28 -97 -49 -97 -24 0 11 14 21 30 21 17 0 30 9 30 20 0 11 -13 20 -30 20 -16
0 -30 11 -30 25 0 33 190 218 207 202 22 -23 14 9 -21 83 -19 40 -53 76 -78
82 -27 7 -48 32 -55 65 -8 34 -44 75 -102 113 -106 70 -108 77 -37 139 l55 47
-101 -5 c-56 -3 -112 -11 -125 -19 -38 -23 -122 70 -123 134 0 32 -9 51 -20
44 -11 -7 -20 -3 -20 9 0 11 7 21 15 21 27 0 61 138 37 146 -15 5 -13 19 5 41
40 47 68 41 53 -12 -9 -31 -7 -37 6 -18 16 22 28 22 76 -1 32 -15 76 -25 98
-21 43 8 126 105 90 105 -12 0 -17 9 -10 20 21 35 -22 22 -71 -21 -47 -40 -48
-40 -62 -2 -8 21 -24 45 -36 52 -36 23 -23 68 24 81 25 7 65 23 90 35 39 19
54 14 105 -35 63 -60 80 -144 33 -162 -16 -6 -28 -41 -28 -84 0 -41 -4 -87 -8
-104 -5 -20 5 -28 30 -24 24 4 34 -3 28 -20 -10 -30 -73 -35 -110 -9 -15 11
-36 9 -54 -6 -16 -14 -38 -19 -49 -12 -32 20 -44 -23 -13 -48 23 -19 45 -19
100 1 78 29 110 15 71 -32 -42 -51 -1 -34 102 42 90 65 128 128 78 128 -11 0
-20 9 -20 20 0 33 127 101 165 88 19 -6 35 -2 35 9 0 11 -18 26 -40 33 -52 16
-50 29 10 119 57 82 49 120 -21 103 -51 -13 -109 3 -109 31 0 10 25 13 55 7
44 -8 47 -7 15 7 -38 17 -37 20 15 44 97 45 69 80 -56 69 -70 -6 -106 -2 -99
10 16 27 14 26 -120 -20 -64 -22 -140 -39 -168 -38 -29 1 -79 -7 -112 -17
l-60 -18 67 -23 c37 -13 60 -32 53 -44 -7 -11 -21 -15 -31 -9 -11 6 -19 2 -19
-10 0 -41 -35 -20 -58 34 -42 101 -136 121 -169 35 -4 -11 -27 0 -51 25 -24
25 -52 45 -63 45 -10 0 -19 10 -19 22 0 13 14 16 35 8 70 -29 95 -21 97 30 2
59 46 180 66 180 7 0 29 27 49 60 20 34 43 56 52 50 16 -9 194 199 270 315 51
78 99 39 81 -66 -10 -56 -5 -77 18 -85 39 -15 57 13 64 101 6 83 61 150 109
135 29 -9 35 1 33 57 -2 67 -2 68 -36 25 -28 -33 -40 -37 -60 -18 -19 19 -12
37 35 85 73 74 75 213 3 190 -26 -8 -37 -4 -35 14 14 100 -31 102 -108 5z
m-33 -219 c0 -19 -14 -29 -33 -25 -51 9 -57 56 -9 56 25 0 42 -13 42 -31z
m-600 -1018 c0 -35 -33 -58 -59 -42 -27 17 -3 71 31 71 15 0 28 -13 28 -29z
m320 -84 c0 -12 -15 -34 -34 -50 -29 -24 -32 -23 -20 9 8 23 3 40 -16 47 -17
6 -30 23 -30 37 0 21 10 21 50 3 27 -13 50 -33 50 -46z m-599 32 c22 -11 39
-34 39 -50 0 -44 -34 -35 -46 13 -6 23 -21 36 -33 29 -11 -7 -21 -4 -21 8 0
26 12 26 61 0z m359 13 c0 -5 5 -23 12 -40 8 -20 2 -32 -15 -32 -15 0 -38 -17
-51 -39 -14 -21 -45 -41 -70 -45 -27 -3 -48 -22 -52 -46 -13 -80 -24 -98 -47
-75 -12 12 -33 18 -47 12 -41 -16 -51 71 -11 93 20 10 41 13 48 6 7 -7 13 0
13 16 0 39 74 84 92 55 8 -13 29 3 53 41 33 52 75 83 75 54z m327 -607 c5 -9
-3 -32 -17 -52 -27 -37 -110 -17 -110 26 0 30 111 52 127 26z m50 -136 c35
-18 63 -40 63 -50 0 -11 15 -19 33 -19 30 0 29 -4 -3 -40 -32 -35 -97 -43
-150 -19 -5 3 -23 6 -40 7 -32 2 -51 75 -32 123 14 37 51 37 129 -2z"/>
<path d="M1854 5055 c-51 -39 -134 -159 -133 -194 1 -21 12 -15 35 19 19 27
64 83 101 125 66 73 64 100 -3 50z"/>
<path d="M2435 3846 c-20 -5 -35 -28 -35 -53 0 -25 -11 -56 -24 -69 -19 -19
-13 -24 27 -24 65 0 126 -67 129 -142 2 -32 -3 -58 -10 -58 -19 0 -122 121
-122 144 0 70 -65 -5 -69 -80 -7 -147 71 -225 151 -152 43 38 178 -18 178 -75
0 -54 38 -64 48 -13 39 193 31 326 -25 386 -114 122 -173 155 -248 136z"/>
<path d="M1791 3682 c-12 -21 0 -30 33 -25 8 2 9 -11 3 -27 -6 -17 -3 -30 7
-30 27 0 98 55 86 67 -24 24 -117 35 -129 15z"/>
<path d="M957 3614 c-12 -24 -15 -37 -7 -29 9 8 27 6 40 -5 17 -14 30 -6 45
26 28 63 -45 70 -78 8z"/>
<path d="M2268 3530 c11 -43 8 -53 -15 -44 -18 7 -33 -3 -39 -26 -12 -46 0
-60 54 -61 39 0 40 -2 7 -27 -45 -34 -45 -59 0 -35 44 24 49 225 6 239 -20 7
-23 -5 -13 -46z"/>
<path d="M2093 3463 c-18 -20 -27 -42 -20 -50 24 -23 40 -14 63 37 27 59 4 66
-43 13z"/>
<path d="M2300 3320 c-27 -22 -38 -39 -24 -40 38 0 104 38 104 61 0 29 -25 22
-80 -21z"/>
<path d="M2493 3317 c-9 -35 -17 -39 -39 -20 -22 18 -33 12 -52 -30 -30 -67
-17 -80 41 -39 80 56 109 21 44 -51 -31 -35 -31 -37 7 -37 55 0 146 75 146
120 0 88 -126 137 -147 57z"/>
<path d="M1365 3255 c4 -55 -2 -66 -43 -72 -27 -4 -84 -30 -128 -59 -47 -32
-101 -51 -133 -47 -109 11 -404 -151 -588 -325 -90 -83 -83 -80 168 92 219
151 225 131 20 -66 -116 -110 -172 -152 -183 -135 -11 18 -43 -1 -110 -63 -55
-51 -99 -78 -103 -64 -6 17 -19 18 -47 3 -56 -30 -47 -6 32 86 76 89 85 115
42 115 -35 0 -166 -149 -227 -258 -34 -60 -38 -78 -16 -69 30 11 85 -86 61
-109 -22 -22 118 -144 166 -144 77 0 161 -59 148 -105 -9 -36 -5 -37 35 -15
140 74 482 -9 451 -109 -7 -23 -16 -54 -19 -71 -3 -16 -12 -46 -21 -66 -59
-138 184 16 279 177 70 121 128 172 106 94 -86 -299 -83 -280 -47 -316 32 -32
35 -30 57 29 13 34 30 62 39 62 21 0 116 168 116 206 0 38 76 114 114 114 14
0 26 -14 26 -31 0 -41 48 -57 97 -31 38 21 40 17 32 -83 -7 -99 23 -215 55
-215 8 0 6 -24 -5 -53 -18 -46 -16 -50 10 -28 17 14 31 38 31 53 0 16 14 28
30 28 17 0 30 11 30 25 0 14 6 45 13 70 9 36 3 45 -31 45 -58 0 -53 22 20 91
84 79 111 150 69 181 -29 21 -28 24 7 33 21 6 49 30 61 54 41 75 -70 -9 -151
-115 -51 -67 -68 -80 -68 -50 0 61 -22 69 -59 22 -79 -97 -128 1 -70 140 20
48 22 65 6 49 -39 -39 -61 -30 -37 15 12 22 17 40 11 40 -6 0 -27 -33 -46 -73
-36 -75 -93 -126 -116 -103 -13 13 44 104 137 222 120 151 41 395 -131 405
-112 7 -375 -380 -294 -432 25 -17 25 -21 -1 -38 -25 -16 -26 -27 -5 -60 21
-34 18 -46 -17 -79 -42 -39 -27 -122 23 -122 35 0 19 -53 -31 -100 -57 -53
-84 -46 -42 11 23 31 23 44 1 78 -14 23 -29 82 -33 131 -10 116 -29 150 -68
119 -22 -19 -28 -17 -28 6 0 17 22 36 48 43 56 14 97 164 52 192 -30 19 -7 67
103 215 132 177 166 115 45 -81 -139 -226 -54 -144 106 101 31 47 68 85 83 85
22 0 23 6 4 29 -15 18 -18 47 -9 75 8 25 16 62 18 81 3 36 25 68 36 53 3 -4
31 -60 63 -124 38 -78 64 -109 77 -96 13 13 8 39 -17 76 -21 31 -36 64 -33 74
3 9 -12 30 -35 45 -22 16 -58 69 -79 118 -47 106 -64 113 -57 24z m-4 -182
c-22 -59 -61 -71 -61 -20 0 39 66 119 75 92 4 -11 -3 -43 -14 -72z m-127 -4
c44 -44 -103 -176 -161 -145 -35 18 -34 22 10 73 96 110 108 115 151 72z m23
-126 c-62 -83 -165 -180 -180 -171 -19 12 69 140 131 191 49 41 84 27 49 -20z
m277 -255 c49 -54 54 -123 8 -112 -15 3 -38 -10 -51 -29 -34 -46 -91 -21 -91
41 0 27 8 55 18 61 10 6 14 29 8 51 -16 59 49 52 108 -12z m-970 -134 c-24
-26 -71 -48 -108 -50 -80 -6 -57 24 58 76 92 42 107 34 50 -26z m217 -36 c-22
-38 -41 -54 -41 -38 -1 26 -3 26 -19 0 -14 -21 -8 -42 20 -71 21 -23 39 -55
39 -71 0 -17 8 -39 18 -49 12 -12 8 -29 -9 -44 -16 -14 -32 -17 -39 -6 -6 11
-25 14 -41 8 -16 -6 -45 1 -63 16 -26 21 -30 21 -18 1 19 -32 -49 -26 -73 6
-30 41 -12 74 87 166 57 52 111 116 121 142 13 33 25 42 39 28 14 -14 8 -42
-21 -88z m199 -57 c0 -11 -27 -34 -60 -51 -64 -33 -86 -4 -36 46 29 29 96 32
96 5z m328 -142 c31 -29 -5 -79 -59 -79 -43 0 -49 7 -39 40 8 24 4 40 -10 40
-12 0 -17 9 -9 21 13 21 85 8 117 -22z m-888 -10 c0 -32 -53 -63 -73 -42 -7 6
-7 25 0 42 15 40 73 40 73 0z"/>
<path d="M2380 3070 c0 -55 19 -63 56 -26 37 37 29 76 -16 76 -29 0 -40 -13
-40 -50z"/>
<path d="M1825 3007 c21 -36 32 -75 25 -86 -7 -12 -3 -21 8 -21 25 0 48 82 38
133 -4 24 -24 37 -58 38 l-52 1 39 -65z"/>
<path d="M1714 3047 c-22 -21 12 -84 58 -104 55 -25 56 -23 25 45 -22 49 -64
79 -83 59z"/>
<path d="M1675 2806 c-41 -10 -41 -9 -15 -75 24 -65 50 -64 109 4 67 77 31
104 -94 71z"/>
<path d="M2292 2597 c7 -11 -43 -70 -110 -132 -68 -62 -114 -117 -104 -124 11
-6 -10 -59 -47 -116 -61 -97 -90 -202 -143 -515 l-10 -60 46 52 c25 28 60 57
77 63 33 11 42 29 236 435 162 341 171 383 82 406 -23 6 -34 2 -27 -9z m8
-120 c0 -12 -32 -100 -71 -195 -134 -323 -120 -302 -200 -302 l-72 0 46 64
c24 35 34 57 21 48 -13 -8 -24 -4 -24 9 0 12 17 27 38 33 42 11 82 85 82 155
0 25 18 68 39 94 43 51 55 21 20 -45 -12 -22 -18 -55 -14 -74 5 -19 24 20 44
86 44 147 91 213 91 127z"/>
<path d="M1953 2465 c-9 -25 -24 -45 -34 -45 -11 0 -19 -24 -19 -54 l0 -55 42
42 c28 28 39 60 34 99 -7 55 -8 56 -23 13z"/>
<path d="M1713 2344 c-37 -41 -67 -164 -40 -163 45 1 137 199 92 199 -10 0
-34 -16 -52 -36z"/>
<path d="M1607 1819 c-16 -16 -9 -35 24 -69 38 -37 45 -61 37 -123 -9 -65 -7
-71 13 -40 49 78 -18 288 -74 232z"/>
<path d="M1810 1698 c-9 -37 -5 -71 8 -84 16 -16 22 1 22 62 0 99 -12 108 -30
22z"/>
<path d="M1129 1599 c-18 -35 -25 -79 -18 -103 11 -33 7 -39 -18 -30 -36 14
-133 -97 -133 -152 0 -41 83 -214 103 -214 8 0 6 -28 -4 -63 -20 -71 5 -137
53 -137 17 0 26 -7 21 -16 -6 -8 6 -37 26 -63 l36 -47 57 40 c32 23 103 64
158 91 189 96 377 296 393 421 11 79 -25 73 -86 -16 -43 -63 -48 -81 -25 -87
24 -5 25 -12 7 -35 -49 -58 -116 -20 -82 46 10 20 27 72 38 116 11 44 27 97
36 118 36 85 -32 5 -94 -110 -37 -70 -87 -132 -118 -149 -30 -15 -84 -57 -120
-93 -45 -45 -69 -57 -75 -39 -5 15 2 37 14 49 37 37 25 45 -58 37 -44 -4 -81
0 -83 10 -15 88 -6 312 16 375 45 128 15 164 -44 51z m380 -469 c-21 -38 -44
-70 -51 -70 -7 0 -36 -24 -66 -53 -66 -67 -83 -52 -41 36 29 62 168 184 187
165 5 -4 -9 -39 -29 -78z"/>
<path d="M1224 1599 c-29 -76 -50 -150 -40 -139 55 62 91 136 76 160 -14 23
-22 18 -36 -21z"/>
<path d="M1404 1576 c-88 -23 -144 -118 -144 -241 0 -107 -3 -105 88 -67 203
85 253 361 56 308z m8 -165 c-32 -49 -92 -70 -92 -32 0 23 103 105 116 92 5
-5 -6 -33 -24 -60z"/>
<path d="M969 835 c-13 -60 -86 -220 -88 -193 -1 7 13 51 29 98 42 119 36 125
-20 20 -88 -164 -54 -269 54 -168 36 34 95 82 131 106 80 55 80 70 7 144 -75
74 -96 73 -113 -7z"/>
<path d="M1359 818 c-32 -33 -66 -56 -76 -50 -45 28 -66 -45 -24 -87 22 -22
40 -46 40 -51 -9 -60 25 -37 74 52 106 190 99 258 -14 136z"/>
<path d="M1035 615 c-63 -45 -110 -86 -106 -91 21 -21 211 45 211 74 0 23 5
25 24 6 13 -13 45 -24 71 -24 l48 0 -43 60 c-54 76 -66 75 -205 -25z"/>
<path d="M1260 521 c0 -10 9 -24 20 -31 36 -22 21 -53 -19 -40 -43 13 -81 -38
-81 -108 0 -35 7 -38 55 -21 77 27 132 128 100 180 -25 40 -75 54 -75 20z"/>
<path d="M1005 496 c-58 -10 -101 -27 -95 -37 6 -9 24 -12 41 -6 18 7 29 -1
29 -21 0 -27 9 -26 65 8 36 22 80 40 99 40 18 0 39 9 46 20 15 24 -40 23 -185
-4z"/>
<path d="M845 400 c-42 -66 -29 -84 34 -47 45 26 54 41 38 61 -30 35 -43 33
-72 -14z"/>
<path d="M1065 416 c-57 -28 -59 -63 -3 -45 35 11 40 7 29 -27 -7 -23 -3 -46
8 -53 12 -8 21 3 21 23 0 20 6 56 13 81 13 49 0 53 -68 21z"/>
<path d="M905 327 c-25 -18 -45 -49 -45 -69 0 -21 -27 -61 -59 -90 -143 -127
221 -220 373 -95 44 36 49 46 21 46 -19 1 -35 14 -35 29 0 60 -69 119 -98 84
-20 -23 -36 -26 -64 -11 -46 25 -50 70 -7 87 35 13 21 53 -17 51 -13 -1 -44
-15 -69 -32z"/>
</g>
</svg>
