<?xml version="1.0" standalone="no"?>
<!DOCTYPE svg PUBLIC "-//W3C//DTD SVG 20010904//EN"
 "http://www.w3.org/TR/2001/REC-SVG-20010904/DTD/svg10.dtd">
<svg version="1.0" xmlns="http://www.w3.org/2000/svg"
 width="432.000000pt" height="900.000000pt" viewBox="0 0 432.000000 900.000000"
 preserveAspectRatio="xMidYMid meet">
<metadata>
Created by potrace 1.10, written by Peter Selinger 2001-2011
</metadata>
<g transform="translate(0.000000,900.000000) scale(0.100000,-0.100000)"
fill="#000000" stroke="none">
<path d="M1735 8074 c-22 -19 -73 -51 -112 -70 -77 -37 -95 -64 -44 -64 16 0
34 6 40 14 6 7 33 21 59 31 26 10 61 29 78 42 17 12 45 28 62 34 34 12 44 39
15 39 -10 0 -27 3 -38 5 -14 4 -33 -6 -60 -31z"/>
<path d="M1898 8102 c-31 -6 -20 -18 49 -52 37 -18 86 -50 109 -72 22 -21 46
-38 51 -38 6 0 16 -7 23 -15 8 -10 30 -15 62 -15 42 0 54 -4 78 -30 33 -36 62
-95 58 -118 -4 -23 -40 -27 -77 -8 -16 9 -40 16 -53 16 -30 0 -98 45 -146 98
-37 40 -41 42 -83 36 -28 -4 -60 0 -88 9 -37 13 -47 13 -65 2 -12 -7 -37 -16
-57 -19 -36 -6 -95 -58 -118 -103 -7 -14 -21 -23 -35 -23 -15 0 -45 -21 -84
-60 -34 -33 -70 -60 -80 -60 -11 0 -31 9 -46 21 -20 16 -26 29 -26 59 0 41 13
57 57 69 19 5 29 15 31 30 10 66 -64 42 -107 -35 -45 -78 -42 -105 19 -163 47
-45 50 -51 50 -98 0 -39 7 -60 31 -97 31 -46 31 -48 16 -84 -23 -55 -44 -131
-52 -185 -5 -39 -3 -52 16 -78 18 -25 20 -34 10 -52 -26 -49 -39 -69 -58 -90
-12 -13 -23 -44 -27 -76 l-7 -53 33 7 c45 10 126 11 168 1 19 -4 30 -4 24 1
-6 4 -15 18 -19 31 -8 27 13 55 60 80 16 8 56 38 88 65 56 49 57 51 57 104 0
41 4 55 17 60 22 8 50 -28 59 -75 4 -20 13 -49 20 -64 8 -15 14 -52 14 -83 0
-48 3 -56 18 -53 13 2 18 15 20 53 4 55 17 79 41 72 105 -33 170 -47 215 -47
56 0 83 -17 72 -45 -9 -24 21 -20 138 21 38 13 41 12 95 -20 58 -36 75 -39 49
-9 -9 10 -23 33 -33 52 -15 31 -16 41 -4 89 10 45 10 62 -1 100 -7 26 -15 67
-18 92 -5 50 -16 68 -49 81 -34 13 -53 61 -68 172 -8 56 -17 116 -21 133 -5
28 -2 34 30 53 36 22 96 91 96 109 0 5 -16 19 -35 30 -33 20 -41 36 -47 92 -3
24 -6 25 -68 25 -109 1 -119 4 -159 40 -21 19 -43 35 -48 35 -5 0 -36 16 -69
36 -64 40 -99 52 -126 46z m24 -313 c14 -22 77 -59 101 -59 17 0 77 -73 77
-94 0 -12 -11 -16 -44 -16 -69 0 -96 -14 -96 -49 0 -20 8 -35 22 -45 25 -18
64 -21 73 -6 9 14 52 12 58 -3 5 -14 -7 -95 -21 -142 -13 -43 -80 -166 -105
-192 -15 -17 -32 -23 -65 -23 -61 0 -92 35 -167 184 -51 105 -56 120 -46 143
10 22 16 25 48 20 90 -15 138 69 72 127 -16 15 -29 33 -27 39 2 7 19 40 38 74
37 67 60 79 82 42z m368 -199 c0 -33 -11 -38 -30 -15 -15 18 -6 45 15 45 10 0
15 -10 15 -30z m-742 -129 c-6 -53 -68 -30 -68 25 0 29 19 35 48 16 16 -11 22
-23 20 -41z m-20 -243 c8 -8 9 -15 1 -25 -18 -21 -39 -15 -39 12 0 27 18 33
38 13z m856 -24 c19 -18 13 -34 -12 -34 -27 0 -45 17 -39 34 8 20 31 20 51 0z
m61 -124 c0 -16 -6 -26 -18 -28 -19 -4 -32 20 -23 44 9 25 41 13 41 -16z
m-860 -5 c0 -22 -31 -33 -48 -16 -7 7 -6 15 3 26 17 21 45 15 45 -10z"/>
<path d="M1862 7328 c-7 -7 -12 -16 -12 -21 0 -13 54 -77 66 -77 13 0 54 55
54 73 0 23 -23 37 -60 37 -20 0 -41 -5 -48 -12z"/>
<path d="M2540 6876 c0 -12 43 -76 51 -76 5 0 9 -10 9 -23 0 -31 -40 -67 -74
-67 -27 0 -105 -38 -138 -67 -9 -8 -51 -23 -94 -34 -43 -11 -80 -21 -82 -24
-2 -2 20 -28 50 -57 72 -70 86 -95 97 -174 11 -77 6 -95 -44 -149 -20 -22 -43
-52 -51 -67 -17 -32 -51 -37 -89 -12 -21 14 -34 14 -107 3 -46 -6 -125 -14
-176 -16 -103 -5 -113 -12 -92 -63 16 -39 0 -80 -39 -103 -59 -35 -71 -21 -71
78 0 83 -5 94 -55 115 -24 10 -55 34 -70 54 -24 32 -33 36 -71 36 -33 0 -49 6
-69 25 -14 14 -25 35 -25 45 0 11 -8 35 -17 54 -15 33 -15 38 2 75 26 58 111
143 171 172 48 23 37 44 -26 47 -30 2 -62 9 -70 16 -8 6 -36 22 -62 35 -26 12
-55 32 -63 44 -16 22 -16 22 -30 3 -18 -24 -19 -60 -2 -73 16 -13 111 -43 136
-43 39 0 28 -26 -41 -97 l-71 -71 -8 -93 c-9 -91 -8 -94 16 -119 45 -47 23
-98 -30 -70 -20 11 -30 10 -69 -9 -54 -25 -58 -42 -14 -59 18 -7 28 -15 23
-20 -124 -104 -125 -104 -160 -98 -31 6 -36 4 -50 -24 -19 -37 -15 -54 30
-119 43 -62 51 -93 34 -133 -11 -27 -10 -32 6 -44 10 -8 31 -14 46 -14 37 0
129 -49 141 -76 8 -17 4 -33 -19 -75 -25 -46 -35 -55 -69 -64 -47 -11 -50 -15
-58 -74 -9 -66 -43 -171 -91 -276 -55 -123 -65 -152 -65 -192 0 -25 -8 -58
-17 -74 -15 -25 -16 -34 -5 -62 26 -64 44 -133 51 -197 4 -36 13 -75 19 -87 7
-12 12 -44 12 -72 0 -27 7 -80 16 -118 13 -54 15 -98 10 -208 -4 -77 -8 -178
-10 -225 -2 -47 -7 -135 -11 -196 l-8 -111 31 -21 c16 -12 34 -22 39 -22 5 0
19 -10 31 -23 26 -28 28 -67 7 -182 -8 -44 -15 -98 -15 -120 0 -114 135 -322
245 -375 46 -22 50 -28 60 -100 3 -25 13 -67 22 -93 22 -71 22 -312 -1 -395
-9 -35 -19 -109 -22 -165 -3 -56 -10 -126 -16 -155 -8 -39 -8 -58 0 -77 21
-46 40 -44 165 22 81 42 301 153 311 156 5 2 10 27 11 55 1 57 0 58 -70 64
-27 3 -30 7 -30 36 -1 23 -8 39 -24 51 -22 17 -23 21 -13 51 7 18 9 36 6 42
-8 12 15 38 33 38 16 0 113 -88 113 -102 0 -6 9 -21 20 -35 11 -14 20 -35 20
-47 0 -11 11 -31 24 -43 l23 -22 -2 67 c-2 78 -24 129 -66 158 -28 18 -39 44
-19 44 5 0 23 -13 40 -30 20 -19 41 -30 59 -30 16 0 33 -6 38 -12 5 -7 17 -61
27 -119 15 -96 15 -112 1 -164 -11 -42 -15 -109 -14 -243 0 -178 1 -186 29
-258 16 -41 32 -89 35 -107 4 -18 27 -78 51 -133 24 -56 44 -109 44 -118 0
-13 28 -36 44 -36 3 0 24 23 46 51 39 49 40 53 40 127 1 43 7 104 15 137 19
76 19 183 1 226 -12 28 -12 39 0 72 8 22 14 59 14 83 0 25 6 70 14 102 35 141
46 199 46 233 0 20 9 62 20 95 11 32 20 65 20 72 0 14 -79 17 -126 3 -51 -14
-64 0 -64 74 0 37 -5 67 -12 71 -20 13 -38 -28 -38 -88 0 -44 -4 -59 -17 -66
-26 -13 -44 -5 -80 36 -31 35 -33 36 -71 26 -31 -8 -45 -7 -68 6 -71 39 -127
79 -175 125 -45 43 -50 52 -45 79 3 17 10 56 15 87 5 32 14 66 20 77 6 12 11
41 11 66 0 65 14 96 44 96 14 0 28 -6 33 -12 4 -7 8 -67 9 -133 2 -75 8 -135
17 -160 l14 -40 16 35 c10 23 20 93 27 200 6 91 18 224 25 295 8 72 19 180 25
240 6 61 15 126 20 145 5 19 12 67 15 105 4 39 13 105 21 149 8 44 14 143 14
226 0 86 5 161 11 177 6 15 11 80 11 143 0 87 4 122 16 145 12 22 17 58 17
135 l0 105 31 3 c27 3 35 -2 52 -31 11 -19 23 -50 27 -68 4 -19 11 -38 15 -44
4 -5 13 -32 20 -60 6 -27 18 -75 25 -105 16 -63 30 -123 52 -230 14 -71 32
-137 55 -205 6 -16 14 -48 18 -70 5 -22 13 -58 19 -80 10 -36 27 -103 62 -245
6 -25 17 -68 25 -96 8 -28 14 -62 14 -75 1 -13 7 -35 15 -49 8 -14 14 -37 15
-51 0 -24 44 -139 76 -201 8 -14 14 -35 14 -45 0 -11 7 -28 15 -39 8 -10 15
-28 15 -39 0 -18 8 -47 40 -135 6 -19 16 -51 20 -70 12 -51 72 -215 104 -287
27 -59 47 -80 67 -67 13 8 -1 111 -22 167 -11 26 -19 62 -19 80 0 18 -11 66
-26 107 -14 41 -27 84 -30 95 -3 11 -10 37 -16 57 -8 27 -8 44 1 65 9 24 7 39
-14 98 -116 320 -132 381 -154 615 -5 47 -14 98 -20 113 -6 16 -11 48 -11 71
0 24 -7 63 -15 86 -8 23 -15 57 -15 74 0 17 -7 53 -15 80 -8 27 -15 86 -15
130 0 45 -7 103 -15 130 -10 33 -15 92 -15 177 l0 128 -50 54 c-27 29 -63 71
-79 93 -17 21 -57 68 -91 104 -90 96 -110 140 -110 245 l0 86 47 50 c60 64 96
84 124 69 21 -12 19 -13 143 54 27 14 59 26 72 26 45 0 113 42 126 77 7 19 22
40 35 48 28 19 29 38 2 56 -19 13 -19 16 -5 50 9 21 31 54 51 74 39 42 43 64
18 102 -17 26 -17 27 12 47 59 43 75 64 75 102 0 20 12 63 26 95 l27 59 -57
54 c-50 48 -56 59 -56 94 0 22 -8 68 -19 103 -10 35 -24 91 -31 124 -7 33 -19
71 -27 85 -7 14 -17 37 -22 52 -6 15 -25 34 -45 43 -33 16 -38 16 -61 1 -36
-23 -34 -64 2 -68 19 -2 29 -10 31 -23 2 -11 11 -27 19 -37 18 -20 14 -94 -4
-90 -7 1 -19 3 -25 5 -19 3 -21 -51 -5 -98 8 -23 21 -41 32 -44 16 -3 17 2 11
35 -13 68 -12 79 8 79 11 0 27 -16 41 -42 12 -24 27 -48 32 -55 5 -7 15 -28
22 -45 12 -30 11 -35 -13 -64 -43 -51 -32 -66 48 -67 15 0 33 -5 38 -10 13
-13 0 -52 -17 -52 -8 0 -34 -13 -58 -30 -25 -16 -51 -30 -58 -30 -8 0 -34 -10
-59 -22 -25 -11 -52 -24 -60 -28 -9 -4 -30 -11 -48 -14 -17 -4 -34 -12 -37
-17 -4 -5 -19 -9 -34 -9 -15 0 -31 -4 -37 -9 -13 -14 -122 -71 -134 -71 -27 0
14 80 60 117 23 19 4 15 -36 -8 -70 -39 -84 1 -33 95 43 80 60 147 49 204 -8
46 -42 181 -60 235 -12 40 15 65 137 127 55 28 111 62 123 75 l21 23 -21 43
c-23 46 -58 89 -72 89 -4 0 -8 -2 -8 -4z m-1054 -820 c22 -35 15 -71 -15 -71
-13 0 -27 7 -31 15 -4 8 -12 25 -18 37 -18 35 -15 43 18 43 20 0 35 -8 46 -24z
m549 -16 c3 -6 3 -19 0 -30 -8 -24 -65 -29 -65 -6 0 32 50 60 65 36z m-761
-16 c11 -4 16 -19 16 -45 0 -34 3 -39 23 -39 13 0 28 5 33 10 14 14 44 2 44
-16 0 -16 -66 -115 -83 -126 -6 -4 -20 0 -30 9 -17 16 -20 16 -47 -1 -36 -20
-48 -15 -108 47 -44 44 -44 45 -27 71 10 14 23 26 31 26 7 0 39 16 71 35 32
19 59 35 60 35 1 0 8 -3 17 -6z m1603 -21 c7 -20 -75 -101 -110 -109 -17 -3
-38 -10 -47 -15 -8 -5 -55 -25 -105 -45 -49 -21 -99 -44 -110 -51 -11 -7 -32
-13 -47 -13 -15 0 -29 -4 -32 -9 -3 -5 -29 -16 -58 -26 -29 -9 -63 -25 -76
-36 -32 -25 -52 -24 -52 2 0 27 62 89 88 89 12 0 23 4 26 9 3 5 21 12 39 15
19 3 44 17 56 30 12 12 45 33 74 46 28 12 60 26 69 31 10 5 23 9 30 9 17 0
113 40 163 67 42 23 86 26 92 6z m-583 -29 c11 -27 -6 -117 -26 -146 -19 -27
-51 -37 -62 -19 -9 15 22 142 40 162 21 23 40 24 48 3z m-516 -171 c2 -23 -3
-35 -20 -47 -49 -34 -92 -12 -86 45 2 26 9 35 28 39 45 11 75 -3 78 -37z m986
-2 c3 -4 -4 -32 -16 -62 -12 -30 -23 -83 -26 -119 -4 -71 -11 -84 -54 -106
-24 -12 -32 -13 -44 -3 -20 17 -44 76 -38 93 3 8 -16 31 -43 56 l-48 42 30 24
c17 13 36 24 43 24 7 0 31 9 52 20 22 11 40 18 40 15 0 -3 12 1 28 9 30 17 68
20 76 7z m-1016 -136 c4 -26 -50 -68 -81 -63 -16 2 -23 11 -25 31 -5 42 14 59
62 55 32 -2 42 -7 44 -23z m669 -6 c22 -7 38 -25 57 -61 14 -27 26 -56 26 -63
0 -8 -21 -31 -47 -52 -26 -21 -62 -53 -79 -70 -40 -42 -65 -41 -114 3 -44 40
-49 64 -25 110 8 16 15 37 15 46 0 19 54 76 84 88 29 12 48 12 83 -1z m-660
-105 c10 -26 -10 -69 -34 -72 -11 -2 -33 8 -49 22 -28 24 -29 24 -10 45 24 26
84 29 93 5z m-113 -80 c22 -8 20 -41 -3 -53 -25 -14 -42 6 -30 37 9 24 10 25
33 16z m593 -76 c29 -27 29 -38 1 -38 -25 0 -58 27 -58 47 0 20 31 16 57 -9z
m-512 -12 c0 -27 -29 -43 -49 -27 -12 10 -13 18 -5 33 13 25 54 21 54 -6z
m-44 -82 c43 -27 50 -57 17 -77 -13 -9 -26 -4 -58 18 -46 32 -55 47 -46 70 8
22 41 18 87 -11z m-256 -49 c64 -78 133 -107 155 -65 22 41 76 18 99 -43 10
-27 11 -27 103 -27 88 0 131 -10 115 -26 -13 -13 15 -34 45 -34 40 0 75 40 88
103 26 127 88 171 151 107 30 -29 31 -32 24 -93 -9 -80 -27 -113 -72 -135 -43
-20 -53 -39 -22 -44 12 -2 27 -11 33 -21 9 -15 7 -21 -9 -33 -26 -19 -39 -13
-43 19 -5 39 -19 33 -26 -12 -4 -26 -14 -44 -32 -55 -14 -10 -34 -26 -45 -37
-26 -26 -71 -22 -84 9 -12 26 -11 26 -65 7 -53 -19 -114 -19 -129 -1 -6 7 -30
16 -52 20 -43 7 -89 44 -89 72 0 14 9 16 78 9 42 -3 96 -13 120 -21 23 -8 58
-14 76 -14 22 0 38 -7 47 -20 13 -18 17 -19 59 -6 33 9 46 19 48 35 3 18 -1
21 -37 21 -22 0 -60 9 -83 19 -24 11 -77 27 -118 36 -74 17 -200 63 -210 77
-3 4 -15 11 -27 15 -29 11 -114 93 -135 131 -38 65 -14 70 37 7z m95 -165 c28
-16 55 -30 60 -30 10 0 30 -32 30 -49 0 -34 -112 8 -149 56 -46 58 -18 69 59
23z m13 -158 c16 -18 56 -51 89 -73 58 -38 61 -39 148 -39 79 0 96 -3 142 -29
29 -15 64 -32 78 -36 65 -20 78 -75 34 -154 -17 -32 -41 -56 -77 -77 -76 -46
-115 -50 -174 -20 -116 59 -326 348 -346 478 -7 49 10 55 47 15 15 -18 42 -47
59 -65z m591 -51 c20 -22 14 -41 -13 -41 -22 0 -41 19 -41 42 0 24 32 23 54
-1z m204 -46 c4 -9 32 -40 60 -69 56 -57 76 -101 60 -129 -21 -39 -98 1 -98
51 0 13 -8 36 -18 50 -22 32 -52 91 -52 104 0 14 39 9 48 -7z m-64 -84 c4 -5
3 -17 0 -26 -10 -24 -48 -15 -52 13 -3 18 1 22 22 22 14 0 27 -4 30 -9z m-739
-82 c17 -24 42 -57 58 -73 30 -32 34 -46 13 -46 -17 0 -89 77 -110 118 -35 68
-7 69 39 1z m-14 -150 c97 -94 171 -129 272 -129 44 0 83 6 101 15 77 41 90 4
34 -99 -54 -100 -99 -151 -159 -181 -59 -30 -69 -31 -103 -4 -38 30 -124 164
-166 257 -5 13 -21 46 -34 75 -13 29 -26 63 -29 77 -2 14 -8 33 -12 43 -16 38
25 15 96 -54z m954 0 c8 -25 -13 -89 -29 -89 -22 0 -36 24 -36 62 0 55 50 76
65 27z m-1021 -127 c16 -32 21 -53 16 -62 -5 -8 -10 -12 -12 -10 -2 3 -13 19
-26 37 -22 32 -28 63 -15 76 10 11 11 10 37 -41z m-110 -46 c15 -28 26 -65 26
-88 0 -21 12 -85 26 -141 14 -56 30 -118 34 -137 4 -19 15 -62 23 -95 9 -33
22 -80 28 -105 40 -152 96 -311 140 -401 65 -130 72 -154 59 -199 -29 -96 -63
-227 -75 -282 -3 -15 -14 -29 -25 -33 -22 -7 -146 31 -171 52 -8 7 -21 13 -27
13 -20 0 -140 119 -161 161 -26 48 -28 171 -6 264 8 34 15 109 15 171 0 76 5
123 15 147 9 23 15 68 15 120 0 53 6 98 15 120 8 20 15 66 15 102 0 43 5 74
16 90 12 19 14 44 11 127 -3 57 -8 121 -12 143 -9 49 3 40 39 -29z m770 -102
c-2 -103 -23 -276 -36 -291 -6 -7 -17 -13 -24 -13 -18 0 -20 154 -3 197 6 15
15 61 20 101 9 79 15 95 32 89 8 -2 12 -31 11 -83z m-626 -30 c4 -43 104 -149
157 -167 58 -20 59 -48 2 -76 -24 -12 -50 -19 -58 -16 -26 10 -124 189 -113
206 3 6 -3 19 -15 30 -29 27 -28 61 2 57 16 -2 23 -11 25 -34z m466 -70 c23
-9 20 -45 -13 -127 -37 -95 -52 -137 -58 -167 -7 -33 -42 -70 -65 -70 -47 0
-106 28 -151 72 -27 25 -46 51 -43 56 3 6 32 24 64 42 31 18 82 56 112 85 42
42 123 109 137 114 1 1 8 -2 17 -5z m-366 -295 c44 -50 128 -100 183 -106 27
-3 54 -12 60 -19 11 -14 13 -9 -39 -174 -17 -52 -33 -109 -37 -127 -11 -57
-62 -73 -75 -23 -4 14 -18 50 -32 80 -48 104 -58 131 -58 151 0 11 -5 29 -11
40 -6 11 -14 41 -19 67 -4 26 -14 61 -21 78 -13 33 -7 64 12 64 6 0 23 -14 37
-31z m477 -2 c4 -12 1 -52 -5 -87 -7 -36 -17 -106 -24 -156 -7 -50 -16 -96
-19 -101 -4 -6 -9 -48 -12 -94 -3 -46 -12 -140 -20 -209 -8 -69 -15 -144 -15
-168 0 -77 -34 -106 -65 -58 -14 21 -15 33 -4 83 6 32 15 87 19 123 3 36 11
74 17 85 6 11 13 59 15 106 3 47 11 95 17 107 6 11 11 50 11 85 0 35 7 86 15
113 8 27 15 75 15 106 0 31 3 63 6 72 9 24 43 20 49 -7z m-295 -757 c8 -15 7
-32 -1 -63 -7 -24 -13 -114 -13 -217 -1 -158 -3 -175 -18 -178 -21 -4 -74 49
-93 92 -8 18 -9 39 -4 55 8 29 26 111 38 181 4 25 13 63 21 85 7 22 14 46 16
53 5 19 42 14 54 -8z m25 -695 c0 -13 -8 -21 -22 -23 -19 -3 -23 1 -23 23 0
22 4 26 23 23 14 -2 22 -10 22 -23z"/>
<path d="M1876 6788 c-3 -7 -9 -28 -15 -47 -15 -46 -14 -81 2 -81 15 0 51 115
42 131 -9 13 -25 11 -29 -3z"/>
<path d="M1718 6614 c-20 -11 -20 -11 3 -28 19 -13 51 -16 179 -16 86 0 160 4
165 9 6 5 21 11 35 13 14 1 26 10 28 18 2 13 -25 15 -193 15 -124 0 -204 -4
-217 -11z"/>
<path d="M1197 6563 c-37 -60 -131 -163 -149 -163 -20 0 0 -80 31 -129 23 -36
31 -59 31 -94 0 -26 4 -47 8 -47 22 0 40 30 46 78 7 52 6 53 -27 72 -33 19
-47 49 -47 97 0 18 164 180 191 188 21 7 26 45 7 45 -7 0 -23 3 -34 6 -18 5
-28 -4 -57 -53z"/>
<path d="M1636 6611 c-3 -5 1 -11 9 -15 15 -6 29 7 18 18 -9 9 -21 8 -27 -3z"/>
<path d="M1789 6327 c72 -27 43 -44 -83 -50 -40 -1 -61 -7 -64 -16 -4 -11 2
-12 24 -6 16 4 127 9 247 12 119 3 217 9 217 14 0 26 -78 40 -310 54 -62 4
-64 4 -31 -8z"/>
<path d="M2655 6179 c-4 -6 -4 -13 -1 -16 8 -8 36 5 36 17 0 13 -27 13 -35 -1z"/>
</g>
</svg>
