<?xml version="1.0" standalone="no"?>
<!DOCTYPE svg PUBLIC "-//W3C//DTD SVG 20010904//EN"
 "http://www.w3.org/TR/2001/REC-SVG-20010904/DTD/svg10.dtd">
<svg version="1.0" xmlns="http://www.w3.org/2000/svg"
 width="900.000000pt" height="1098.000000pt" viewBox="0 0 900.000000 1098.000000"
 preserveAspectRatio="xMidYMid meet">
<metadata>
Created by potrace 1.10, written by Peter Selinger 2001-2011
</metadata>
<g transform="translate(0.000000,1098.000000) scale(0.100000,-0.100000)"
fill="#000000" stroke="none">
<path d="M4635 9370 c-16 -4 -74 -8 -127 -9 -92 -1 -205 -17 -195 -28 3 -2 68
-6 144 -8 170 -3 280 -15 242 -25 -42 -12 -322 -23 -369 -15 -31 5 -44 13 -48
27 -5 19 -11 20 -81 14 -203 -16 -235 -27 -195 -67 19 -19 34 -19 334 -18 173
1 335 1 359 1 24 -1 75 5 113 13 44 10 127 15 228 15 138 0 159 2 164 17 11
26 -6 34 -95 42 -58 6 -95 15 -119 29 -32 20 -48 22 -180 21 -80 -1 -158 -5
-175 -9z"/>
<path d="M2185 9220 c-4 -6 -1 -43 5 -83 37 -248 52 -565 32 -697 -6 -40 -10
-45 -42 -53 -19 -5 -69 -12 -110 -17 -41 -4 -99 -17 -128 -29 -29 -12 -75 -21
-102 -21 -27 0 -52 -4 -55 -10 -3 -5 -16 -10 -28 -10 -12 0 -29 -5 -37 -11
-18 -12 187 -6 295 9 81 11 98 5 115 -40 19 -50 52 -361 69 -659 5 -75 11
-141 14 -146 3 -5 8 -172 11 -370 4 -283 3 -364 -7 -377 -15 -21 -71 -33 -217
-47 -58 -5 -121 -12 -141 -15 -66 -11 -69 -1 -69 229 -1 255 -16 535 -33 609
-15 61 -7 99 27 127 24 20 56 85 56 115 0 14 -14 40 -34 60 -32 34 -37 36 -99
36 -85 0 -99 -17 -86 -100 5 -30 13 -83 18 -117 5 -34 13 -67 17 -75 9 -14 21
-272 29 -634 4 -192 3 -213 -13 -226 -18 -17 -49 -23 -187 -38 -154 -17 -179
-22 -204 -41 -17 -14 -40 -19 -81 -19 -31 0 -83 -9 -115 -20 -32 -11 -68 -20
-81 -20 -13 0 -26 -4 -29 -10 -5 -8 4 -12 69 -25 10 -2 55 1 100 6 180 23 244
30 308 36 63 5 67 4 83 -20 9 -14 21 -56 26 -92 5 -37 12 -72 16 -78 4 -6 10
-63 14 -127 22 -330 29 -418 39 -450 5 -19 10 -85 10 -147 0 -65 6 -139 15
-178 16 -66 16 -86 19 -980 0 -77 -1 -296 -2 -488 -3 -350 1 -387 33 -387 23
0 19 -53 -5 -68 -27 -16 -25 -47 2 -67 23 -15 23 -18 29 -328 8 -360 6 -337
18 -337 14 0 31 61 42 148 17 133 27 668 21 1142 -10 826 -1 1243 34 1665 8
105 18 285 20 400 5 200 26 421 42 437 8 8 72 23 163 37 32 5 66 14 77 20 29
15 62 14 68 -3 5 -13 8 -127 14 -530 0 -21 7 -59 15 -83 11 -32 15 -89 15
-207 0 -166 6 -226 21 -226 26 0 39 213 40 632 0 224 4 420 8 436 5 17 5 36
-2 47 -10 19 -14 322 -6 634 5 222 5 222 101 173 78 -39 208 -82 251 -82 18 0
59 -7 90 -15 32 -8 87 -15 122 -15 68 0 72 -2 114 -59 14 -19 26 -24 55 -23
20 1 48 -3 62 -8 25 -10 25 -10 8 -39 -13 -21 -27 -31 -48 -33 -17 -2 -29 -7
-26 -13 6 -13 23 -9 90 22 30 14 74 28 97 30 35 5 43 2 53 -17 10 -18 19 -21
56 -18 24 2 44 0 44 -4 0 -5 -6 -8 -14 -8 -7 0 -19 -7 -26 -15 -7 -8 -27 -15
-45 -15 -20 0 -35 -6 -39 -15 -7 -20 -42 -19 -50 1 -7 18 -48 13 -104 -12 -23
-11 -46 -13 -80 -8 -26 4 -101 8 -167 9 -76 1 -144 8 -185 19 -36 9 -90 21
-120 25 -30 5 -76 15 -101 22 -54 14 -91 6 -68 -15 20 -19 145 -66 174 -66 14
0 42 -7 62 -15 19 -8 45 -15 57 -15 11 0 53 -12 91 -25 47 -17 92 -25 135 -25
69 0 83 -5 93 -32 8 -23 58 -24 118 -3 84 30 95 -12 14 -55 -54 -29 -76 -67
-33 -58 91 20 203 55 256 80 69 32 99 33 94 3 -2 -11 -5 -21 -5 -21 -1 -1 -78
-45 -172 -98 -93 -54 -174 -101 -179 -106 -16 -16 24 -23 42 -8 9 8 77 42 149
76 107 51 137 61 152 52 13 -7 28 -7 46 0 34 13 30 14 47 -13 12 -18 14 -44 8
-142 -7 -123 -25 -185 -54 -185 -21 0 -23 16 -18 116 3 54 0 99 -6 110 -10 17
-11 17 -16 -6 -3 -14 -13 -69 -21 -123 -8 -54 -22 -111 -30 -127 -8 -16 -15
-55 -15 -87 0 -32 -5 -76 -11 -98 -5 -22 -14 -92 -19 -155 -10 -136 -27 -268
-41 -330 -6 -25 -15 -112 -20 -194 -5 -82 -16 -175 -24 -207 -8 -31 -15 -81
-15 -110 0 -69 -14 -118 -51 -180 -34 -59 -37 -85 -8 -94 17 -6 20 -13 15 -33
-3 -15 -9 -47 -14 -72 -9 -52 -4 -41 -94 -182 -37 -59 -68 -112 -68 -117 0 -6
11 -11 25 -11 14 0 25 -4 25 -10 0 -20 -26 -66 -52 -93 -37 -38 -39 -71 -3
-37 14 13 25 28 25 33 0 10 30 36 41 37 20 1 15 -36 -11 -78 -61 -99 -130
-228 -130 -244 0 -33 22 -30 52 6 33 41 48 39 48 -5 0 -37 -41 -121 -114 -233
-73 -111 -101 -169 -92 -191 11 -31 49 5 63 60 12 47 58 125 74 125 18 0 21
-25 9 -76 -14 -59 -7 -80 17 -49 9 13 13 32 9 54 -3 20 0 42 9 55 7 11 19 48
25 81 7 33 16 76 20 95 5 19 18 85 30 145 12 61 26 130 32 155 6 25 14 68 19
95 4 28 15 84 24 125 9 41 20 99 26 129 5 29 14 62 19 72 6 10 10 37 10 60 0
23 4 56 9 73 5 17 14 60 20 96 6 36 18 99 27 140 9 41 19 95 23 120 4 25 11
52 16 60 10 15 18 61 35 190 10 77 29 156 43 177 4 7 12 40 17 75 5 35 14 86
19 113 25 133 25 136 2 142 -29 7 -31 63 -2 63 13 0 21 -9 26 -30 5 -23 12
-30 30 -30 13 0 29 -10 39 -24 8 -14 24 -27 35 -31 11 -3 31 -30 45 -59 34
-72 43 -78 101 -67 26 5 60 5 74 1 14 -4 45 -13 68 -19 38 -10 44 -16 53 -52
8 -29 8 -50 0 -75 -9 -27 -8 -44 4 -82 31 -94 7 -272 -38 -272 -27 0 -76 50
-76 78 0 15 -5 34 -10 42 -22 36 -56 -51 -70 -180 -17 -166 -38 -250 -75 -300
-35 -47 -33 -70 5 -70 53 0 60 -51 13 -98 -15 -16 -18 -52 -3 -52 6 0 22 7 35
16 13 9 29 13 35 9 14 -9 12 -41 -4 -54 -18 -15 -26 -45 -16 -61 6 -9 14 -8
34 5 24 16 30 16 53 4 29 -16 44 -47 33 -69 -6 -10 1 -22 22 -40 39 -33 49
-102 23 -160 -17 -38 -17 -40 5 -92 12 -29 28 -60 36 -69 20 -22 17 -56 -8
-98 -12 -20 -25 -38 -28 -41 -12 -11 -40 -60 -40 -71 0 -7 11 -2 25 11 14 13
25 29 25 36 0 7 10 19 22 25 19 10 25 8 45 -17 13 -16 30 -51 38 -79 13 -43
13 -51 1 -63 -18 -18 -46 -9 -46 16 0 18 -18 42 -30 42 -14 0 -30 -52 -36
-117 -5 -48 -15 -80 -36 -113 -16 -25 -31 -63 -35 -84 -5 -32 -3 -38 16 -43
29 -7 35 -40 16 -92 -8 -24 -15 -59 -15 -78 0 -46 -29 -97 -89 -161 -28 -29
-51 -55 -51 -57 0 -2 10 -5 23 -7 15 -2 21 -9 19 -23 -29 -235 -24 -222 -142
-340 -56 -55 -108 -112 -116 -127 -14 -27 -19 -78 -8 -78 4 0 44 34 91 75 46
41 88 75 94 75 5 0 13 -10 18 -22 10 -27 -20 -200 -39 -223 -12 -15 -12 -18 3
-26 22 -13 23 -71 2 -129 -8 -23 -15 -55 -15 -71 0 -21 -10 -34 -40 -56 -45
-32 -50 -44 -17 -40 18 2 23 -4 25 -30 2 -17 -4 -45 -12 -62 -9 -16 -16 -38
-16 -48 0 -10 -17 -36 -37 -58 -60 -67 -143 -172 -143 -181 0 -5 -10 -21 -22
-34 -13 -14 -48 -55 -78 -90 -30 -36 -72 -82 -93 -103 -22 -21 -50 -55 -64
-75 -13 -21 -41 -55 -61 -77 -21 -22 -53 -60 -72 -85 -19 -25 -79 -92 -134
-149 -56 -57 -108 -110 -116 -119 -8 -8 -24 -28 -36 -43 -32 -44 -201 -235
-294 -334 -74 -77 -114 -124 -224 -260 -10 -13 -16 -31 -13 -39 14 -35 46 -15
117 71 39 49 127 145 196 214 75 76 130 142 140 165 9 22 32 61 52 89 46 62
375 451 482 569 64 70 115 130 147 172 12 16 30 38 40 49 10 11 45 53 76 93
37 45 65 72 77 72 24 0 25 -11 4 -70 -9 -26 -18 -93 -21 -160 -6 -147 -21
-218 -89 -415 -8 -23 -14 -47 -14 -55 0 -7 -25 -46 -56 -86 -188 -246 -213
-295 -152 -302 23 -3 28 1 33 25 9 42 44 110 73 138 22 22 27 24 40 12 12 -13
12 -22 -2 -70 -44 -150 3 -255 102 -227 20 5 51 10 67 10 36 0 158 28 202 47
53 23 95 17 145 -21 45 -35 45 -35 52 -113 7 -77 42 -201 61 -215 28 -21 209
5 243 35 30 26 86 51 132 58 98 17 136 26 155 36 32 17 116 41 167 48 42 5 49
3 82 -26 20 -17 36 -28 36 -24 0 4 15 -3 34 -14 18 -12 50 -21 70 -21 37 0
124 23 158 41 10 5 26 9 36 9 11 0 50 12 88 26 149 55 179 64 216 64 32 0 45
6 66 30 15 17 30 30 35 30 5 0 20 9 34 20 14 11 37 20 50 20 13 0 34 5 46 12
12 7 59 12 104 12 69 1 86 4 110 23 59 47 198 113 238 113 12 0 34 11 49 25
15 14 33 25 41 25 8 0 17 5 21 12 7 11 -12 10 -93 -8 -29 -6 -33 -4 -33 15 0
14 20 42 50 71 34 33 50 57 50 74 0 15 17 44 41 73 23 26 50 59 62 73 11 14
96 104 189 201 149 157 189 209 159 209 -5 0 -109 -102 -232 -226 -123 -124
-232 -230 -241 -235 -12 -6 -25 -6 -37 1 -26 13 -61 109 -64 174 -2 50 0 55
56 124 32 40 55 77 52 82 -10 16 -41 11 -60 -10 -20 -23 -50 -26 -62 -7 -12
18 -34 79 -40 107 -3 19 6 40 36 80 44 59 47 65 29 76 -6 4 -23 -6 -39 -24
-48 -54 -88 -39 -103 38 -4 19 -12 47 -17 61 -13 34 5 73 55 114 20 16 36 36
36 42 0 22 -18 14 -42 -17 -44 -60 -88 -47 -88 27 0 39 5 50 50 97 48 51 60
78 40 91 -5 3 -27 -11 -49 -30 -50 -46 -70 -43 -87 14 -7 25 -29 61 -51 83
l-38 39 0 108 c0 124 9 143 76 161 21 6 49 24 63 41 21 25 25 38 23 79 -2 28
-7 53 -10 57 -4 3 -20 -6 -35 -20 -50 -48 -62 -38 -62 50 l0 76 41 38 c38 35
40 40 37 86 -3 42 -6 48 -23 45 -61 -10 -59 -11 -68 61 -7 55 -5 73 7 92 21
32 20 43 -5 90 -16 32 -19 51 -15 92 4 33 1 68 -8 95 -22 69 -39 254 -33 363
16 259 14 252 68 317 48 57 60 90 39 103 -6 4 -23 -7 -39 -24 -46 -49 -61 -38
-61 44 0 52 7 60 80 88 62 25 91 60 141 176 30 66 31 74 16 83 -10 5 -27 28
-39 51 -11 23 -31 56 -43 72 -31 42 -35 58 -19 80 21 29 17 42 -15 48 -24 5
-32 15 -45 53 -9 26 -16 59 -16 73 0 43 -40 109 -70 115 -35 6 -70 79 -52 104
6 10 19 30 28 45 l16 29 -30 -6 c-63 -14 -64 67 -1 100 16 8 29 19 29 24 0 26
-26 90 -36 90 -19 0 -36 28 -27 43 10 18 104 97 115 97 5 0 8 -9 8 -20 0 -11
-4 -20 -10 -20 -5 0 -10 -6 -10 -13 0 -7 -9 -20 -20 -30 -20 -17 -27 -37 -12
-37 4 0 16 13 26 28 25 34 122 153 204 248 67 78 90 88 124 57 16 -14 22 -15
36 -5 28 20 41 24 56 19 18 -7 37 -74 38 -130 0 -23 7 -54 14 -69 17 -33 19
-190 3 -220 -15 -28 -21 -68 -10 -68 5 0 11 6 13 12 3 8 9 4 17 -10 12 -23 0
-62 -19 -62 -17 0 -11 -43 15 -118 14 -39 25 -79 25 -88 0 -9 9 -18 20 -21 15
-4 20 -14 20 -40 0 -19 7 -48 16 -65 9 -17 20 -54 24 -82 5 -28 22 -105 39
-171 18 -66 41 -163 51 -215 25 -118 39 -175 55 -220 13 -35 30 -102 46 -175
5 -22 16 -69 25 -105 8 -36 19 -85 23 -110 5 -25 13 -65 19 -90 6 -25 16 -72
22 -105 7 -33 18 -87 25 -120 7 -33 18 -85 25 -115 18 -88 40 -191 52 -240 6
-25 14 -63 18 -85 5 -22 16 -76 25 -120 9 -44 20 -102 25 -130 9 -52 22 -107
45 -185 7 -25 21 -72 30 -105 29 -100 132 -423 153 -475 5 -14 17 -52 27 -85
37 -128 78 -206 97 -187 5 5 4 21 -2 36 -10 28 -6 46 10 46 18 0 59 -54 90
-118 17 -36 65 -125 106 -199 41 -73 74 -140 74 -148 0 -8 -20 -38 -44 -68
-62 -76 -71 -96 -50 -104 12 -5 30 8 63 46 25 28 54 51 63 51 19 0 20 -2 93
-128 27 -46 55 -87 63 -91 9 -5 28 -5 43 -1 34 10 89 42 89 51 0 4 -17 36 -38
70 -21 35 -53 95 -71 133 -18 38 -43 85 -57 105 -13 20 -24 46 -24 58 0 12
-10 34 -23 50 -13 15 -31 40 -40 56 -10 15 -24 27 -33 27 -16 0 -213 198 -214
215 0 6 -16 33 -36 60 -43 60 -96 164 -154 300 -23 55 -58 130 -76 168 -19 37
-41 93 -49 125 -8 31 -19 68 -24 82 -5 14 -17 61 -26 105 -10 44 -23 100 -30
125 -21 70 -38 178 -30 189 11 19 24 12 31 -16 4 -16 13 -37 20 -48 8 -11 14
-30 14 -42 0 -12 6 -37 14 -55 23 -53 136 -346 136 -351 0 -20 95 -197 104
-194 19 7 18 11 -86 267 -74 183 -99 252 -148 410 -23 74 -66 212 -96 305 -29
94 -63 206 -75 250 -12 44 -26 96 -31 115 -5 19 -14 53 -19 75 -5 22 -16 54
-24 72 -8 17 -15 38 -15 48 0 9 -6 37 -14 63 -8 26 -22 82 -31 124 -15 70 -16
80 -2 108 15 29 15 31 -8 46 -29 19 -28 17 -59 174 -14 69 -32 154 -41 190 -9
36 -20 86 -25 112 -5 26 -13 56 -19 67 -6 11 -11 33 -11 50 0 16 -5 42 -12 58
-6 15 -15 57 -18 93 -7 58 -19 129 -51 295 -6 28 -14 73 -18 100 -14 78 -31
164 -47 232 -8 34 -14 77 -14 96 0 18 -9 60 -20 92 -11 32 -20 66 -20 76 0 10
-10 37 -21 59 -16 31 -20 51 -15 80 4 28 1 52 -13 82 -11 24 -25 79 -31 123
-16 104 -23 118 -55 103 -45 -20 -95 32 -95 100 0 15 -14 65 -30 111 -17 46
-30 93 -30 106 0 27 36 81 72 108 38 28 129 24 203 -9 31 -13 64 -24 75 -24
22 0 26 20 9 37 -18 18 0 36 30 28 14 -3 65 -10 114 -14 48 -4 92 -12 98 -18
6 -6 12 -109 14 -267 2 -141 8 -262 12 -269 4 -6 10 -67 13 -135 3 -71 9 -122
15 -122 13 0 23 220 24 532 1 196 4 238 17 248 13 11 13 16 -2 38 -18 27 -30
126 -20 166 4 18 16 28 39 34 41 11 41 33 0 44 -62 16 -54 46 20 76 29 12 67
22 84 22 22 0 36 6 43 20 14 26 -11 38 -46 21 -29 -13 -110 -15 -118 -3 -9 15
10 30 137 107 70 43 127 81 127 86 0 13 -33 10 -52 -5 -19 -14 -204 -21 -211
-8 -9 15 12 491 24 551 14 67 29 81 85 81 13 0 24 4 24 9 0 6 -32 9 -70 8 -53
-2 -73 2 -80 13 -5 8 -10 58 -10 110 0 52 -5 156 -10 230 -10 129 -10 136 11
175 28 53 21 89 -21 104 -53 18 -62 7 -56 -68 19 -211 27 -478 17 -513 -15
-48 -32 -57 -125 -61 -43 -2 -82 -9 -89 -16 -6 -6 -22 -11 -37 -11 -14 -1 -41
-10 -60 -21 l-35 -19 49 2 c62 4 77 -14 52 -62 -20 -41 -20 -40 7 -40 29 0 47
18 47 47 0 32 46 73 81 73 36 0 51 -27 60 -105 3 -33 12 -101 19 -151 16 -119
8 -138 -75 -171 -33 -14 -75 -31 -93 -39 -43 -18 -131 -18 -156 1 -14 11 -45
15 -104 15 -81 0 -83 1 -80 23 2 15 19 31 53 49 27 15 84 57 126 94 73 64 76
69 68 97 -11 40 -15 42 -44 29 -14 -7 -39 -12 -55 -12 -36 0 -151 -29 -167
-42 -7 -6 -13 -18 -13 -27 0 -9 -27 -40 -60 -69 -54 -48 -60 -57 -60 -92 0
-47 -18 -60 -82 -60 -48 0 -79 -14 -63 -28 6 -5 39 -14 75 -21 78 -15 305 1
357 25 36 16 63 10 63 -16 0 -22 -13 -32 -70 -53 -92 -34 -527 -15 -551 24 -9
16 -3 31 38 93 38 58 41 76 14 76 -25 0 -115 -82 -131 -120 -7 -16 -16 -30
-20 -30 -12 0 -47 -89 -59 -150 -18 -87 -99 -190 -149 -190 -11 0 -34 16 -50
36 l-30 37 -47 -19 c-61 -25 -118 -90 -156 -179 -28 -68 -29 -71 -13 -110 15
-39 15 -40 -10 -60 -44 -35 -29 -125 20 -125 21 0 54 37 54 61 0 11 -8 34 -17
51 -16 27 -17 31 -2 41 12 9 15 26 11 78 -3 53 0 75 19 117 26 55 54 74 101
67 51 -6 65 -16 88 -61 20 -42 21 -50 10 -88 -15 -52 -78 -113 -125 -122 l-35
-6 16 -28 c16 -26 16 -30 -9 -81 -15 -32 -22 -58 -17 -63 15 -15 85 65 160
182 38 59 87 133 109 165 60 84 72 81 250 -42 33 -23 55 -31 88 -31 43 0 44 1
42 28 -4 37 8 54 33 46 52 -16 187 -142 188 -175 0 -21 -20 -39 -43 -39 -11 0
-35 14 -54 30 -18 17 -38 30 -43 30 -5 0 -21 -21 -34 -47 -33 -66 -70 -103
-102 -103 -53 0 -113 -96 -80 -129 14 -13 23 -13 61 -3 99 26 143 15 174 -45
14 -27 -7 -76 -38 -93 -11 -5 -22 -23 -26 -40 -10 -45 -39 -56 -63 -25 -11 14
-37 32 -57 41 -20 8 -39 24 -42 35 -7 24 -17 24 -57 0 -56 -34 -69 -34 -107 0
-19 17 -44 38 -57 47 -41 27 -26 59 62 126 73 56 101 86 79 86 -5 0 -40 -20
-78 -45 -61 -40 -70 -44 -84 -31 -13 14 -12 21 7 63 11 26 24 63 27 80 5 23
18 41 47 60 23 16 43 34 46 40 6 20 -26 27 -53 13 -20 -11 -27 -11 -40 0 -22
18 -40 -1 -63 -67 -21 -60 -38 -83 -61 -83 -9 0 -32 -15 -51 -33 -53 -48 -150
-172 -150 -191 0 -20 -13 -20 -49 -2 -25 13 -31 13 -50 0 -26 -19 -27 -55 -3
-77 28 -25 47 -21 76 17 14 19 36 36 48 38 12 2 41 29 68 63 34 44 53 60 71
60 33 0 36 -27 6 -67 -13 -18 -37 -57 -52 -86 -16 -30 -62 -84 -103 -124 -63
-59 -73 -73 -63 -87 19 -27 23 -40 17 -56 -8 -22 -40 -18 -63 8 -33 36 -34 44
-17 88 17 40 17 42 -2 56 -11 9 -32 12 -50 10 -18 -3 -37 0 -43 6 -16 16 -14
67 4 73 20 8 19 21 -5 51 -18 23 -20 41 -20 174 l0 149 26 17 26 16 -26 14
c-33 17 -46 43 -46 90 0 50 45 98 84 91 31 -6 35 -3 76 57 18 28 44 62 56 77
32 39 107 191 132 268 52 161 57 185 54 265 -2 89 -26 173 -99 350 -25 61 -58
148 -73 195 -16 47 -42 123 -60 170 -17 47 -35 98 -40 114 -31 98 -98 114
-255 60 -23 -8 -50 -14 -60 -14 -45 0 -119 -36 -137 -65 -40 -68 -50 -90 -64
-139 -26 -91 -32 -109 -79 -241 -117 -327 -120 -343 -91 -485 21 -100 66 -273
75 -285 9 -12 37 -89 45 -125 3 -14 21 -42 41 -63 39 -43 46 -77 16 -77 -11 0
-23 5 -26 10 -4 6 -29 22 -57 36 -45 23 -54 24 -82 13 -17 -7 -39 -19 -48 -27
-15 -13 -20 -13 -43 2 -14 9 -25 23 -25 30 0 25 -96 161 -139 196 -91 76 -241
246 -241 274 0 17 19 33 44 37 11 2 23 16 27 32 10 38 26 55 70 78 37 19 126
28 147 15 6 -3 14 -27 18 -51 3 -25 10 -48 15 -51 5 -3 9 -38 9 -77 0 -45 5
-80 14 -92 7 -11 16 -32 20 -47 4 -16 13 -28 22 -28 9 0 14 6 11 13 -2 6 -10
39 -17 72 -6 33 -16 78 -20 100 -5 22 -12 68 -16 102 -3 39 -13 72 -25 87 -10
13 -19 32 -19 43 0 14 75 198 190 468 40 93 100 268 99 287 0 9 -3 8 -7 -2
-33 -73 -121 -156 -242 -231 -40 -25 -58 -30 -85 -26 -41 7 -112 54 -150 99
-23 28 -27 39 -22 81 8 83 94 153 159 128 39 -15 42 0 6 22 -26 16 -42 18 -89
13 -36 -4 -60 -3 -64 4 -3 5 -9 10 -13 10 -13 0 -70 -125 -96 -210 -34 -113
-39 -163 -31 -287 7 -100 9 -107 47 -164 35 -52 44 -59 72 -59 41 0 86 -34 86
-63 0 -17 -21 -35 -82 -74 l-83 -52 -95 6 c-62 3 -104 11 -121 22 -182 113
-254 178 -275 244 -15 49 -15 56 4 128 l19 77 -26 -12 c-50 -21 -70 -42 -91
-95 l-21 -54 32 -60 c28 -53 30 -65 21 -91 -14 -36 -6 -52 52 -100 26 -21 46
-46 46 -56 0 -53 42 -80 125 -80 40 0 70 -7 107 -26 28 -14 72 -29 97 -33 57
-8 61 -24 17 -75 l-33 -39 -83 33 c-46 17 -107 47 -136 65 -30 19 -77 42 -106
51 -29 8 -63 20 -76 25 -99 39 -42 -47 87 -133 100 -67 121 -87 121 -115 0
-29 -38 -40 -72 -21 -15 8 -62 13 -138 13 -63 1 -123 5 -133 11 -13 7 -31 8
-57 1 -30 -8 -49 -7 -90 6 -29 9 -61 17 -71 17 -33 0 -21 -17 17 -24 19 -4 37
-13 40 -21 3 -7 29 -21 57 -30 64 -21 77 -31 77 -61 0 -40 -25 -54 -99 -54
-83 0 -110 -19 -75 -54 10 -10 34 -16 67 -17 72 0 122 -19 122 -44 0 -18 -8
-20 -70 -23 -38 -2 -90 2 -115 9 -25 6 -81 15 -125 19 -44 4 -105 15 -135 24
-30 10 -75 21 -100 26 -58 11 -131 44 -154 69 -16 18 -17 28 -8 88 6 37 14
160 17 273 8 277 16 339 50 367 18 16 39 23 66 23 45 0 83 16 74 31 -8 12 -59
11 -128 -2 -77 -16 -105 -7 -111 34 -3 17 -7 142 -9 277 -3 159 -9 262 -18
292 -13 47 -12 49 19 93 37 52 42 103 14 128 -21 19 -117 24 -127 7z m2683
-436 c30 -19 27 -61 -3 -55 -11 2 -45 3 -75 3 -94 -3 -101 -52 -16 -109 74
-49 81 -63 67 -141 -22 -118 -50 -146 -115 -116 -35 17 -36 17 -74 -9 -21 -15
-43 -27 -50 -27 -17 0 -32 34 -32 72 0 29 -7 39 -45 66 -47 33 -98 104 -93
129 2 9 11 21 20 27 14 8 24 4 53 -24 l36 -35 50 55 c70 78 64 120 -16 120
-23 0 -46 -5 -52 -11 -15 -15 -33 -3 -33 22 0 35 51 47 210 47 113 1 150 -2
168 -14z m-133 -484 c0 -21 -5 -26 -34 -28 -45 -5 -60 11 -36 38 27 30 70 24
70 -10z m-275 -34 c0 -13 -9 -34 -20 -47 -17 -21 -21 -22 -30 -9 -14 21 -12
33 8 58 23 29 42 28 42 -2z m488 -41 c4 -32 -13 -49 -42 -41 -19 5 -26 13 -26
30 0 39 63 49 68 11z m-227 -5 c26 -15 24 -36 -7 -56 -23 -16 -28 -16 -60 -1
-32 16 -34 16 -34 -2 0 -21 -43 -71 -62 -71 -17 1 -58 35 -58 49 0 6 -11 18
-25 27 -14 9 -25 23 -25 30 0 22 37 16 43 -6 3 -13 13 -20 29 -20 27 0 90 21
109 36 30 24 61 29 90 14z m132 -18 c9 -10 19 -36 23 -59 6 -38 3 -45 -25 -73
-71 -72 -113 -100 -146 -100 -36 0 -45 13 -45 61 0 16 -4 29 -8 29 -16 0 -31
47 -19 59 14 14 54 14 62 1 3 -5 17 -10 30 -10 18 0 25 -7 30 -30 7 -33 12
-35 48 -21 35 14 39 34 16 86 -21 48 -20 75 4 75 8 0 21 -8 30 -18z m-268
-167 c24 -19 26 -24 12 -25 -26 0 -79 29 -72 40 10 16 28 11 60 -15z m390 -24
c0 -29 -5 -47 -16 -54 -26 -17 -49 -1 -49 33 0 45 17 72 43 68 19 -3 22 -9 22
-47z m-88 -96 c6 -17 -23 -55 -42 -55 -20 0 -25 26 -9 49 18 25 42 27 51 6z
m-341 -10 c9 -22 -14 -45 -71 -71 -63 -30 -159 -33 -169 -7 -11 27 18 45 86
53 34 4 79 14 98 23 44 20 49 21 56 2z m-760 -133 c12 -9 27 -27 33 -40 13
-24 8 -28 -38 -34 -14 -2 -27 -9 -29 -17 -4 -11 7 -13 56 -7 54 6 64 4 82 -14
11 -11 20 -27 20 -35 0 -17 -56 -55 -81 -55 -8 0 -44 -11 -78 -25 -85 -33
-101 -24 -62 36 17 24 26 48 22 52 -5 5 -28 3 -52 -3 -24 -6 -60 -16 -79 -20
-19 -5 -83 -15 -141 -21 -90 -10 -109 -9 -135 4 -16 8 -41 13 -54 10 -18 -3
-35 5 -62 30 -21 19 -38 39 -38 45 0 19 39 24 62 8 30 -21 104 -20 198 1 71
17 265 21 313 7 25 -8 22 20 -5 39 l-23 16 25 20 c31 25 39 25 66 3z m2692 1
c5 -10 12 -43 16 -74 8 -73 -8 -88 -102 -99 -37 -4 -78 -12 -89 -19 -31 -16
-90 -14 -96 3 -7 17 53 56 84 56 11 0 50 32 92 74 39 41 75 75 79 75 4 1 11
-7 16 -16z m-2015 -109 c11 -11 -5 -34 -24 -34 -18 0 -26 20 -12 33 8 9 28 9
36 1z m1073 -22 c6 -4 14 -17 18 -29 6 -19 2 -25 -27 -37 -38 -15 -52 -32 -52
-60 0 -27 -33 -46 -45 -26 -7 11 -5 19 8 30 10 9 16 26 14 43 -6 51 48 103 84
79z m407 -16 c8 -8 38 -16 68 -18 47 -3 54 -6 57 -25 4 -30 -26 -44 -98 -47
-41 -1 -65 -7 -79 -20 -23 -21 -58 -16 -101 12 -14 9 -47 24 -74 34 -68 24
-77 35 -47 59 20 16 39 19 141 19 90 0 122 -3 133 -14z m-959 -58 c8 -52 7
-58 -20 -96 -53 -75 -105 -81 -112 -14 -2 23 7 49 34 92 60 98 84 102 98 18z
m-424 -4 c31 -34 41 -52 37 -70 -3 -20 0 -24 20 -24 38 0 73 -42 75 -90 0 -22
1 -46 2 -52 2 -21 -34 -21 -71 -1 -53 28 -183 183 -183 217 0 29 31 66 55 66
14 0 38 -17 65 -46z m170 -35 c0 -28 -13 -39 -25 -19 -8 13 5 61 16 54 5 -3 9
-18 9 -35z m-731 -2 c30 -14 40 -57 17 -76 -17 -14 -117 -27 -141 -17 -15 5
-14 9 6 37 12 17 23 41 24 53 1 11 3 23 4 25 2 6 61 -8 90 -22z m1594 -18 c11
-7 60 -21 107 -33 72 -18 85 -25 88 -44 3 -21 0 -22 -73 -22 -41 0 -90 6 -108
13 -42 18 -97 65 -97 83 0 17 52 19 83 3z m462 -35 c31 -32 -20 -58 -66 -34
-24 13 -25 37 -1 43 34 9 51 7 67 -9z m-1225 -109 c-9 -24 -39 -32 -51 -13
-16 24 -10 86 9 97 14 8 20 4 33 -27 9 -22 13 -45 9 -57z m-1296 29 c26 -10
18 -24 -14 -24 -30 0 -41 14 -17 23 6 3 13 6 14 6 1 1 8 -2 17 -5z m2964 -36
c4 -19 -35 -35 -50 -20 -6 6 -8 18 -4 27 8 21 50 16 54 -7z m-3079 3 c11 -7 9
-10 -8 -16 -26 -8 -49 4 -30 16 17 11 21 11 38 0z m973 -39 c45 -43 51 -54 55
-99 5 -45 2 -55 -20 -77 -70 -70 -181 -31 -223 80 -15 38 -14 44 1 73 27 53
51 71 96 71 35 0 48 -7 91 -48z m187 -96 c15 -18 8 -94 -16 -168 -18 -55 -12
-89 23 -135 13 -17 24 -39 24 -47 0 -24 -34 -19 -64 9 -15 14 -32 23 -37 20
-12 -8 -12 -45 1 -45 12 0 14 -47 2 -54 -12 -7 -55 35 -102 99 -22 29 -43 56
-48 59 -5 3 -22 -8 -37 -24 l-28 -29 24 -20 c13 -11 27 -20 31 -21 4 0 36 -34
72 -75 75 -86 84 -119 39 -136 -43 -16 -86 -13 -130 10 -48 24 -62 50 -37 68
10 7 21 13 26 13 22 0 1 29 -72 101 -77 75 -80 79 -80 124 0 88 43 135 102
111 61 -25 111 -28 157 -10 54 22 81 56 81 106 0 54 15 81 39 69 10 -6 23 -17
30 -25z m-435 -49 c20 -55 20 -59 4 -88 -10 -17 -18 -41 -18 -54 0 -67 -31
-71 -103 -15 -47 38 -51 39 -69 24 -26 -24 -23 -32 22 -74 34 -31 40 -43 40
-77 0 -22 7 -54 15 -70 25 -50 12 -66 -49 -58 -28 4 -58 11 -67 16 -17 9 -39
-6 -39 -28 0 -7 14 -22 30 -35 17 -12 30 -30 30 -41 0 -24 -54 -76 -100 -94
-19 -8 -50 -29 -68 -46 -31 -30 -34 -30 -67 -18 -32 11 -39 10 -69 -8 -36 -23
-46 -39 -46 -76 0 -37 -16 -38 -44 -4 -38 44 -35 92 6 130 18 16 40 31 49 34
19 6 42 52 30 59 -4 3 -18 -6 -31 -19 -31 -32 -50 -17 -50 39 0 58 11 70 55
63 44 -7 43 9 -1 34 -23 13 -29 22 -27 49 4 85 9 94 79 131 46 23 75 47 95 75
40 58 171 146 222 149 29 2 47 11 70 34 49 49 76 40 101 -32z m2296 38 c54
-27 75 -55 65 -85 -9 -28 -57 -26 -141 4 -53 19 -71 22 -90 14 -16 -8 -31 -8
-51 0 -15 6 -43 14 -60 17 -24 5 -33 12 -33 26 0 10 6 19 13 19 70 1 167 11
187 19 39 15 57 13 110 -14z m-1761 6 c11 -7 13 -25 9 -74 -3 -36 -2 -86 3
-111 10 -56 3 -78 -25 -74 -17 2 -22 12 -28 50 -3 26 -10 53 -14 60 -5 7 -9
29 -11 48 -1 19 -5 47 -8 61 -5 20 -2 27 17 36 29 14 39 15 57 4z m-451 -421
c28 -38 28 -60 0 -60 -29 0 -68 38 -68 67 0 34 41 31 68 -7z m411 -14 c6 -7
14 -34 17 -61 6 -42 5 -47 -11 -44 -24 5 -61 99 -43 110 18 12 24 11 37 -5z
m701 -66 c34 -18 44 -48 25 -76 -18 -28 -32 -30 -80 -7 -42 20 -53 47 -29 74
19 21 55 25 84 9z m242 -67 c45 -49 58 -78 67 -152 5 -39 19 -89 30 -111 18
-34 21 -58 21 -155 0 -108 -1 -115 -26 -144 -30 -36 -54 -39 -79 -11 -16 18
-17 25 -7 54 7 18 12 70 12 116 0 81 -1 85 -32 117 -18 18 -37 33 -43 33 -25
0 -49 -41 -46 -77 l3 -35 -83 3 c-83 4 -84 4 -97 -23 -18 -39 -55 -38 -79 2
-15 26 -22 30 -45 25 -45 -10 -52 4 -19 38 17 18 46 50 65 72 l35 40 31 -17
c34 -19 105 -24 115 -9 6 11 -17 91 -26 91 -4 0 -12 -6 -19 -14 -16 -20 -40
-9 -40 18 0 23 29 55 66 74 23 12 44 0 44 -25 0 -7 8 -13 18 -13 18 0 52 50
52 76 0 26 20 54 38 54 10 0 30 -12 44 -27z m-874 -62 c-2 -22 -8 -26 -33 -26
-39 0 -47 35 -14 59 29 20 51 4 47 -33z m-553 -47 c18 -20 22 -31 15 -47 -40
-103 -55 -136 -76 -164 -15 -19 -24 -45 -24 -67 0 -45 -34 -71 -79 -61 -72 16
-96 113 -41 165 22 20 32 41 36 74 6 42 12 50 63 86 31 22 62 40 69 40 7 0 24
-12 37 -26z m155 0 c0 -8 -18 -52 -39 -97 -50 -105 -111 -298 -111 -351 0 -50
-11 -69 -36 -64 -34 6 -40 80 -16 176 22 85 103 290 131 329 19 27 71 32 71 7z
m97 -6 c11 -13 24 -33 28 -45 9 -30 29 -29 72 4 27 21 39 24 51 16 29 -18 25
-42 -17 -89 -50 -57 -70 -135 -52 -203 8 -30 8 -47 1 -56 -16 -19 14 -48 105
-102 65 -39 81 -53 83 -75 2 -20 9 -28 23 -28 11 0 35 -11 52 -24 18 -13 55
-35 83 -49 84 -42 143 -127 99 -143 -13 -5 -71 28 -200 116 -22 15 -48 30 -59
33 -14 6 -17 13 -12 33 6 24 5 26 -19 22 -20 -4 -42 5 -88 38 -34 24 -80 56
-102 70 -89 58 -129 116 -90 130 8 3 26 -4 41 -15 27 -22 54 -28 54 -12 0 4
-10 21 -22 36 -12 16 -27 49 -33 74 l-12 45 -18 -30 c-27 -42 -45 -54 -82 -54
-37 0 -58 27 -48 63 4 12 29 68 56 124 28 57 48 107 44 113 -3 5 -3 15 0 20
11 17 41 11 62 -12z m386 -125 c51 -26 104 -55 119 -65 14 -10 33 -18 42 -18
9 0 16 -8 16 -20 0 -15 -7 -20 -24 -20 -14 0 -27 4 -30 9 -8 12 -73 23 -96 16
-11 -4 -20 -13 -20 -21 0 -11 4 -12 18 -5 22 12 42 -3 42 -31 0 -11 7 -18 18
-18 10 0 23 -5 28 -10 12 -12 64 6 64 22 0 14 28 9 34 -7 9 -24 -49 -81 -112
-111 -31 -15 -65 -36 -75 -46 -25 -25 -61 -20 -65 9 -2 15 11 38 42 71 25 27
46 53 46 58 0 5 -9 17 -20 27 -20 17 -22 17 -48 -1 -15 -11 -34 -21 -42 -24
-10 -3 -15 -20 -16 -57 -1 -70 -18 -85 -50 -46 -13 17 -24 37 -24 46 0 8 -16
29 -35 46 -47 42 -49 93 -5 138 17 17 32 42 35 54 6 32 24 51 47 51 11 0 61
-21 111 -47z m292 7 c24 -26 13 -54 -20 -48 -20 4 -24 1 -27 -21 -3 -28 -31
-39 -57 -22 -19 12 -4 49 22 53 14 2 22 10 23 23 2 33 3 35 22 35 11 0 27 -9
37 -20z m225 -490 c0 -73 -28 -108 -74 -90 -41 15 -36 63 10 94 39 26 64 25
64 -4z m-779 -29 l24 -20 -136 -138 c-131 -134 -159 -165 -244 -268 -22 -27
-46 -54 -52 -61 -7 -7 -13 -18 -13 -24 0 -17 144 126 311 308 122 132 145 153
168 150 50 -6 38 -39 -40 -114 -39 -38 -88 -87 -108 -108 -20 -21 -114 -116
-210 -210 -96 -94 -220 -217 -276 -273 -95 -95 -139 -124 -165 -108 -14 9 -3
43 26 78 13 16 24 40 24 54 0 18 19 45 65 91 36 37 65 70 65 74 0 4 -18 27
-41 50 -33 34 -39 46 -34 67 13 51 52 50 100 -4 24 -26 34 -31 48 -24 18 11
112 122 163 195 17 24 71 87 121 141 49 54 102 113 117 131 32 37 54 40 87 13z
m958 -13 c4 -28 4 -56 -2 -128 -5 -72 -5 -70 -22 -70 -12 0 -15 13 -15 60 0
99 29 203 39 138z m-748 -272 c2 -120 -6 -136 -50 -108 -14 9 -27 17 -28 17
-2 1 4 27 12 59 8 31 15 76 15 99 0 50 17 74 37 55 8 -9 13 -50 14 -122z m739
-47 c0 -5 -11 -15 -25 -21 -29 -13 -30 -16 -10 -42 19 -25 19 -52 0 -60 -8 -3
-15 -11 -15 -19 0 -7 -16 -51 -36 -97 -20 -47 -41 -97 -47 -111 -9 -24 -6 -31
25 -69 20 -23 76 -75 125 -117 48 -42 92 -82 97 -90 12 -21 -1 -105 -25 -167
-19 -48 -27 -85 -47 -239 -5 -34 -14 -72 -20 -84 -7 -12 -12 -36 -12 -53 0
-18 -6 -46 -14 -63 -8 -18 -17 -43 -19 -57 -3 -14 -33 -105 -66 -203 -34 -98
-61 -185 -61 -193 0 -8 -4 -22 -10 -32 -5 -9 -18 -42 -29 -72 -11 -30 -36 -94
-55 -141 -25 -59 -37 -104 -38 -146 -3 -58 -1 -63 38 -109 52 -62 77 -66 135
-22 47 36 109 121 109 150 0 20 -15 24 -25 8 -13 -21 -54 -9 -84 25 -42 48
-44 114 -3 172 42 61 117 125 143 121 24 -3 50 -48 72 -125 14 -48 13 -58 -3
-121 -37 -142 -123 -263 -225 -317 l-56 -30 -42 23 c-42 23 -88 77 -122 141
-34 66 -9 176 89 396 8 17 34 91 59 165 26 74 65 187 87 250 48 134 70 207 70
234 0 19 0 19 -14 1 -18 -24 -39 -15 -73 33 -36 48 -133 159 -246 278 -92 98
-98 111 -62 154 6 8 28 44 48 80 20 36 52 90 71 120 52 79 50 147 -5 176 -33
16 -35 23 -16 49 12 16 18 17 48 6 32 -11 35 -10 55 15 12 14 32 47 45 73 21
41 24 43 27 21 2 -13 -1 -26 -7 -28 -6 -2 -11 -14 -11 -28 0 -13 -9 -41 -20
-62 -21 -39 -18 -72 4 -72 14 0 22 16 72 139 19 46 34 95 34 109 0 14 10 46
22 70 l21 45 24 -27 c12 -15 23 -31 23 -37z m-830 -63 c0 -21 -81 -137 -91
-130 -14 8 -11 50 6 64 8 7 15 17 15 23 0 16 41 57 57 57 7 0 13 -6 13 -14z
m538 -98 c-6 -18 -28 -21 -28 -4 0 9 7 16 16 16 9 0 14 -5 12 -12z m-264 -194
c10 -4 16 -18 16 -35 0 -22 -7 -32 -26 -41 -23 -11 -29 -10 -45 10 -33 42 4
86 55 66z m-644 -27 c0 -14 -114 -161 -143 -186 -18 -14 -48 -12 -54 5 -2 6
15 24 37 39 22 16 63 57 91 92 48 62 69 77 69 50z m312 -83 c-2 -10 -5 -29 -7
-42 -2 -13 -12 -30 -22 -37 -17 -13 -16 -14 10 -35 16 -13 27 -31 27 -46 0
-42 -43 -25 -52 21 -2 14 -11 20 -28 20 -35 0 -39 32 -6 41 18 4 28 16 36 42
6 21 13 43 16 50 6 20 29 8 26 -14z m355 -140 c9 -25 -24 -86 -45 -82 -26 5
-27 53 -3 77 25 25 40 27 48 5z m-347 -179 c0 -30 -4 -55 -10 -55 -5 0 -10 25
-10 55 0 30 5 55 10 55 6 0 10 -25 10 -55z m378 -18 c2 -10 -3 -26 -11 -35 -8
-9 -47 -78 -87 -152 -39 -74 -90 -157 -111 -185 -22 -27 -63 -83 -90 -122 -48
-70 -69 -88 -69 -60 0 7 25 51 56 97 30 47 60 94 65 105 11 22 21 39 60 100
14 22 29 47 33 55 7 16 43 82 90 168 30 53 57 66 64 29z m95 -88 c14 -19 11
-29 -29 -114 -23 -51 -46 -105 -50 -121 -4 -16 -32 -87 -62 -159 -30 -71 -58
-143 -62 -160 -4 -16 -22 -70 -40 -120 -17 -49 -34 -103 -37 -120 -3 -16 -13
-38 -22 -48 -9 -11 -15 -29 -13 -42 2 -13 -1 -26 -7 -29 -16 -11 -23 12 -12
47 5 17 21 85 36 150 15 64 31 120 36 123 5 3 9 17 9 32 0 15 7 36 15 46 8 11
15 32 15 47 0 14 7 32 15 39 17 14 20 50 5 50 -5 0 -12 -11 -16 -25 -3 -14 -9
-25 -13 -25 -3 0 -17 -24 -31 -52 -40 -87 -167 -315 -224 -402 l-53 -81 -8
-425 c-5 -234 -10 -468 -11 -520 -1 -52 -2 -120 -3 -150 l-1 -54 -19 37 c-10
20 -22 49 -26 64 -4 16 -7 225 -6 465 0 240 -3 439 -8 442 -11 7 -37 -22 -49
-54 -6 -16 -7 -248 -3 -610 l6 -585 28 3 c37 4 43 -16 24 -91 -8 -34 -20 -93
-26 -132 -15 -91 -17 -363 -3 -377 23 -23 32 5 32 103 0 55 4 109 10 119 5 10
14 60 20 111 19 180 32 250 66 342 8 20 14 66 14 102 0 96 35 351 50 360 4 3
14 -3 21 -11 10 -12 13 -40 10 -95 -13 -308 4 -1063 26 -1133 23 -74 12 -367
-16 -450 -15 -42 -21 -84 -21 -147 0 -66 -4 -91 -16 -103 -20 -20 -23 -20 -59
4 -16 11 -39 20 -50 20 -11 0 -56 38 -110 94 -61 63 -108 103 -145 121 -83 41
-91 51 -90 109 0 28 -3 95 -6 148 -5 78 -3 105 10 138 11 29 16 72 16 153 0
61 5 152 10 201 8 80 7 92 -11 128 -18 35 -19 46 -10 89 6 28 11 67 11 88 0
21 6 44 14 51 11 9 16 45 19 143 8 237 24 515 31 525 3 5 8 65 11 133 3 68 12
146 19 174 13 50 11 85 -5 85 -5 0 -26 -28 -46 -62 -63 -102 -131 -188 -227
-286 -104 -107 -121 -119 -142 -101 -8 6 -14 15 -14 19 0 4 34 41 76 81 100
97 160 173 285 360 l103 154 8 145 c10 196 14 212 41 208 21 -3 22 -6 19 -121
-3 -129 5 -144 41 -76 15 28 17 49 12 124 -5 64 -2 111 9 163 9 40 16 86 16
102 0 40 15 45 46 15 24 -25 26 -31 24 -113 -3 -121 -3 -122 25 -87 14 17 25
33 25 37 0 3 19 39 43 80 24 40 68 118 97 173 72 134 80 150 170 300 42 72 92
158 110 193 34 66 50 75 73 41z m-776 -71 c30 -38 20 -123 -14 -116 -20 4 -37
70 -28 106 6 24 27 29 42 10z m63 -398 c0 -16 -4 -30 -10 -30 -5 0 -10 14 -10
30 0 17 5 30 10 30 6 0 10 -13 10 -30z m-342 -283 c2 -50 -2 -83 -17 -120 -45
-120 -93 -187 -111 -158 -10 17 1 54 34 121 20 40 26 66 26 119 0 72 19 115
48 109 14 -3 18 -17 20 -71z m1020 -593 c7 -54 16 -144 21 -199 5 -55 14 -116
20 -135 6 -19 11 -62 11 -96 0 -34 7 -81 15 -104 8 -23 15 -64 15 -91 0 -26 4
-59 10 -73 5 -14 12 -74 15 -133 20 -388 65 -503 198 -503 42 0 46 -2 56 -31
6 -18 11 -52 11 -76 0 -39 -5 -50 -42 -88 -49 -49 -105 -85 -131 -85 -10 0
-33 -11 -50 -24 -34 -26 -152 -60 -189 -54 -22 3 -23 8 -26 87 -2 67 0 87 14
102 10 11 14 25 10 36 -9 22 -9 1549 -1 1563 17 28 31 -4 43 -96z m658 -165
c7 -12 -61 -195 -83 -220 -7 -8 -13 -23 -13 -32 0 -9 -4 -19 -10 -22 -5 -3
-10 -12 -10 -19 0 -7 24 11 53 41 90 89 104 66 28 -48 -85 -130 -140 -265
-141 -346 -1 -16 -7 -39 -15 -53 -16 -28 -20 -112 -6 -138 6 -9 21 -42 34 -73
23 -51 42 -72 101 -105 28 -15 30 -31 7 -43 -14 -8 -28 -8 -48 0 -31 11 -113
87 -113 104 0 5 -8 24 -17 40 -24 44 -24 270 1 307 13 20 15 36 10 65 -4 21
-9 31 -12 23 -2 -8 -10 -28 -17 -45 -36 -88 -49 -156 -53 -276 -4 -114 -2
-131 19 -180 55 -129 133 -197 214 -185 50 8 61 -1 39 -32 -13 -19 -25 -22
-78 -22 -60 0 -66 2 -109 40 -50 44 -93 113 -126 200 -44 116 -20 337 54 505
38 86 114 238 150 300 22 39 49 90 60 115 42 96 65 125 81 99z m-1874 -1369
c-2 -14 -6 -57 -10 -97 -4 -39 -10 -75 -14 -79 -5 -4 -19 -2 -32 4 -31 14 -41
55 -21 94 8 17 15 40 15 50 0 34 20 59 43 56 17 -2 21 -9 19 -28z m132 -223
c0 -87 -6 -119 -18 -106 -3 3 -10 34 -16 69 -7 36 -14 78 -17 94 -6 30 10 48
37 43 12 -2 15 -21 14 -100z m-244 -71 c0 -19 -14 -28 -34 -20 -25 10 -19 34
9 34 15 0 25 -6 25 -14z m1164 -222 c19 -18 19 -20 6 -45 -15 -28 -47 -24 -54
7 -7 25 7 54 25 54 4 0 15 -7 23 -16z m-1287 -174 c-1 -19 -9 -26 -28 -28 -43
-5 -59 54 -26 96 15 19 58 -35 54 -68z m1317 -6 c21 -21 4 -54 -28 -54 -30 0
-49 23 -41 50 8 24 47 27 69 4z m9 -115 c51 -27 48 -52 -8 -79 -37 -18 -48
-20 -60 -10 -19 15 -19 46 -2 57 8 4 16 16 20 26 7 20 20 21 50 6z m-719 -35
c20 -20 12 -34 -19 -34 -29 0 -41 16 -25 35 16 19 25 19 44 -1z m203 -76 c38
-8 83 -46 83 -68 0 -10 -102 -50 -145 -57 l-38 -6 6 37 c3 21 1 48 -5 61 -14
32 6 59 36 50 12 -4 40 -11 63 -17z m227 16 c21 -8 20 -27 -3 -48 -18 -17 -21
-17 -45 -1 -28 19 -34 40 -13 48 18 8 43 8 61 1z m468 -10 c33 -4 59 -12 62
-20 6 -15 -23 -34 -51 -34 -11 0 -28 -7 -39 -15 -10 -8 -27 -15 -37 -15 -10 0
-28 -6 -40 -12 -12 -7 -40 -18 -62 -24 -22 -6 -48 -14 -57 -18 -13 -6 -19 1
-28 35 -8 28 -9 49 -3 59 15 23 123 59 163 55 19 -3 61 -7 92 -11z"/>
<path d="M4680 8532 c-60 -29 -46 -82 22 -82 27 0 68 30 68 50 0 12 -36 50
-47 50 -5 0 -24 -8 -43 -18z"/>
<path d="M4293 7279 c-16 -16 -5 -46 24 -64 46 -31 69 1 37 50 -17 26 -43 32
-61 14z"/>
<path d="M4398 6373 c-5 -23 1 -53 12 -53 8 0 20 34 20 58 0 19 -27 14 -32 -5z"/>
<path d="M5245 5087 c-2 -7 -6 -21 -8 -32 -11 -40 -32 -91 -50 -118 -22 -34
-22 -43 4 -79 12 -17 25 -44 28 -62 6 -29 10 -31 50 -31 36 0 47 -5 70 -32 40
-48 55 -44 46 15 -4 26 -13 54 -21 63 -19 21 -18 48 3 71 12 13 14 21 6 26 -6
4 -12 16 -14 27 -3 11 -13 21 -24 23 -30 6 -45 22 -45 46 0 26 18 46 40 46 24
0 52 -34 44 -54 -7 -18 7 -21 23 -5 6 6 16 8 22 5 15 -10 14 -49 -1 -64 -10
-10 -10 -15 2 -22 20 -12 30 -3 30 26 0 44 -37 100 -82 126 -51 30 -117 43
-123 25z m45 -172 c0 -8 -4 -15 -10 -15 -5 0 -10 7 -10 15 0 8 5 15 10 15 6 0
10 -7 10 -15z"/>
<path d="M5437 3710 c-41 -45 -49 -90 -21 -121 16 -18 18 -18 46 3 17 11 38
34 48 51 16 25 17 34 6 66 -7 20 -20 37 -28 39 -8 2 -31 -15 -51 -38z"/>
<path d="M4616 1543 c-3 -3 -6 -26 -6 -50 0 -32 4 -43 15 -43 11 0 15 12 15
44 0 43 -10 63 -24 49z"/>
<path d="M4423 1503 c-17 -6 -16 -30 0 -36 21 -8 39 7 31 26 -6 18 -10 19 -31
10z"/>
<path d="M4613 9183 c-47 -6 -41 -26 15 -52 37 -17 61 -21 112 -19 89 4 83 22
-20 58 -45 16 -68 18 -107 13z"/>
<path d="M4480 9155 c-7 -8 -18 -15 -24 -15 -16 0 -56 -43 -56 -59 0 -7 -14
-42 -31 -78 -17 -35 -29 -67 -26 -69 3 -3 19 17 37 45 18 27 40 51 50 54 11 3
21 18 25 38 9 41 22 58 52 70 13 5 23 13 23 19 0 15 -36 12 -50 -5z"/>
<path d="M5438 8955 c-4 -4 10 -23 30 -43 25 -25 43 -57 55 -95 22 -76 22 -82
-11 -136 -16 -25 -35 -66 -42 -90 -8 -24 -20 -46 -28 -49 -23 -8 -151 60 -213
114 -106 91 -152 125 -161 116 -5 -5 8 -45 31 -93 21 -46 56 -124 76 -174 21
-49 45 -108 55 -130 53 -118 70 -159 70 -169 0 -6 7 -23 14 -38 8 -16 18 -48
22 -73 3 -25 8 -45 11 -45 3 0 18 11 34 25 31 25 49 25 83 -4 31 -27 38 -58
20 -92 -8 -17 -13 -33 -10 -36 11 -11 35 7 38 29 5 35 38 34 73 -2 25 -26 36
-30 81 -30 58 0 177 38 203 65 15 16 14 17 -19 12 -19 -3 -53 -10 -75 -16 -45
-12 -75 -6 -75 13 0 17 54 59 101 79 49 21 139 119 189 207 68 117 110 203
110 225 0 32 -35 81 -69 95 -41 17 -48 8 -28 -35 24 -51 22 -120 -5 -164 -13
-20 -30 -49 -38 -65 -8 -15 -28 -36 -45 -45 -16 -8 -52 -33 -79 -55 -30 -24
-65 -42 -90 -47 -23 -4 -68 -15 -101 -24 -104 -28 -138 -33 -162 -24 -13 5
-23 15 -23 24 0 21 57 139 97 203 19 28 36 60 40 70 3 9 14 36 25 59 35 79 3
299 -55 389 -30 45 -35 49 -77 52 -25 2 -49 0 -52 -3z"/>
<path d="M4040 8920 c0 -16 41 -33 52 -22 6 6 7 15 4 21 -9 14 -56 15 -56 1z"/>
<path d="M7453 8608 c-18 -20 -14 -86 12 -213 28 -136 54 -853 33 -908 -9 -24
-15 -27 -36 -22 -15 4 -34 0 -50 -11 -18 -12 -44 -17 -82 -16 -63 2 -197 -23
-238 -44 -15 -7 -53 -14 -84 -14 -31 0 -68 -5 -81 -11 -13 -6 -50 -16 -83 -22
-67 -14 -75 -29 -18 -39 40 -7 311 9 328 19 13 8 168 22 183 16 17 -7 41 -76
52 -148 5 -33 14 -91 21 -130 6 -38 8 -80 5 -92 -3 -12 0 -55 6 -95 6 -40 15
-122 19 -183 23 -326 32 -434 40 -475 6 -25 9 -196 9 -380 0 -184 0 -348 2
-365 3 -36 3 -289 1 -703 -2 -251 0 -308 12 -330 40 -73 40 -73 28 -93 -7 -10
-17 -28 -24 -39 -10 -16 -8 -24 12 -52 l25 -33 5 -317 c4 -282 10 -362 24
-317 64 219 62 138 54 1969 -1 339 32 1098 51 1167 6 21 11 136 11 258 0 180
4 237 20 315 11 52 20 96 20 98 0 1 15 2 33 2 17 1 43 7 57 15 14 8 42 14 63
15 21 0 59 6 85 14 26 8 64 17 85 21 21 3 35 10 32 16 -9 14 -113 11 -175 -5
-30 -7 -103 -16 -162 -19 -92 -4 -109 -2 -122 12 -13 15 -16 51 -16 222 -1
290 -15 544 -34 599 -22 64 -21 74 23 121 72 79 76 149 11 197 -37 27 -132 27
-157 0z m197 -1252 c0 -3 -5 -17 -11 -33 -9 -24 -12 -26 -20 -11 -11 20 -2 48
17 48 8 0 14 -2 14 -4z"/>
<path d="M2631 8411 c-9 -6 -10 -11 -2 -15 15 -10 53 3 46 15 -8 11 -26 11
-44 0z"/>
<path d="M5071 7306 c-7 -8 -11 -32 -9 -53 4 -47 31 -52 61 -11 19 25 19 28 3
52 -18 29 -38 33 -55 12z"/>
<path d="M4935 6890 c-4 -7 -3 -16 3 -22 14 -14 45 -2 40 15 -6 16 -34 21 -43
7z"/>
<path d="M6036 6028 c-15 -21 -15 -23 6 -31 25 -9 41 3 36 29 -5 27 -24 28
-42 2z"/>
<path d="M3030 5865 c0 -8 5 -15 10 -15 6 0 10 7 10 15 0 8 -4 15 -10 15 -5 0
-10 -7 -10 -15z"/>
<path d="M5690 5620 c-6 -11 -7 -20 -2 -20 10 0 32 21 32 32 0 16 -19 8 -30
-12z"/>
<path d="M3582 4663 c-21 -8 -102 -123 -102 -144 0 -26 28 -24 51 4 27 31 79
119 79 135 0 13 -6 14 -28 5z"/>
<path d="M3508 4356 c-31 -48 -35 -66 -14 -66 21 0 56 53 56 84 0 37 -11 32
-42 -18z"/>
<path d="M3483 4039 c-20 -26 -43 -79 -34 -79 13 0 54 67 49 81 -2 7 -7 7 -15
-2z"/>
<path d="M2971 3814 c0 -6 -17 -32 -37 -58 -38 -50 -42 -88 -10 -94 24 -5 36
14 36 56 0 18 5 42 11 53 5 11 8 28 6 37 -3 9 -5 12 -6 6z"/>
<path d="M3422 3678 c-15 -15 -16 -38 -2 -38 12 0 23 25 18 40 -2 7 -7 7 -16
-2z"/>
<path d="M3608 3594 c-5 -4 -8 -16 -8 -28 0 -14 3 -17 11 -9 6 6 9 19 7 28 -1
9 -6 13 -10 9z"/>
<path d="M7555 3499 c-4 -17 -5 -33 -2 -36 11 -10 27 9 27 32 0 36 -17 39 -25
4z"/>
<path d="M3611 3356 c-37 -37 -52 -60 -47 -71 4 -13 17 -4 61 42 50 53 67 83
47 83 -4 0 -32 -24 -61 -54z"/>
<path d="M6480 3286 c0 -9 7 -16 16 -16 17 0 14 22 -4 28 -7 2 -12 -3 -12 -12z"/>
<path d="M2792 3003 c-1 -17 -5 -40 -8 -50 -5 -14 -4 -15 5 -7 7 7 11 28 8 50
-3 35 -4 35 -5 7z"/>
<path d="M2761 2878 c0 -28 2 -30 9 -13 12 28 12 45 0 45 -5 0 -10 -15 -9 -32z"/>
<path d="M2727 2833 c-10 -10 -8 -63 2 -63 11 0 21 25 21 51 0 19 -11 25 -23
12z"/>
<path d="M5821 2726 c-13 -14 -37 -26 -55 -28 -40 -4 -46 -41 -13 -82 26 -32
43 -31 91 8 24 20 29 32 30 72 1 58 -17 68 -53 30z"/>
<path d="M3265 2698 c-10 -30 -9 -51 1 -55 14 -5 47 44 39 57 -9 14 -35 12
-40 -2z"/>
<path d="M2540 2388 c-25 -35 -30 -50 -28 -89 3 -56 7 -54 39 26 12 33 27 64
31 70 11 13 10 35 -2 35 -5 0 -23 -19 -40 -42z"/>
<path d="M3434 2351 c-22 -15 -51 -41 -64 -57 -14 -17 -52 -49 -84 -73 -89
-66 -253 -239 -394 -416 -26 -32 -69 -84 -97 -115 -27 -31 -71 -83 -97 -115
-61 -76 -128 -156 -187 -221 -47 -52 -148 -230 -137 -241 10 -11 46 29 84 93
20 33 67 94 104 135 66 73 237 284 353 434 158 205 368 431 458 494 49 34 126
111 111 111 -6 0 -29 -13 -50 -29z"/>
<path d="M6247 2299 c-30 -35 -34 -49 -13 -49 18 0 68 59 60 71 -9 15 -18 11
-47 -22z"/>
<path d="M2450 2155 c-58 -91 -148 -229 -217 -330 -22 -33 -43 -73 -47 -89
-10 -43 -101 -187 -163 -258 -29 -34 -51 -64 -48 -67 3 -2 11 1 17 7 19 19 44
14 62 -10 15 -23 16 -23 126 92 61 63 136 152 167 198 30 45 70 95 89 110 30
25 33 33 28 60 -12 58 -26 56 -93 -13 -34 -36 -69 -65 -77 -65 -8 0 -14 1 -14
3 0 18 115 198 165 259 23 27 69 161 63 180 -2 5 -28 -29 -58 -77z"/>
<path d="M2677 2167 c-41 -34 -65 -117 -33 -117 24 0 85 76 79 99 -6 25 -27
33 -46 18z"/>
<path d="M6354 2078 c-60 -45 -94 -83 -94 -104 0 -13 4 -25 8 -28 14 -8 142
114 142 135 0 25 -20 24 -56 -3z"/>
<path d="M2715 1918 c-137 -121 -507 -496 -503 -509 3 -8 14 -15 25 -17 15 -2
42 20 99 85 44 48 166 174 272 281 169 171 212 223 185 222 -5 0 -39 -28 -78
-62z"/>
<path d="M6660 1428 c-30 -53 -37 -78 -22 -78 7 0 72 111 72 124 0 21 -24 -1
-50 -46z"/>
<path d="M7257 1443 c-20 -19 21 -123 48 -123 22 0 18 22 -10 76 -30 56 -30
56 -38 47z"/>
<path d="M6300 1150 c-25 -16 1 -28 39 -18 26 7 31 12 20 19 -18 11 -40 11
-59 -1z"/>
<path d="M6636 1141 c-3 -5 -20 -11 -38 -14 -34 -5 -44 -8 -198 -67 -52 -20
-129 -47 -170 -60 -81 -25 -100 -36 -100 -55 0 -22 25 -24 66 -4 21 10 49 18
62 19 13 0 62 19 110 41 47 23 120 54 162 68 75 27 160 67 160 76 0 9 -49 5
-54 -4z"/>
<path d="M6180 1110 c0 -13 20 -13 40 0 12 8 9 10 -12 10 -16 0 -28 -4 -28
-10z"/>
<path d="M6083 1088 c2 -7 10 -13 17 -13 7 0 15 6 18 13 2 7 -5 12 -18 12 -13
0 -20 -5 -17 -12z"/>
<path d="M5648 892 c-45 -40 -60 -46 -158 -71 -90 -23 -123 -41 -78 -41 15 0
30 5 33 10 3 6 41 10 83 10 79 0 123 12 210 58 58 31 54 56 -10 60 -39 3 -51
-1 -80 -26z"/>
</g>
</svg>
