<?xml version="1.0" standalone="no"?>
<!DOCTYPE svg PUBLIC "-//W3C//DTD SVG 20010904//EN"
 "http://www.w3.org/TR/2001/REC-SVG-20010904/DTD/svg10.dtd">
<svg version="1.0" xmlns="http://www.w3.org/2000/svg"
 width="591.000000pt" height="900.000000pt" viewBox="0 0 591.000000 900.000000"
 preserveAspectRatio="xMidYMid meet">
<metadata>
Created by potrace 1.10, written by Peter Selinger 2001-2011
</metadata>
<g transform="translate(0.000000,900.000000) scale(0.100000,-0.100000)"
fill="#000000" stroke="none">
<path d="M2080 8950 c-12 -8 -12 -13 3 -44 18 -39 46 -59 145 -107 64 -31 86
-54 101 -105 13 -46 -3 -70 -62 -98 -108 -52 -114 -92 -11 -81 l64 7 35 -37
c19 -20 35 -44 35 -53 0 -9 14 -41 30 -71 34 -61 37 -89 15 -131 -20 -39 -58
-245 -75 -405 -18 -176 -47 -255 -140 -383 -29 -40 -32 -42 -83 -42 -31 0 -61
-6 -73 -15 -12 -9 -43 -14 -86 -15 -61 0 -69 2 -84 24 -10 16 -14 41 -13 67 4
49 -7 57 -51 39 -33 -14 -42 -40 -31 -95 10 -53 33 -93 76 -134 23 -22 35 -42
33 -55 -5 -33 -64 -66 -117 -66 -26 0 -56 -7 -69 -15 l-22 -16 27 -47 c34 -61
27 -90 -34 -139 -26 -21 -115 -103 -198 -183 -174 -169 -199 -189 -360 -300
-182 -125 -333 -258 -366 -322 -24 -46 -26 -128 -4 -128 9 0 20 12 26 28 27
68 46 96 119 169 122 122 408 293 466 279 35 -9 30 -42 -16 -110 -62 -91 -135
-232 -168 -326 -83 -232 -85 -243 -89 -342 -5 -112 5 -141 82 -226 48 -53 81
-66 103 -39 8 9 0 26 -31 65 -43 56 -52 89 -63 222 -5 56 -2 75 23 135 49 119
118 213 140 191 3 -3 -4 -50 -16 -105 -19 -83 -21 -105 -11 -140 6 -25 10
-107 9 -197 -1 -86 2 -159 7 -164 6 -6 28 -4 54 4 41 12 45 16 48 47 2 19 13
44 24 56 18 20 20 27 10 48 -19 40 -15 292 4 373 19 76 39 107 54 82 11 -17
13 -55 14 -205 1 -89 4 -105 28 -147 14 -26 36 -76 48 -112 17 -52 28 -69 56
-86 31 -20 34 -26 34 -68 0 -39 4 -49 23 -57 21 -10 22 -15 25 -185 2 -111 -1
-194 -9 -226 -16 -69 -16 -210 -1 -374 14 -149 8 -186 -34 -196 -28 -7 -81 18
-157 75 -29 21 -72 50 -97 64 -63 37 -217 197 -275 287 -40 63 -49 86 -55 142
-9 80 -36 133 -69 133 -23 0 -28 -6 -79 -110 -19 -38 -42 -68 -63 -81 -19 -12
-46 -34 -61 -49 -46 -45 -98 -68 -159 -69 -31 0 -67 5 -80 11 -13 7 -46 21
-72 33 -102 44 -214 137 -253 210 -14 25 -43 76 -65 114 -23 42 -48 104 -60
155 -19 77 -21 106 -16 271 6 197 9 213 72 380 57 153 80 188 176 280 l89 85
0 73 c0 69 -19 142 -37 142 -5 0 -20 -26 -34 -58 -23 -51 -34 -63 -115 -118
-49 -33 -95 -72 -101 -85 -8 -14 -13 -63 -13 -118 0 -71 -6 -112 -24 -170 -75
-233 -106 -339 -106 -361 -1 -42 -26 -174 -38 -197 -17 -30 -15 -107 3 -150 8
-19 15 -45 15 -57 0 -31 60 -182 103 -258 55 -98 164 -194 302 -267 33 -17 94
-53 135 -79 66 -41 81 -47 126 -46 58 2 140 25 199 57 29 16 57 22 100 21 53
0 67 -5 115 -39 30 -21 78 -59 106 -85 28 -25 82 -65 120 -89 95 -58 194 -129
241 -172 22 -20 47 -40 55 -45 23 -15 48 -57 48 -83 0 -18 25 -49 93 -113 95
-92 144 -123 177 -113 27 9 77 -20 140 -81 30 -29 68 -62 83 -74 41 -33 67
-91 67 -152 0 -52 7 -113 36 -313 8 -55 15 -188 17 -295 l2 -195 -31 -50 c-23
-37 -47 -59 -95 -87 -69 -40 -98 -83 -99 -144 0 -49 -34 -84 -80 -84 -44 0
-51 -9 -95 -113 -26 -63 -28 -72 -17 -113 17 -62 15 -73 -12 -109 -24 -31 -24
-34 -16 -135 5 -57 15 -119 21 -138 18 -53 2 -412 -20 -451 -15 -29 -137 -169
-223 -257 l-40 -42 3 -133 c2 -91 7 -143 17 -163 17 -35 11 -93 -13 -130 -20
-30 -48 -33 -121 -11 -67 20 -110 19 -161 -6 -35 -17 -43 -26 -43 -49 0 -38
20 -53 54 -40 43 16 52 13 106 -35 28 -25 54 -45 58 -45 4 0 19 14 33 32 31
38 52 33 72 -15 14 -32 59 -77 79 -77 12 0 135 -59 179 -86 23 -15 38 -33 42
-51 3 -15 25 -49 49 -76 39 -43 50 -49 128 -69 77 -19 88 -20 115 -7 23 11 30
22 31 44 1 17 2 37 3 45 0 8 23 39 50 67 40 44 54 53 82 53 19 0 50 9 69 19
123 66 119 66 231 65 74 0 117 -5 147 -17 23 -9 42 -13 43 -9 1 4 2 16 3 27 1
13 9 21 26 23 14 2 37 15 52 30 15 14 29 24 31 21 11 -16 30 -82 36 -120 15
-101 71 -144 127 -100 15 12 33 21 41 21 23 0 113 -91 113 -114 0 -42 21 -54
95 -60 74 -5 131 -14 260 -42 101 -21 204 -29 217 -16 20 20 -1 60 -43 84 -66
37 -88 98 -48 134 16 15 41 20 112 24 l92 5 -33 18 c-18 10 -63 46 -100 80
-65 61 -115 97 -177 127 -38 19 -75 94 -85 175 -5 33 -11 67 -14 75 -16 42
-36 238 -36 351 0 113 3 132 25 183 18 41 25 74 25 121 0 35 5 76 12 90 10 22
8 28 -10 48 -28 29 -28 64 -1 93 15 16 23 43 30 98 4 42 11 81 14 87 4 5 -3
26 -15 45 l-21 36 28 47 c23 39 28 60 31 136 4 80 2 93 -17 114 -37 42 -25
161 16 161 22 0 212 -189 276 -275 29 -38 57 -83 63 -100 6 -19 22 -36 42 -47
49 -24 68 -44 81 -87 19 -66 35 -70 84 -24 71 67 109 85 237 114 83 19 270 22
330 5 61 -16 117 -35 140 -46 9 -4 31 -11 50 -15 58 -12 103 -40 155 -96 78
-83 125 -196 145 -348 6 -40 13 -77 16 -82 5 -8 -5 -55 -48 -224 -40 -161 -49
-202 -59 -280 -5 -44 -15 -103 -21 -132 -6 -28 -9 -84 -6 -125 4 -65 10 -83
48 -146 72 -121 78 -126 207 -147 66 -10 125 -15 145 -10 18 4 58 6 88 6 54
-2 130 22 130 41 0 5 -12 13 -27 19 -21 8 -44 7 -92 -4 -98 -23 -153 3 -230
106 -45 61 -54 111 -41 227 11 108 31 170 97 300 50 99 58 123 58 170 0 47 -5
61 -32 95 -73 93 -74 97 -72 332 2 198 0 213 -19 240 -46 64 -206 194 -290
236 -21 10 -71 20 -121 23 -115 8 -270 46 -344 85 -72 37 -96 36 -210 -10 -91
-36 -142 -39 -197 -11 -21 11 -61 27 -87 36 -26 8 -60 20 -74 25 -14 5 -108
96 -209 200 l-183 191 2 302 c1 167 7 320 12 342 5 21 12 120 15 219 3 99 12
212 20 250 10 48 15 150 17 322 2 228 4 254 20 270 17 17 19 17 49 -16 27 -30
29 -38 24 -75 -4 -22 -13 -60 -21 -83 -10 -30 -12 -50 -5 -68 17 -46 38 -42
99 19 48 48 60 66 69 109 25 114 25 169 3 242 -12 37 -26 74 -31 81 -6 6 -26
42 -45 80 -19 38 -64 108 -99 156 -75 102 -89 135 -72 169 10 20 20 24 69 27
55 3 57 4 57 31 0 39 -49 100 -101 125 l-44 21 -3 112 -3 111 -35 31 c-36 32
-71 39 -106 20 -16 -9 -24 -7 -43 11 -24 22 -35 57 -55 173 -15 80 -9 91 44
82 38 -8 46 -16 96 -97 35 -57 62 -63 85 -18 9 17 20 30 25 30 11 0 44 -63 54
-102 10 -42 23 -34 36 25 6 28 18 69 27 90 15 35 15 42 -6 117 -16 61 -19 85
-11 100 13 25 22 25 42 3 18 -21 110 -211 144 -297 55 -138 83 -140 109 -9 10
50 -22 180 -69 279 -24 49 -81 148 -128 220 -47 71 -98 154 -113 184 -15 30
-49 79 -76 108 -26 28 -59 76 -73 105 -22 45 -24 57 -16 89 16 58 17 227 2
271 -8 21 -31 58 -53 83 -42 49 -44 55 -29 85 12 21 59 26 91 8 12 -6 27 -8
35 -5 21 8 2 40 -36 63 -41 24 -45 46 -20 98 12 24 20 55 18 67 -3 21 -8 23
-68 23 -64 0 -65 0 -70 -30 -5 -29 -7 -30 -66 -33 -46 -2 -66 1 -78 13 -20 21
-21 86 -2 163 8 31 19 82 25 112 5 30 14 78 19 105 10 50 44 156 87 270 13 33
26 92 29 130 4 39 12 100 18 137 13 80 -2 165 -38 207 -12 14 -32 46 -44 71
-13 25 -31 56 -41 69 -13 17 -19 41 -19 80 0 31 -5 74 -11 96 -5 22 -10 79
-10 127 0 56 -4 89 -12 96 -7 5 -54 19 -106 31 -51 12 -116 33 -144 47 -68 34
-81 19 -33 -37 20 -23 36 -46 36 -51 0 -4 18 -19 40 -33 54 -34 85 -107 60
-145 -15 -24 -80 -17 -124 13 -36 25 -46 27 -146 27 -133 0 -177 -17 -319
-124 -55 -41 -76 -35 -119 32 -21 32 -44 78 -52 102 -20 59 -83 123 -142 144
-27 9 -69 23 -94 32 -26 9 -64 34 -85 55 -22 22 -40 39 -41 39 -2 0 -10 -4
-18 -10z m454 -2966 c23 -22 20 -41 -9 -60 -23 -15 -27 -15 -50 0 -24 16 -34
54 -18 69 12 13 62 7 77 -9z m1146 -241 c0 -36 -16 -27 -34 20 -23 61 -20 76
9 37 14 -19 25 -44 25 -57z m-1130 31 c67 -23 104 -49 125 -87 21 -39 17 -67
-18 -118 -45 -67 -90 -47 -145 66 -35 71 -45 110 -37 136 8 23 17 23 75 3z
m-304 -62 c6 -4 25 -34 42 -67 32 -65 50 -85 97 -106 28 -13 30 -19 33 -71 2
-37 -2 -68 -13 -87 -22 -44 -76 -81 -117 -81 -42 0 -57 -16 -48 -50 8 -30 -3
-64 -34 -105 -43 -57 -47 -70 -31 -108 8 -20 19 -38 25 -42 23 -14 5 -124 -38
-228 -13 -32 -14 -45 -3 -87 7 -28 10 -67 7 -87 -5 -28 0 -54 19 -101 25 -61
25 -68 23 -265 -3 -187 -4 -202 -22 -205 -33 -7 -41 15 -41 121 -1 108 -4 118
-71 216 -13 20 -24 41 -24 49 0 7 -9 38 -20 69 -11 32 -20 75 -20 97 0 27 -9
52 -26 78 -26 37 -26 38 -10 84 9 26 16 76 16 110 0 51 4 68 24 91 38 46 46
69 46 128 0 30 7 72 15 92 8 19 15 43 15 53 0 10 14 44 30 75 17 31 30 67 30
79 0 30 29 108 47 129 13 13 16 38 14 112 -2 112 3 128 35 107z m212 -129 c-2
-10 -10 -18 -18 -18 -8 0 -16 8 -18 18 -2 12 3 17 18 17 15 0 20 -5 18 -17z
m72 -89 c0 -19 -28 -30 -42 -16 -6 6 -8 17 -5 26 7 18 47 10 47 -10z m493
-2166 c3 -12 1 -30 -4 -40 -8 -15 -13 -17 -25 -7 -14 12 -19 51 -7 62 13 14
31 6 36 -15z m-44 -305 c69 -69 101 -122 101 -168 0 -24 11 -76 24 -116 25
-80 57 -260 56 -324 0 -68 -20 -118 -61 -156 l-38 -35 -7 -120 c-6 -100 -4
-125 10 -151 21 -41 20 -83 -1 -127 -15 -33 -15 -39 1 -98 10 -35 24 -74 32
-88 37 -67 47 -101 52 -175 3 -56 12 -95 28 -129 16 -34 24 -67 24 -104 0 -54
-1 -56 -68 -126 -81 -86 -139 -177 -148 -234 -8 -48 14 -92 90 -180 25 -30 46
-62 46 -73 0 -29 -73 -73 -107 -65 -80 19 -137 24 -338 27 -184 3 -236 1 -320
-15 l-100 -19 -51 22 c-77 33 -85 59 -80 241 2 80 9 161 15 180 6 19 11 49 11
67 0 18 4 42 9 55 5 13 16 59 26 103 34 160 47 208 75 285 41 117 62 152 104
176 56 32 101 78 137 140 26 46 30 62 25 94 -9 56 5 82 70 131 47 36 66 61
105 134 29 54 49 103 49 123 0 35 28 92 79 162 30 41 57 107 48 116 -2 2 -16
0 -30 -5 -20 -8 -28 -7 -34 4 -12 20 2 181 22 250 9 33 21 82 27 110 15 73 44
124 71 125 5 0 26 -17 46 -37z"/>
<path d="M4166 544 c-3 -9 -4 -19 -1 -23 2 -5 5 -33 6 -63 l2 -55 48 23 c44
22 69 48 69 72 0 12 -83 62 -103 62 -8 0 -18 -7 -21 -16z"/>
</g>
</svg>
