<?xml version="1.0" standalone="no"?>
<!DOCTYPE svg PUBLIC "-//W3C//DTD SVG 20010904//EN"
 "http://www.w3.org/TR/2001/REC-SVG-20010904/DTD/svg10.dtd">
<svg version="1.0" xmlns="http://www.w3.org/2000/svg"
 width="198.000000pt" height="300.000000pt" viewBox="0 0 198.000000 300.000000"
 preserveAspectRatio="xMidYMid meet">
<metadata>
Created by potrace 1.10, written by Peter Selinger 2001-2011
</metadata>
<g transform="translate(0.000000,300.000000) scale(0.050000,-0.050000)"
fill="#000000" stroke="none">
<path d="M1775 5807 c-32 -50 -8 -127 39 -127 25 0 46 9 46 20 0 11 -13 20
-29 20 -16 0 -31 24 -35 55 -3 33 -12 46 -21 32z"/>
<path d="M1590 5744 c-116 -63 -146 -94 -162 -168 -7 -29 -35 -74 -63 -100
l-51 -46 14 55 c17 72 1 70 -37 -3 -54 -105 -138 -150 -210 -112 -60 30 -62
30 -84 -19 -13 -28 -44 -64 -70 -81 -49 -32 -118 -146 -99 -165 6 -6 -1 -34
-16 -63 -15 -29 -39 -77 -53 -107 -14 -30 -41 -55 -60 -55 -35 0 -99 -79 -99
-121 0 -13 14 -18 30 -12 17 7 30 4 30 -5 0 -10 -12 -22 -26 -28 -31 -11 -119
-179 -127 -240 -18 -140 -24 -344 -9 -353 9 -6 10 -92 2 -191 -8 -99 -8 -184
0 -190 8 -5 20 -43 28 -83 9 -49 26 -76 52 -83 46 -12 51 6 15 44 -20 22 -17
24 20 13 27 -8 45 -5 45 8 0 11 -9 21 -20 21 -35 0 -21 52 26 97 58 53 74 54
74 3 0 -22 10 -40 21 -40 12 0 16 -9 9 -20 -7 -11 -4 -20 7 -20 34 0 -16 296
-60 352 -18 23 43 189 89 245 28 34 37 143 12 143 -10 0 -18 27 -18 59 0 60
103 183 117 141 3 -11 16 -15 27 -8 13 8 10 19 -7 30 -22 13 -18 25 16 59 46
47 127 39 127 -12 0 -15 16 -60 35 -100 34 -72 34 -74 -13 -112 -26 -21 -42
-43 -35 -50 26 -27 161 94 324 290 42 50 49 71 30 82 -19 12 -20 26 -3 57 12
23 22 62 22 86 0 76 59 126 102 87 45 -41 89 26 69 105 -8 29 -5 45 6 38 11
-7 38 13 61 43 l41 55 0 -53 c1 -64 -44 -175 -113 -280 -29 -43 -46 -84 -39
-91 7 -7 13 -2 13 11 0 39 35 25 46 -19 10 -35 4 -40 -35 -30 -30 8 -56 0 -74
-22 -24 -29 -22 -32 18 -21 25 6 50 4 55 -5 13 -20 -62 -47 -87 -32 -10 6 -58
-41 -108 -104 -113 -143 -215 -244 -248 -244 -13 0 -30 -9 -37 -20 -7 -12 -2
-19 11 -15 13 3 28 -6 33 -18 5 -15 -6 -20 -29 -14 -39 10 -156 -135 -130
-161 7 -7 14 -31 15 -52 4 -43 -62 -115 -83 -93 -18 17 -87 -46 -87 -79 0 -45
45 -55 73 -17 64 87 88 -112 36 -291 -12 -41 -10 -46 12 -25 43 40 59 29 59
-42 0 -46 -16 -81 -53 -115 l-52 -48 24 47 c13 25 19 51 13 57 -12 12 -52 -80
-52 -120 -1 -39 -108 -221 -135 -229 -34 -11 -32 45 4 74 91 76 108 261 24
261 -45 0 -48 5 -33 70 19 82 -2 91 -49 19 -18 -27 -41 -45 -51 -39 -9 6 -28
-5 -40 -25 -16 -26 -25 -28 -33 -9 -11 27 -125 -136 -137 -196 -4 -18 -25 -64
-48 -102 -54 -88 -57 -138 -5 -91 60 55 68 37 14 -34 -67 -87 -64 -143 9 -216
45 -45 50 -57 21 -47 -78 25 -162 -241 -97 -306 20 -20 20 -33 0 -64 -34 -56
-30 -116 14 -177 47 -66 58 -177 24 -241 -70 -128 -63 -250 14 -238 19 4 32
-5 29 -20 -3 -15 9 -23 28 -20 58 10 53 -43 -6 -65 -48 -18 -52 -25 -24 -40
18 -10 38 -48 45 -84 7 -37 31 -82 53 -101 39 -33 41 -54 35 -355 -3 -175 1
-319 9 -319 8 0 15 24 15 53 0 30 6 48 13 41 16 -16 67 23 67 51 0 11 -19 15
-43 9 -49 -13 -46 175 5 268 14 27 23 73 20 103 -3 39 4 55 26 55 21 0 32 -18
32 -51 0 -31 8 -46 21 -38 12 7 17 25 12 39 -14 36 108 59 131 25 10 -14 13
-55 8 -91 -7 -46 -1 -69 19 -77 23 -9 29 -56 29 -219 0 -269 -38 -281 -44 -13
-4 167 -6 152 -15 -105 -12 -315 -8 -377 21 -359 10 6 19 67 20 135 2 68 7
108 12 89 29 -110 46 -9 39 223 l-8 258 62 -38 c70 -42 136 -48 194 -17 33 17
39 14 39 -20 0 -23 10 -41 22 -41 13 0 18 18 12 39 -6 24 16 81 57 145 68 108
74 142 19 96 -64 -53 -47 -4 25 76 113 124 183 253 129 239 -28 -7 -38 -2 -31
15 5 14 29 31 52 37 42 11 42 12 6 52 -37 40 -36 41 15 41 28 0 63 -17 78 -37
49 -69 356 -69 356 0 0 9 -13 17 -30 17 -16 0 -30 8 -30 17 0 24 -213 163
-250 163 -16 0 -31 7 -32 15 0 8 -5 33 -11 55 -67 281 -10 596 156 852 80 123
137 227 137 249 0 7 -28 -11 -63 -40 -40 -34 -68 -46 -76 -32 -8 12 -42 -12
-82 -59 -67 -77 -99 -97 -99 -63 0 27 132 149 201 186 59 32 159 177 121 177
-9 0 -28 -27 -42 -60 -14 -34 -33 -66 -43 -72 -9 -6 -7 12 6 40 43 95 -37 146
-106 67 l-40 -45 10 46 c14 64 -27 47 -77 -32 -45 -70 -92 -86 -76 -24 14 53
153 177 239 212 99 42 215 262 150 284 -33 11 -28 75 7 104 45 38 38 85 -10
70 -22 -7 -40 -4 -40 7 0 11 -6 34 -12 52 -9 22 -4 28 16 21 18 -8 42 19 69
79 42 90 38 114 -9 67 -13 -13 -24 -15 -24 -4 0 11 11 31 24 44 17 17 18 24 1
24 -12 0 -37 -20 -53 -44 -17 -24 -35 -39 -41 -34 -23 23 49 218 113 309 82
116 102 163 75 180 -11 6 -27 -9 -36 -34 l-17 -46 -15 44 c-19 61 -36 57 -80
-20 -44 -77 -102 -137 -117 -122 -15 15 5 66 52 135 l40 57 -48 36 c-38 30
-43 42 -23 62 14 14 25 45 25 70 0 24 9 50 21 58 11 7 15 29 9 49 -14 44 22
57 147 56 54 -1 94 9 105 26 15 23 21 24 35 1 14 -20 28 -22 57 -6 29 15 46
15 64 -3 24 -24 32 -27 92 -31 25 -3 30 -50 31 -288 1 -157 10 -303 19 -325
22 -51 22 -39 20 340 l-1 280 85 38 c85 38 220 91 232 92 4 0 1 -8 -5 -18 -6
-9 7 -22 29 -28 22 -6 40 -25 40 -42 0 -18 14 -32 30 -32 27 0 27 -5 2 -45
-31 -48 -52 -302 -27 -327 8 -8 15 46 15 120 0 121 5 139 55 184 30 27 97 88
148 134 l92 84 413 -6 c403 -5 412 -5 412 35 0 40 -11 41 -405 42 -453 0 -509
13 -447 102 36 52 41 77 14 77 -10 0 -37 -31 -59 -70 -41 -68 -102 -95 -104
-45 0 17 -8 16 -25 -5 -25 -32 -94 -37 -169 -12 -25 8 -72 15 -105 16 -33 1
-60 10 -60 19 0 24 -95 21 -110 -2 -12 -21 -275 -13 -310 9 -11 7 -20 5 -20
-4 -1 -62 -38 -71 -111 -26 -60 38 -81 42 -112 23 -32 -20 -37 -17 -37 27 0
27 10 50 22 50 12 0 17 14 10 31 -6 18 -3 26 8 19 11 -7 20 -2 20 11 0 13 14
18 30 12 39 -15 38 5 -3 50 -30 33 -30 37 -2 37 18 0 36 -11 42 -25 7 -19 10
-19 11 -1 1 14 -16 34 -38 46 -22 12 -40 35 -40 51 0 33 -31 39 -50 9 -7 -11
-22 -20 -34 -20 -12 0 -6 18 15 41 32 36 33 39 3 28 -26 -10 -31 -5 -22 19 7
17 3 32 -9 32 -11 0 -26 -18 -33 -40 -11 -33 -20 -36 -53 -18 -53 28 -105 -12
-57 -43 25 -16 22 -21 -15 -31 -25 -7 -45 -21 -45 -30 0 -29 31 -21 85 22 44
34 54 36 75 10 18 -22 19 -30 2 -30 -50 0 -79 -48 -44 -73 77 -57 -10 -74
-127 -25 l-113 46 60 56 c40 37 56 68 48 90 -11 27 -16 24 -31 -16 l-19 -48
-18 47 c-12 30 -29 43 -48 36 -74 -29 -20 14 73 57 95 44 136 78 137 115 0 28
-49 14 -150 -41z m-107 -229 c-22 -22 6 -104 52 -151 16 -17 19 -39 8 -60 -10
-19 -14 -45 -9 -59 5 -14 0 -25 -12 -25 -12 0 -22 27 -22 60 0 33 -10 60 -21
60 -13 0 -16 17 -8 43 9 29 6 38 -10 27 -14 -8 -22 -50 -19 -97 3 -46 -2 -84
-11 -86 -82 -16 -32 -123 59 -128 22 -1 29 -7 15 -12 -14 -6 -63 4 -110 21
-120 44 -138 37 -290 -103 -74 -69 -142 -125 -150 -125 -38 0 -6 43 100 132
162 135 189 165 173 191 -8 14 -5 18 8 10 12 -8 31 2 42 22 27 46 28 14 1 -36
-18 -34 -14 -39 32 -39 39 0 50 8 42 29 -6 17 4 39 23 49 29 17 30 26 9 61
-28 45 -33 94 -10 104 8 4 32 40 53 81 21 41 46 70 57 63 11 -7 11 -19 -2 -32z
m387 -295 c-8 -13 -26 -13 -52 1 -21 12 -34 30 -27 40 6 11 20 14 30 8 11 -6
19 0 20 15 0 16 8 12 21 -9 11 -19 15 -44 8 -55z m140 -68 c34 -24 30 -27 -45
-25 -64 2 -78 8 -61 28 27 32 59 32 106 -3z m844 -70 c32 -50 7 -72 -27 -24
-18 26 -41 35 -70 27 -30 -8 -39 -4 -29 12 22 36 100 27 126 -15z m-1520 -82
c18 0 51 16 72 35 38 34 39 33 23 -15 -9 -27 -18 -72 -20 -100 -6 -78 -7 -80
-45 -80 -52 0 -88 41 -63 72 15 18 9 36 -22 65 -25 23 -37 50 -28 64 11 18 19
15 33 -8 10 -18 33 -33 50 -33z m-59 -218 c32 -19 32 -21 1 -21 -43 -1 -116
92 -115 147 1 33 9 26 40 -32 21 -41 55 -83 74 -94z m431 -124 c-26 -26 -112
-4 -95 24 7 10 20 14 29 8 9 -6 23 -1 31 11 10 16 20 16 35 1 16 -16 16 -28 0
-44z m-926 27 c-1 -58 -30 -105 -64 -105 -31 0 -36 9 -25 45 18 57 90 106 89
60z m644 -273 c11 -20 22 -62 24 -92 4 -58 61 -160 90 -160 10 0 1 33 -20 74
-25 48 -31 81 -18 94 24 24 39 10 50 -49 22 -113 64 -116 160 -10 50 55 90 86
90 70 1 -25 3 -25 20 1 22 34 26 19 7 -30 -9 -25 -17 -27 -28 -9 -10 17 -26 4
-49 -40 -18 -36 -24 -59 -12 -52 33 20 27 -55 -7 -100 -24 -31 -30 -33 -30 -8
-1 17 10 42 23 55 19 19 18 24 -5 23 -50 -1 -101 -52 -87 -86 8 -22 2 -33 -20
-33 -21 0 -32 -18 -32 -51 0 -48 -3 -49 -32 -20 -30 30 -35 30 -60 -3 -26 -33
-27 -33 -16 -1 8 24 2 35 -20 35 -31 0 -48 80 -17 80 60 2 66 37 16 110 -28
41 -51 98 -51 125 0 28 -20 83 -44 123 l-43 72 45 -40 c25 -22 55 -57 66 -78z
m-690 -73 c-1 -88 -9 -107 -58 -142 l-56 -39 13 94 c9 64 6 90 -8 81 -12 -8
-20 6 -18 35 2 33 10 43 25 30 15 -12 32 -8 48 12 42 51 55 34 54 -71z m486
-56 c0 -33 18 -73 43 -95 l42 -38 -32 64 c-41 80 -42 109 -1 56 60 -78 127
-228 116 -259 -7 -17 -2 -31 10 -31 12 0 22 -14 22 -31 0 -17 8 -26 18 -20 10
6 24 0 30 -14 10 -20 14 -20 24 0 16 35 68 31 68 -5 0 -16 15 -30 33 -30 24 0
14 -19 -35 -69 -64 -66 -111 -65 -57 1 22 26 17 28 -35 19 -57 -10 -62 -6 -73
64 -8 46 -53 128 -118 215 -71 94 -103 155 -99 185 10 65 44 55 44 -12z m-520
-140 c0 -10 -19 -41 -41 -70 -31 -40 -34 -50 -10 -41 41 16 39 2 -4 -37 -33
-30 -35 -27 -40 45 -4 57 4 83 30 98 44 26 65 27 65 5z m420 -149 c0 -21 -11
-34 -25 -29 -14 5 -25 18 -25 30 0 12 -7 28 -15 37 -31 31 -13 47 25 23 22
-13 40 -41 40 -61z m64 31 c48 -52 106 -145 90 -145 -4 0 -46 45 -92 100 -88
105 -87 140 2 45z m661 -64 c-6 -17 -20 -42 -31 -56 -12 -17 -11 -25 4 -25 38
0 24 -37 -20 -51 -62 -19 -80 12 -57 96 17 61 29 74 68 71 32 -3 43 -14 36
-35z m-165 -99 c0 -10 -18 -39 -39 -65 -44 -52 -56 -20 -16 43 26 41 55 53 55
22z m-332 -75 c45 17 62 -26 25 -63 -36 -36 -153 51 -153 113 0 22 13 18 49
-16 28 -26 62 -41 79 -34z m96 -40 c-10 -18 -15 -48 -10 -67 10 -38 -53 -65
-94 -40 -16 10 -5 22 33 36 31 11 44 22 29 22 -22 2 -20 11 8 42 44 49 58 52
34 7z m-307 -146 c-39 -53 -48 -57 -63 -29 -14 25 -5 44 39 79 71 57 84 31 24
-50z m583 -31 c21 -7 65 2 98 19 38 20 64 24 72 11 7 -11 -4 -25 -24 -32 -20
-6 -64 -23 -99 -38 -55 -24 -65 -24 -75 3 -13 32 -81 -34 -130 -128 -13 -25
-37 -45 -53 -45 -16 0 -29 -9 -29 -20 0 -54 -72 -16 -76 40 -3 33 5 60 17 60
12 0 16 -17 10 -38 -19 -58 20 -68 45 -12 19 42 17 52 -17 70 -21 12 -39 14
-39 6 -1 -32 -39 45 -40 79 0 50 38 43 59 -10 10 -25 19 -37 20 -26 0 10 14 1
30 -20 18 -24 30 -29 30 -13 1 15 9 21 20 15 10 -6 25 -1 33 12 9 14 6 18 -9
9 -50 -31 -20 21 42 72 47 39 67 46 71 26 4 -16 24 -34 44 -40z m-429 -85 c32
-22 92 -184 77 -208 -23 -38 11 -156 43 -144 59 23 19 -137 -44 -178 -13 -8
-43 -47 -67 -85 -24 -39 -52 -70 -62 -70 -36 0 -17 63 35 111 29 27 47 56 39
64 -8 7 -22 1 -32 -16 -10 -16 -40 -29 -67 -30 -27 0 -65 -14 -85 -30 -29 -23
-27 -13 11 51 66 112 81 125 81 74 0 -71 30 -51 77 51 49 107 54 263 11 320
-24 32 -27 30 -27 -20 -1 -56 -28 -69 -80 -36 -21 13 -43 4 -78 -31 -55 -54
-85 -48 -41 8 15 20 -15 -9 -67 -65 -80 -85 -95 -94 -95 -58 0 59 148 197 255
238 47 18 80 41 74 51 -14 22 12 23 42 3z m-271 -105 c0 -11 -9 -20 -19 -20
-25 0 -121 -164 -121 -207 0 -18 -9 -33 -20 -33 -31 0 -24 73 10 107 17 17 30
41 30 55 0 29 78 118 103 118 10 0 17 -9 17 -20z m115 -231 c14 -4 25 -26 25
-49 0 -40 -8 -60 -58 -157 -37 -70 -47 -136 -18 -107 45 45 60 24 45 -61 -18
-108 -68 -235 -92 -235 -26 0 -176 -344 -177 -405 0 -38 38 -9 60 45 34 82 60
75 59 -15 0 -87 -44 -157 -83 -133 -20 12 -21 9 -5 -13 12 -16 17 -55 10 -86
l-11 -57 -38 42 c-44 48 -108 55 -124 14 -6 -16 -24 -34 -40 -40 -24 -9 -25
-3 -7 31 13 23 29 101 37 174 14 120 18 128 37 83 25 -56 29 -53 33 24 2 29
-3 49 -12 43 -17 -10 -3 482 16 578 6 30 18 55 26 55 21 0 62 93 49 107 -6 6
-28 0 -48 -12 -54 -34 -70 -4 -30 56 26 41 45 50 82 41 36 -9 53 -2 71 33 39
74 71 82 193 44z m354 -254 c-8 -25 -41 -83 -73 -130 -32 -47 -48 -85 -37 -85
12 0 21 9 21 20 0 11 9 20 20 20 11 0 20 -24 20 -52 0 -45 4 -49 30 -28 44 37
63 7 23 -37 -18 -20 -28 -42 -21 -48 21 -22 -15 -135 -43 -135 -18 0 -32 -35
-41 -100 -20 -151 -57 -153 -43 -3 8 83 4 119 -10 110 -20 -13 -11 -254 17
-442 12 -78 10 -85 -30 -85 -37 0 -39 5 -18 40 21 32 20 45 -4 69 -25 25 -28
74 -16 295 21 374 25 397 96 523 64 113 137 159 109 68z m-34 -945 c0 -31 -11
-50 -30 -50 -18 0 -25 12 -17 32 7 17 12 40 12 50 0 10 8 18 18 18 9 0 17 -22
17 -50z m-228 -95 c-5 -8 5 -15 22 -15 17 0 31 -9 31 -19 0 -11 13 -15 28 -9
41 16 60 -28 29 -67 -23 -27 -23 -30 1 -16 15 9 -7 -45 -48 -121 -42 -76 -83
-141 -93 -145 -9 -3 -17 -18 -17 -32 0 -72 -75 -97 -150 -51 -40 25 -68 49
-62 55 6 5 -10 27 -34 47 -42 36 -42 39 -8 66 20 16 34 31 32 35 -21 28 100
161 129 143 11 -7 13 -2 5 11 -8 13 -25 18 -37 10 -14 -9 -17 -1 -8 21 7 20
13 51 13 71 0 20 19 60 43 90 l43 55 45 -57 c25 -31 41 -64 36 -72z m-394 -46
c55 -85 -18 -165 -188 -204 -112 -26 -119 -7 -40 109 109 160 169 185 228 95z"/>
<path d="M913 2930 c5 -39 -1 -70 -13 -70 -11 0 -20 -7 -20 -16 0 -24 135 -28
150 -5 7 12 -6 21 -29 21 -40 0 -51 26 -44 105 1 19 -10 35 -24 35 -19 0 -25
-21 -20 -70z"/>
<path d="M985 4475 c-67 -84 -110 -221 -55 -175 17 14 30 38 30 53 0 16 15 51
33 78 34 52 28 89 -8 44z"/>
<path d="M1899 3429 c-45 -48 -30 -72 17 -25 19 19 24 16 24 -11 0 -20 9 -30
20 -23 24 15 26 84 3 98 -9 6 -38 -11 -64 -39z"/>
<path d="M1240 880 c0 -103 7 -158 20 -150 11 7 20 74 20 150 0 76 -9 143 -20
150 -13 8 -20 -47 -20 -150z"/>
</g>
</svg>
