<?xml version="1.0" standalone="no"?>
<!DOCTYPE svg PUBLIC "-//W3C//DTD SVG 20010904//EN"
 "http://www.w3.org/TR/2001/REC-SVG-20010904/DTD/svg10.dtd">
<svg version="1.0" xmlns="http://www.w3.org/2000/svg"
 width="900.000000pt" height="1041.000000pt" viewBox="0 0 900.000000 1041.000000"
 preserveAspectRatio="xMidYMid meet">
<metadata>
Created by potrace 1.10, written by Peter Selinger 2001-2011
</metadata>
<g transform="translate(0.000000,1041.000000) scale(0.100000,-0.100000)"
fill="#000000" stroke="none">
<path d="M4026 8580 c-27 -17 -71 -53 -100 -79 -60 -56 -101 -73 -148 -61 -94
24 -160 29 -189 14 -38 -19 -37 -41 6 -153 19 -49 35 -102 35 -116 0 -14 14
-41 35 -63 46 -52 74 -142 82 -268 6 -99 5 -101 -20 -125 -15 -13 -54 -35 -87
-48 -33 -13 -65 -30 -72 -38 -17 -21 -12 -66 12 -113 40 -78 12 -111 -110
-132 -87 -14 -120 -31 -120 -63 0 -12 -13 -41 -30 -63 -16 -23 -30 -48 -30
-56 0 -8 -4 -17 -9 -21 -15 -9 -43 -66 -51 -105 -5 -19 -13 -48 -18 -65 -6
-16 -16 -48 -21 -70 -16 -59 -26 -71 -50 -59 -11 5 -222 209 -469 454 -1006
997 -1081 1070 -1101 1070 -23 0 -55 -62 -46 -89 5 -16 310 -322 760 -761 551
-539 846 -836 852 -858 4 -16 -5 -38 -30 -75 -87 -133 -104 -220 -66 -359 14
-52 23 -117 24 -173 1 -49 5 -111 10 -137 7 -47 7 -47 -26 -61 l-34 -14 0
-153 c0 -109 -3 -154 -12 -157 -19 -7 -32 29 -42 123 -6 49 -15 125 -20 169
-5 44 -15 141 -21 215 -21 249 -32 365 -36 369 -13 13 -44 -39 -57 -97 -41
-176 -62 -372 -39 -372 4 0 18 20 30 45 22 46 38 55 60 33 18 -18 15 -139 -4
-177 -17 -35 -18 -34 42 -256 13 -49 24 -98 24 -109 0 -10 11 -50 25 -89 37
-100 75 -395 56 -426 -13 -21 -40 -6 -46 26 -23 111 -78 248 -97 237 -19 -12
17 -256 52 -353 14 -36 20 -72 17 -88 -3 -16 -2 -74 3 -129 7 -95 11 -106 50
-172 66 -111 88 -212 56 -257 -8 -11 -53 -94 -101 -185 -48 -91 -100 -187
-115 -215 -15 -27 -42 -77 -60 -110 -105 -192 -188 -305 -225 -305 -9 0 -21
11 -27 25 -23 50 -30 42 -156 -145 -106 -157 -152 -210 -184 -210 -42 -1 -60
-21 -113 -130 -15 -30 -38 -77 -52 -104 -13 -28 -39 -67 -58 -87 -18 -21 -46
-64 -61 -96 -38 -82 -61 -128 -151 -299 -44 -83 -91 -177 -103 -208 -22 -52
-23 -58 -7 -73 14 -14 22 -15 55 -5 21 6 60 26 86 43 68 45 75 30 49 -94 -12
-58 -4 -167 12 -167 13 0 95 88 95 102 0 12 112 172 145 210 l30 33 3 -29 c2
-17 -6 -51 -19 -78 -14 -31 -19 -52 -13 -58 15 -15 92 28 109 60 40 77 138
191 211 245 76 57 77 57 105 41 30 -17 65 -21 73 -7 3 5 38 28 77 51 39 23
100 67 136 97 87 74 96 70 104 -42 5 -69 11 -99 29 -128 22 -37 23 -45 17
-170 -8 -158 -30 -252 -92 -384 -58 -123 -61 -146 -39 -249 17 -82 17 -90 0
-202 -24 -155 -38 -202 -101 -335 -29 -61 -61 -145 -71 -184 -18 -69 -18 -75
-1 -125 47 -140 12 -324 -84 -454 -58 -78 -73 -119 -59 -154 16 -40 82 -96
159 -137 30 -16 153 -17 200 -1 54 18 139 76 168 114 32 43 27 74 -28 167 -57
95 -61 181 -15 288 5 10 -2 27 -18 47 -36 41 -34 86 10 207 20 55 39 111 44
125 5 14 18 50 30 80 12 30 24 64 27 75 4 11 12 29 20 40 7 11 13 27 13 37 0
9 7 34 16 55 9 21 23 52 29 68 7 17 27 58 44 93 17 34 31 66 31 72 0 9 69 160
123 269 18 35 55 87 82 115 28 28 56 65 62 81 56 152 75 175 142 175 31 0 84
28 127 66 11 11 48 43 82 73 36 31 65 66 71 85 6 17 15 93 21 168 12 155 29
209 81 252 19 16 74 66 122 113 113 108 227 203 242 203 7 0 20 -12 30 -26 13
-21 15 -41 11 -107 -8 -111 -8 -146 1 -254 8 -86 10 -94 43 -130 19 -21 40
-41 45 -45 6 -3 39 -26 74 -50 35 -24 81 -59 103 -79 l38 -37 0 -106 c0 -99 2
-110 25 -140 23 -30 25 -41 25 -142 0 -96 3 -115 24 -154 26 -50 76 -227 100
-360 10 -55 16 -143 16 -246 0 -154 -1 -163 -26 -210 -21 -39 -28 -71 -36
-159 -5 -60 -15 -138 -23 -173 -20 -84 -19 -105 5 -127 22 -20 94 -42 182 -55
55 -8 111 -38 175 -93 34 -30 86 -36 220 -26 148 10 229 30 238 59 6 20 -22
80 -37 80 -5 0 -39 15 -76 32 -53 26 -94 60 -200 164 -118 116 -135 137 -153
190 -11 32 -32 73 -45 91 -13 17 -24 42 -24 55 -1 13 -7 34 -15 48 -8 14 -15
39 -15 55 0 17 -7 62 -15 100 -23 104 -23 410 -1 452 11 23 16 59 16 125 1 62
6 101 15 118 9 16 14 55 15 107 0 73 3 85 26 112 14 17 31 31 38 31 19 0 36
46 36 98 0 26 6 58 13 72 14 28 124 109 149 110 9 0 101 -70 203 -155 208
-174 230 -189 244 -180 10 5 -148 246 -225 344 -25 32 -34 51 -30 67 5 17 -3
30 -31 56 -96 87 -113 112 -114 164 -1 74 9 186 19 196 6 6 28 -1 61 -19 56
-31 71 -25 71 26 0 13 8 45 17 72 21 57 26 46 -83 166 -55 61 -87 105 -99 139
-10 27 -35 95 -56 151 -42 110 -47 144 -24 163 12 10 21 8 47 -8 45 -28 66
-52 137 -156 48 -70 71 -95 106 -112 25 -13 69 -41 97 -62 69 -52 138 -86 149
-75 6 6 -9 34 -36 69 -41 55 -57 94 -36 94 12 0 91 -86 204 -222 91 -110 121
-138 146 -138 18 0 12 28 -18 88 -63 125 -174 263 -436 542 -220 235 -212 221
-321 547 -56 169 -64 213 -40 213 14 0 56 -45 56 -61 0 -27 210 -283 227 -277
10 4 8 12 -11 66 -21 55 -9 82 36 82 27 0 55 -23 202 -167 238 -234 453 -442
646 -629 284 -274 502 -488 529 -519 14 -16 138 -140 274 -275 137 -134 255
-257 263 -272 8 -15 14 -38 14 -53 0 -46 31 -65 110 -65 57 0 74 4 90 20 34
34 26 64 -22 89 -15 8 -173 156 -350 330 -292 284 -485 475 -1179 1162 -119
118 -224 229 -235 247 -10 18 -69 77 -129 131 -61 54 -129 120 -150 146 -58
70 -106 117 -185 180 -83 66 -132 116 -171 171 -15 23 -44 51 -64 63 -42 24
-55 54 -55 124 0 52 -13 123 -24 134 -3 4 -14 -1 -24 -10 -26 -23 -55 -21 -72
6 -28 43 -50 99 -50 128 0 16 -7 46 -15 66 -8 19 -15 50 -15 68 0 18 -7 52
-15 75 -8 23 -15 57 -15 76 0 18 -5 45 -11 61 -6 15 -15 57 -20 93 -5 36 -16
97 -25 135 -24 108 -27 132 -15 139 6 4 11 36 11 73 0 57 6 78 41 152 45 93
49 117 29 171 -62 169 -99 321 -86 355 3 8 17 15 31 15 22 0 25 4 25 35 l0 35
36 -15 c42 -17 60 -38 68 -77 3 -15 16 -33 30 -40 14 -7 36 -27 48 -44 48 -65
88 -104 106 -104 10 0 29 11 42 24 12 14 35 28 51 31 16 4 31 11 34 16 4 5 61
9 129 9 84 0 126 4 135 13 8 8 53 12 149 13 207 0 223 12 117 84 -64 44 -151
79 -195 80 -57 1 -82 19 -219 149 -128 122 -160 166 -145 204 15 40 73 30 249
-43 11 -4 43 -16 70 -25 28 -10 64 -23 80 -31 74 -32 109 -44 129 -44 17 0 9
11 -39 54 -33 30 -80 65 -103 78 -58 31 -69 38 -122 75 -46 32 -141 126 -156
154 -5 9 -57 68 -115 130 -234 252 -260 281 -256 292 10 29 209 -20 291 -71
53 -33 106 -54 106 -43 0 34 -361 403 -459 471 -71 48 -166 145 -157 159 14
22 56 9 207 -63 85 -40 164 -77 177 -80 42 -14 23 18 -40 67 -124 94 -156 116
-239 162 -46 25 -97 59 -114 75 -32 30 -150 102 -225 137 -127 59 -140 61
-322 72 -250 15 -247 16 -302 -19z m691 -142 c49 -25 73 -56 53 -68 -26 -16
-130 45 -130 77 0 19 27 16 77 -9z m-987 -126 c18 -14 22 -25 16 -45 -9 -39
-49 -37 -66 3 -22 54 6 78 50 42z m1153 -273 c12 -7 35 -23 50 -35 24 -21 26
-24 9 -24 -45 0 -122 39 -122 62 0 12 38 10 63 -3z m-709 -25 c9 -8 16 -19 16
-22 0 -18 -33 -52 -50 -52 -22 0 -50 25 -50 45 0 20 28 45 50 45 10 0 26 -7
34 -16z m297 -44 c46 -25 1 -83 -47 -61 -28 12 -31 33 -8 55 18 19 28 20 55 6z
m628 -590 c82 -68 97 -100 49 -100 -51 0 -141 73 -154 125 -11 44 36 33 105
-25z m417 -671 c19 -21 18 -21 -5 -40 -13 -10 -38 -19 -57 -19 -28 0 -34 4
-34 22 0 52 61 76 96 37z m-1885 -556 c12 -21 38 -55 56 -76 18 -20 33 -45 33
-55 0 -22 57 -134 73 -144 7 -4 27 -8 45 -8 26 0 34 -5 43 -27 6 -16 17 -41
25 -56 8 -16 14 -35 14 -42 0 -8 7 -30 16 -49 10 -19 14 -44 11 -57 -4 -13
-45 -72 -92 -131 -64 -82 -97 -114 -133 -132 -32 -16 -66 -47 -104 -95 l-57
-72 6 -98 6 -98 -50 -94 c-67 -127 -101 -179 -117 -179 -7 0 -26 18 -41 40
-15 22 -42 49 -59 59 -35 22 -102 99 -114 131 -4 12 -5 47 -1 78 4 31 8 91 8
133 1 62 10 102 46 215 26 76 50 148 55 159 34 74 40 104 40 185 0 94 7 108
62 129 17 6 28 20 33 39 7 36 72 137 109 171 14 14 26 34 26 45 0 36 12 66 25
66 8 0 24 -17 36 -37z m1108 -585 c7 -12 31 -71 52 -132 29 -81 36 -112 28
-122 -9 -11 -16 -11 -38 1 -26 13 -39 37 -75 133 -34 91 -8 186 33 120z m723
-1740 c119 -128 135 -152 117 -174 -6 -8 -20 -14 -32 -14 -27 0 -190 161 -212
210 -19 42 -14 90 9 90 7 0 60 -51 118 -112z"/>
<path d="M6050 6666 c0 -8 21 -35 48 -61 70 -70 98 -87 284 -177 58 -27 64 15
11 63 -82 74 -162 127 -235 157 -84 35 -108 39 -108 18z"/>
<path d="M6120 5954 c0 -9 30 -46 68 -83 67 -66 233 -172 402 -256 41 -20 101
-53 133 -72 72 -43 88 -35 59 29 -19 44 -77 99 -137 131 -16 8 -77 39 -135 67
-58 29 -131 66 -162 84 -201 111 -228 123 -228 100z"/>
<path d="M6170 3443 c0 -5 16 -39 35 -78 19 -38 35 -75 35 -80 0 -19 58 -81
94 -100 43 -24 62 -12 41 25 -8 14 -17 32 -21 40 -9 20 -122 161 -147 183 -20
18 -37 22 -37 10z"/>
<path d="M1641 1953 c-12 -24 -25 -113 -16 -113 18 0 44 48 45 82 0 42 -14 57
-29 31z"/>
<path d="M7690 1900 c23 -33 71 -70 91 -70 7 0 -10 23 -38 50 -56 56 -87 67
-53 20z"/>
<path d="M6900 1881 c0 -12 59 -122 81 -149 17 -22 18 -22 24 -2 4 11 -1 34
-9 52 -9 17 -16 37 -16 44 0 7 -14 24 -31 38 -31 27 -49 33 -49 17z"/>
<path d="M2431 1825 c-18 -26 -82 -105 -142 -177 -116 -139 -139 -183 -66
-127 134 104 209 199 256 322 17 44 -11 34 -48 -18z"/>
<path d="M6300 1759 c0 -20 83 -166 116 -204 17 -20 36 -47 41 -59 17 -38 35
-90 40 -118 3 -15 11 -33 19 -39 8 -6 14 -17 14 -24 0 -8 8 -28 17 -47 9 -18
20 -41 25 -50 15 -32 46 -133 58 -188 7 -30 18 -73 26 -95 15 -42 17 -122 5
-165 -4 -14 -3 -44 3 -68 19 -86 -30 -205 -141 -342 -81 -100 -155 -162 -275
-233 -49 -28 -88 -54 -88 -58 0 -17 43 -19 98 -4 33 8 86 15 118 15 33 0 81 7
108 15 27 8 72 15 100 15 28 0 73 7 100 15 27 8 70 15 95 15 25 0 68 7 95 15
27 8 67 15 88 15 50 0 194 42 293 85 28 12 104 37 170 54 66 18 167 48 225 68
110 36 120 39 239 73 159 45 321 158 321 225 0 7 6 26 14 42 8 15 21 46 29 68
39 104 95 236 124 288 30 56 22 89 -42 168 -33 41 -66 80 -75 89 -8 8 -54 60
-102 115 -140 162 -175 198 -187 194 -9 -4 170 -261 218 -314 42 -45 82 -128
93 -194 11 -66 11 -69 -16 -112 -52 -85 -131 -193 -149 -203 -32 -19 -47 17
-48 118 0 50 -3 98 -7 107 -8 19 -127 119 -142 119 -5 0 -10 5 -10 10 0 6 -4
10 -10 10 -16 0 -12 -13 26 -70 66 -103 74 -140 53 -242 -11 -51 -75 -196
-101 -229 -24 -29 -99 -78 -113 -73 -14 6 -29 39 -40 89 l-7 30 -19 -25 c-10
-14 -22 -36 -25 -50 -13 -50 -134 -153 -246 -209 -113 -56 -197 -74 -348 -75
-116 -1 -141 2 -175 19 -27 13 -41 28 -43 43 -5 33 -26 37 -65 13 -41 -25 -60
-26 -81 -5 -22 22 -20 47 14 152 66 204 144 327 191 302 11 -6 19 -21 19 -35
0 -14 4 -25 9 -25 18 0 74 54 88 85 18 40 29 57 86 133 26 35 47 73 47 86 0
31 -24 61 -43 53 -28 -11 -36 23 -30 134 5 84 2 118 -11 157 -9 28 -16 63 -16
79 0 15 -6 40 -14 55 -8 15 -17 42 -21 60 -7 29 -9 30 -16 13 -4 -11 -8 -57
-8 -102 -1 -117 -36 -253 -95 -371 -40 -82 -84 -128 -131 -136 -57 -11 -78 9
-104 99 -23 76 -23 97 -5 190 5 26 -3 42 -51 105 -32 41 -96 116 -144 165 -47
50 -103 109 -123 133 -36 41 -58 53 -58 31z"/>
<path d="M8340 1573 c0 -21 20 -78 39 -113 28 -51 135 -170 153 -170 26 0 -48
150 -113 226 -55 64 -79 82 -79 57z"/>
<path d="M5680 1086 c0 -30 144 -129 215 -147 40 -10 48 -9 65 6 16 15 18 21
8 33 -13 16 -171 92 -191 92 -7 0 -21 7 -31 15 -25 19 -66 19 -66 1z"/>
<path d="M1259 958 c-29 -24 -97 -74 -150 -113 -226 -162 -459 -363 -459 -396
0 -35 40 -68 108 -88 37 -11 83 -22 102 -23 34 -3 34 -2 32 33 -3 34 0 39 45
67 27 16 81 40 119 52 38 13 73 27 79 32 5 4 17 8 26 8 9 0 39 6 65 14 56 16
171 42 227 51 41 7 47 23 17 50 -11 10 -20 28 -20 40 0 12 9 31 20 43 43 46
12 43 -70 -8 -119 -74 -176 -92 -203 -65 -32 32 -14 74 76 177 45 52 51 65 55
113 3 34 1 55 -6 55 -6 0 -34 -19 -63 -42z"/>
<path d="M2121 790 c-41 -35 -91 -60 -120 -60 -11 0 -32 12 -46 28 -23 25 -32
27 -98 27 -39 1 -93 5 -118 9 l-46 8 -26 -45 c-15 -25 -47 -63 -72 -85 -24
-21 -42 -42 -38 -46 11 -11 97 -6 156 9 32 8 79 15 105 15 26 1 67 5 92 11 25
6 126 13 225 17 160 6 180 9 183 25 6 29 -106 118 -146 117 -9 -1 -32 -14 -51
-30z"/>
<path d="M1971 142 c-18 -34 13 -62 67 -62 26 0 70 -7 97 -15 58 -18 104 -13
85 10 -7 8 -22 17 -33 21 -27 8 -106 41 -129 54 -30 17 -76 12 -87 -8z"/>
</g>
</svg>
