<?xml version="1.0" standalone="no"?>
<!DOCTYPE svg PUBLIC "-//W3C//DTD SVG 20010904//EN"
 "http://www.w3.org/TR/2001/REC-SVG-20010904/DTD/svg10.dtd">
<svg version="1.0" xmlns="http://www.w3.org/2000/svg"
 width="176.000000pt" height="300.000000pt" viewBox="0 0 176.000000 300.000000"
 preserveAspectRatio="xMidYMid meet">
<metadata>
Created by potrace 1.10, written by Peter Selinger 2001-2011
</metadata>
<g transform="translate(0.000000,300.000000) scale(0.050000,-0.050000)"
fill="#000000" stroke="none">
<path d="M1175 5709 c-41 -40 -75 -82 -74 -95 1 -13 15 -4 32 21 18 25 41 45
52 45 11 0 9 -13 -5 -30 -20 -24 -20 -30 0 -30 14 0 37 16 52 35 24 32 25 31
15 -10 -14 -55 15 -58 61 -7 33 37 33 39 -5 51 -22 7 -43 30 -47 52 -5 34 -15
30 -81 -32z"/>
<path d="M998 5597 c-39 -73 -34 -296 7 -326 38 -27 50 -171 15 -171 -11 0
-20 -13 -20 -30 0 -18 19 -30 49 -30 27 0 55 -10 62 -22 20 -32 156 114 220
237 22 42 65 -32 58 -99 l-8 -81 60 83 c33 46 83 94 110 106 27 12 47 37 44
54 -4 24 9 31 55 26 52 -6 56 -3 30 22 -20 19 -61 25 -125 19 -98 -9 -119 -33
-64 -73 28 -21 27 -27 -9 -60 -39 -36 -40 -35 -53 16 -14 54 -38 67 -59 32 -7
-12 -21 -16 -31 -9 -10 6 -47 -30 -82 -79 -70 -99 -97 -102 -97 -9 0 41 11 64
35 70 76 20 150 183 100 221 -73 54 -170 -6 -188 -117 -27 -171 -52 -79 -51
188 1 84 -23 97 -58 32z"/>
<path d="M2047 5383 c-45 -29 -103 -67 -130 -84 -161 -107 -265 -162 -227
-119 l40 44 -80 -46 c-44 -25 -116 -74 -160 -107 -44 -33 -84 -63 -88 -66 -5
-3 -3 -11 4 -18 7 -7 26 -2 42 11 23 19 30 17 35 -9 6 -27 23 -19 83 39 85 80
105 89 85 38 -12 -31 -10 -31 23 -2 20 17 113 68 206 113 94 45 184 90 200
101 17 11 54 25 83 31 29 6 58 26 65 44 18 45 -1 58 -38 27 -24 -20 -37 -21
-55 -3 -17 17 -17 23 1 23 13 0 24 9 24 20 0 30 -21 23 -113 -37z"/>
<path d="M1850 5338 c-157 -118 -135 -115 75 11 35 21 47 51 20 50 -8 0 -51
-27 -95 -61z"/>
<path d="M890 5270 c16 -101 50 -140 50 -58 0 33 -14 78 -31 99 -29 37 -31 34
-19 -41z"/>
<path d="M660 5200 c-46 -64 -27 -84 24 -25 46 54 60 85 39 85 -11 0 -40 -27
-63 -60z"/>
<path d="M723 5147 c-64 -75 -77 -107 -44 -107 10 0 61 -45 113 -100 109 -115
114 -117 144 -50 20 44 18 50 -14 50 -49 0 -88 46 -61 73 17 17 -46 207 -69
207 -4 0 -35 -33 -69 -73z"/>
<path d="M2461 5059 c-69 -97 -87 -183 -20 -99 55 68 104 162 92 174 -6 5 -38
-28 -72 -75z"/>
<path d="M2000 5054 c-50 -35 -116 -89 -148 -119 -31 -30 -64 -50 -72 -45 -9
5 -27 -4 -40 -20 -14 -17 -35 -30 -47 -30 -134 -1 -198 -276 -87 -372 40 -34
80 -48 137 -48 62 0 79 -7 71 -28 -18 -46 7 -52 81 -21 88 36 96 36 65 -1 -14
-17 -61 -36 -104 -43 -52 -8 -72 -19 -59 -32 11 -11 37 -13 57 -5 20 9 46 18
58 21 55 12 128 75 111 97 -10 12 -14 49 -9 82 4 33 10 93 13 134 10 168 41
108 63 -124 l13 -130 -76 -67 c-47 -40 -58 -57 -30 -43 83 41 67 6 -23 -51
-54 -34 -86 -68 -82 -87 20 -109 23 -182 7 -182 -11 0 -19 45 -19 100 0 79 -7
100 -32 100 -21 0 -28 11 -20 32 19 48 -172 188 -257 188 -17 0 -31 7 -31 16
0 22 -178 109 -238 116 -81 10 -4 -50 121 -94 59 -20 89 -36 67 -35 -22 1 -62
0 -90 -1 l-50 -3 56 -50 57 -50 -52 -61 c-28 -34 -51 -72 -51 -85 0 -12 23 4
51 37 l52 60 -12 -54 c-8 -39 -1 -59 23 -73 33 -19 33 -22 1 -58 -23 -24 -28
-44 -15 -57 20 -20 4 -59 -108 -258 -45 -80 -47 -90 -12 -50 l43 50 -11 -50
c-6 -27 -12 -66 -12 -85 0 -19 -9 -35 -19 -35 -11 0 -14 15 -7 33 10 27 5 31
-26 18 -128 -55 -191 -6 -83 63 38 24 159 263 148 291 -7 17 -11 15 -12 -5 -3
-42 -75 -132 -92 -115 -8 8 -3 28 11 45 22 26 20 29 -8 18 -26 -10 -22 5 18
64 58 86 85 108 130 106 20 0 17 -6 -9 -16 -21 -8 -30 -21 -19 -27 29 -18 76
16 59 43 -7 12 -35 22 -61 22 -70 0 -81 36 -30 104 l44 59 -44 46 c-23 26 -40
59 -37 74 8 37 -96 137 -143 137 -28 0 -44 -22 -60 -79 -26 -97 -71 -145 -127
-137 -56 8 -49 43 11 57 76 18 107 108 57 163 -49 52 -52 76 -11 76 17 0 30
-11 30 -25 0 -14 31 11 69 55 57 68 72 76 94 52 17 -17 18 -23 3 -14 -14 7
-33 -4 -46 -27 -12 -24 -14 -41 -2 -41 10 0 23 11 29 25 5 14 11 5 11 -20 2
-33 14 -45 49 -45 25 0 53 -6 60 -14 45 -44 85 -23 77 42 -4 37 7 94 25 129
39 77 78 85 41 8 -46 -95 -45 -167 2 -215 44 -44 52 -29 26 47 -30 85 -8 188
55 262 63 75 57 75 -161 -1 -97 -34 -243 -78 -323 -99 -80 -21 -169 -48 -198
-59 l-53 -20 51 -87 c58 -98 61 -113 26 -113 -14 0 -45 43 -69 95 -24 52 -85
148 -135 212 -50 65 -91 128 -90 140 0 13 20 -4 45 -37 115 -156 214 -215 214
-128 0 9 -11 13 -25 8 -14 -5 -70 44 -125 109 -98 117 -100 118 -117 69 -10
-28 -28 -46 -42 -41 -16 6 -22 -6 -16 -35 5 -25 20 -45 34 -45 15 0 22 16 16
41 -7 31 1 27 31 -18 30 -45 34 -65 16 -80 -37 -31 -135 -230 -113 -230 10 0
28 16 39 35 18 31 21 29 22 -15 1 -46 3 -47 28 -15 25 34 28 33 39 -8 l11 -44
40 49 c56 67 51 25 -9 -72 -27 -44 -49 -104 -49 -134 0 -29 -9 -59 -20 -66
-11 -7 -20 -36 -20 -65 0 -51 1 -51 32 -14 31 38 31 38 17 -1 -7 -22 -17 -58
-20 -80 -9 -54 -58 -186 -75 -203 -21 -21 -17 -47 7 -47 12 0 16 9 9 20 -7 11
-3 20 9 20 27 0 28 -54 1 -70 -12 -7 -14 -23 -6 -36 9 -17 4 -17 -17 1 -42 34
-50 20 -40 -75 5 -54 16 -79 32 -73 13 5 35 -8 48 -29 27 -45 -12 -55 -53 -14
-19 19 -24 -5 -23 -105 1 -86 7 -116 18 -89 9 22 11 48 5 58 -5 10 1 11 14 3
38 -23 105 48 90 95 -10 32 -6 37 22 27 35 -13 27 -4 -95 129 -28 31 -29 38
-6 38 34 0 126 -94 143 -146 9 -28 17 -31 39 -13 33 27 63 -22 38 -62 -10 -17
-3 -17 30 0 24 13 48 37 54 52 6 16 20 29 30 29 11 0 15 -7 10 -16 -6 -9 -3
-28 6 -43 13 -20 23 -15 42 21 38 70 58 178 34 178 -11 0 -9 13 5 30 14 17 34
30 45 30 11 0 33 16 47 35 44 58 34 -15 -13 -91 -22 -37 -43 -94 -47 -128 -4
-34 -22 -70 -40 -80 -17 -10 -32 -31 -32 -47 0 -34 -10 -36 -59 -9 -42 22
-101 -25 -62 -49 27 -17 27 -51 1 -51 -11 0 -20 13 -20 28 0 15 -13 33 -28 38
-41 16 -101 -34 -86 -72 7 -18 0 -57 -16 -87 -35 -68 -68 -13 -35 59 22 50
-18 107 -58 82 -27 -17 -11 -207 19 -226 16 -9 16 -119 1 -393 -11 -208 -16
-462 -10 -564 7 -110 4 -185 -7 -185 -10 0 -22 92 -25 205 -6 201 -7 201 -10
-55 -3 -148 3 -248 13 -233 9 14 22 26 29 25 41 -6 53 1 53 29 0 92 63 100
132 18 75 -88 82 -123 39 -180 -52 -69 -40 -152 19 -137 37 9 50 4 50 -18 0
-19 13 -27 35 -21 99 25 86 -69 -21 -147 -185 -135 -218 -152 -237 -122 -12
19 -16 14 -17 -17 0 -23 -16 -48 -35 -54 -19 -6 -53 -25 -75 -41 -40 -30 -40
-27 -34 569 4 407 -1 599 -15 599 -14 0 -21 -198 -21 -607 l0 -607 -195 -122
c-107 -67 -211 -128 -230 -135 -19 -7 -35 -21 -35 -31 0 -37 66 -15 223 73 88
51 166 87 172 81 6 -7 42 11 78 39 37 28 67 46 67 40 0 -6 20 9 44 33 42 42
43 42 58 5 22 -57 21 -125 -2 -139 -12 -7 -20 -6 -18 4 1 9 2 41 0 72 -2 62
-42 55 -42 -7 0 -22 -9 -39 -20 -39 -11 0 -20 -38 -20 -85 1 -66 5 -78 22 -55
16 22 18 9 10 -52 -6 -45 -6 -87 1 -94 27 -27 66 48 78 148 6 59 21 118 32
132 11 13 15 50 8 81 -8 35 -1 71 17 95 40 55 61 25 35 -49 -15 -43 -15 -61 0
-61 13 0 16 -20 7 -55 -49 -185 -50 -199 -11 -151 20 25 43 78 50 119 8 41 32
97 53 124 43 55 55 128 14 87 -29 -29 -56 -31 -56 -5 0 30 143 161 176 161 27
0 27 -4 1 -35 -62 -74 -102 -225 -60 -225 36 0 81 73 70 114 -11 43 22 126 51
126 9 0 18 -68 20 -151 2 -82 17 -218 33 -301 61 -321 11 -426 -264 -551 -166
-75 -155 -85 55 -47 92 16 213 29 269 30 117 0 149 24 149 110 0 34 9 71 21
83 25 25 39 287 15 287 -10 0 -33 -27 -52 -59 -18 -32 -47 -64 -64 -70 -16 -6
-42 -17 -57 -23 -15 -7 5 35 45 94 95 141 90 294 -20 673 -11 39 -4 47 50 58
35 7 68 20 74 30 16 26 88 20 88 -8 0 -14 14 1 30 32 17 32 30 79 30 105 0 29
12 48 30 48 17 0 30 9 30 19 0 11 15 14 34 7 30 -12 29 -15 -5 -27 -42 -16
-41 -16 62 -49 40 -13 18 -50 -30 -50 -20 0 -41 -19 -48 -43 -9 -37 -16 -40
-42 -18 -27 22 -31 19 -31 -27 0 -121 167 -4 201 141 29 124 25 139 -24 95
-42 -38 -43 -38 -16 6 15 24 43 48 63 53 20 5 36 26 36 47 0 21 25 115 56 210
30 94 52 182 48 194 -10 30 -44 28 -44 -3 0 -14 -26 -75 -57 -136 -40 -79 -54
-133 -50 -190 6 -76 6 -77 -15 -23 -21 53 -24 54 -49 20 -56 -73 -29 20 52
179 45 87 77 164 72 169 -10 10 -98 -120 -118 -174 -8 -24 -13 -22 -26 10 -42
112 -158 188 -238 158 -193 -74 -80 -513 124 -481 l64 10 -54 -47 c-30 -25
-59 -40 -65 -32 -5 8 -43 29 -82 48 -107 49 -124 81 -132 244 l-7 147 80 84
c63 67 90 82 131 74 44 -8 62 7 140 118 141 202 139 192 87 343 -52 151 -62
270 -21 255 45 -18 48 43 6 124 -31 61 -34 85 -16 103 19 19 17 22 -9 12 -22
-9 -41 1 -55 27 -34 62 -26 73 21 31 38 -34 37 -28 -12 69 -29 59 -44 101 -32
94 12 -8 40 -50 63 -95 23 -45 65 -103 93 -129 56 -52 59 -89 35 -447 -8 -127
-6 -141 13 -90 12 33 38 83 57 110 23 33 29 63 19 90 -28 71 -21 234 12 271
43 47 5 157 -42 118 -42 -35 -109 29 -109 104 0 38 -18 69 -58 98 -39 29 -54
55 -47 81 17 64 -12 42 -75 -57 -58 -94 -59 -94 -60 -35 l-1 60 -39 -50 c-22
-27 -39 -41 -40 -29 0 40 226 459 265 491 28 22 33 37 17 47 -12 7 -17 22 -11
33 7 11 42 -38 77 -108 36 -70 105 -184 154 -255 48 -70 94 -137 102 -148 9
-13 26 -6 46 19 24 30 35 33 43 14 6 -14 22 -37 36 -49 13 -13 20 -42 16 -66
-5 -23 4 -55 18 -71 15 -15 52 -61 82 -101 30 -41 90 -89 132 -108 68 -30 78
-42 75 -97 -4 -66 -88 -94 -108 -35 -7 21 0 22 34 4 84 -45 51 63 -35 116 -42
26 -94 75 -115 110 l-38 63 -6 -57 c-4 -31 6 -71 21 -90 16 -18 35 -49 41 -68
7 -19 20 -35 30 -35 9 0 29 -31 44 -70 28 -71 48 -86 69 -51 12 19 141 -46
164 -83 14 -23 -29 -56 -73 -55 -23 0 -22 5 6 21 33 19 32 23 -10 57 -64 52
-147 -91 -90 -155 44 -49 43 -64 -6 -64 -23 0 -40 -13 -40 -32 0 -17 11 -28
25 -23 37 12 98 -54 83 -92 -7 -18 -3 -33 10 -33 12 0 22 17 22 39 0 21 9 44
20 51 11 7 14 -1 7 -19 -7 -20 9 -51 41 -81 43 -40 56 -44 65 -20 15 40 46 38
60 -5 7 -19 39 -93 72 -165 33 -71 167 -368 299 -660 192 -426 255 -546 319
-610 l81 -80 -14 124 c-11 101 -63 232 -274 690 -143 311 -265 584 -271 606
-6 22 -25 60 -40 85 -17 26 -24 65 -17 93 9 39 3 52 -30 63 -31 9 -36 19 -20
35 16 16 31 14 55 -10 22 -22 43 -27 65 -16 17 9 48 22 67 28 57 17 40 52 -25
52 -71 0 -73 6 -18 83 55 77 48 80 -75 33 -98 -38 -104 -44 -116 -127 -7 -49
-22 -93 -32 -100 -21 -13 -17 21 19 146 25 89 17 125 -25 125 -36 0 -94 -75
-81 -107 15 -39 -93 -123 -114 -89 -9 13 -7 35 3 47 11 14 9 32 -6 48 -20 22
-18 24 11 14 26 -9 52 5 87 47 53 63 103 76 142 37 18 -18 27 -16 36 9 13 34
-50 157 -155 302 -45 63 -56 99 -56 187 0 81 -12 125 -45 172 -44 61 -45 78
-46 543 -2 612 -6 730 -24 730 -8 0 -13 -208 -11 -462 2 -254 1 -459 -3 -455
-32 36 -210 721 -202 778 9 58 8 61 -7 19 -10 -27 -19 -39 -20 -25 -1 14 -11
25 -22 25 -12 0 -12 -18 0 -51 39 -102 18 -117 -37 -29 -53 83 -53 181 0 148
18 -11 47 129 31 145 -7 6 -40 -9 -75 -34 -50 -36 -72 -41 -99 -24 -25 16 -41
16 -57 0 -14 -14 -23 -15 -23 -3 0 11 29 41 65 67 36 26 54 35 40 20 -34 -36
-32 -70 2 -42 15 13 34 16 43 8 9 -8 10 -4 2 10 -8 14 -5 25 6 25 12 0 35 27
52 60 41 80 8 78 -110 -6z m60 -216 c0 -25 -58 -61 -79 -49 -42 26 -22 71 29
66 28 -2 50 -10 50 -17z m-1386 -212 c-21 -68 -24 -70 -36 -25 -8 32 -2 58 19
74 42 34 42 34 17 -49z m1246 -40 c0 -14 -12 -26 -28 -26 -28 0 -56 89 -35
111 15 14 63 -50 63 -85z m264 -273 l3 -203 12 160 11 160 54 -140 c93 -240
184 -626 156 -660 -33 -40 -56 -22 -49 40 6 51 -18 67 -42 29 -7 -12 -35 -30
-62 -40 -27 -10 -62 -48 -77 -84 -16 -36 -29 -53 -29 -39 -1 14 14 55 33 90
19 35 32 72 29 82 -2 9 11 34 30 55 33 37 31 45 -38 173 -124 231 -159 380
-81 350 23 -9 28 -2 20 26 -34 113 -37 319 -5 261 21 -40 32 -119 35 -260z
m-984 -125 c0 -28 -5 -29 -35 -6 -32 25 -32 23 1 -15 32 -38 33 -46 6 -72 -17
-17 -25 -36 -18 -43 7 -6 1 -12 -14 -12 -15 0 -21 -6 -14 -13 8 -7 -2 -26 -21
-42 -23 -18 -24 -23 -5 -14 17 8 3 -13 -30 -46 -45 -45 -62 -52 -67 -29 -6 25
-10 25 -25 2 -13 -21 -17 -22 -18 -2 0 14 -16 43 -36 64 -35 38 -57 182 -34
220 16 25 70 2 70 -30 0 -33 141 5 166 44 23 37 74 32 74 -6z m800 -89 c-30
-54 -15 -68 40 -39 24 13 48 19 54 13 5 -6 -27 -29 -72 -52 -67 -34 -82 -36
-82 -12 0 42 67 179 76 154 4 -12 -4 -40 -16 -64z m93 -96 c-41 -45 -42 -63
-3 -63 17 0 30 -9 30 -20 0 -28 -25 -25 -69 7 -36 26 -36 28 6 70 52 52 82 58
36 6z m-597 -153 c-37 -76 -76 -117 -76 -80 0 14 103 170 112 170 4 0 -12 -40
-36 -90z m-809 -5 c-5 -132 -7 -145 -22 -145 -18 0 -16 167 4 198 20 33 21 29
18 -53z m643 -364 c6 -11 -3 -49 -22 -84 l-33 -64 -27 66 c-36 85 35 156 82
82z m216 -130 c25 -72 26 -87 4 -78 -27 10 -70 109 -70 161 0 52 36 7 66 -83z
m-366 -19 c28 -47 76 -125 108 -174 143 -216 194 -302 185 -312 -21 -21 -54
20 -166 208 -122 205 -189 210 -131 9 11 -40 27 -112 34 -159 9 -55 26 -90 47
-97 18 -5 75 -31 126 -58 106 -56 157 -62 157 -19 0 17 10 30 21 30 12 0 16
-9 9 -20 -22 -35 16 -21 64 23 25 24 46 34 46 22 0 -103 -161 -142 -308 -75
-60 28 -119 50 -132 50 -28 0 -71 105 -90 220 -19 114 -27 127 -62 98 -42 -34
-58 -6 -31 53 22 48 20 51 -19 38 -43 -13 -43 -13 -6 38 21 29 52 52 70 52 51
1 58 23 27 83 -68 131 -27 123 51 -10z m-257 -173 c31 -17 35 -28 16 -50 -15
-18 -18 -62 -9 -127 14 -103 1 -182 -30 -182 -10 0 -24 56 -32 125 -13 106
-17 117 -30 69 -10 -36 -5 -87 13 -138 16 -45 29 -89 29 -100 0 -36 -36 4 -48
55 -7 28 -42 77 -78 110 -35 33 -49 54 -31 48 22 -8 38 2 47 30 7 22 21 41 31
41 11 0 19 14 19 31 0 83 43 120 103 88z m166 -377 c7 -21 26 -44 43 -50 17
-7 24 -22 16 -35 -9 -14 -5 -18 9 -9 13 8 23 6 23 -5 0 -10 23 -24 51 -31 30
-8 45 -22 37 -35 -8 -13 -2 -18 14 -12 37 13 98 -20 98 -53 0 -44 -83 -135
-112 -124 -15 6 -27 4 -25 -4 13 -88 -80 -62 -143 39 -57 92 -105 124 -184
121 -46 -1 -55 6 -51 46 2 27 7 45 11 40 5 -4 27 10 49 31 23 20 49 33 59 27
9 -6 15 -3 11 6 -6 18 47 84 69 85 7 1 19 -16 25 -37z m-379 -244 c8 -22 8
-47 1 -54 -15 -15 -50 34 -51 71 0 41 36 29 50 -17z m270 -28 c0 -26 30 -95
166 -385 45 -95 42 -109 -21 -92 -34 9 -43 26 -42 74 1 35 -36 142 -81 238
-93 200 -92 195 -52 195 17 0 30 -13 30 -30z m-290 -211 c13 -126 6 -182 -18
-157 -21 20 -36 298 -17 298 12 0 27 -64 35 -141z m658 -611 c19 -49 14 -68
-16 -68 -31 0 -58 54 -41 82 17 28 43 22 57 -14z"/>
<path d="M1100 4850 c-42 -50 -3 -62 45 -14 35 35 38 44 12 44 -18 0 -43 -14
-57 -30z"/>
<path d="M403 4749 c-13 -28 -23 -77 -23 -110 0 -32 -9 -59 -20 -59 -11 0 -20
-11 -19 -25 0 -23 24 2 109 114 34 44 41 100 10 81 -11 -7 -14 1 -8 19 20 52
-24 34 -49 -20z"/>
<path d="M444 4529 c-45 -93 -59 -153 -26 -118 28 31 101 209 85 209 -8 0 -35
-41 -59 -91z"/>
<path d="M434 4229 c-30 -28 -50 -60 -43 -71 12 -19 129 78 129 107 0 28 -30
15 -86 -36z"/>
<path d="M432 4135 c-31 -49 -39 -82 -33 -145 4 -37 5 -37 18 -4 33 85 47 7
44 -255 -4 -373 13 -340 26 50 6 171 12 320 14 330 15 77 -26 91 -69 24z"/>
<path d="M400 3560 c0 -120 8 -200 20 -200 12 0 20 80 20 200 0 120 -8 200
-20 200 -12 0 -20 -80 -20 -200z"/>
<path d="M709 3478 c-7 -12 -6 -29 4 -39 24 -24 76 11 58 39 -17 28 -45 28
-62 0z"/>
<path d="M417 3297 c-4 -26 -3 -78 3 -117 l11 -70 15 86 c8 47 7 100 -3 118
-14 25 -19 23 -26 -17z"/>
<path d="M502 3206 c4 -113 34 -165 36 -62 1 51 -7 99 -18 106 -12 7 -19 -11
-18 -44z"/>
<path d="M583 3100 c1 -100 3 -104 17 -42 9 38 9 87 -1 110 -12 30 -16 11 -16
-68z"/>
<path d="M360 3059 c0 -36 8 -56 20 -49 11 7 20 -8 20 -34 1 -25 19 -109 40
-186 l40 -140 -12 110 c-22 206 -29 250 -54 305 -31 72 -54 70 -54 -6z"/>
<path d="M531 2850 c15 -179 46 -273 46 -140 0 55 -13 136 -28 180 l-28 80 10
-120z"/>
<path d="M340 2788 c0 -43 10 -91 22 -108 15 -22 18 -4 10 68 -13 121 -32 145
-32 40z"/>
<path d="M1873 2799 c-6 -16 -15 -74 -21 -130 -7 -55 -30 -148 -51 -206 -25
-69 -30 -103 -15 -98 13 5 27 28 30 52 4 23 19 43 35 43 16 0 23 -12 16 -30
-6 -16 -2 -30 10 -30 30 0 48 36 30 65 -8 13 -18 60 -21 105 -5 64 -2 73 15
45 12 -20 30 -31 40 -24 10 6 13 -3 7 -20 -7 -17 -3 -31 8 -31 45 0 39 65 -16
173 -35 69 -62 104 -67 86z"/>
<path d="M1622 2429 l-87 -87 52 -63 c35 -40 56 -53 61 -36 7 26 39 142 63
232 15 57 15 58 -89 -46z"/>
<path d="M2546 2320 c7 -38 17 -124 24 -190 22 -231 33 -291 48 -281 9 5 23
-127 31 -295 23 -459 50 -547 39 -124 -11 398 -22 516 -50 499 -10 -7 -18 67
-18 172 0 157 -6 190 -43 236 l-42 53 11 -70z"/>
<path d="M2460 2180 c0 -33 9 -60 20 -60 11 0 20 27 20 60 0 33 -9 60 -20 60
-11 0 -20 -27 -20 -60z"/>
<path d="M2520 1951 c0 -60 9 -114 20 -121 12 -8 20 33 20 109 0 67 -9 121
-20 121 -11 0 -20 -49 -20 -109z"/>
<path d="M2463 1815 c-2 -92 5 -155 17 -155 23 0 24 92 1 220 -15 83 -16 78
-18 -65z"/>
<path d="M704 1850 c-26 -30 -38 -63 -31 -85 9 -24 6 -29 -9 -15 -11 11 -25
47 -29 80 -5 33 -8 -45 -7 -172 1 -167 9 -230 25 -224 28 11 48 148 25 177
-22 29 -12 68 38 149 70 111 61 174 -12 90z"/>
<path d="M2700 1732 c0 -60 9 -115 20 -122 12 -8 20 29 20 98 0 60 -9 115 -20
122 -12 8 -20 -29 -20 -98z"/>
<path d="M2560 1605 c0 -210 24 -451 61 -622 39 -178 55 -87 29 157 -14 127
-32 327 -40 445 -17 268 -50 281 -50 20z"/>
<path d="M733 1717 c-15 -55 -15 -182 0 -137 5 17 19 49 31 73 13 28 14 55 1
77 -17 31 -21 29 -32 -13z"/>
<path d="M1920 1540 c-14 -67 -21 -126 -15 -132 13 -13 75 165 75 216 0 79
-36 29 -60 -84z"/>
<path d="M2136 1541 c-6 -39 -1 -59 12 -55 30 10 40 74 16 98 -12 12 -22 -3
-28 -43z"/>
<path d="M2213 1584 c-21 -33 -27 -196 -8 -216 28 -28 37 8 31 125 -4 71 -13
107 -23 91z"/>
<path d="M1600 1530 c-26 -27 -59 -50 -73 -50 -33 0 -33 0 0 -83 15 -37 33
-84 41 -105 19 -56 33 -30 72 137 38 163 32 178 -40 101z"/>
<path d="M2768 965 c1 -322 8 -585 14 -585 27 0 39 219 31 566 -5 200 -3 301
4 224 13 -139 13 -140 30 -57 17 90 0 261 -29 278 -10 6 -19 -5 -21 -25 -2
-20 -10 14 -17 74 -7 61 -13 -153 -12 -475z"/>
<path d="M1850 1320 c-21 -41 -27 -84 -19 -131 20 -106 62 -82 53 31 -2 17 5
55 15 85 26 77 -11 89 -49 15z"/>
<path d="M2073 1287 c-40 -41 4 -124 51 -95 16 10 11 19 -15 28 -32 12 -30 15
17 24 l54 10 1 -572 c1 -314 10 -590 19 -612 10 -24 18 216 19 583 1 550 -3
624 -31 635 -41 16 -98 15 -115 -1z"/>
<path d="M1621 1231 c-15 -26 -20 -65 -12 -85 16 -42 69 32 70 99 1 50 -28 43
-58 -14z"/>
<path d="M1531 1094 c-38 -57 -63 -174 -37 -174 18 0 106 165 106 201 0 35
-38 20 -69 -27z"/>
<path d="M2840 945 c1 -41 9 -111 20 -155 12 -52 11 -107 -2 -158 -26 -95 7
-146 53 -83 37 50 37 78 -1 64 -16 -7 -30 -10 -30 -7 0 2 8 33 19 69 10 36 11
65 2 65 -8 0 -11 23 -6 50 5 28 1 50 -10 50 -12 0 -16 37 -10 90 7 60 3 90
-12 90 -13 0 -23 -32 -23 -75z"/>
<path d="M827 948 c-8 -21 -44 -109 -80 -197 -37 -87 -62 -162 -57 -168 5 -5
15 6 22 24 7 18 24 33 39 33 35 0 76 74 61 111 -5 15 4 69 21 119 30 87 24
159 -6 78z"/>
<path d="M1013 871 c-40 -61 -41 -71 -5 -71 15 0 34 24 41 52 18 72 3 79 -36
19z"/>
<path d="M1673 844 c-34 -38 -46 -144 -16 -144 18 0 71 158 58 172 -5 5 -24
-8 -42 -28z"/>
<path d="M2720 811 c0 -27 9 -54 20 -61 12 -7 20 13 20 49 0 33 -9 61 -20 61
-11 0 -20 -22 -20 -49z"/>
<path d="M3115 788 c-22 -22 -18 -104 5 -118 11 -7 26 2 33 20 14 38 -17 119
-38 98z"/>
<path d="M1410 741 c14 -45 56 -101 76 -101 4 0 9 28 10 62 1 43 -6 58 -25 51
-14 -5 -37 1 -51 14 -19 18 -21 12 -10 -26z"/>
<path d="M1380 559 c-33 -78 -19 -90 58 -50 67 35 81 79 30 99 -52 20 -62 15
-88 -49z"/>
<path d="M2927 478 c11 -67 26 -92 45 -73 18 18 -12 135 -35 135 -11 0 -15
-28 -10 -62z"/>
</g>
</svg>
