<?xml version="1.0" standalone="no"?>
<!DOCTYPE svg PUBLIC "-//W3C//DTD SVG 20010904//EN"
 "http://www.w3.org/TR/2001/REC-SVG-20010904/DTD/svg10.dtd">
<svg version="1.0" xmlns="http://www.w3.org/2000/svg"
 width="756.000000pt" height="900.000000pt" viewBox="0 0 756.000000 900.000000"
 preserveAspectRatio="xMidYMid meet">
<metadata>
Created by potrace 1.10, written by Peter Selinger 2001-2011
</metadata>
<g transform="translate(0.000000,900.000000) scale(0.100000,-0.100000)"
fill="#000000" stroke="none">
<path d="M2828 8338 c7 -7 12 -20 12 -30 0 -11 6 -31 14 -46 7 -15 16 -39 20
-54 8 -34 -11 -38 -37 -8 -9 11 -24 20 -33 20 -14 0 -16 -8 -12 -45 7 -58 -11
-60 -59 -7 l-33 37 25 -49 c14 -27 25 -53 25 -58 0 -29 49 -107 98 -155 31
-32 62 -65 67 -75 6 -10 44 -68 87 -130 79 -116 164 -257 178 -294 12 -30 -12
-63 -35 -49 -9 6 -42 59 -74 118 -61 115 -77 140 -102 166 -29 29 -91 125
-115 179 -25 58 -55 71 -54 25 1 -16 -2 -40 -5 -54 -5 -19 0 -38 17 -65 13
-22 30 -53 37 -71 17 -41 37 -59 86 -75 34 -11 45 -23 82 -88 83 -146 89 -173
46 -193 -56 -24 -59 -65 -8 -96 31 -18 35 -25 35 -61 0 -39 3 -43 38 -57 39
-15 92 -83 144 -186 12 -23 48 -88 81 -145 l59 -103 -58 -87 c-31 -48 -66 -97
-76 -109 -18 -19 -20 -36 -19 -148 0 -70 3 -136 6 -146 8 -24 -36 -68 -98 -98
-48 -23 -73 -26 -82 -11 -10 16 -117 66 -156 74 -38 7 -69 35 -112 104 -17 25
-35 42 -47 42 -28 0 -50 38 -50 88 0 30 -4 42 -12 40 -9 -3 -14 -32 -16 -86
-3 -93 9 -127 76 -203 22 -25 42 -52 43 -60 2 -7 -5 -42 -15 -76 -10 -34 -16
-69 -13 -77 7 -17 13 -20 60 -30 15 -4 27 -13 27 -21 0 -31 -211 -106 -253
-89 -9 3 -27 0 -40 -8 -20 -14 -82 -27 -149 -33 -16 -1 -34 -3 -42 -4 -8 0
-19 -14 -25 -31 -5 -16 -17 -30 -25 -30 -8 0 -25 -13 -38 -29 -43 -55 -88
-118 -88 -124 0 -4 -13 -28 -29 -54 -16 -27 -36 -69 -46 -95 -12 -34 -29 -55
-59 -75 -22 -15 -42 -31 -44 -35 -5 -11 -72 -10 -72 1 0 18 -69 34 -98 23 -15
-6 -39 -13 -54 -16 -15 -4 -32 -16 -39 -27 -9 -17 -6 -27 15 -58 16 -22 24
-45 20 -54 -11 -29 -104 -73 -104 -49 0 4 -4 13 -9 21 -12 19 -51 -3 -51 -29
0 -27 -34 -42 -75 -34 -44 8 -55 28 -55 99 0 66 -22 115 -50 115 -26 0 -60
-55 -60 -97 0 -43 -18 -80 -41 -86 -13 -4 -19 -14 -19 -33 0 -15 -12 -52 -26
-81 -25 -53 -25 -56 -9 -95 20 -51 15 -65 -42 -108 -72 -53 -166 -147 -155
-154 5 -3 15 1 22 9 7 8 18 15 24 16 6 0 38 20 71 45 95 70 127 84 191 84 32
0 71 4 88 9 17 5 56 16 86 25 30 8 78 23 105 32 28 8 72 18 98 21 26 3 50 10
53 14 3 5 20 9 38 9 19 0 53 7 76 15 23 8 54 15 69 15 15 0 101 25 191 54 166
55 248 79 330 98 25 6 49 14 54 19 6 5 22 9 38 9 15 0 42 6 60 14 18 8 52 20
75 27 24 6 50 20 59 30 15 17 15 19 1 25 -9 3 -36 -1 -59 -9 -24 -8 -77 -25
-118 -37 -41 -12 -86 -26 -100 -31 -25 -9 -126 -34 -190 -48 -19 -4 -51 -13
-70 -19 -119 -37 -180 -42 -180 -14 -1 9 -9 35 -20 57 -25 53 -25 56 10 90 16
15 50 58 74 95 34 50 70 85 142 140 53 40 116 81 139 91 23 10 93 53 155 94
96 64 224 135 244 135 3 0 35 -27 71 -59 36 -33 75 -63 86 -66 24 -8 119 34
119 52 0 6 -8 18 -19 25 -40 28 -111 116 -105 131 3 8 25 28 50 43 33 21 47
38 54 65 11 40 104 129 135 129 15 0 17 -7 11 -51 -4 -27 -4 -78 0 -111 7 -58
10 -64 63 -114 56 -54 146 -108 162 -99 5 3 6 32 3 63 -5 46 -3 60 10 71 13
11 16 11 20 0 9 -33 26 -128 31 -182 5 -56 4 -59 -33 -99 -47 -49 -67 -45 -58
13 9 55 -6 82 -71 130 -32 24 -73 57 -91 73 -27 26 -34 28 -42 16 -11 -17 -12
-45 -4 -76 3 -11 41 -44 85 -73 43 -29 79 -57 79 -62 0 -14 -46 -10 -83 7 -18
9 -43 31 -56 50 -13 19 -29 33 -35 31 -6 -2 -14 -26 -18 -53 -7 -51 -30 -170
-47 -238 -5 -22 -26 -56 -49 -80 -25 -26 -48 -65 -62 -106 -13 -36 -29 -72
-37 -81 -7 -8 -13 -27 -13 -42 0 -14 -4 -29 -10 -32 -5 -3 -10 -22 -10 -40 0
-45 -25 -119 -61 -178 -20 -33 -29 -60 -29 -90 0 -24 -14 -86 -30 -138 -17
-52 -34 -113 -37 -137 -3 -23 -9 -45 -13 -47 -13 -8 -28 18 -33 60 -8 65 -24
115 -43 136 -28 31 -34 10 -23 -71 6 -41 13 -120 16 -176 l4 -101 -39 -34
c-21 -19 -72 -61 -112 -94 -40 -33 -96 -81 -124 -106 -28 -26 -71 -63 -96 -83
-25 -20 -56 -46 -70 -58 -115 -97 -153 -130 -205 -179 -33 -31 -92 -83 -131
-117 -74 -63 -128 -121 -120 -129 4 -5 80 45 196 127 19 14 53 41 75 61 52 47
100 86 262 209 72 55 138 106 145 113 7 7 33 28 58 47 25 19 64 51 87 72 72
64 73 63 103 -132 10 -69 27 -154 36 -190 9 -36 19 -96 23 -134 4 -47 11 -71
20 -74 12 -4 13 9 7 74 -4 44 -10 126 -12 184 -2 58 -9 138 -14 178 -6 40 -10
102 -10 138 0 80 19 86 52 17 13 -26 28 -49 34 -50 22 -7 69 45 108 118 33 60
40 85 44 145 4 70 7 75 48 121 45 49 61 83 49 102 -7 13 -45 -4 -58 -25 -12
-21 -45 -17 -52 6 -11 36 198 432 259 489 l25 24 7 -26 c3 -15 -1 -47 -10 -74
-9 -25 -16 -68 -16 -94 0 -54 -33 -227 -49 -257 -17 -32 -13 -88 9 -129 11
-21 20 -43 20 -50 0 -6 10 -28 22 -48 23 -40 43 -112 62 -217 6 -36 14 -70 19
-74 4 -4 7 -16 7 -27 0 -43 129 -406 181 -508 18 -35 77 -196 149 -399 18 -52
34 -113 34 -134 1 -35 -4 -43 -44 -73 -25 -18 -68 -44 -97 -58 -60 -28 -83
-57 -83 -103 0 -83 92 -151 111 -82 7 24 7 24 8 2 1 -15 12 -28 36 -39 38 -18
95 -96 95 -129 0 -22 63 -76 167 -143 55 -34 72 -51 70 -66 -2 -21 -23 -24
-131 -15 -67 6 -73 -15 -11 -32 98 -26 66 -82 -35 -62 -52 11 -54 8 -17 -33
14 -16 18 -31 14 -60 -17 -130 -30 -184 -58 -237 -17 -33 -39 -101 -49 -150
-11 -50 -23 -109 -29 -131 -5 -22 -12 -74 -16 -115 -4 -41 -16 -92 -26 -112
-11 -21 -19 -58 -19 -86 0 -50 -35 -160 -70 -217 -9 -16 -23 -61 -29 -100 -24
-136 -33 -180 -42 -197 -19 -36 -8 -108 16 -108 7 0 15 -5 17 -10 2 -6 17 -12
33 -14 17 -3 62 -10 100 -16 39 -6 86 -13 105 -15 232 -23 284 -25 313 -16 18
6 55 13 83 17 42 5 52 3 57 -10 8 -20 117 -24 117 -3 0 6 12 23 26 37 16 15
22 26 14 28 -6 2 -17 -1 -23 -7 -15 -15 -67 -14 -67 1 0 6 7 20 17 30 18 20
15 21 -47 18 -26 -1 -42 5 -59 24 -29 31 -55 33 -99 6 -18 -11 -40 -20 -50
-20 -9 -1 -35 -9 -57 -20 -22 -11 -46 -19 -54 -20 -8 0 -22 -7 -31 -15 -10 -9
-30 -17 -46 -18 -26 -2 -29 1 -27 28 6 97 34 229 67 320 14 39 25 81 26 94 0
14 4 38 9 55 6 17 19 69 31 116 11 47 26 99 31 115 6 17 15 46 19 65 7 32 16
62 49 170 5 19 13 47 16 63 6 29 26 35 43 14 26 -30 70 -445 57 -536 -7 -52 0
-91 16 -91 5 0 35 17 67 38 53 36 80 48 180 86 156 59 181 73 168 95 -5 7 -14
7 -29 1 -27 -12 -153 -41 -187 -43 l-25 -2 4 100 c2 61 9 111 18 129 18 35 9
114 -18 168 -11 21 -19 47 -19 58 0 12 -9 40 -20 62 -11 23 -20 49 -20 59 0 9
-11 42 -25 73 l-25 57 26 67 c14 37 32 85 41 107 45 117 82 175 110 175 25 0
123 106 123 132 0 34 -30 58 -72 58 -20 0 -43 3 -52 6 -17 7 -21 41 -7 63 16
25 1 43 -30 36 -43 -10 -49 0 -32 52 44 140 54 222 48 393 -7 184 -3 202 69
352 20 41 36 78 36 82 0 3 13 34 29 68 95 201 155 369 171 474 6 43 16 95 23
114 11 35 27 129 28 164 0 30 -43 85 -84 106 -30 16 -65 21 -175 26 -143 6
-212 18 -212 35 0 12 266 6 342 -8 26 -4 58 -18 72 -30 15 -13 31 -23 36 -23
24 0 2 171 -26 201 -12 14 -13 21 -4 36 10 15 9 32 -4 82 -20 80 -20 88 4 96
10 3 44 35 75 70 45 51 54 67 47 82 -5 10 -19 45 -32 78 -12 33 -28 74 -35 92
-8 18 -12 46 -8 66 4 30 1 38 -19 51 -15 10 -36 43 -52 84 -15 37 -34 80 -42
95 -8 16 -14 34 -14 42 0 7 -21 63 -46 124 -25 62 -44 121 -41 131 3 11 -1 24
-9 30 -7 7 -18 28 -25 48 -6 20 -15 41 -20 47 -5 5 -9 21 -9 36 0 15 -11 49
-24 76 -14 26 -40 93 -59 148 -19 55 -40 112 -47 127 -12 25 -9 32 26 85 22
32 42 65 46 75 9 23 32 14 48 -20 28 -62 39 -88 44 -113 3 -15 14 -37 25 -50
l18 -23 31 34 c43 47 51 31 13 -28 -33 -52 -38 -81 -19 -100 6 -6 13 -32 14
-56 2 -25 14 -70 29 -101 14 -31 25 -67 25 -80 0 -19 5 -25 23 -25 12 0 27 -4
33 -8 13 -8 54 -82 54 -96 0 -13 83 -225 114 -291 13 -27 29 -64 36 -82 7 -18
19 -38 27 -44 8 -7 20 -27 28 -46 8 -18 37 -57 65 -87 27 -29 50 -56 50 -59 0
-11 121 -165 193 -245 42 -47 47 -85 12 -89 -15 -2 -34 16 -70 65 -27 38 -64
79 -83 93 -18 13 -57 43 -87 67 -58 46 -70 50 -79 27 -3 -9 16 -36 52 -72 73
-73 122 -134 122 -151 0 -16 55 -87 118 -154 42 -44 44 -48 37 -90 -4 -23 -8
-67 -8 -96 -2 -64 15 -82 79 -82 24 0 46 -5 50 -11 3 -6 -4 -46 -16 -89 -25
-87 -22 -110 13 -110 28 0 52 38 62 97 12 73 28 74 88 8 29 -32 59 -68 67 -79
42 -60 220 -279 269 -331 31 -33 66 -73 78 -90 33 -46 38 -23 7 32 -37 64
-182 272 -210 301 -12 12 -28 37 -35 55 -7 17 -28 52 -48 77 -20 24 -45 57
-56 72 -11 14 -39 52 -63 82 l-42 56 20 59 c11 33 25 72 31 88 7 15 17 42 24
58 54 131 68 179 56 196 -14 23 -14 56 -1 64 6 3 10 14 10 23 -1 14 -2 14 -12
-3 -6 -11 -14 -22 -18 -25 -11 -8 -80 -160 -80 -175 0 -21 -34 -75 -45 -72
-14 5 -25 75 -19 118 5 33 1 40 -45 84 -38 36 -58 66 -81 124 -60 146 -76 169
-131 190 -18 6 -28 19 -33 41 -5 29 -8 31 -37 25 -24 -5 -30 -4 -27 6 3 8 15
15 27 17 19 3 22 8 17 28 -3 13 -9 36 -12 52 -4 15 -11 33 -17 40 -13 17 -62
15 -77 -2 -6 -8 -18 -12 -26 -9 -23 9 2 31 39 35 27 3 33 8 35 32 2 16 -2 32
-10 37 -18 12 -110 -1 -126 -18 -15 -15 -50 -17 -70 -4 -10 6 -8 10 10 14 12
4 33 7 46 7 12 0 22 4 22 9 0 5 16 12 35 15 60 12 65 50 23 171 -31 86 -93
180 -162 244 -14 14 -26 31 -26 38 0 8 -6 24 -14 36 -18 28 -5 64 28 76 13 6
26 16 29 23 3 7 6 3 6 -9 1 -35 23 -27 61 23 19 26 41 52 48 59 6 8 12 17 12
21 0 4 8 16 17 26 14 16 15 23 5 39 -13 20 -9 39 9 39 5 0 9 -7 9 -15 0 -8 5
-15 10 -15 13 0 13 23 0 36 -12 12 -3 44 11 44 5 0 9 -9 9 -20 0 -11 3 -20 8
-20 7 0 72 93 72 104 0 3 36 50 80 103 44 54 131 175 194 268 62 94 142 209
177 257 166 226 220 303 280 401 53 85 54 87 39 87 -5 0 -10 -6 -10 -13 0 -6
-13 -18 -29 -25 -21 -9 -45 -40 -85 -110 -31 -53 -78 -128 -105 -167 -28 -38
-79 -113 -116 -165 -36 -52 -85 -122 -110 -155 -24 -33 -56 -78 -72 -100 -64
-92 -115 -155 -176 -216 -59 -61 -120 -133 -157 -188 -19 -29 -45 -61 -148
-184 -45 -55 -82 -105 -82 -112 0 -15 -41 -28 -52 -17 -5 5 -17 35 -29 68 -11
32 -25 63 -30 69 -12 12 -11 59 2 88 9 21 8 30 -10 53 -31 43 -49 216 -27 269
18 42 20 128 6 223 -5 35 -6 70 -4 77 10 25 229 185 254 185 15 0 13 -10 -15
-64 -23 -45 -25 -60 -25 -180 1 -132 16 -226 39 -234 18 -6 41 18 41 44 0 12
18 44 40 69 28 32 39 53 36 68 -8 38 -19 181 -17 212 3 36 39 93 101 160 26
27 53 64 61 80 18 38 72 65 152 75 34 4 88 20 120 35 49 23 63 26 84 16 33
-15 51 -3 77 50 25 52 119 123 151 113 41 -12 78 -3 112 26 18 17 44 30 57 30
16 0 34 16 62 56 21 30 51 68 66 83 35 37 67 100 75 147 5 31 4 36 -9 31 -9
-3 -20 -1 -25 4 -4 4 -24 6 -44 3 -28 -5 -38 -13 -47 -36 -9 -24 -16 -29 -38
-26 -20 2 -30 11 -37 33 -13 38 -43 70 -52 56 -9 -16 -23 -13 -46 10 -27 27
-37 16 -16 -20 9 -15 19 -45 22 -67 6 -35 3 -44 -30 -82 -20 -23 -56 -55 -79
-72 -42 -28 -46 -29 -132 -23 -105 7 -124 -3 -124 -65 0 -67 -9 -79 -99 -139
-47 -32 -97 -64 -111 -72 -36 -20 -182 -52 -270 -60 -116 -10 -147 -30 -195
-127 -22 -44 -57 -106 -78 -137 -65 -97 -91 -99 -172 -16 -57 58 -62 60 -100
55 -78 -11 -225 -10 -236 1 -13 13 15 65 52 99 34 30 39 55 19 89 -10 17 -21
50 -25 75 -4 25 -12 51 -18 58 -7 9 -5 18 7 31 16 18 16 20 -12 40 -30 21 -31
24 -48 137 -6 41 -6 42 47 81 30 21 66 46 82 56 28 18 37 47 14 47 -7 0 -38
-9 -70 -20 -92 -32 -109 -26 -122 43 -4 20 -17 45 -29 55 -13 9 -35 36 -50 59
-20 29 -46 50 -89 72 -73 36 -98 38 -143 10 -33 -20 -33 -21 -15 -37 14 -13
21 -41 30 -114 17 -152 16 -167 -21 -206 l-33 -34 33 -28 c38 -32 36 -45 -17
-93 -32 -28 -32 -33 -14 -99 2 -10 15 -21 29 -24 45 -11 24 -64 -26 -64 -38 0
-70 27 -70 58 0 47 -30 145 -55 182 -57 83 -35 150 51 150 35 0 47 5 68 31 14
17 26 37 26 45 0 24 -45 45 -91 42 -39 -3 -44 0 -47 20 -2 14 11 41 33 73 21
27 36 52 33 54 -2 2 -18 -6 -37 -17 -34 -22 -131 -151 -131 -175 0 -21 -84
-16 -130 7 -38 19 -70 26 -70 15 0 -24 40 -70 85 -100 49 -31 55 -39 55 -68 0
-19 5 -48 11 -64 8 -24 6 -49 -6 -104 -9 -41 -21 -96 -27 -124 -5 -27 -13 -56
-17 -64 -11 -19 -51 61 -51 104 0 21 -11 51 -30 78 -16 25 -30 51 -30 59 0 8
-7 23 -15 34 -8 10 -15 33 -15 51 0 43 -16 50 -51 24 l-29 -22 -9 23 c-97 242
-128 310 -162 361 -23 33 -51 90 -63 126 -17 52 -28 70 -56 89 -42 28 -49 16
-22 -41 10 -23 25 -71 32 -107 15 -71 40 -119 89 -164 17 -17 31 -40 31 -53 0
-12 14 -64 30 -114 48 -142 23 -160 -43 -31 -18 37 -59 115 -90 174 -32 58
-57 117 -57 131 0 14 -4 29 -10 32 -5 3 -10 13 -10 22 0 8 -6 29 -14 46 -8 18
-24 59 -37 92 -25 65 -45 88 -70 82 -9 -2 -27 2 -40 9 -30 17 -47 18 -31 2z
m122 -250 c23 -23 51 -59 62 -80 11 -21 24 -41 29 -44 5 -3 9 -13 9 -23 0 -10
7 -24 15 -31 19 -15 20 -50 2 -50 -17 0 -43 28 -51 58 -4 12 -11 22 -16 22 -4
0 -10 9 -13 20 -3 12 -14 20 -25 20 -24 0 -62 44 -62 72 0 11 -5 28 -10 39
-11 19 -6 39 9 39 4 0 27 -19 51 -42z m144 -354 c9 -8 16 -22 16 -30 0 -8 4
-14 9 -14 5 0 13 -10 17 -22 3 -12 13 -28 20 -36 16 -15 19 -42 5 -42 -5 0
-13 9 -16 20 -3 11 -10 20 -14 20 -4 0 -22 27 -39 60 -31 58 -30 76 2 44z
m856 -234 c0 -5 -7 -10 -15 -10 -8 0 -15 5 -15 10 0 6 7 10 15 10 8 0 15 -4
15 -10z m-550 -20 c0 -21 -24 -60 -37 -60 -20 0 -26 25 -13 49 11 21 50 30 50
11z m420 -190 c29 -18 42 -327 16 -380 -9 -19 -18 -24 -39 -22 -19 2 -39 -7
-65 -28 -20 -16 -47 -30 -59 -30 -15 0 -33 -15 -55 -44 -34 -45 -73 -75 -84
-63 -12 12 54 98 83 108 6 2 44 35 83 73 l72 69 -7 46 c-3 25 -6 55 -5 66 0
11 3 64 6 118 5 82 8 97 22 97 9 0 24 -5 32 -10z m1295 -21 c7 -10 -21 -49
-36 -49 -5 0 -25 -11 -45 -25 -45 -31 -54 -31 -54 -2 0 25 25 59 55 75 26 15
72 15 80 1z m-1589 -50 c13 -22 -74 -149 -103 -149 -34 0 -1 93 46 133 36 30
46 33 57 16z m894 -170 c0 -21 -75 -78 -162 -123 -89 -46 -132 -55 -169 -36
-29 16 -8 47 42 60 22 6 59 21 83 34 24 13 56 26 72 30 15 4 39 16 52 27 26
20 82 26 82 8z m-1056 -36 c7 -18 -10 -43 -30 -43 -18 0 -48 46 -41 65 5 11
12 12 36 4 16 -6 32 -17 35 -26z m554 -55 c-2 -13 -7 -23 -13 -23 -5 0 -11 10
-13 23 -2 15 2 22 13 22 11 0 15 -7 13 -22z m113 -33 c20 -45 19 -65 -5 -65
-17 0 -48 68 -41 91 10 31 25 22 46 -26z m-441 1 c0 -12 -101 -106 -114 -106
-16 0 -2 30 35 73 39 45 79 62 79 33z m506 -112 c-5 -13 -10 -14 -18 -6 -6 6
-8 18 -4 28 5 13 10 14 18 6 6 -6 8 -18 4 -28z m-472 -203 c3 -4 -15 -47 -39
-95 -25 -48 -45 -100 -45 -116 0 -16 -5 -41 -11 -57 -10 -26 -11 -27 -24 -10
-18 25 -27 91 -15 122 12 31 110 165 121 165 4 0 10 -4 13 -9z m424 -35 c2
-21 -4 -60 -12 -87 -9 -26 -16 -64 -16 -83 0 -29 -4 -36 -19 -36 -14 0 -23 13
-35 49 -22 68 -21 81 10 189 2 8 16 12 36 10 30 -3 33 -6 36 -42z m-65 -322
c-1 -16 -6 -78 -11 -139 -8 -98 -7 -113 8 -135 24 -33 29 -111 17 -253 -7 -88
-6 -121 3 -132 6 -7 18 -42 26 -76 13 -55 13 -67 -2 -114 -16 -49 -16 -56 0
-103 9 -28 16 -60 16 -71 0 -33 -28 -25 -51 14 -24 41 -27 41 -74 15 -20 -11
-51 -20 -70 -20 -18 0 -37 -5 -41 -11 -4 -7 -8 -53 -10 -103 -2 -50 -4 -95 -5
-101 -1 -5 -7 22 -14 60 -20 105 -42 201 -53 221 -5 11 -17 36 -27 57 l-18 38
47 92 c58 114 106 173 106 132 0 -19 13 -19 50 0 45 23 44 5 39 468 -2 142 -1
148 21 172 29 31 46 27 43 -11z m1084 -57 c-6 -15 -15 -27 -19 -27 -12 0 -48
-38 -48 -50 0 -5 -7 -10 -15 -10 -23 0 -18 16 15 50 17 17 30 35 30 41 0 8 41
30 47 25 2 -2 -3 -14 -10 -29z m-697 -16 c15 -28 12 -68 -4 -74 -24 -9 -38 18
-30 57 7 40 18 46 34 17z m43 -159 c-4 -31 -54 -92 -75 -92 -32 0 -30 21 8 71
40 52 71 61 67 21z m-1425 -49 c-5 -25 -28 -28 -28 -4 0 12 6 21 16 21 9 0 14
-7 12 -17z m1442 -82 c0 -10 -13 -35 -30 -56 -16 -21 -30 -42 -30 -46 0 -15
-28 -10 -34 7 -12 30 -6 45 32 79 41 39 62 44 62 16z m56 -86 c4 -9 -8 -31
-27 -54 -19 -22 -41 -49 -50 -62 -16 -24 -49 -21 -49 3 0 14 100 128 113 128
4 0 10 -7 13 -15z m38 -120 c6 -16 -30 -55 -51 -55 -17 0 -16 15 3 45 18 28
39 32 48 10z m-1987 -31 c2 -6 -35 -38 -82 -70 -130 -89 -133 -90 -146 -77
-14 14 31 75 89 122 46 36 130 51 139 25z m2070 -130 c6 -18 -84 -107 -102
-101 -23 9 -19 20 26 71 39 44 68 55 76 30z m37 -110 c8 -20 -7 -47 -40 -73
-51 -40 -60 -15 -18 49 28 42 48 50 58 24z m-1176 -28 c6 -28 -31 -107 -48
-103 -11 2 -14 13 -12 41 5 62 51 110 60 62z m816 -62 c26 -10 18 -46 -20 -94
l-36 -45 6 -110 c8 -145 -13 -270 -41 -241 -10 10 -24 117 -27 211 -1 44 -6
101 -10 127 -10 57 3 82 66 126 24 17 44 31 45 31 1 1 8 -2 17 -5z m443 -101
c6 -17 -66 -93 -88 -93 -34 0 -33 28 2 70 34 39 77 51 86 23z m65 -178 c9 -27
17 -66 17 -86 2 -78 -90 -150 -104 -82 -4 15 -12 39 -19 53 -8 14 -16 41 -20
62 -6 33 -3 40 31 72 51 49 73 45 95 -19z m-2787 -16 c32 -39 29 -51 -16 -62
-19 -4 -48 -12 -65 -18 -17 -5 -59 -9 -93 -9 -75 0 -193 -33 -238 -66 -32 -24
-103 -34 -103 -15 0 12 54 51 70 51 7 0 36 14 64 32 55 34 91 45 176 57 30 5
78 20 105 33 66 33 69 33 100 -3z m-545 -44 c17 -9 30 -22 30 -29 0 -20 -73
-76 -99 -76 -18 0 -21 6 -21 37 0 24 8 45 22 60 25 27 30 28 68 8z m2588 -29
c27 -24 28 -32 1 -47 -28 -15 -48 5 -56 57 -7 43 -5 42 55 -10z m-113 -77 c21
-85 15 -395 -10 -544 -36 -217 -44 -411 -20 -525 8 -40 13 -76 9 -81 -11 -19
-33 -8 -55 29 -21 34 -23 52 -27 222 l-4 185 -38 35 c-35 33 -39 42 -45 105
-6 54 -2 381 6 535 3 63 17 -41 19 -145 3 -227 42 -463 73 -452 7 2 20 26 30
53 16 43 19 88 22 349 5 372 3 333 15 315 5 -8 16 -44 25 -81z m-101 -114 c3
-27 7 -93 10 -145 l5 -95 -20 40 c-32 64 -40 316 -9 265 5 -8 11 -37 14 -65z
m384 -37 c17 -35 33 -82 37 -105 4 -24 11 -45 16 -49 5 -3 5 -12 0 -22 -11
-20 -9 -63 3 -105 6 -21 4 -33 -9 -47 -12 -13 -17 -39 -19 -92 -1 -40 -5 -80
-8 -88 -4 -8 -9 -35 -13 -60 -3 -25 -10 -79 -16 -120 -6 -41 -14 -106 -19
-145 -4 -38 -20 -102 -34 -142 -26 -73 -41 -140 -55 -249 -5 -34 -12 -68 -17
-75 -5 -8 -12 -79 -15 -159 -7 -147 -25 -270 -40 -270 -20 0 -24 69 -22 396 2
239 6 361 14 380 11 28 21 107 38 309 8 101 34 246 56 316 8 26 15 58 15 71 0
13 13 39 30 58 36 43 37 73 9 161 -12 37 -19 74 -16 83 13 32 36 15 65 -46z
m476 -94 c26 -10 18 -24 -13 -24 -34 0 -50 16 -24 23 10 3 19 5 20 6 1 0 8 -2
17 -5z m-94 -14 c-20 -13 -77 -13 -85 0 -4 6 14 10 47 10 38 0 49 -3 38 -10z
m-751 -157 c0 -42 -1 -45 -10 -23 -9 23 -5 70 6 70 3 0 5 -21 4 -47z m527
-253 c11 -11 83 -32 169 -51 28 -5 59 -14 70 -19 11 -5 29 -10 39 -12 11 -2
21 -9 24 -15 5 -16 -41 -17 -69 -2 -11 5 -50 16 -87 24 -118 25 -127 27 -142
40 -8 7 -24 15 -34 16 -11 2 -21 10 -24 17 -5 15 39 17 54 2z m-188 -1260 c2
-30 -4 -84 -13 -120 -26 -103 -32 -131 -46 -190 -18 -83 -40 -92 -69 -27 -27
58 -27 140 0 158 11 8 23 25 25 39 3 14 9 49 15 78 14 78 41 125 69 120 12 -2
17 -18 19 -58z m92 -2320 c0 -5 -7 -10 -15 -10 -8 0 -15 5 -15 10 0 6 7 10 15
10 8 0 15 -4 15 -10z"/>
<path d="M3830 5508 c-23 -32 -30 -52 -30 -89 0 -62 8 -83 25 -69 10 8 19 8
34 -2 18 -11 23 -10 38 5 15 15 16 22 5 62 -7 25 -12 65 -12 90 0 58 -19 59
-60 3z"/>
<path d="M4645 5799 c-4 -6 -5 -13 -2 -16 7 -7 27 6 27 18 0 12 -17 12 -25 -2z"/>
<path d="M3741 2402 c-11 -21 -6 -32 16 -32 15 0 18 36 4 45 -6 3 -15 -3 -20
-13z"/>
<path d="M4520 1881 c-5 -21 -13 -60 -16 -87 l-6 -49 20 30 c22 35 40 145 23
145 -6 0 -15 -17 -21 -39z"/>
<path d="M4800 1201 c0 -9 80 -25 87 -17 3 3 2 9 -2 15 -7 13 -85 15 -85 2z"/>
<path d="M4680 1170 c-25 -11 -62 -19 -82 -19 -20 -1 -40 -5 -43 -11 -3 -5
-17 -10 -29 -10 -27 0 -126 -29 -140 -41 -19 -17 27 -21 54 -5 17 9 55 17 92
19 l63 2 -3 -28 c-2 -24 0 -26 15 -18 10 5 30 12 46 16 41 8 33 25 -13 25 -40
0 -53 13 -24 24 26 10 55 7 83 -10 21 -12 34 -14 61 -6 32 9 33 10 8 11 -61 2
-83 37 -26 43 17 2 33 9 36 16 6 18 -44 14 -98 -8z"/>
<path d="M4845 1155 c-23 -11 -25 -14 -10 -14 32 -1 65 11 59 20 -7 11 -12 11
-49 -6z"/>
<path d="M4325 809 c-12 -19 5 -23 22 -6 16 16 16 17 1 17 -9 0 -20 -5 -23
-11z"/>
<path d="M4440 670 l-25 -8 28 -1 c15 -1 27 4 27 9 0 6 -1 10 -2 9 -2 -1 -14
-5 -28 -9z"/>
<path d="M4450 600 c0 -5 11 -10 25 -10 14 0 25 5 25 10 0 6 -11 10 -25 10
-14 0 -25 -4 -25 -10z"/>
</g>
</svg>
