<?xml version="1.0" standalone="no"?>
<!DOCTYPE svg PUBLIC "-//W3C//DTD SVG 20010904//EN"
 "http://www.w3.org/TR/2001/REC-SVG-20010904/DTD/svg10.dtd">
<svg version="1.0" xmlns="http://www.w3.org/2000/svg"
 width="450.000000pt" height="900.000000pt" viewBox="0 0 450.000000 900.000000"
 preserveAspectRatio="xMidYMid meet">
<metadata>
Created by potrace 1.10, written by Peter Selinger 2001-2011
</metadata>
<g transform="translate(0.000000,900.000000) scale(0.100000,-0.100000)"
fill="#000000" stroke="none">
<path d="M2860 8824 c-25 -7 -54 -14 -65 -14 -11 0 -52 -24 -90 -52 -39 -29
-111 -83 -160 -119 -50 -37 -101 -77 -115 -89 -14 -12 -45 -36 -70 -53 -25
-17 -50 -36 -56 -42 -6 -5 -32 -28 -59 -50 -42 -34 -89 -74 -146 -123 -8 -7
-27 -23 -44 -37 -37 -31 -26 -45 12 -15 31 24 138 116 163 140 8 8 31 26 50
40 19 13 40 29 47 35 7 5 20 16 28 24 11 8 20 10 26 4 6 -6 -54 -73 -166 -184
-163 -162 -244 -254 -232 -265 2 -2 33 26 68 62 253 264 450 444 486 444 15 0
-45 -74 -116 -143 -74 -73 -145 -149 -237 -256 -16 -19 -34 -39 -39 -45 -6 -6
-41 -50 -77 -97 -51 -66 -67 -93 -66 -117 1 -17 -6 -42 -15 -56 -18 -27 -22
-56 -9 -56 10 0 99 98 115 127 16 28 81 133 132 213 46 70 131 170 146 170 18
0 8 -21 -56 -115 -50 -75 -64 -102 -59 -120 4 -17 -6 -45 -35 -97 -46 -84 -44
-112 6 -88 15 7 35 12 44 11 8 -1 31 15 50 36 34 38 34 38 37 13 2 -14 -11
-51 -27 -82 -17 -31 -27 -60 -22 -63 5 -3 12 3 15 13 10 31 90 100 128 110 52
14 104 -4 150 -51 43 -45 88 -121 88 -149 0 -17 5 -19 26 -15 20 4 36 -4 65
-30 44 -40 47 -55 21 -98 -31 -51 -65 -144 -58 -160 3 -8 14 -15 25 -15 39 0
42 -65 5 -129 -49 -85 -80 -105 -86 -54 -2 16 -10 29 -19 31 -20 4 -79 -44
-79 -64 0 -11 -4 -12 -18 -3 -25 16 -104 -25 -166 -86 -43 -41 -47 -48 -34
-63 8 -9 22 -38 32 -63 9 -26 26 -55 38 -65 20 -19 21 -19 35 4 23 34 33 27
33 -24 0 -30 -7 -56 -21 -75 -24 -33 -49 -38 -49 -9 0 34 -23 23 -55 -25 -61
-94 -61 -118 3 -72 26 18 55 37 65 40 9 4 17 13 17 21 0 7 7 16 15 20 8 3 15
10 15 16 0 15 50 64 73 73 11 4 17 2 17 -8 0 -16 -33 -78 -61 -114 -11 -13
-19 -32 -19 -42 0 -9 -7 -25 -17 -34 -9 -9 -16 -30 -16 -46 0 -16 -4 -29 -9
-29 -4 0 -8 13 -8 29 0 36 -9 61 -22 61 -5 0 -33 -22 -61 -48 -90 -84 -146
-125 -162 -118 -25 9 -17 47 20 87 50 55 46 86 -4 33 -13 -13 -28 -23 -34 -21
-6 2 -18 27 -28 55 -10 29 -27 64 -38 78 -11 14 -25 49 -31 79 -14 67 -3 94
74 190 31 38 56 77 56 87 0 10 23 34 50 55 28 20 50 41 50 46 0 15 79 127 121
173 38 42 80 105 92 137 8 22 7 22 -33 -8 -21 -15 -47 -25 -69 -25 -30 0 -45
-11 -125 -92 -134 -137 -187 -178 -230 -178 -20 0 -36 5 -36 10 0 6 -11 16
-25 22 -34 15 -31 40 8 82 17 19 52 61 77 93 25 32 84 106 132 165 49 58 88
110 88 115 0 15 -74 36 -98 29 -28 -9 -126 -110 -111 -115 6 -2 14 1 18 6 13
19 79 63 94 63 28 0 20 -25 -25 -80 -46 -56 -86 -110 -170 -227 -55 -76 -84
-97 -100 -69 -12 22 -35 20 -48 -4 -8 -15 -7 -27 4 -49 15 -29 15 -30 -35 -93
-28 -34 -57 -74 -64 -88 -16 -30 -61 -64 -96 -73 -15 -4 -43 -25 -64 -48 -36
-41 -37 -42 -30 -102 13 -113 65 -211 128 -243 26 -14 36 -15 66 -4 35 13 110
84 111 106 0 6 10 19 21 30 12 10 35 38 51 62 22 32 35 42 51 40 19 -3 22 -9
22 -53 0 -49 1 -50 32 -53 29 -3 33 -7 38 -40 3 -20 10 -51 15 -68 6 -17 10
-65 10 -106 0 -63 -4 -84 -25 -119 -14 -24 -25 -58 -25 -74 0 -17 -9 -47 -20
-68 -11 -20 -20 -56 -20 -79 0 -24 -7 -52 -15 -62 -26 -34 -18 -42 39 -42 52
1 54 2 120 69 36 38 66 70 66 73 0 2 -6 4 -13 4 -17 0 -107 -90 -107 -106 0
-15 -42 -26 -54 -14 -11 11 68 118 123 166 l35 31 -32 6 c-18 4 -32 11 -32 16
0 22 61 52 115 56 30 2 65 11 77 20 13 8 30 15 40 15 25 0 23 -37 -2 -45 -11
-3 -25 -15 -30 -25 -8 -16 -6 -22 10 -32 19 -11 50 -67 50 -88 0 -12 -50 -66
-51 -55 -1 6 0 20 0 32 2 25 -16 40 -31 25 -17 -17 -17 -95 -1 -114 17 -20 8
-42 -41 -96 -60 -66 -94 -67 -71 -2 15 43 1 57 -15 16 -10 -28 -49 -44 -60
-26 -11 17 -30 3 -30 -21 0 -11 -8 -22 -17 -25 -58 -19 -81 -33 -138 -85 -77
-69 -105 -87 -105 -64 0 8 -7 15 -15 15 -8 0 -15 -4 -15 -9 0 -5 -15 -19 -34
-30 -40 -25 -50 -45 -36 -71 8 -15 4 -34 -15 -80 -31 -73 -54 -200 -43 -230 4
-12 5 -32 2 -45 -3 -14 1 -34 11 -49 12 -18 15 -35 10 -58 -24 -118 -10 -255
33 -323 20 -31 27 -58 33 -125 3 -47 12 -105 18 -130 30 -121 45 -182 62 -260
27 -126 48 -187 85 -249 18 -31 35 -72 39 -91 4 -19 20 -60 36 -90 47 -91 74
-200 49 -200 -6 0 -14 8 -17 18 -23 60 -93 129 -93 92 0 -11 -30 -14 -30 -2
-1 16 -40 53 -50 47 -7 -4 -3 -19 12 -43 25 -43 24 -41 77 -153 39 -84 99
-229 180 -439 102 -266 126 -323 183 -445 34 -71 72 -139 85 -150 13 -12 23
-32 23 -47 0 -14 7 -31 15 -38 8 -7 15 -23 15 -36 0 -40 17 -35 45 13 62 107
155 293 148 294 -5 0 2 4 15 9 12 5 22 16 22 25 0 8 4 15 10 15 10 0 40 51 40
68 0 5 -8 12 -17 16 -10 3 -23 9 -30 12 -7 3 -22 -16 -38 -50 -14 -31 -31 -58
-36 -62 -6 -3 -8 -16 -5 -29 4 -14 0 -27 -9 -35 -13 -11 -24 -31 -74 -140 -9
-19 -26 -48 -38 -63 l-23 -29 0 26 c0 13 4 28 10 31 5 3 10 14 10 24 0 10 7
24 15 31 17 14 20 46 5 55 -6 3 -14 -5 -20 -19 -5 -14 -14 -26 -19 -26 -5 0
-11 -10 -13 -22 -2 -12 -9 -23 -15 -26 -18 -5 -16 33 2 48 8 7 15 21 15 31 0
9 7 24 15 33 8 8 15 19 15 24 0 19 42 62 61 62 16 0 18 5 13 26 -4 15 0 38 9
57 9 18 30 64 47 102 18 39 43 84 56 102 13 17 24 34 24 38 0 3 25 44 56 91
31 47 69 111 85 142 29 56 29 59 23 166 -6 91 -5 108 7 104 8 -2 20 -25 28
-51 8 -26 18 -47 23 -47 15 0 51 85 51 121 0 20 -8 69 -18 108 -9 39 -15 81
-12 94 7 32 28 88 43 119 8 14 14 35 14 46 0 11 7 27 15 36 8 8 15 26 15 41 0
14 7 42 15 62 8 19 15 46 15 59 0 12 5 26 10 29 6 3 10 30 10 59 0 40 8 69 35
123 50 102 47 141 -15 157 -14 4 -35 12 -47 18 -17 9 -29 8 -47 -1 -13 -8 -29
-10 -34 -7 -13 8 -4 71 14 108 8 15 14 36 14 46 0 11 7 25 15 32 16 13 21 50
7 50 -17 0 -49 -58 -66 -120 -32 -116 -78 -255 -87 -264 -8 -9 -10 -4 -26 44
-4 13 -6 12 -17 -2 -16 -22 -32 -23 -40 -2 -8 21 -8 209 0 268 5 32 13 50 27
58 17 9 25 5 52 -28 22 -26 37 -35 48 -31 24 9 21 33 -5 52 l-23 16 23 19 c13
11 33 39 46 62 14 26 31 44 43 46 12 2 58 43 102 92 54 59 91 91 110 95 16 3
37 15 47 26 15 17 16 25 7 50 -8 20 -8 40 -2 62 6 17 11 87 13 155 3 95 0 122
-10 122 -7 0 -19 8 -26 19 -34 48 -330 47 -461 -1 -44 -17 -45 0 -3 38 l38 34
112 2 c61 1 127 0 147 -1 22 -1 41 4 49 14 7 8 25 15 41 15 15 0 30 4 33 9 13
21 -171 30 -192 9 -6 -6 -71 -17 -144 -24 -179 -17 -267 -32 -292 -50 -11 -8
-33 -14 -48 -14 -27 0 -98 -36 -98 -50 0 -4 -35 -10 -77 -14 -90 -8 -68 9
-295 -222 -76 -76 -138 -144 -138 -151 0 -7 21 -15 48 -18 26 -4 65 -11 86
-15 22 -5 44 -6 50 -3 5 4 120 9 255 12 l246 6 -42 28 c-53 34 -55 57 -9 103
27 27 42 34 72 34 22 1 50 7 64 15 56 32 145 12 218 -50 16 -14 44 -28 61 -31
46 -10 78 -54 86 -119 4 -30 4 -66 1 -80 -10 -38 -64 -95 -92 -95 -13 0 -44
-7 -69 -15 -32 -12 -50 -13 -64 -5 -17 8 -23 4 -42 -26 -12 -20 -22 -51 -22
-68 0 -21 -24 -71 -75 -156 -96 -159 -103 -168 -145 -163 l-32 4 57 -53 c31
-29 74 -64 95 -78 21 -13 50 -41 63 -62 21 -33 29 -38 63 -38 34 0 38 -2 27
-15 -14 -17 -50 -11 -90 14 -47 30 -175 134 -189 154 -22 31 -50 57 -61 57 -5
0 -10 4 -10 9 0 4 -19 21 -42 37 -24 16 -47 33 -53 37 -5 4 -41 30 -80 57 -38
27 -75 54 -82 60 -7 5 -15 10 -19 10 -10 0 -103 74 -104 83 0 13 27 8 40 -8
13 -16 40 -21 40 -7 0 11 -39 45 -99 85 -29 21 -79 59 -110 85 -71 61 -105 82
-131 82 -31 0 -35 25 -10 67 44 74 159 219 219 275 34 31 61 61 61 66 0 5 -9
12 -20 15 -11 3 -20 9 -20 14 0 14 211 149 244 157 17 4 46 15 65 23 58 26 90
39 210 82 90 32 117 38 128 29 12 -10 11 -14 -9 -29 -36 -28 -6 -32 102 -14
52 9 107 17 123 19 15 1 30 6 33 9 4 3 19 0 35 -8 27 -14 84 -11 94 5 2 4 -16
33 -40 65 -33 42 -45 66 -45 91 0 27 -5 35 -23 39 -13 4 -31 19 -40 34 -9 16
-36 50 -60 77 -79 90 -91 123 -63 167 8 12 20 45 26 72 9 41 50 116 93 170 5
5 17 25 27 43 32 52 43 44 105 -74 8 -16 52 -69 98 -119 46 -49 99 -115 119
-145 51 -78 118 -189 118 -196 0 -3 10 -28 21 -55 16 -37 27 -49 43 -49 12 0
29 -6 37 -12 26 -22 113 -138 174 -233 32 -49 80 -116 108 -149 44 -51 49 -61
41 -85 -14 -40 -46 -38 -84 6 -43 49 -60 60 -60 36 0 -10 20 -41 45 -68 25
-28 45 -54 45 -58 0 -5 -15 -27 -34 -50 -19 -23 -36 -55 -39 -72 -3 -16 -21
-57 -41 -89 -38 -63 -38 -76 -2 -76 16 0 33 13 52 38 15 20 50 62 77 93 53 62
68 65 108 23 24 -25 53 -31 65 -13 3 6 -8 26 -26 44 -33 34 -37 63 -10 75 76
34 97 51 121 95 15 26 38 57 52 69 42 35 87 116 87 156 0 24 7 43 20 55 32 29
70 101 70 134 0 16 5 33 11 37 16 9 38 66 32 81 -6 16 -43 -1 -43 -21 0 -25
-45 -56 -83 -56 -37 0 -80 -34 -93 -72 -7 -22 -33 -23 -60 -4 -23 18 -55 11
-108 -22 -23 -14 -41 -20 -45 -14 -3 6 -17 12 -30 13 -18 3 -35 25 -72 89 -27
47 -49 95 -49 108 0 25 -50 131 -95 203 -25 39 -27 46 -15 76 12 35 12 36 -35
99 -6 9 -5 25 2 46 17 50 29 333 14 343 -15 9 -30 -10 -78 -97 -36 -66 -71
-97 -93 -83 -16 10 -5 46 30 99 51 76 35 105 -20 36 -17 -22 -39 -40 -48 -40
-31 0 -62 61 -62 121 0 58 -4 68 -35 85 -18 10 -20 20 -17 80 2 38 8 101 13
139 5 39 10 135 10 215 -1 80 -1 152 0 161 0 9 -22 38 -50 64 -28 26 -51 54
-51 63 0 19 44 60 79 74 14 6 40 10 58 9 49 -1 57 17 46 106 -5 42 -6 94 -3
115 4 21 3 41 -1 44 -5 3 -9 -4 -9 -15 0 -12 -6 -21 -14 -21 -26 0 -35 167
-11 203 13 20 13 47 4 193 -5 93 -14 178 -19 190 -6 15 -21 23 -47 27 -66 11
-93 60 -60 111 11 16 17 40 15 59 -3 28 -10 36 -68 64 -146 72 -250 89 -350
57z m-827 -1648 c25 -8 17 -40 -11 -44 -16 -3 -22 2 -22 17 0 11 -4 23 -10 26
-18 11 -11 26 8 16 9 -5 25 -12 35 -15z m-71 -31 c0 -5 -5 -11 -11 -13 -6 -2
-11 4 -11 13 0 9 5 15 11 13 6 -2 11 -8 11 -13z m608 -68 c0 -21 -8 -41 -19
-51 -40 -37 -58 20 -19 61 29 31 38 29 38 -10z m184 -46 c7 -10 -33 -23 -47
-14 -10 6 11 23 30 23 6 0 14 -4 17 -9z m-731 -161 c-27 -39 -53 -52 -53 -28
0 17 51 68 68 68 9 0 4 -13 -15 -40z m605 8 c-6 -18 -28 -21 -28 -4 0 9 7 16
16 16 9 0 14 -5 12 -12z m212 -66 c0 -15 -5 -33 -11 -39 -7 -7 -15 -29 -18
-49 -9 -54 -26 -47 -29 13 -2 39 2 60 15 78 24 33 43 32 43 -3z m-244 -597 c8
-19 -13 -45 -35 -45 -9 0 -29 -7 -45 -15 -83 -44 -69 8 16 55 41 23 57 24 64
5z m238 -153 c13 -27 43 -72 66 -101 43 -54 50 -93 18 -99 -39 -7 -148 155
-148 220 0 48 35 37 64 -20z m-320 -138 c21 -8 20 -37 -1 -56 -21 -17 -75 -48
-188 -108 -138 -73 -289 -167 -337 -209 -71 -63 -109 -51 -45 14 17 18 49 51
69 73 59 63 197 146 378 226 14 6 41 23 60 38 37 30 40 31 64 22z m-439 -153
c3 -5 -16 -27 -42 -48 -27 -21 -68 -55 -92 -75 -24 -21 -52 -38 -62 -38 -31 0
-22 36 14 61 17 12 44 33 58 46 28 26 86 60 106 62 6 0 14 -3 18 -8z m648 -98
c-13 -2 -33 -2 -45 0 -13 2 -3 4 22 4 25 0 35 -2 23 -4z m-935 -151 c2 -7 -3
-12 -12 -12 -9 0 -16 7 -16 16 0 17 22 14 28 -4z m261 -10 c-6 -10 -35 -29
-63 -41 -28 -13 -60 -32 -71 -41 -36 -33 -115 -70 -115 -55 0 8 5 17 10 20 15
9 2 25 -21 25 -23 0 -23 -1 -3 38 15 32 37 41 49 22 4 -6 1 -18 -6 -26 -6 -8
-9 -17 -6 -20 7 -8 87 27 87 38 0 4 11 8 25 8 13 0 28 6 32 13 10 15 51 35 76
36 14 1 15 -2 6 -17z m225 -118 c22 -8 20 -27 -4 -49 -16 -14 -37 -19 -93 -19
-99 -1 -98 19 3 50 41 12 76 23 77 23 1 1 8 -2 17 -5z m610 -920 c18 -17 22
-54 6 -54 -6 0 -13 7 -17 16 -4 12 -14 14 -41 9 l-35 -6 29 25 c34 30 38 31
58 10z m-736 -505 c2 -30 9 -61 16 -69 16 -19 41 -108 33 -117 -4 -3 -18 2
-32 11 -20 13 -25 25 -25 56 0 21 -4 42 -10 45 -5 3 -10 14 -10 24 0 10 -6 24
-14 30 -13 11 -19 66 -9 83 2 4 14 3 26 -1 18 -7 23 -17 25 -62z m152 -396 c0
-7 4 -13 10 -13 5 0 13 -12 16 -27 4 -16 10 -30 14 -33 7 -5 64 -123 74 -152
3 -10 1 -20 -4 -23 -6 -4 -10 -1 -10 6 0 16 -42 100 -57 117 -7 7 -13 22 -13
33 0 10 -4 19 -10 19 -5 0 -13 12 -16 28 -4 15 -13 36 -20 47 -20 28 -18 56 1
31 8 -11 15 -26 15 -33z m142 -308 c3 -14 1 -25 -3 -25 -5 0 -9 11 -9 25 0 14
2 25 4 25 2 0 6 -11 8 -25z m32 -71 c4 -15 4 -29 1 -32 -8 -8 -25 19 -25 41 0
26 17 20 24 -9z"/>
<path d="M2635 7631 c-6 -11 9 -23 19 -14 9 9 7 23 -3 23 -6 0 -12 -4 -16 -9z"/>
<path d="M2508 7593 c-1 -5 -19 -15 -38 -24 -101 -46 -154 -75 -158 -88 -4
-11 0 -12 14 -6 11 5 37 10 58 13 43 5 119 53 144 90 13 20 13 22 -1 22 -8 0
-17 -3 -19 -7z"/>
<path d="M2592 7415 c-24 -37 -15 -46 18 -18 19 17 28 53 13 53 -5 0 -18 -16
-31 -35z"/>
<path d="M1410 7310 c-8 -5 -26 -10 -40 -10 -14 0 -36 -9 -50 -20 -14 -11 -41
-20 -60 -20 -30 0 -47 -10 -100 -59 -35 -32 -64 -68 -65 -79 -2 -32 -34 -72
-56 -72 -20 0 -21 -4 -14 -46 7 -49 -5 -74 -34 -74 -10 0 -46 22 -81 49 -35
27 -69 47 -77 44 -18 -7 -63 -85 -63 -109 0 -11 20 -40 45 -64 47 -46 55 -69
30 -90 -8 -7 -15 -24 -15 -39 0 -15 -4 -31 -9 -36 -4 -6 -13 -23 -19 -40 -5
-16 -13 -39 -17 -50 -6 -16 -5 -18 5 -8 7 6 27 9 45 6 30 -5 36 -2 59 36 14
22 26 45 26 50 0 6 9 15 21 21 23 13 23 13 112 -70 27 -25 56 -45 65 -45 18 0
71 71 72 96 0 9 -16 30 -35 48 -46 42 -47 66 -2 56 17 -4 49 -9 70 -11 21 -2
58 -10 82 -20 61 -23 85 -3 48 38 -15 17 -15 21 0 53 16 34 16 36 -3 47 -29
19 -25 54 10 80 17 12 30 29 28 38 -7 50 47 109 74 82 13 -13 48 -16 48 -4 -1
4 -23 25 -50 47 -28 22 -50 46 -50 54 0 7 11 27 26 43 40 49 21 109 -26 78z
m-103 -157 c29 -23 34 -31 29 -55 -4 -20 -1 -30 8 -34 18 -7 3 -58 -23 -77 -9
-6 -29 -29 -45 -49 -28 -37 -86 -78 -111 -78 -20 0 -28 34 -20 89 6 44 5 48
-20 59 -32 15 -30 46 3 50 16 2 27 14 34 33 6 16 22 36 37 44 15 7 33 21 40
29 18 22 27 20 68 -11z"/>
<path d="M1465 7001 c-18 -30 23 -40 65 -16 l25 14 -27 1 c-14 0 -33 3 -41 6
-8 3 -18 1 -22 -5z"/>
<path d="M1453 6807 c-11 -12 -18 -28 -16 -34 7 -19 23 -15 23 5 0 10 5 23 12
30 6 6 9 14 7 17 -3 3 -15 -5 -26 -18z"/>
<path d="M1511 6790 c-39 -75 -22 -118 53 -132 l28 -6 -6 48 c-8 60 -29 123
-43 127 -6 2 -20 -14 -32 -37z"/>
<path d="M734 6534 c-10 -14 -24 -31 -29 -38 -15 -16 -45 -64 -45 -71 0 -4 10
5 23 20 12 15 30 34 40 43 9 9 17 22 17 29 0 7 4 13 9 13 5 0 11 7 15 15 9 24
-10 17 -30 -11z"/>
<path d="M3006 6492 c-3 -6 -1 -14 5 -17 15 -10 25 3 12 16 -7 7 -13 7 -17 1z"/>
<path d="M536 6274 c-4 -10 -1 -14 6 -12 15 5 23 28 10 28 -5 0 -13 -7 -16
-16z"/>
<path d="M3225 5085 c-11 -16 -39 -52 -63 -81 -35 -45 -39 -54 -23 -54 20 0
91 79 91 102 0 8 5 19 11 25 6 6 9 17 7 23 -2 7 -12 0 -23 -15z"/>
<path d="M3191 4370 c-16 -10 -41 -71 -48 -120 -3 -19 -12 -39 -19 -43 -16 -9
-19 -57 -4 -57 5 0 13 12 16 26 7 26 40 93 75 150 15 25 17 34 6 42 -7 6 -18
7 -26 2z"/>
<path d="M3233 3591 c-16 -16 -37 -47 -48 -68 -10 -21 -32 -57 -47 -81 -27
-42 -37 -92 -19 -92 9 0 25 24 50 75 5 11 35 51 66 90 30 38 54 76 53 84 -5
26 -27 23 -55 -8z"/>
<path d="M3016 3535 c-27 -45 -33 -112 -11 -109 15 2 66 105 63 127 -5 36 -25
29 -52 -18z"/>
<path d="M2858 3262 c-31 -64 -59 -133 -63 -152 -4 -19 -15 -40 -24 -47 -13
-11 -10 -12 19 -6 19 3 35 6 36 7 0 1 24 48 52 105 41 81 52 113 52 151 0 27
-4 51 -8 54 -5 3 -33 -48 -64 -112z"/>
<path d="M3446 2989 c-4 -46 -12 -108 -17 -137 -6 -30 -8 -56 -6 -59 8 -7 157
79 157 90 0 5 -12 18 -26 30 -15 11 -37 43 -49 71 -13 28 -30 60 -38 70 -13
18 -15 13 -21 -65z"/>
<path d="M2985 3019 c-9 -17 -14 -33 -11 -36 8 -9 58 46 51 57 -11 18 -24 11
-40 -21z"/>
<path d="M3516 2705 c-8 -8 -18 -15 -23 -15 -16 0 -103 -65 -103 -77 0 -7 4
-13 8 -13 11 0 136 99 140 111 5 14 -5 11 -22 -6z"/>
<path d="M3008 2633 c-28 -33 -98 -150 -98 -165 0 -8 27 -39 60 -69 63 -57 67
-72 29 -112 -10 -11 -25 -34 -33 -52 -9 -18 -22 -38 -31 -45 -21 -17 -19 -33
8 -58 14 -14 33 -21 52 -19 25 2 30 -2 29 -20 0 -13 -1 -52 -2 -87 -2 -52 -6
-68 -28 -91 -35 -38 -23 -42 19 -6 57 50 66 44 69 -51 2 -47 7 -82 13 -82 9 1
47 61 77 122 8 15 18 22 29 19 15 -4 17 0 13 27 -5 28 -4 29 9 14 21 -26 25
-22 24 20 0 20 7 64 16 97 22 75 22 178 0 278 -15 71 -22 84 -66 130 -27 29
-55 67 -63 84 -13 29 -79 83 -102 83 -5 0 -16 -8 -24 -17z"/>
<path d="M2642 2180 c-71 -56 -158 -190 -124 -190 11 0 156 150 175 182 37 60
18 62 -51 8z"/>
<path d="M2788 1982 c-34 -36 -98 -127 -98 -139 0 -4 -7 -14 -16 -24 -9 -10
-11 -20 -6 -23 6 -3 18 7 28 22 10 15 39 50 64 77 43 46 79 109 68 120 -2 3
-20 -12 -40 -33z"/>
<path d="M2555 1926 c-25 -25 -33 -60 -16 -70 11 -7 61 50 61 69 0 26 -20 26
-45 1z"/>
<path d="M2904 826 c-3 -14 -10 -26 -14 -26 -5 0 -12 -15 -15 -32 -4 -18 -11
-37 -15 -43 -12 -16 -50 -149 -56 -199 -8 -56 5 -59 57 -13 l36 32 7 124 c4
68 11 133 17 143 8 14 8 23 0 31 -7 7 -12 2 -17 -17z"/>
<path d="M2763 165 c-3 -9 -3 -18 0 -21 9 -9 27 6 27 22 0 19 -19 18 -27 -1z"/>
<path d="M3210 70 c0 -5 7 -10 15 -10 8 0 15 5 15 10 0 6 -7 10 -15 10 -8 0
-15 -4 -15 -10z"/>
</g>
</svg>
