<?xml version="1.0" standalone="no"?>
<!DOCTYPE svg PUBLIC "-//W3C//DTD SVG 20010904//EN"
 "http://www.w3.org/TR/2001/REC-SVG-20010904/DTD/svg10.dtd">
<svg version="1.0" xmlns="http://www.w3.org/2000/svg"
 width="900.000000pt" height="972.000000pt" viewBox="0 0 900.000000 972.000000"
 preserveAspectRatio="xMidYMid meet">
<metadata>
Created by potrace 1.10, written by Peter Selinger 2001-2011
</metadata>
<g transform="translate(0.000000,972.000000) scale(0.100000,-0.100000)"
fill="#000000" stroke="none">
<path d="M4266 8124 c-42 -41 -51 -64 -26 -64 5 0 25 14 43 30 32 28 40 30
110 30 68 0 78 -2 88 -22 10 -19 8 -25 -20 -47 -17 -14 -31 -33 -31 -42 0 -8
-7 -24 -15 -35 -8 -10 -15 -26 -15 -35 0 -9 -7 -22 -15 -29 -8 -7 -15 -29 -15
-49 0 -21 -7 -46 -15 -57 -8 -10 -15 -35 -15 -55 0 -20 -7 -42 -15 -49 -8 -7
-15 -28 -15 -47 0 -21 -6 -36 -15 -39 -8 -4 -15 -16 -15 -29 0 -12 -7 -28 -15
-35 -8 -7 -15 -20 -15 -30 0 -10 -7 -23 -15 -30 -8 -7 -15 -20 -15 -29 0 -9
-16 -31 -34 -50 l-34 -33 -43 14 c-38 13 -45 20 -52 51 -6 22 -16 39 -28 42
-18 6 -28 1 -86 -40 -29 -21 -45 45 -18 75 14 15 14 18 0 30 -19 16 -19 44 0
60 9 8 15 30 15 60 0 29 6 52 14 60 8 6 16 20 18 30 2 10 45 61 96 114 91 94
106 116 77 116 -8 0 -15 -4 -15 -10 0 -5 -9 -10 -19 -10 -23 0 -101 -70 -101
-91 -1 -21 -67 -89 -88 -89 -20 0 -62 -42 -62 -62 0 -8 -13 -28 -30 -44 -16
-16 -30 -36 -30 -44 0 -8 -10 -26 -21 -39 -20 -24 -21 -24 -49 -8 -15 9 -36
17 -45 17 -9 0 -34 14 -55 30 -21 17 -45 30 -53 30 -8 0 -17 7 -21 15 -3 8
-16 15 -30 15 -13 0 -26 7 -30 15 -3 8 -16 15 -30 15 -13 0 -26 7 -30 15 -3 8
-16 15 -28 15 -13 0 -32 7 -42 15 -11 8 -31 15 -44 15 -13 0 -30 7 -38 15 -9
8 -25 15 -37 15 -13 0 -33 7 -45 16 -29 20 -82 10 -82 -15 0 -29 92 -111 133
-118 20 -3 42 -12 48 -19 6 -8 27 -14 45 -14 19 0 34 -4 34 -10 0 -5 8 -10 18
-10 10 0 34 -12 53 -26 19 -14 44 -30 56 -34 11 -5 31 -27 44 -49 12 -23 28
-41 34 -41 11 0 65 -44 65 -53 0 -2 -31 -35 -70 -73 -61 -60 -87 -104 -62
-104 4 0 39 32 77 70 56 57 75 70 100 70 39 0 75 -36 75 -73 0 -23 -4 -27 -29
-27 -16 0 -34 -7 -41 -15 -7 -8 -19 -15 -26 -15 -8 0 -19 -11 -24 -25 -5 -14
-14 -25 -19 -25 -5 0 -33 -20 -62 -45 -29 -25 -54 -43 -56 -42 -1 2 3 17 9 35
7 17 9 34 5 38 -4 4 -53 -38 -110 -94 -106 -105 -149 -142 -164 -142 -5 0 -20
-11 -33 -26 -18 -18 -31 -23 -49 -19 -20 5 -23 3 -18 -16 6 -23 -11 -43 -83
-94 -102 -72 -109 -75 -203 -75 -57 0 -98 5 -116 14 -15 8 -66 18 -113 22 -76
6 -86 5 -92 -11 -9 -26 3 -34 63 -44 29 -4 57 -13 64 -20 19 -19 -6 -45 -49
-52 -21 -3 -49 -10 -61 -17 -12 -7 -39 -12 -60 -12 -21 -1 -49 -7 -63 -14
l-24 -14 43 -12 c42 -11 42 -12 25 -31 -9 -10 -30 -19 -46 -19 -16 0 -38 -5
-49 -11 -11 -6 -41 -14 -67 -19 -100 -19 -134 -28 -145 -39 -6 -6 -31 -12 -56
-12 -41 -1 -39 -3 22 -11 58 -8 72 -7 86 6 10 9 35 16 57 16 22 0 49 7 60 15
10 8 40 15 65 15 29 0 51 6 59 15 7 8 25 15 40 15 16 0 41 6 57 14 41 21 112
40 119 33 9 -8 -91 -104 -116 -112 -10 -3 -29 -16 -44 -30 -14 -13 -55 -38
-91 -56 -36 -17 -65 -38 -65 -45 0 -16 26 -19 35 -5 3 5 34 23 69 40 35 17 71
40 81 51 10 11 24 20 32 20 8 0 30 12 49 26 19 15 38 23 42 19 4 -4 1 -10 -5
-12 -15 -5 -17 -23 -4 -23 14 0 111 62 111 71 0 4 -5 11 -10 14 -10 6 64 85
80 85 4 0 36 19 71 42 50 33 72 42 108 42 36 1 46 -3 49 -17 2 -10 -4 -28 -14
-39 -11 -11 -17 -31 -16 -47 2 -16 -4 -33 -12 -40 -9 -7 -13 -17 -10 -23 3 -5
12 -4 20 3 10 8 18 9 25 2 7 -7 3 -19 -14 -38 -23 -28 -47 -28 -47 0 0 9 -23
2 -73 -23 -53 -27 -76 -45 -84 -64 -15 -38 -1 -43 35 -13 38 32 69 32 84 1 15
-34 6 -50 -41 -75 -48 -25 -103 -27 -121 -6 -26 32 -90 3 -90 -41 0 -19 5 -24
28 -24 15 -1 38 -7 52 -15 15 -9 54 -14 97 -15 93 0 103 -9 103 -99 0 -49 4
-72 15 -81 8 -7 15 -21 15 -31 0 -21 -50 -100 -94 -147 -28 -30 -29 -33 -13
-49 15 -16 18 -16 35 0 23 21 72 23 72 3 0 -7 -7 -19 -15 -26 -8 -7 -15 -20
-15 -30 0 -17 -19 -22 -116 -34 -12 -1 -41 -18 -65 -38 -24 -19 -51 -38 -59
-42 -83 -37 -175 -122 -163 -152 3 -8 -3 -26 -12 -41 -13 -20 -18 -44 -16 -88
2 -55 5 -63 41 -100 45 -45 60 -41 36 9 -20 43 -20 80 0 100 20 20 156 23 172
3 6 -6 12 -69 13 -139 3 -141 1 -148 -66 -184 -36 -19 -45 -34 -22 -34 7 0 28
9 48 19 61 33 69 19 69 -114 0 -111 1 -114 26 -134 22 -17 30 -19 43 -9 25 20
31 31 31 60 0 43 10 61 26 47 9 -8 14 -34 14 -79 0 -70 -7 -85 -45 -92 -13 -2
-21 -13 -23 -31 -3 -27 -16 -35 -27 -17 -3 6 -13 10 -22 10 -13 0 -14 -7 -8
-42 4 -24 11 -115 14 -203 l6 -160 33 -3 c26 -3 38 -11 50 -34 22 -41 70 -96
94 -109 16 -9 25 -6 44 12 22 20 24 30 24 112 0 97 0 97 83 191 33 39 37 49
37 98 0 49 -3 57 -35 88 -63 62 -85 104 -85 164 0 30 6 67 14 83 74 146 106
218 106 237 0 13 7 29 15 36 8 7 15 23 15 35 0 13 8 38 17 57 9 18 22 45 30
60 7 14 13 35 13 46 0 11 7 25 15 32 9 7 15 29 15 52 0 21 7 53 16 69 14 28
14 33 0 54 -21 32 -22 121 -1 129 8 3 15 16 15 28 1 13 14 34 30 48 17 13 30
32 30 43 0 10 13 30 29 45 20 18 31 39 33 62 3 33 5 35 42 38 28 2 42 -1 48
-12 6 -10 23 -16 47 -16 27 0 41 -5 45 -16 5 -14 20 -16 89 -13 136 5 140 4
160 -40 21 -47 23 -124 2 -141 -10 -8 -15 -31 -15 -64 0 -29 -7 -59 -15 -70
-15 -20 -20 -77 -8 -89 4 -4 18 4 32 17 14 13 48 36 75 50 68 36 80 47 64 57
-7 5 -23 6 -34 3 -33 -8 -64 12 -64 42 0 13 7 27 15 30 11 5 15 22 15 65 0 46
5 63 23 85 34 39 47 24 47 -52 0 -60 1 -64 23 -64 21 0 22 4 23 81 1 74 4 84
25 101 31 24 70 19 85 -10 9 -19 13 -20 17 -8 11 28 37 19 37 -13 0 -34 -15
-48 -35 -31 -10 9 -16 4 -25 -25 -6 -19 -25 -48 -41 -64 -38 -38 -29 -41 121
-41 85 0 126 -4 146 -15 16 -8 37 -15 46 -15 9 0 20 -4 23 -10 3 -5 16 -10 27
-10 11 0 42 -13 69 -29 l48 -30 20 40 c19 35 21 57 21 189 0 94 4 151 11 155
23 15 56 -5 71 -44 14 -34 14 -42 2 -52 -10 -8 -14 -37 -14 -104 0 -114 4
-125 42 -125 26 0 29 3 25 23 -22 91 -22 97 17 129 42 34 45 57 16 113 -11 22
-20 47 -20 57 0 10 -8 21 -17 24 -10 3 -26 10 -35 15 -10 5 -27 9 -39 9 -39 0
-59 19 -59 54 0 26 -8 41 -32 61 -51 43 -75 51 -96 32 -40 -36 -60 -24 -216
132 -116 117 -155 150 -175 150 -14 -1 -38 2 -53 6 l-28 7 0 -88 c0 -63 4 -92
15 -104 13 -14 12 -19 -11 -43 -30 -33 -91 -38 -100 -9 -3 9 -11 31 -18 47 -8
17 -22 50 -32 75 -10 25 -38 76 -61 115 -46 74 -47 95 -9 127 36 30 84 23 120
-17 39 -42 56 -44 56 -7 0 34 -16 52 -46 52 -38 0 -94 107 -74 140 13 20 38 4
42 -26 2 -22 10 -30 38 -37 39 -9 96 -59 106 -91 10 -32 45 -66 69 -66 13 0
34 -16 54 -40 29 -37 61 -53 61 -31 0 5 -11 28 -24 52 -21 39 -23 52 -16 104
6 53 4 63 -15 86 -12 15 -27 41 -35 58 -11 28 -11 34 3 48 14 14 23 15 67 5
29 -7 65 -12 81 -12 16 0 47 -9 69 -20 36 -18 39 -23 42 -67 l3 -48 58 -3 c68
-4 68 -1 24 83 -29 53 -37 61 -81 77 -55 19 -101 59 -110 94 -5 20 -12 24 -39
22 -28 -3 -32 0 -32 22 0 29 26 38 47 17 14 -15 100 -16 145 -2 36 11 89 -58
137 -177 12 -30 25 -42 68 -62 78 -35 94 -54 102 -123 10 -91 54 -136 76 -78
11 30 24 31 49 6 48 -48 54 -69 52 -165 -1 -73 2 -96 14 -106 17 -14 21 -105
5 -115 -6 -4 -29 7 -52 24 -23 17 -48 31 -55 31 -7 0 -13 3 -13 8 -1 13 -44
39 -78 47 l-33 7 3 -88 3 -88 43 -33 c32 -24 54 -33 81 -33 44 0 68 -21 77
-68 4 -21 1 -40 -10 -57 -10 -15 -16 -46 -16 -82 0 -32 -7 -71 -15 -87 -8 -15
-15 -36 -15 -45 0 -10 -7 -26 -15 -37 -8 -10 -15 -29 -15 -40 0 -12 -7 -27
-15 -34 -8 -7 -15 -22 -15 -34 0 -11 -7 -30 -15 -40 -8 -11 -15 -30 -15 -42 0
-12 -7 -27 -15 -34 -8 -7 -15 -20 -15 -30 0 -10 -7 -23 -15 -30 -8 -7 -15 -20
-15 -29 0 -10 -7 -26 -15 -37 -8 -10 -15 -27 -15 -37 0 -11 -6 -31 -14 -45 -8
-15 -31 -61 -51 -102 -20 -41 -50 -96 -66 -122 -17 -25 -34 -61 -39 -80 -23
-94 -77 -210 -138 -302 -26 -38 -57 -83 -69 -101 -12 -18 -35 -47 -52 -66 -17
-18 -31 -39 -31 -45 0 -6 -26 -38 -58 -70 -32 -32 -77 -84 -100 -115 -22 -31
-70 -86 -107 -122 -36 -35 -65 -73 -65 -84 0 -12 -13 -25 -35 -36 -19 -9 -35
-20 -35 -25 0 -4 -15 -6 -34 -4 -18 2 -37 -1 -40 -7 -4 -6 -24 -11 -44 -11
-20 0 -50 -7 -66 -15 -15 -8 -32 -15 -37 -15 -14 0 -11 28 4 33 9 3 9 7 -1 20
-7 8 -15 35 -17 58 -3 24 -9 47 -15 53 -6 6 -10 76 -10 173 0 129 3 170 16
194 16 32 16 69 -1 72 -5 1 -19 -22 -31 -51 -12 -29 -26 -58 -33 -65 -18 -18
-15 -328 4 -353 8 -10 15 -36 15 -57 0 -24 5 -40 15 -43 18 -7 20 -38 3 -51
-20 -16 -97 -23 -105 -10 -4 7 -6 41 -4 76 2 50 0 62 -11 59 -7 -3 -14 -22
-16 -44 -2 -21 -7 -43 -12 -49 -5 -6 -11 -23 -14 -37 -5 -27 -44 -88 -57 -88
-9 0 -19 26 -19 49 0 10 9 28 20 41 22 25 25 36 11 45 -16 9 -41 -56 -41 -106
0 -29 -6 -53 -15 -63 -8 -8 -15 -23 -15 -34 0 -15 5 -18 25 -14 27 5 27 5 29
-70 1 -56 20 -65 24 -11 2 20 10 46 18 57 8 11 14 31 14 43 0 16 6 23 19 23
11 0 26 7 35 15 8 8 25 15 38 15 13 0 33 7 44 15 10 8 33 15 50 15 17 0 37 7
44 15 7 8 22 15 34 15 12 0 31 7 42 15 10 8 29 15 40 15 12 0 27 7 34 15 7 8
21 15 32 15 10 0 21 7 24 15 4 9 19 15 40 15 27 0 34 -4 34 -19 0 -10 -7 -24
-15 -31 -9 -7 -15 -29 -15 -55 0 -26 -6 -48 -15 -55 -9 -7 -15 -29 -15 -54 0
-52 -31 -86 -77 -86 -17 0 -36 -7 -43 -15 -7 -8 -28 -15 -47 -15 -21 0 -36 -6
-39 -15 -4 -8 -16 -15 -28 -15 -12 0 -31 -7 -42 -15 -10 -8 -34 -15 -53 -15
-22 0 -46 -11 -72 -30 -35 -28 -44 -31 -101 -28 l-63 3 -3 38 c-2 20 -8 37
-14 37 -14 0 -37 -31 -38 -51 0 -9 -7 -22 -15 -29 -11 -9 -12 -17 -5 -30 14
-26 12 -51 -4 -69 -24 -27 -147 -272 -143 -285 2 -6 61 45 131 114 l126 124
26 -27 c18 -20 34 -27 62 -27 21 0 43 -5 50 -12 9 -9 15 -9 24 0 7 7 22 12 34
12 28 0 38 23 35 84 -3 53 6 66 50 66 15 0 32 7 39 15 16 19 49 19 56 1 5 -13
-43 -65 -93 -101 -10 -7 1 -10 39 -10 l53 0 3 -41 c2 -27 -2 -45 -13 -54 -8
-7 -15 -18 -15 -24 0 -6 -14 -27 -32 -46 -18 -19 -47 -57 -65 -84 -41 -60
-272 -291 -368 -367 -39 -31 -93 -80 -120 -108 -28 -29 -85 -73 -128 -99 -57
-34 -114 -83 -222 -193 -80 -81 -145 -154 -145 -161 0 -8 -16 -29 -35 -48 -19
-19 -35 -39 -35 -45 0 -6 -18 -32 -40 -59 -22 -26 -40 -54 -40 -60 0 -7 -14
-25 -31 -42 -17 -16 -38 -42 -46 -59 -8 -16 -33 -49 -55 -71 -22 -23 -45 -51
-52 -63 -6 -11 -35 -55 -63 -97 -29 -42 -53 -82 -53 -88 0 -7 -9 -21 -19 -30
-11 -10 -27 -32 -36 -49 -21 -44 -35 -66 -67 -108 -16 -20 -28 -44 -28 -52 0
-8 -7 -20 -15 -27 -8 -7 -15 -16 -15 -21 0 -5 -14 -28 -30 -51 -17 -22 -30
-47 -30 -55 0 -7 -11 -32 -25 -54 -14 -22 -30 -50 -35 -62 -6 -12 -14 -29 -19
-37 -5 -8 -12 -22 -16 -30 -10 -26 -61 -104 -136 -207 -17 -24 -30 -51 -29
-60 3 -49 2 -94 -5 -151 l-8 -64 79 -79 c64 -64 76 -81 64 -89 -21 -14 -36
-12 -50 5 -7 8 -22 15 -34 15 -12 0 -31 7 -42 15 -10 8 -28 15 -40 15 -25 0
-48 24 -74 75 -17 34 -20 62 -20 258 l-1 220 39 41 c22 23 47 56 57 75 9 18
32 49 51 68 23 22 34 43 34 62 0 16 7 34 15 41 8 7 15 18 15 25 0 6 24 38 53
71 29 32 63 76 76 97 12 20 26 37 31 37 4 0 10 10 14 23 3 13 17 36 31 51 14
15 25 33 25 39 0 7 14 27 30 45 17 18 30 39 30 45 0 7 13 27 29 45 16 17 32
40 35 49 3 10 17 30 31 45 14 15 25 32 25 37 0 6 27 40 60 78 33 37 60 72 60
78 0 6 27 40 60 76 33 35 60 69 60 74 0 6 25 38 55 70 30 33 55 66 55 74 0 7
14 29 30 48 17 18 30 39 30 45 0 5 14 26 30 45 17 18 30 40 30 47 0 8 7 19 15
26 10 8 15 30 15 65 0 45 11 74 85 223 47 94 85 174 85 177 0 3 -6 5 -13 5 -7
0 -24 -19 -37 -42 -13 -23 -62 -82 -109 -133 -47 -50 -102 -109 -121 -131 -19
-21 -57 -54 -85 -71 -56 -37 -135 -90 -167 -114 -29 -22 -15 -39 33 -39 21 0
39 -5 39 -10 0 -6 -11 -28 -25 -50 -14 -22 -25 -44 -25 -50 0 -5 -4 -10 -9
-10 -5 0 -13 -13 -19 -28 -5 -15 -62 -80 -126 -143 -72 -73 -116 -124 -116
-136 0 -12 -7 -23 -15 -27 -8 -3 -15 -16 -15 -30 0 -13 -7 -26 -15 -30 -8 -3
-15 -14 -15 -25 0 -11 -11 -32 -25 -47 -14 -15 -25 -36 -25 -47 0 -20 1 -20
25 3 14 13 25 29 25 35 0 15 71 66 82 59 11 -7 10 -34 -2 -34 -5 0 -16 -15
-25 -33 -9 -19 -31 -49 -50 -67 -19 -19 -35 -41 -35 -50 0 -9 -11 -27 -25 -40
-27 -25 -24 -26 -41 28 -5 18 -24 5 -24 -17 0 -10 -7 -24 -15 -31 -8 -7 -15
-20 -15 -30 0 -10 -7 -23 -15 -30 -8 -7 -15 -20 -15 -29 0 -10 -13 -30 -30
-46 -16 -16 -30 -36 -30 -46 0 -9 -7 -22 -15 -29 -8 -7 -15 -23 -15 -36 0 -13
-4 -24 -9 -24 -5 0 -13 -10 -16 -22 -4 -13 -67 -84 -140 -158 -72 -74 -142
-150 -154 -168 -13 -18 -27 -30 -32 -27 -14 9 -10 68 6 89 8 11 15 32 15 46 0
14 7 35 15 46 9 12 14 43 15 88 0 50 5 75 16 87 9 10 14 26 10 35 -6 14 -9 14
-30 -7 -30 -31 -46 -62 -46 -90 0 -12 -14 -52 -31 -88 -18 -36 -45 -93 -60
-126 -16 -33 -29 -69 -29 -81 0 -11 -7 -29 -15 -40 -8 -10 -15 -29 -15 -41 0
-12 -4 -24 -9 -28 -5 -3 -13 -20 -16 -38 -4 -17 -21 -61 -37 -97 -16 -35 -28
-74 -27 -85 5 -43 -12 -67 -67 -91 -30 -13 -65 -24 -78 -24 -13 0 -37 -7 -52
-15 -17 -9 -56 -15 -94 -15 -73 0 -115 -22 -108 -56 5 -27 95 -32 156 -8 40
15 45 15 60 0 14 -14 14 -21 3 -52 -7 -19 -10 -38 -7 -41 3 -3 30 13 60 36 53
40 98 52 111 31 8 -13 -28 -43 -78 -66 -21 -10 -36 -22 -34 -28 6 -18 53 -18
67 -2 7 9 23 16 35 16 23 0 132 67 155 95 17 20 39 19 47 -2 12 -34 46 -63 74
-63 33 0 84 -26 117 -60 36 -38 74 -60 103 -60 15 0 29 -7 33 -15 3 -10 19
-15 45 -15 25 0 41 -5 45 -15 4 -11 21 -15 60 -15 39 0 55 -4 60 -15 3 -8 14
-15 25 -15 11 0 39 -18 63 -40 24 -22 53 -43 65 -46 12 -3 24 -12 27 -20 6
-15 46 -20 46 -5 0 5 -7 14 -15 21 -16 14 -20 36 -7 44 11 6 79 -17 94 -32 7
-7 22 -12 35 -12 13 0 23 -4 23 -10 0 -5 12 -13 28 -16 15 -4 36 -13 47 -20
11 -8 29 -14 42 -14 12 0 25 -4 28 -10 8 -13 52 -13 60 0 3 6 17 10 31 10 30
0 102 63 106 93 2 17 12 23 41 28 21 3 43 11 50 18 6 6 19 11 28 11 9 0 22 7
29 15 7 8 24 15 37 15 24 0 36 5 118 47 72 37 51 57 -30 28 -46 -17 -105 -20
-105 -6 0 11 1 12 167 96 89 45 112 61 94 63 -13 2 -28 -1 -34 -7 -16 -16 -67
-13 -73 4 -8 20 -15 19 -73 -7 -49 -21 -58 -38 -20 -38 10 0 19 -4 19 -9 0
-12 -72 -61 -117 -80 -11 -6 -24 -15 -28 -20 -8 -13 -42 -14 -49 -2 -13 20 9
42 65 68 59 27 59 28 38 44 -17 13 -19 20 -11 36 15 27 79 83 96 83 8 0 19 7
26 15 7 8 20 15 30 15 10 0 23 7 30 15 7 8 21 15 32 15 10 0 21 7 24 15 4 8
17 15 30 15 14 0 27 7 30 15 4 8 17 15 30 15 14 0 27 7 30 15 4 8 16 15 29 15
13 0 25 7 29 15 3 8 16 15 30 15 13 0 27 7 30 16 9 23 -2 31 -22 16 -9 -7 -24
-15 -32 -18 -8 -3 -22 -9 -30 -14 -50 -29 -204 -100 -215 -100 -31 0 -25 24
16 67 48 49 110 93 133 93 7 0 19 7 26 15 11 13 10 18 -5 29 -22 16 -15 39 19
61 30 20 46 13 46 -21 0 -23 2 -24 69 -24 39 0 73 4 76 10 12 19 35 10 35 -14
0 -15 -7 -26 -20 -29 -11 -3 -20 -10 -20 -16 0 -16 26 -13 40 4 7 8 23 15 36
15 13 0 24 4 24 10 0 5 12 13 28 16 15 4 37 13 48 21 12 8 37 13 56 11 19 -1
45 6 58 15 14 9 41 17 61 17 29 0 43 6 58 26 12 15 21 32 21 39 0 7 19 15 42
19 45 7 58 -2 58 -42 0 -12 7 -34 16 -47 14 -22 23 -25 79 -25 l62 0 13 46
c17 61 7 77 -56 85 -58 7 -112 28 -118 46 -9 21 24 72 71 111 25 20 66 54 90
75 54 45 68 46 82 7 25 -73 87 -32 100 65 8 59 27 85 61 85 38 0 53 -49 25
-86 -8 -10 -15 -28 -15 -39 0 -11 -7 -29 -15 -39 -8 -11 -15 -32 -15 -46 0
-14 -7 -35 -15 -46 -19 -25 -19 -49 1 -79 18 -28 12 -42 -22 -55 -19 -8 -24
-17 -24 -44 0 -18 -2 -46 -5 -62 -3 -16 -1 -36 4 -44 8 -12 16 -8 44 23 19 20
42 37 50 37 8 0 25 17 38 38 12 20 36 53 54 72 36 39 65 110 65 157 0 17 7 44
15 59 8 16 15 38 15 50 0 11 13 45 30 75 22 40 30 67 30 105 0 27 4 54 10 60
5 5 14 37 19 69 11 69 30 142 42 167 5 10 9 35 9 57 0 57 8 71 41 71 37 0 47
-22 25 -55 -10 -15 -16 -46 -16 -82 -1 -35 -6 -66 -15 -77 -8 -11 -15 -40 -15
-65 0 -25 -7 -59 -15 -75 -8 -15 -15 -49 -15 -75 -1 -25 -7 -57 -15 -71 -8
-14 -14 -37 -15 -51 0 -15 -7 -43 -15 -62 -8 -20 -15 -52 -15 -70 0 -19 -7
-51 -15 -70 -8 -20 -15 -54 -15 -76 0 -38 -24 -92 -60 -136 -25 -31 -44 -74
-36 -82 11 -11 38 10 73 58 17 24 50 65 74 91 49 56 112 175 104 196 -4 12 -8
13 -17 4 -17 -17 -45 -15 -52 4 -5 14 1 28 40 96 23 39 54 68 73 68 33 0 91
-40 91 -62 0 -11 -11 -33 -25 -50 -14 -16 -25 -42 -25 -58 0 -16 -13 -57 -28
-92 -58 -127 -71 -180 -52 -203 19 -22 42 -18 68 13 21 23 23 34 17 78 -7 61
9 84 57 84 21 0 38 9 56 29 19 22 30 28 42 21 10 -6 32 -4 59 6 47 16 61 12
61 -16 0 -13 -14 -27 -40 -40 -50 -26 -56 -40 -36 -81 9 -18 16 -45 16 -61 0
-43 24 -30 28 15 7 83 83 167 96 105 3 -13 7 -32 9 -43 3 -11 5 12 6 52 1 42
6 75 13 79 15 10 38 -24 38 -56 0 -14 4 -30 8 -36 5 -5 17 -31 27 -58 9 -26
30 -62 46 -80 34 -39 44 -75 27 -98 -18 -23 -170 -67 -175 -51 -5 14 -131 7
-148 -8 -5 -5 -19 -9 -32 -9 -12 0 -46 -13 -75 -28 -29 -16 -97 -43 -151 -61
-53 -18 -95 -37 -91 -42 3 -5 54 -9 113 -9 84 0 111 3 121 15 8 9 30 15 59 15
25 0 55 7 65 15 11 8 36 15 55 15 20 0 45 7 55 15 11 8 32 15 47 15 14 0 32 7
39 15 7 8 24 15 39 15 14 0 35 7 45 15 11 8 36 15 55 15 20 0 45 7 55 15 11 8
36 15 56 15 30 0 44 -9 94 -59 33 -33 70 -62 82 -65 13 -4 24 -11 24 -16 0 -6
37 -10 88 -10 62 0 94 -4 108 -15 10 -8 29 -15 40 -15 12 0 27 -7 34 -15 7 -8
24 -15 37 -15 16 0 44 -17 75 -45 28 -25 54 -45 59 -45 5 0 28 -13 51 -30 22
-16 46 -30 51 -30 6 0 18 -6 26 -14 9 -7 33 -16 54 -20 50 -9 49 8 -3 63 -26
28 -40 51 -40 69 0 20 -20 47 -80 108 -44 45 -80 89 -80 98 0 25 30 31 62 13
30 -17 79 -23 91 -11 3 4 2 15 -4 26 -13 24 -13 25 33 33 31 6 39 4 45 -10 4
-12 0 -23 -12 -31 -16 -12 -17 -14 -2 -20 25 -9 20 -33 -8 -44 -15 -6 -25 -17
-25 -30 0 -18 6 -20 73 -20 62 0 78 -4 107 -25 27 -20 46 -25 91 -25 32 0 61
5 64 10 3 6 43 10 88 10 70 0 85 3 100 20 21 25 51 26 74 2 44 -44 52 -46 197
-49 78 -2 153 1 167 6 21 9 22 10 4 11 -41 2 -100 79 -73 96 7 4 5 10 -5 16
-10 5 -32 3 -59 -7 -24 -8 -68 -15 -98 -15 -30 0 -68 -7 -84 -15 -17 -9 -55
-15 -96 -15 -37 0 -83 -6 -101 -13 -48 -19 -154 -17 -154 3 0 10 13 16 42 18
23 2 47 10 53 18 7 7 27 14 44 14 17 0 40 7 50 15 11 8 32 15 46 15 14 0 32 6
38 12 7 7 36 15 64 18 59 6 72 22 30 39 -16 7 -39 25 -51 42 -12 16 -30 29
-41 29 -22 0 -55 44 -45 60 11 18 33 11 58 -20 30 -35 66 -39 93 -9 18 20 18
22 1 51 -33 58 -15 82 33 42 26 -22 35 -25 53 -16 22 11 95 29 155 39 35 6
122 92 122 122 0 9 -49 62 -109 119 -94 89 -160 170 -208 255 -19 34 -44 49
-60 35 -11 -9 -28 3 -83 60 -39 39 -70 77 -70 85 0 8 -7 20 -15 27 -8 7 -15
23 -15 35 0 12 -7 28 -15 35 -8 7 -15 20 -15 30 0 10 7 23 15 30 21 17 19 25
-15 63 -16 19 -30 41 -30 49 0 8 -13 27 -30 43 -16 16 -30 37 -30 46 0 10 -4
20 -9 23 -5 4 -19 27 -31 54 -12 26 -26 54 -31 62 -5 8 -12 22 -15 30 -3 8
-10 22 -15 30 -5 8 -12 22 -15 30 -3 8 -10 22 -15 30 -5 8 -12 22 -15 30 -4 8
-32 69 -64 135 -77 160 -99 224 -177 510 -22 81 -33 106 -60 131 -18 17 -36
45 -39 62 -4 18 -13 37 -20 43 -8 6 -14 19 -14 28 0 9 -7 29 -15 45 -8 15 -15
52 -15 81 0 59 -7 85 -22 85 -20 0 -68 42 -68 59 0 10 -7 24 -15 31 -8 7 -15
20 -15 30 0 10 -7 23 -15 30 -8 7 -15 20 -15 30 0 10 -7 23 -15 30 -8 7 -15
20 -15 30 0 10 -7 23 -15 30 -8 7 -15 20 -15 30 0 10 -7 23 -15 30 -8 7 -15
20 -15 30 0 10 -7 23 -15 30 -8 7 -15 20 -15 30 0 10 -7 23 -15 30 -8 7 -15
20 -15 30 0 10 -7 23 -15 30 -8 7 -15 20 -15 30 0 10 -7 23 -15 30 -8 7 -15
27 -15 45 0 18 -7 38 -15 45 -8 7 -15 20 -15 30 0 10 -7 23 -15 30 -8 7 -15
20 -15 30 0 10 -7 23 -15 30 -8 7 -15 17 -15 22 0 16 -108 158 -166 218 -59
61 -94 120 -94 160 0 14 -7 35 -15 46 -16 21 -20 80 -6 89 6 3 14 -3 20 -12 8
-15 12 -16 23 -5 11 11 10 18 -5 43 -10 19 -17 51 -17 83 0 30 -6 60 -15 72
-8 10 -15 40 -15 66 0 51 -16 71 -35 44 -12 -15 -13 -15 -19 0 -3 8 -6 28 -6
43 0 14 -7 37 -17 50 -13 19 -16 48 -16 144 0 117 1 122 25 141 14 12 31 31
37 44 6 12 21 22 31 22 11 0 20 4 20 10 0 13 -79 70 -97 70 -29 0 -8 35 22 38
17 1 40 8 53 14 32 16 44 -4 37 -58 l-6 -42 38 -4 c22 -3 41 0 45 6 4 6 8 37
8 69 0 42 -4 59 -15 63 -21 9 -19 32 5 39 23 7 62 -3 72 -18 3 -6 26 -10 50
-9 32 2 50 -3 68 -18 12 -11 29 -20 36 -20 42 0 70 -65 39 -90 -26 -22 -18
-90 15 -130 22 -25 30 -45 30 -72 0 -37 13 -57 25 -38 3 5 26 10 51 10 25 0
56 7 70 17 24 15 27 15 70 -15 48 -34 78 -39 130 -20 28 10 36 9 51 -5 30 -26
171 -97 195 -97 12 0 35 -4 52 -10 17 -5 44 -12 59 -15 16 -3 32 -16 39 -30 6
-13 23 -29 38 -35 15 -6 36 -27 46 -46 12 -22 26 -34 40 -34 26 0 54 -30 54
-57 0 -16 12 -25 48 -38 58 -21 76 -21 126 -3 49 19 54 29 48 87 -2 27 0 51 5
54 5 3 26 1 46 -5 20 -6 40 -8 43 -5 13 13 -19 37 -50 37 -27 0 -42 11 -91 65
-38 42 -67 65 -81 65 -12 0 -41 7 -64 15 -23 8 -56 15 -72 15 -21 0 -31 6 -37
23 -13 34 -61 71 -146 112 -72 35 -115 73 -115 101 0 7 -10 16 -22 20 -13 4
-44 29 -70 55 -41 42 -47 53 -42 79 7 32 5 34 -58 45 -28 4 -38 11 -38 25 0
10 -13 34 -30 52 -16 18 -30 39 -30 48 -1 8 -22 25 -48 38 -61 29 -139 30
-175 2 -34 -27 -46 -25 -83 11 -18 17 -47 34 -66 38 -24 5 -34 13 -36 29 -4
24 16 30 35 11 15 -15 43 -4 43 16 0 9 -7 23 -16 32 -21 21 -15 87 9 91 12 3
17 -3 17 -21 0 -14 7 -30 15 -37 10 -8 15 -31 15 -66 0 -52 15 -79 30 -54 5 7
6 28 3 45 -3 19 0 35 6 39 6 4 11 24 11 45 0 20 7 46 15 57 8 10 15 27 15 37
0 11 6 31 13 45 8 15 21 42 30 60 9 19 17 48 17 66 0 18 7 41 15 52 8 10 15
33 15 49 0 37 14 60 29 51 16 -10 13 -106 -4 -136 -14 -25 -21 -121 -9 -133 9
-8 44 37 44 56 0 8 7 20 15 27 9 8 15 30 15 59 0 26 7 56 15 67 8 10 15 36 15
56 0 37 15 57 30 42 5 -5 12 -45 15 -90 6 -67 5 -83 -9 -96 -11 -11 -16 -32
-15 -65 l2 -48 7 40 c4 22 12 53 19 68 6 16 11 43 11 61 0 19 7 53 15 76 8 23
15 62 15 87 0 39 6 68 40 178 5 17 10 154 12 305 3 343 -9 320 167 320 92 0
129 -4 156 -17 26 -12 38 -14 46 -6 22 22 2 43 -43 43 -30 1 -52 8 -72 24 -28
23 -28 24 -8 35 34 18 99 14 122 -9 11 -11 25 -20 30 -20 39 0 -45 92 -118
128 -23 12 -57 22 -75 22 -18 0 -41 7 -51 15 -11 8 -34 15 -52 15 -40 0 -94
29 -94 51 0 8 -13 28 -30 44 -19 18 -30 39 -30 56 0 56 -55 77 -103 39 l-26
-21 -31 33 c-18 18 -44 41 -58 50 -34 23 -120 25 -128 3 -4 -8 -16 -15 -28
-15 -12 0 -33 -13 -47 -29 -14 -16 -42 -38 -62 -49 -20 -11 -55 -38 -77 -61
-22 -22 -48 -41 -58 -41 -10 0 -29 -13 -42 -30 -14 -16 -34 -29 -45 -30 -11 0
-33 -14 -49 -30 -16 -17 -37 -30 -47 -30 -10 0 -22 -6 -26 -12 -4 -7 -25 -22
-47 -33 -21 -11 -41 -25 -43 -32 -3 -7 -11 -13 -18 -13 -7 0 -37 -16 -66 -35
-61 -40 -89 -45 -89 -16 0 11 5 23 10 26 6 3 10 17 10 30 0 12 7 25 15 29 8 3
15 16 15 30 0 13 7 26 15 30 8 3 15 15 15 26 0 12 14 34 31 50 40 36 32 49
-26 40 -36 -5 -56 -17 -88 -49 -24 -22 -47 -41 -52 -41 -14 0 -75 76 -75 93 0
8 -7 20 -15 27 -8 7 -15 22 -15 34 0 12 -7 31 -15 42 -8 10 -15 30 -15 44 0
14 -7 34 -15 44 -8 11 -15 30 -15 42 0 12 -7 27 -15 34 -11 9 -15 35 -15 105
0 70 -4 96 -15 105 -8 7 -15 20 -15 30 0 37 -32 50 -121 50 -55 0 -94 5 -113
15 -53 28 -90 20 -140 -31z m269 -454 l0 -55 -38 -3 c-44 -4 -46 -25 -4 -30
15 -2 32 -13 38 -25 10 -18 8 -24 -17 -44 -55 -44 -134 -21 -134 38 0 9 -7 22
-15 29 -22 18 -19 35 15 74 38 42 97 76 130 73 23 -2 25 -6 25 -57z m-1068 4
c-9 -9 -28 6 -21 18 4 6 10 6 17 -1 6 -6 8 -13 4 -17z m453 -3 c0 -10 -7 -24
-15 -31 -8 -7 -15 -20 -15 -29 -1 -25 -38 -64 -55 -57 -19 7 -19 40 0 56 8 7
15 21 15 31 0 19 35 49 57 49 7 0 13 -8 13 -19z m1590 -100 c0 -15 -158 -170
-200 -196 -20 -13 -55 -40 -76 -59 -22 -20 -47 -36 -56 -36 -9 0 -21 -6 -25
-14 -4 -7 -25 -23 -45 -33 -21 -11 -56 -39 -78 -62 -22 -22 -55 -49 -73 -59
-18 -9 -46 -30 -62 -45 -32 -30 -52 -31 -68 -6 -10 16 -8 27 12 59 5 8 17 34
27 58 17 42 83 112 106 112 6 0 19 7 29 16 18 16 59 11 59 -7 0 -5 -11 -22
-25 -37 -21 -23 -23 -28 -9 -30 10 -3 42 21 78 57 34 34 68 61 76 61 8 0 33
18 55 40 22 21 46 39 53 40 7 0 37 23 66 50 29 28 57 50 62 50 5 0 23 11 39
25 31 25 55 32 55 16z m300 -89 c0 -39 -11 -73 -21 -66 -10 6 -12 87 -3 97 12
12 24 -4 24 -31z m-1300 -47 c0 -18 -5 -25 -20 -25 -20 0 -28 28 -13 43 15 16
33 6 33 -18z m-594 -115 c21 0 64 -38 64 -57 0 -7 -11 -13 -25 -13 -14 0 -25
-4 -25 -9 0 -18 95 -101 116 -101 12 0 47 11 78 25 72 32 99 33 94 3 -2 -12
-14 -28 -28 -35 -34 -17 -31 -34 7 -47 41 -14 55 -29 48 -49 -10 -24 -34 -29
-58 -12 -12 8 -36 15 -55 15 -18 0 -43 5 -54 11 -11 6 -36 11 -55 11 -32 0
-36 4 -64 64 -17 35 -36 64 -43 64 -15 0 -116 96 -116 111 0 6 10 20 21 30 19
17 24 17 50 4 15 -8 36 -15 45 -15z m-105 -120 c10 -6 19 -17 19 -25 0 -20 48
-73 81 -91 31 -15 38 -41 15 -50 -18 -7 -156 132 -156 157 0 21 12 24 41 9z
m836 -76 c6 -17 -20 -44 -43 -44 -18 0 -26 30 -13 46 16 19 48 18 56 -2z
m-953 -111 c-6 -23 -4 -25 14 -21 14 4 29 -3 47 -22 23 -24 30 -27 46 -17 16
10 27 3 83 -53 70 -70 85 -108 54 -137 -11 -10 -18 -30 -18 -53 0 -22 -12 -58
-30 -91 -16 -30 -30 -66 -30 -81 0 -14 -6 -39 -14 -55 -8 -15 -21 -44 -29 -63
-31 -74 -39 -87 -87 -138 -33 -34 -50 -61 -50 -77 0 -15 -7 -28 -17 -32 -10
-3 -28 -15 -39 -25 -22 -19 -22 -19 -43 3 -23 25 -29 87 -10 106 9 9 6 19 -10
39 -27 34 -26 42 4 56 l25 11 -30 18 c-24 15 -30 26 -30 53 0 53 -14 51 -41
-6 -30 -65 -107 -148 -137 -148 -29 0 -39 25 -19 45 14 14 14 20 -6 60 -25 52
-50 56 -55 10 -2 -17 -8 -36 -14 -42 -13 -16 -74 -17 -84 -1 -9 15 50 68 76
68 14 0 18 5 13 16 -4 10 5 25 23 42 43 39 64 73 64 102 0 14 7 34 15 44 8 11
15 29 15 40 1 12 12 34 25 51 l24 29 10 -27 c6 -15 12 -27 15 -27 2 0 14 16
27 36 16 26 23 54 24 98 1 33 7 74 14 89 6 16 11 30 11 33 0 2 12 23 26 45 25
40 27 41 69 37 24 -3 49 -2 57 3 19 12 19 12 12 -18z m-256 0 c12 -22 1 -52
-27 -77 -19 -17 -21 -17 -27 -2 -3 9 -10 16 -14 16 -5 0 -34 -27 -66 -60 -60
-63 -74 -70 -94 -45 -11 13 -3 25 47 76 106 106 160 133 181 92z m1849 1 c3
-8 0 -26 -7 -39 -7 -13 -9 -28 -5 -35 4 -7 1 -24 -6 -38 -18 -37 -70 -92 -81
-86 -4 3 -8 23 -8 45 0 43 -5 47 -31 23 -17 -15 -19 -14 -34 22 -20 47 -17 55
31 78 22 11 50 25 64 32 34 18 69 17 77 -2z m-469 -137 c3 -14 -1 -18 -20 -15
-12 2 -24 11 -26 21 -3 14 1 18 20 15 12 -2 24 -11 26 -21z m572 -26 c0 -21
-7 -55 -15 -74 -8 -20 -15 -47 -15 -61 0 -39 -16 -39 -41 0 -21 34 -21 37 -5
70 9 19 16 46 16 59 0 13 8 29 18 34 32 19 42 13 42 -28z m190 -18 c16 -36 16
-44 4 -60 -7 -10 -14 -29 -14 -43 0 -14 -7 -34 -15 -44 -8 -11 -15 -33 -15
-48 0 -33 -24 -47 -51 -30 -10 7 -27 12 -37 12 -10 0 -21 2 -24 5 -7 7 27 104
41 118 6 6 11 22 11 34 0 38 51 108 73 100 4 -1 17 -21 27 -44z m-1448 12 c41
-8 52 -36 31 -79 -9 -20 -20 -36 -25 -36 -12 0 -87 70 -99 92 -16 29 5 48 39
37 15 -5 39 -11 54 -14z m1678 -109 c0 -81 -3 -99 -26 -141 -21 -40 -24 -53
-15 -72 28 -62 5 -93 -68 -93 -35 0 -41 3 -47 25 -3 14 -4 53 -2 85 5 63 34
110 68 110 32 0 50 35 55 104 2 37 7 71 10 77 16 25 25 -10 25 -95z m-2445 -3
c-10 -21 -36 -59 -59 -84 -22 -26 -49 -58 -59 -72 -37 -55 -137 -109 -137 -75
0 14 29 47 179 209 79 84 109 93 76 22z m1873 10 c-5 -25 -28 -28 -28 -4 0 12
6 21 16 21 9 0 14 -7 12 -17z m360 -222 c-2 -28 -7 -52 -11 -54 -4 -1 -18 15
-29 35 l-22 38 24 25 c31 33 42 20 38 -44z m140 -113 c16 -16 15 -50 -3 -74
-8 -10 -15 -38 -15 -60 0 -24 -6 -47 -15 -54 -10 -8 -15 -31 -15 -66 0 -45 -3
-54 -21 -59 -11 -4 -24 -4 -27 0 -4 4 -8 64 -10 135 -3 121 -2 131 19 159 24
33 64 42 87 19z m-560 -15 c-4 -20 -35 -30 -50 -15 -15 15 0 32 28 32 19 0 25
-5 22 -17z m332 -28 c12 -14 15 -14 31 1 9 8 26 14 36 12 16 -3 18 -17 21
-151 2 -140 2 -147 -17 -147 -11 0 -28 11 -39 25 -11 14 -26 25 -33 25 -22 0
-59 42 -59 68 0 14 7 30 16 37 27 19 5 69 -32 73 -46 5 -52 20 -19 47 34 28
77 32 95 10z m-366 -50 c19 -19 42 -50 51 -69 18 -37 72 -76 106 -76 25 0 62
-37 55 -56 -3 -8 -19 -14 -36 -14 -23 0 -33 -6 -42 -25 -13 -30 -55 -34 -65
-7 -3 9 -16 28 -29 42 -12 14 -39 49 -58 79 -30 44 -36 62 -36 107 0 30 4 54
10 54 5 0 25 -16 44 -35z m-1998 -77 c8 -26 -17 -48 -46 -41 -25 7 -25 11 2
40 27 29 35 29 44 1z m1076 -48 c6 -29 4 -37 -12 -49 -11 -7 -20 -21 -20 -30
-1 -19 -34 -61 -49 -61 -19 0 -51 63 -51 102 0 32 5 39 38 56 56 30 85 25 94
-18z m88 -20 c0 -44 -3 -52 -25 -62 -21 -9 -29 -9 -42 5 -15 15 -15 19 1 61
14 37 22 46 42 46 22 0 24 -4 24 -50z m-1080 -45 c0 -26 -30 -75 -45 -75 -23
0 -18 39 8 66 26 28 37 30 37 9z m280 -8 c0 -25 -52 -82 -63 -70 -22 21 13 92
46 93 11 0 17 -8 17 -23z m87 -24 c7 -10 18 -28 23 -41 5 -12 18 -25 27 -28
10 -4 32 -12 50 -20 17 -8 40 -14 50 -14 10 0 24 -5 30 -11 6 -6 25 -14 43
-18 49 -10 40 -26 -18 -29 -35 -2 -59 2 -74 12 -12 9 -34 16 -49 16 -15 0 -32
7 -39 15 -7 8 -22 15 -34 15 -34 0 -46 19 -46 72 0 51 12 61 37 31z m1429 -39
c-5 -13 -10 -14 -18 -6 -6 6 -8 18 -4 28 5 13 10 14 18 6 6 -6 8 -18 4 -28z
m394 12 c0 -19 -14 -28 -34 -20 -25 10 -19 34 9 34 15 0 25 -6 25 -14z m-175
-129 c4 -17 11 -36 15 -42 13 -18 19 -60 11 -73 -5 -8 -19 -12 -32 -10 -21 3
-24 9 -27 50 -2 25 -10 52 -18 58 -20 18 -17 35 9 47 28 13 34 10 42 -30z
m-217 -79 c-6 -18 -28 -21 -28 -4 0 9 7 16 16 16 9 0 14 -5 12 -12z m72 -73
c21 -55 92 -88 106 -50 4 9 19 15 35 15 27 0 29 -3 29 -38 0 -21 -7 -48 -16
-60 -14 -20 -23 -23 -72 -20 -53 3 -58 5 -89 46 -26 34 -33 53 -33 88 0 50 24
62 40 19z m-1895 -35 c0 -21 -5 -26 -32 -28 -31 -3 -33 -1 -33 28 0 29 2 31
33 28 27 -2 32 -7 32 -28z m2420 -35 c38 -38 44 -55 20 -55 -8 0 -15 4 -15 9
0 5 -10 13 -22 17 -32 10 -67 37 -68 52 0 25 50 12 85 -23z m-2361 -141 c10
-27 7 -54 -15 -105 -23 -52 -28 -56 -46 -38 -7 7 -22 13 -35 14 -13 1 -26 3
-30 4 -11 1 -10 33 1 50 5 8 26 17 47 20 28 5 40 12 42 26 8 47 24 60 36 29z
m1764 -36 c15 -15 16 -74 1 -83 -16 -10 -59 35 -59 61 0 31 35 45 58 22z
m-2029 -121 c7 -9 8 -34 3 -73 -6 -49 -10 -59 -27 -59 -24 0 -45 38 -45 82 0
50 43 81 69 50z m87 -12 c7 -18 -14 -47 -27 -39 -5 3 -9 16 -9 30 0 27 27 34
36 9z m1924 -77 l58 -62 1 -87 c0 -49 -2 -95 -5 -103 -8 -20 -46 -20 -83 -1
-26 13 -30 13 -41 0 -24 -29 -38 -17 -44 38 -19 184 -19 182 -2 196 9 8 16 28
16 47 0 54 32 45 100 -28z m-1950 -236 c0 -19 5 -52 11 -72 9 -31 8 -47 -6
-89 -24 -73 -45 -68 -45 10 0 33 -5 70 -11 81 -10 18 1 89 18 121 10 18 33
-18 33 -51z m1708 -129 c11 -18 4 -92 -9 -109 -13 -16 -13 -148 0 -171 30 -57
4 -100 -49 -82 -34 12 -49 3 -50 -31 0 -8 -7 -33 -15 -55 -8 -22 -14 -61 -15
-86 0 -26 -7 -63 -15 -82 -8 -20 -15 -53 -15 -74 0 -21 -7 -47 -15 -57 -8 -11
-15 -36 -15 -55 -1 -20 -7 -47 -15 -61 -8 -14 -14 -37 -15 -52 0 -15 -4 -30
-10 -33 -5 -3 -10 -16 -10 -28 0 -12 -7 -35 -15 -51 -8 -15 -15 -36 -15 -45 0
-10 -7 -26 -15 -37 -8 -10 -15 -32 -15 -47 0 -42 -17 -67 -45 -67 -32 0 -38
12 -20 46 8 16 15 35 15 43 0 8 8 23 17 33 13 15 14 21 4 31 -10 9 -15 8 -27
-8 -8 -11 -24 -20 -37 -20 -17 0 -23 -7 -27 -35 -4 -20 -10 -41 -14 -48 -9
-15 -128 -16 -143 -1 -6 6 -35 14 -64 17 l-54 7 -3 66 c-2 50 1 69 13 79 8 7
15 20 15 30 0 10 7 23 15 30 8 7 15 27 15 44 1 45 72 118 99 102 5 -3 12 5 15
19 17 66 134 215 170 215 20 0 20 1 0 -46 -31 -77 -47 -110 -70 -141 -13 -17
-24 -38 -24 -46 0 -20 -39 -52 -64 -52 -19 0 -21 -6 -24 -59 -4 -79 3 -97 26
-65 9 13 17 30 19 38 1 7 13 26 27 40 14 15 26 32 26 38 0 17 41 80 83 128 20
23 37 47 37 53 0 6 11 24 25 40 13 16 29 41 35 56 14 38 55 33 55 -6 0 -15 5
-28 10 -28 6 0 11 32 13 71 1 39 9 84 17 100 9 17 15 58 15 106 1 43 7 96 15
118 8 22 15 54 15 72 0 43 16 83 34 83 8 0 27 20 42 45 28 49 38 54 52 28z
m142 -27 c0 -8 -4 -18 -10 -21 -5 -3 -10 3 -10 14 0 12 5 21 10 21 6 0 10 -6
10 -14z m-1824 -251 c8 -32 -1 -55 -21 -55 -22 0 -30 27 -17 56 15 31 30 31
38 -1z m1873 -305 c12 -22 21 -51 21 -64 0 -13 7 -29 15 -36 8 -7 15 -18 15
-24 0 -7 9 -31 20 -54 18 -36 25 -42 53 -42 17 0 41 -7 51 -15 11 -8 39 -15
63 -15 37 0 43 -3 49 -25 3 -14 10 -25 15 -25 5 0 9 -14 9 -30 0 -17 6 -33 14
-36 24 -9 27 -35 9 -63 -9 -14 -18 -33 -20 -41 -1 -8 -20 -32 -42 -53 -23 -21
-41 -42 -41 -48 0 -6 24 -10 58 -9 31 1 63 1 70 1 7 -1 12 -16 12 -40 0 -34
-7 -47 -45 -85 -44 -45 -48 -60 -24 -91 5 -6 11 -30 15 -54 8 -48 26 -61 53
-37 10 9 23 16 30 16 7 0 26 14 44 30 38 36 70 36 75 1 3 -19 -15 -43 -87
-115 -86 -86 -90 -93 -85 -126 4 -23 0 -42 -9 -55 -14 -18 -17 -18 -34 -4 -10
9 -26 19 -35 22 -14 5 -18 18 -18 59 0 42 5 57 26 79 l25 26 -49 53 c-34 38
-53 52 -65 47 -19 -7 -23 -42 -7 -52 17 -10 11 -54 -10 -75 -24 -24 -53 -26
-70 -5 -7 9 -20 13 -28 10 -8 -3 -21 3 -29 15 -8 11 -22 20 -32 20 -24 0 -65
45 -58 64 4 9 16 15 29 13 19 -2 24 3 26 32 2 22 14 43 33 60 l29 27 -30 29
c-28 27 -30 33 -30 106 0 56 -4 80 -15 89 -8 7 -15 20 -15 30 0 10 -7 23 -15
30 -8 7 -15 18 -15 26 0 7 -13 32 -28 56 -67 101 -68 103 -46 143 10 20 31 48
47 62 21 21 27 36 27 69 0 25 -6 47 -15 54 -20 16 -19 49 2 72 24 27 39 22 62
-22z m161 -4 c0 -8 7 -16 15 -20 8 -3 15 -17 15 -31 0 -28 -30 -36 -30 -7 0 9
-7 26 -15 36 -14 19 -12 36 6 36 5 0 9 -6 9 -14z m-993 -647 c6 -6 35 -13 65
-14 29 -2 74 -13 101 -24 61 -26 62 -47 5 -84 -41 -26 -168 -24 -225 4 -39 19
-43 24 -43 59 0 34 4 39 38 53 47 19 46 19 59 6z m51 -189 c21 0 47 -7 58 -15
10 -8 33 -15 51 -15 22 0 40 -9 58 -27 29 -32 29 -33 10 -59 -8 -10 -15 -30
-15 -45 0 -14 -13 -43 -28 -65 -16 -21 -39 -64 -52 -94 -34 -82 -57 -110 -89
-110 -15 0 -36 7 -47 15 -10 8 -27 15 -38 15 -14 0 -17 -5 -11 -22 13 -43 11
-62 -9 -66 -10 -2 -23 3 -28 12 -10 17 -33 21 -42 8 -3 -5 7 -15 22 -23 56
-27 82 -60 82 -102 0 -32 -10 -53 -57 -116 -31 -42 -61 -80 -67 -86 -18 -16
-86 -121 -86 -132 0 -5 -10 -18 -21 -29 -12 -10 -28 -32 -36 -49 -28 -59 -63
-112 -120 -185 -13 -15 -23 -32 -23 -37 0 -6 38 -47 85 -92 48 -46 85 -90 85
-101 0 -26 19 -35 26 -13 3 10 10 26 15 35 5 10 9 26 9 37 0 10 7 24 15 31 8
7 15 19 15 28 0 20 39 62 57 62 17 0 17 -18 -2 -36 -8 -9 -15 -28 -15 -43 0
-16 -7 -34 -15 -41 -8 -7 -15 -23 -15 -35 0 -13 -7 -25 -15 -29 -8 -3 -15 -17
-15 -31 0 -14 -4 -25 -10 -25 -5 0 -13 -12 -16 -27 -4 -15 -13 -34 -21 -41 -7
-7 -13 -22 -13 -32 0 -10 -7 -20 -15 -24 -8 -3 -15 -16 -15 -30 0 -13 -6 -26
-14 -29 -8 -3 -16 -16 -18 -29 -2 -13 -10 -23 -18 -23 -21 0 -24 39 -5 55 8 7
15 19 15 26 0 8 16 48 37 89 20 41 34 78 31 81 -3 3 -20 7 -38 9 -18 2 -37 8
-44 13 -6 5 -22 12 -36 15 -14 3 -50 31 -80 61 -30 30 -58 52 -62 50 -4 -3 -8
-31 -8 -63 0 -33 -7 -73 -16 -92 -22 -45 -104 -129 -126 -129 -9 0 -20 -6 -25
-12 -12 -19 -3 -126 13 -156 22 -42 14 -112 -12 -112 -10 0 -14 13 -14 45 0
31 -5 47 -15 51 -8 4 -15 18 -15 33 0 15 -7 36 -15 47 -8 10 -15 29 -15 42 0
12 -7 25 -15 28 -35 14 0 94 41 94 9 0 40 24 70 54 42 41 54 61 54 84 0 32 27
92 48 105 17 11 15 92 -3 107 -23 19 -21 152 3 173 25 23 64 30 85 15 17 -13
17 -16 3 -43 -22 -41 -20 -58 7 -83 l23 -22 36 38 c46 48 98 130 98 154 0 10
4 18 10 18 5 0 12 11 16 25 3 13 12 29 20 36 11 9 13 26 8 75 -5 50 -3 69 10
88 21 33 22 70 0 62 -9 -3 -30 -6 -48 -6 -29 0 -34 -5 -60 -61 -23 -50 -31
-60 -49 -57 -36 5 -32 45 14 133 23 44 66 128 95 186 30 58 63 114 74 124 11
10 20 24 20 30 0 7 27 66 60 131 33 66 60 129 60 141 0 12 12 31 26 42 24 19
28 19 55 6 15 -8 45 -15 67 -15z m-203 -80 c3 -6 -1 -13 -9 -16 -9 -3 -16 -16
-16 -29 0 -12 -7 -28 -15 -35 -8 -7 -15 -20 -15 -30 0 -10 -7 -23 -15 -30 -8
-7 -15 -21 -15 -31 0 -12 -10 -21 -25 -25 -29 -7 -30 -7 -39 23 -6 18 2 33 38
71 25 27 46 53 46 57 0 11 41 55 51 55 4 0 11 -5 14 -10z m1067 -87 c8 -10 26
-40 39 -68 13 -27 34 -64 46 -81 23 -31 31 -84 13 -84 -15 0 -12 -84 5 -116 8
-16 15 -47 15 -68 l0 -40 33 31 c34 33 87 63 110 63 8 0 20 7 27 15 7 8 20 15
30 15 24 0 30 20 30 99 0 62 2 69 24 79 15 7 26 22 30 44 5 27 14 37 43 51 36
16 38 16 60 -5 20 -19 23 -31 23 -99 0 -69 -2 -80 -21 -90 -12 -6 -36 -8 -54
-5 -28 6 -35 3 -40 -14 -8 -25 3 -60 18 -60 7 0 22 7 33 15 12 8 24 11 28 8 3
-3 6 -110 6 -237 -1 -187 -3 -235 -15 -250 -8 -11 -15 -27 -15 -36 0 -45 -86
-160 -119 -160 -8 0 -30 -14 -47 -31 -35 -34 -73 -35 -58 -1 4 9 9 84 11 165
2 114 7 153 19 172 27 41 5 50 -32 14 -26 -25 -34 -41 -34 -67 0 -28 -5 -36
-29 -45 -18 -6 -32 -21 -36 -35 -4 -18 -11 -23 -33 -20 -37 4 -40 36 -7 84 14
20 28 49 32 63 3 14 17 37 30 50 12 13 23 29 23 36 0 16 -60 79 -82 88 -10 3
-18 14 -18 24 0 10 -9 32 -20 48 -12 17 -20 47 -20 71 0 22 -7 49 -15 60 -8
10 -15 36 -15 56 0 20 -6 49 -14 65 -33 67 -38 83 -32 107 3 14 1 36 -5 50
-12 25 -7 56 9 56 5 0 16 -8 24 -17z m-802 -351 c0 -20 -4 -22 -22 -17 -58 18
-81 48 -57 72 18 18 79 -26 79 -55z m1401 -192 c28 -15 27 -90 -2 -116 -20
-18 -21 -18 -35 1 -16 22 -18 63 -4 99 11 29 13 30 41 16z m-2287 -586 c10
-25 7 -57 -8 -85 -7 -14 -16 -37 -20 -52 -3 -15 -11 -27 -16 -27 -6 0 -10 -7
-10 -15 0 -14 -20 -65 -46 -118 -8 -16 -14 -34 -14 -42 0 -7 -7 -18 -15 -25
-8 -7 -15 -20 -15 -30 0 -10 -7 -23 -15 -30 -8 -7 -15 -24 -15 -37 0 -14 -6
-37 -14 -51 -8 -15 -17 -39 -20 -54 -7 -32 -170 -212 -197 -216 -16 -3 -19 3
-19 30 0 19 7 43 15 54 8 10 15 29 15 40 0 12 7 27 15 34 8 7 15 27 15 45 0
18 7 38 15 45 8 7 15 25 15 40 0 15 7 33 15 40 8 7 15 20 15 30 0 10 7 23 15
30 8 7 15 20 15 30 0 10 7 23 15 30 8 7 15 20 15 30 0 10 7 23 15 30 8 7 15
20 15 29 0 10 14 30 30 46 17 16 30 35 30 44 0 8 27 42 60 77 33 34 60 69 60
78 0 21 26 21 34 0z m2098 -109 c3 -74 10 -130 17 -139 8 -9 11 -53 9 -137
l-3 -124 -42 -3 -43 -3 0 54 c0 31 -6 61 -15 73 -8 10 -15 30 -15 44 0 14 -7
38 -15 54 -8 15 -15 45 -15 65 0 20 -7 47 -16 59 -21 30 -15 84 11 97 12 5 38
27 60 48 21 20 44 37 50 37 9 0 14 -36 17 -125z m-2432 58 c0 -14 -22 -62 -81
-178 -42 -80 -49 -97 -49 -110 0 -7 -7 -18 -15 -25 -8 -7 -15 -20 -15 -30 0
-10 -7 -23 -15 -30 -8 -7 -15 -20 -15 -30 0 -9 -9 -25 -20 -35 -11 -10 -20
-24 -20 -30 0 -7 -10 -24 -21 -39 -12 -15 -32 -57 -44 -93 -13 -36 -28 -70
-34 -76 -6 -6 -11 -19 -11 -28 0 -9 -7 -30 -15 -45 -8 -16 -15 -37 -15 -46 0
-9 -4 -20 -10 -23 -5 -3 -10 -16 -10 -28 0 -12 -7 -35 -16 -52 -9 -16 -18 -43
-20 -59 -2 -16 -8 -34 -14 -40 -5 -5 -10 -18 -10 -28 0 -11 -7 -33 -16 -51
-10 -17 -26 -57 -38 -89 -17 -46 -39 -76 -110 -148 -101 -103 -123 -110 -118
-40 2 25 10 55 18 67 8 12 14 33 14 47 0 27 26 73 83 144 20 25 37 52 37 58 0
6 17 30 37 53 51 60 93 124 87 133 -14 23 -45 4 -81 -49 -44 -66 -59 -74 -72
-40 -7 19 -4 41 11 86 22 64 37 74 70 45 16 -16 18 -15 24 2 3 11 19 46 35 79
16 33 29 68 29 77 0 9 6 29 14 45 8 15 29 61 47 101 18 39 36 72 40 72 4 0 12
12 18 28 14 34 59 114 71 126 6 6 10 17 10 26 0 9 14 29 30 45 17 16 30 32 30
37 0 4 14 27 30 50 17 22 30 47 30 55 0 7 7 16 15 19 8 4 15 16 15 28 0 31 7
36 52 36 29 0 38 -4 38 -17z m2767 -5 c21 -20 23 -29 23 -135 0 -95 -2 -113
-15 -113 -30 0 -55 78 -55 171 0 106 6 116 47 77z m537 -104 c9 -3 16 -14 16
-24 0 -10 7 -23 15 -30 8 -7 15 -19 15 -28 0 -8 7 -24 17 -34 18 -20 16 -25
-7 -28 -36 -5 -50 1 -56 27 -4 15 -14 34 -21 42 -8 8 -12 23 -9 35 3 12 6 27
6 34 0 14 2 14 24 6z m-2803 -498 c-16 -19 -51 -87 -51 -99 0 -17 -61 -87 -76
-87 -20 0 -17 39 6 85 27 52 111 138 124 125 6 -6 5 -15 -3 -24z m645 -10 c7
-19 -14 -58 -28 -54 -23 8 -32 36 -19 52 17 20 40 21 47 2z m2041 -32 c10 -14
33 -43 51 -65 17 -23 32 -46 32 -52 0 -6 8 -20 19 -31 10 -12 37 -57 61 -101
23 -43 50 -90 61 -103 40 -52 14 -75 -49 -42 -41 22 -77 58 -157 162 -41 53
-45 63 -45 113 0 31 -7 69 -16 86 -12 24 -13 34 -3 45 16 20 25 18 46 -12z
m-701 -74 c1 -181 2 -187 31 -215 15 -14 36 -25 46 -25 15 0 18 -7 15 -47 -2
-40 -7 -49 -24 -51 -11 -2 -27 4 -34 13 -7 8 -20 15 -30 15 -30 0 -60 76 -60
151 0 42 -5 72 -15 85 -8 11 -15 41 -15 70 0 58 27 97 63 92 21 -3 22 -9 23
-88z m-1948 -13 c2 -23 -2 -46 -10 -55 -21 -25 -44 -80 -63 -147 -10 -33 -21
-68 -26 -78 -5 -9 -11 -36 -14 -60 -3 -23 -9 -51 -14 -62 -5 -11 -12 -37 -16
-58 -4 -23 -11 -37 -18 -34 -19 6 -20 101 -3 136 9 17 16 45 16 63 0 18 7 42
15 52 8 11 15 32 15 47 0 15 7 40 15 55 8 16 15 40 15 54 0 14 7 34 15 44 8
11 15 32 15 46 0 33 8 42 35 38 15 -2 21 -12 23 -41z m1234 7 c5 -3 8 -23 8
-44 0 -30 -5 -43 -23 -55 -21 -14 -28 -14 -59 -1 -81 34 -54 126 32 111 19 -4
38 -9 42 -11z m-722 -90 c0 -19 -5 -25 -17 -22 -22 4 -30 38 -12 49 19 11 29
2 29 -27z m-1042 -33 c-3 -28 -32 -41 -51 -22 -7 7 -5 18 7 35 21 32 48 24 44
-13z m1830 -58 c2 -23 -3 -35 -20 -47 -12 -9 -26 -16 -30 -16 -16 0 -28 49
-18 76 8 20 16 25 38 22 22 -2 28 -8 30 -35z m-1798 -74 c0 -15 -92 -90 -107
-87 -33 6 -24 31 27 80 50 48 54 50 67 33 7 -11 13 -22 13 -26z m1765 -70 c9
-28 -8 -45 -25 -25 -13 17 -7 46 9 46 5 0 13 -9 16 -21z m1357 -26 c52 -56 60
-113 18 -113 -22 0 -42 28 -60 82 -19 61 0 75 42 31z m-192 -150 c0 -8 11 -24
24 -34 14 -11 27 -27 30 -37 3 -9 20 -26 36 -37 17 -11 38 -31 46 -43 14 -22
14 -25 -2 -43 -23 -25 -85 -26 -108 -1 -11 13 -14 28 -10 51 5 21 2 37 -8 49
-8 9 -18 25 -22 35 -3 11 -14 21 -25 24 -25 6 -86 126 -77 150 7 15 15 10 62
-40 30 -32 54 -65 54 -74z m-446 63 c5 -19 14 -25 38 -28 24 -2 36 -10 46 -30
8 -17 21 -28 33 -28 32 0 22 -31 -28 -82 -49 -50 -72 -58 -93 -33 -7 8 -20 15
-28 15 -9 0 -33 17 -54 37 -56 55 -53 92 10 138 56 41 68 43 76 11z m884 -40
c44 -46 62 -72 62 -91 0 -15 11 -36 27 -51 23 -21 25 -27 15 -50 -10 -21 -18
-25 -50 -22 -32 3 -38 7 -42 33 -7 41 -58 143 -92 182 -29 35 -28 63 1 63 10
0 46 -29 79 -64z m-4859 -1 c-17 -23 -54 -72 -82 -109 -29 -36 -60 -77 -70
-91 -24 -34 -43 -32 -51 6 -10 51 -8 57 25 64 18 4 34 16 39 28 11 31 147 160
160 152 6 -4 -2 -23 -21 -50z m5062 -26 c26 -26 25 -59 -1 -59 -38 0 -86 71
-64 93 8 8 39 -8 65 -34z m-3456 2 c7 -23 -2 -48 -22 -55 -32 -13 -43 18 -21
54 16 25 35 26 43 1z m3072 13 c12 -3 32 -22 43 -42 19 -31 20 -37 6 -50 -14
-14 -19 -14 -51 4 -56 30 -69 48 -53 73 14 22 20 24 55 15z m-3450 -90 c3 -8
1 -20 -5 -26 -15 -15 -43 8 -35 28 7 19 32 18 40 -2z m-32 -84 c8 -13 -13 -40
-31 -40 -14 0 -19 31 -7 43 10 10 31 8 38 -3z m3900 -30 c21 -8 26 -16 23 -38
-2 -15 -9 -27 -17 -27 -19 0 -55 50 -47 64 9 13 8 13 41 1z m-105 -15 c30 -36
-28 -104 -68 -79 -27 18 -25 33 9 64 38 34 42 35 59 15z m-5065 -15 c7 -22
-11 -53 -26 -44 -5 3 -9 18 -9 35 0 34 25 40 35 9z m953 -102 c2 -15 -1 -36
-7 -46 -8 -15 -7 -23 4 -32 36 -30 10 -66 -68 -95 -26 -10 -50 -22 -53 -26 -3
-5 -13 -9 -23 -9 -10 0 -24 -7 -31 -15 -19 -22 -90 -17 -90 6 0 18 35 48 74
64 37 16 38 17 20 36 -18 20 -17 22 50 85 54 52 73 65 94 62 21 -2 28 -9 30
-30z m-978 -68 c0 -54 -16 -90 -33 -73 -9 8 -9 138 0 146 17 17 33 -19 33 -73z
m4820 71 c0 -6 -5 -13 -10 -16 -15 -9 -43 3 -35 15 8 13 45 13 45 1z m597 -27
c3 -8 17 -20 30 -25 38 -14 12 -39 -41 -39 -58 0 -71 15 -45 52 23 31 46 36
56 12z m-4887 -189 c0 -8 -7 -15 -15 -15 -8 0 -15 7 -15 15 0 8 7 15 15 15 8
0 15 -7 15 -15z m440 -15 c0 -10 -10 -25 -22 -31 -13 -7 -29 -18 -36 -26 -7
-7 -22 -13 -32 -13 -10 0 -33 -8 -52 -17 -18 -9 -46 -23 -61 -31 -69 -34 -131
28 -71 71 24 18 26 18 45 1 19 -17 22 -17 55 -1 32 16 67 31 124 55 38 16 50
14 50 -8z m433 -15 c1 -5 -6 -11 -15 -13 -11 -2 -18 3 -18 13 0 17 30 18 33 0z
m-516 -151 c8 -21 -13 -42 -28 -27 -13 13 -5 43 11 43 6 0 13 -7 17 -16z"/>
<path d="M4525 4239 c-10 -15 3 -25 16 -12 7 7 7 13 1 17 -6 3 -14 1 -17 -5z"/>
<path d="M4490 4136 c0 -30 15 -42 24 -20 10 27 7 44 -9 44 -9 0 -15 -9 -15
-24z"/>
<path d="M4460 4025 c0 -8 7 -15 15 -15 8 0 15 7 15 15 0 8 -7 15 -15 15 -8 0
-15 -7 -15 -15z"/>
<path d="M4427 3966 c-3 -8 0 -20 8 -26 11 -9 16 -7 24 8 6 11 7 22 4 26 -11
11 -31 6 -36 -8z"/>
<path d="M4577 6623 c-11 -11 -8 -19 23 -58 17 -21 30 -48 30 -60 0 -27 24
-39 40 -21 10 14 5 82 -9 103 -5 9 -64 43 -74 43 -2 0 -7 -3 -10 -7z"/>
<path d="M4744 6539 c-3 -5 2 -22 12 -37 10 -16 19 -49 20 -80 1 -30 4 -55 6
-56 1 -1 22 -12 46 -24 37 -19 43 -20 49 -7 3 9 -2 24 -11 34 -9 10 -16 22
-16 27 0 10 -23 56 -56 111 -21 36 -40 48 -50 32z"/>
<path d="M4672 6414 c1 -9 9 -19 16 -22 9 -3 13 2 10 14 -1 9 -9 19 -16 22 -9
3 -13 -2 -10 -14z"/>
<path d="M4695 6321 c-9 -16 15 -55 27 -43 12 12 7 44 -9 49 -6 2 -14 -1 -18
-6z"/>
<path d="M2033 6204 c-4 -11 2 -23 17 -34 l23 -18 -21 -11 c-11 -6 -52 -11
-91 -11 -39 0 -71 -4 -71 -8 0 -17 37 -42 61 -42 13 0 33 -7 43 -15 14 -10 45
-15 96 -15 49 0 88 -6 108 -15 23 -12 56 -15 134 -13 118 3 139 20 33 28 -77
5 -149 35 -124 51 8 5 68 9 135 9 90 0 125 4 140 15 10 8 40 15 65 15 29 0 51
6 59 15 8 9 29 15 56 15 23 0 46 5 49 10 9 14 -138 13 -153 -2 -16 -16 -221
-31 -239 -17 -25 22 -15 39 25 39 20 0 44 5 52 10 10 6 -53 10 -188 10 -178 0
-203 -2 -209 -16z"/>
<path d="M3536 5635 c-8 -22 3 -40 16 -27 7 7 7 16 1 27 -9 16 -10 16 -17 0z"/>
<path d="M4180 5621 c0 -14 28 -21 85 -21 44 0 59 -5 77 -24 13 -13 40 -26 62
-29 44 -7 51 -11 41 -26 -3 -6 -30 -11 -58 -11 -31 0 -62 -6 -75 -16 -20 -14
-24 -14 -44 0 -31 22 -180 22 -198 1 -7 -8 -21 -15 -31 -15 -24 0 -86 -39
-119 -74 -21 -23 -22 -30 -12 -46 7 -11 12 -31 12 -45 0 -14 7 -39 15 -55 23
-44 25 -265 3 -305 -14 -27 -14 -34 -2 -64 8 -18 14 -48 14 -66 0 -37 -33 -85
-59 -85 -18 0 -41 -18 -41 -32 0 -4 6 -8 14 -8 28 0 27 -21 -3 -62 -38 -52
-42 -111 -10 -152 35 -45 68 -36 144 40 36 36 65 69 65 73 0 4 -18 25 -40 46
-22 22 -40 49 -40 61 0 24 58 74 87 74 10 0 31 7 47 15 51 27 79 12 56 -30
-11 -20 -9 -29 11 -66 42 -75 70 -77 117 -9 17 25 22 47 22 94 0 34 -5 67 -11
73 -17 17 0 52 34 70 18 9 54 36 81 59 53 48 70 53 98 27 22 -20 26 -17 31 29
6 54 31 87 64 85 21 -2 30 5 41 28 9 17 21 42 29 57 7 14 13 44 13 66 0 23 6
45 15 52 8 7 15 19 15 28 0 8 6 23 14 31 7 9 16 33 19 54 5 34 4 37 -17 37
-13 0 -31 9 -41 21 -11 11 -57 38 -105 61 -47 22 -97 47 -112 54 -30 16 -308
20 -308 5z m475 -246 c0 -23 -4 -30 -20 -30 -21 0 -31 25 -21 51 11 28 41 12
41 -21z m-347 -16 c3 -28 -31 -79 -53 -79 -19 0 -28 51 -15 84 8 22 15 27 38
24 21 -2 28 -9 30 -29z m-148 -54 c0 -47 -3 -55 -19 -55 -24 0 -31 18 -24 69
4 31 10 41 24 41 16 0 19 -8 19 -55z m240 -130 c7 -9 20 -15 29 -14 32 3 41
-1 41 -20 0 -17 -38 -51 -57 -51 -18 1 -84 73 -79 86 7 19 50 18 66 -1z m-182
-64 c4 -11 5 -57 2 -104 -5 -77 -7 -86 -35 -111 -16 -14 -47 -36 -69 -47 -31
-17 -40 -18 -47 -7 -12 18 -11 29 6 58 8 14 14 35 15 46 0 25 54 140 78 167
20 22 41 22 50 -2z"/>
<path d="M4782 5528 c-7 -7 -12 -19 -12 -27 0 -11 4 -10 20 4 21 19 26 35 12
35 -4 0 -13 -5 -20 -12z"/>
<path d="M3817 5036 c-14 -14 -17 -37 -17 -117 0 -76 -4 -104 -15 -115 -9 -9
-15 -34 -15 -59 0 -27 -7 -51 -19 -66 -15 -19 -18 -35 -14 -79 7 -81 10 -86
33 -65 22 20 26 45 9 62 -6 6 -9 23 -7 39 2 20 10 30 27 34 30 7 37 23 16 40
-19 16 -19 88 0 114 9 12 15 42 15 73 0 48 3 55 25 63 31 12 31 27 2 64 -22
27 -24 27 -40 12z"/>
<path d="M2656 4995 c-27 -20 -16 -39 12 -20 21 16 30 35 15 35 -5 0 -16 -7
-27 -15z"/>
<path d="M2516 4889 c-52 -48 -75 -83 -62 -96 5 -6 146 130 146 141 0 19 -36
0 -84 -45z"/>
<path d="M5453 4893 c-4 -9 1 -29 10 -45 9 -17 17 -39 17 -51 0 -12 7 -31 15
-41 8 -11 15 -32 15 -47 0 -14 7 -32 15 -39 8 -7 15 -24 15 -37 0 -14 6 -37
14 -51 8 -15 17 -36 20 -46 6 -18 8 -18 32 5 45 42 47 54 15 101 -30 46 -101
168 -134 231 -22 42 -25 44 -34 20z"/>
<path d="M2292 4838 c-18 -18 -15 -34 14 -78 15 -22 24 -46 21 -54 -3 -8 -25
-27 -49 -42 -24 -14 -52 -35 -63 -44 -54 -49 -105 -29 -105 41 0 37 -12 51
-25 29 -3 -5 -15 -10 -26 -10 -23 0 -77 -55 -85 -86 -6 -23 26 -92 55 -118 13
-12 27 -15 46 -10 l27 7 -30 13 c-28 11 -51 48 -38 61 3 3 43 5 88 4 75 -2 89
1 142 29 79 40 120 28 81 -24 -21 -27 -19 -75 5 -119 25 -47 25 -65 -1 -93
-19 -21 -20 -24 -5 -52 9 -17 16 -37 16 -45 0 -7 14 -26 30 -42 17 -16 30 -37
30 -47 0 -19 45 -68 61 -68 15 0 10 27 -7 41 -18 15 -45 73 -75 161 -27 80
-27 308 0 386 10 29 21 55 25 59 12 12 6 33 -9 33 -24 0 -95 49 -95 65 0 18
-12 19 -28 3z m-204 -227 c5 -32 -11 -46 -37 -32 -21 11 -28 41 -14 55 15 15
48 1 51 -23z"/>
<path d="M3560 4505 c-5 -13 -17 -32 -27 -42 -11 -11 -30 -37 -43 -58 -13 -22
-34 -50 -47 -62 -13 -12 -23 -28 -23 -35 0 -7 -16 -31 -35 -52 -19 -22 -35
-43 -35 -47 0 -4 -30 -40 -66 -79 -48 -53 -63 -75 -55 -83 8 -8 24 2 59 36 26
26 55 47 63 47 18 0 59 52 59 75 0 8 4 15 10 15 5 0 12 11 16 25 6 26 28 33
40 14 4 -7 21 4 45 27 31 31 39 45 39 75 0 20 7 42 15 49 10 8 15 31 15 66 0
57 -14 71 -30 29z"/>
<path d="M2472 4404 c-18 -12 -22 -24 -20 -51 3 -30 8 -37 41 -50 33 -14 40
-14 62 1 34 23 34 68 -1 95 -32 25 -52 26 -82 5z"/>
<path d="M3816 4319 c-10 -16 -31 -44 -47 -60 -28 -28 -29 -34 -29 -118 0 -48
3 -91 7 -95 4 -3 22 10 40 30 31 35 32 39 17 56 -21 22 -14 99 10 123 9 9 16
25 16 36 0 10 5 19 10 19 6 0 10 9 10 20 0 29 -13 25 -34 -11z"/>
<path d="M2654 4186 c-13 -55 17 -96 59 -80 43 16 23 97 -25 102 -22 3 -29 -2
-34 -22z"/>
<path d="M1592 4087 c-27 -27 -32 -39 -32 -77 0 -38 6 -51 36 -82 30 -33 41
-38 80 -38 33 0 49 6 64 23 12 12 27 29 35 38 8 9 15 34 15 57 0 35 -5 45 -42
76 -56 49 -108 49 -156 3z"/>
<path d="M2499 4047 c5 -13 20 -36 33 -50 26 -28 109 -77 131 -77 8 0 20 -7
27 -15 8 -9 30 -15 60 -15 26 0 61 -7 76 -15 40 -21 242 -21 270 0 10 8 37 15
59 15 22 0 50 6 61 14 11 8 30 16 43 18 14 1 26 9 29 16 5 17 -40 15 -64 -3
-10 -8 -41 -15 -69 -15 -27 0 -63 -7 -79 -15 -39 -21 -204 -21 -232 0 -10 8
-41 15 -68 15 -55 0 -177 53 -212 91 -10 12 -31 30 -47 41 l-27 19 9 -24z"/>
<path d="M3390 4020 c0 -5 6 -10 14 -10 8 0 18 5 21 10 3 6 -3 10 -14 10 -12
0 -21 -4 -21 -10z"/>
<path d="M3307 3973 c-14 -13 -6 -24 15 -21 27 4 36 28 11 28 -11 0 -23 -3
-26 -7z"/>
<path d="M2826 3753 c-25 -13 -36 -14 -63 -4 -23 9 -38 9 -52 2 -12 -7 -90
-11 -189 -11 -171 0 -232 -10 -232 -36 0 -16 75 -20 85 -4 4 6 67 10 155 10
88 0 151 -4 155 -10 8 -12 62 -13 69 -1 3 4 36 11 72 14 37 4 72 11 78 17 5 5
20 10 32 10 31 0 55 10 48 21 -9 15 -127 10 -158 -8z"/>
<path d="M3098 3730 c-26 -28 -38 -50 -38 -69 0 -16 -7 -34 -15 -41 -8 -7 -15
-18 -15 -24 0 -10 -25 -59 -98 -196 -24 -45 -60 -108 -81 -140 -9 -14 -25 -41
-36 -59 -11 -18 -28 -44 -38 -57 -11 -14 -43 -71 -72 -128 -63 -123 -140 -238
-189 -285 -27 -26 -36 -43 -36 -68 0 -28 3 -33 24 -33 30 0 47 23 115 155 28
55 60 114 71 130 10 17 29 50 42 75 12 25 34 63 49 85 14 22 29 47 32 55 4 8
16 29 27 45 11 17 23 37 27 45 3 8 18 33 32 55 49 77 51 79 66 118 3 6 14 26
25 42 11 17 23 38 26 47 3 9 12 19 20 22 8 3 14 16 14 30 0 13 7 26 15 30 8 3
15 14 15 24 0 11 7 25 15 32 8 7 15 18 15 25 0 6 14 31 31 54 29 41 33 71 8
71 -7 0 -29 -18 -51 -40z"/>
<path d="M1294 3696 c-8 -21 27 -65 52 -66 26 0 57 33 52 57 -4 24 -95 32
-104 9z"/>
<path d="M1669 3669 c-10 -6 -7 -9 14 -9 29 0 35 5 14 13 -8 3 -20 1 -28 -4z"/>
<path d="M1534 3635 c-10 -8 -29 -15 -41 -15 -18 0 -93 -31 -112 -47 -3 -2 4
-10 15 -18 24 -18 94 -21 76 -3 -24 24 -13 38 27 38 25 0 41 5 45 15 3 10 19
15 46 15 29 0 40 4 40 15 0 20 -69 20 -96 0z"/>
<path d="M2403 3623 c-21 -8 -15 -51 9 -64 18 -10 24 -8 40 11 17 21 17 24 2
41 -17 19 -28 22 -51 12z"/>
<path d="M1735 3610 c-16 -7 -12 -9 18 -9 23 -1 36 3 32 9 -7 12 -23 12 -50 0z"/>
<path d="M1856 3611 c-8 -13 18 -21 44 -14 16 4 18 8 8 14 -17 11 -45 11 -52
0z"/>
<path d="M1613 3573 c9 -2 25 -2 35 0 9 3 1 5 -18 5 -19 0 -27 -2 -17 -5z"/>
<path d="M1345 3520 c-4 -6 5 -10 19 -10 14 0 26 5 26 10 0 6 -9 10 -19 10
-11 0 -23 -4 -26 -10z"/>
<path d="M1063 3474 c-17 -7 -34 -18 -37 -23 -8 -13 62 -61 88 -61 23 0 95 32
96 43 0 12 -33 8 -64 -8 -15 -8 -32 -12 -37 -9 -12 7 -11 41 1 49 14 9 12 25
-2 24 -7 0 -27 -7 -45 -15z"/>
<path d="M960 3325 c-13 -14 -18 -25 -11 -25 19 0 61 31 55 41 -9 14 -19 11
-44 -16z"/>
<path d="M850 3275 c-7 -9 -10 -18 -7 -21 7 -8 47 14 47 26 0 15 -26 12 -40
-5z"/>
<path d="M628 3242 c-27 -16 -37 -32 -20 -32 4 0 21 11 37 25 34 28 23 33 -17
7z"/>
<path d="M535 3189 c-4 -6 -5 -13 -2 -16 7 -7 27 6 27 18 0 12 -17 12 -25 -2z"/>
<path d="M466 3145 c-5 -13 -2 -14 17 -4 32 17 33 19 10 19 -12 0 -23 -7 -27
-15z"/>
<path d="M3271 3099 c-31 -30 -39 -49 -23 -49 10 0 31 25 50 58 17 30 9 28
-27 -9z"/>
<path d="M336 3055 c-12 -18 -13 -25 -4 -25 18 1 48 25 48 39 0 20 -27 12 -44
-14z"/>
<path d="M169 2891 c-31 -31 -37 -51 -16 -51 12 0 36 30 49 63 11 25 1 21 -33
-12z"/>
<path d="M101 2792 c-11 -17 -21 -33 -21 -36 0 -3 -14 -28 -31 -57 -25 -43
-30 -63 -32 -124 -2 -67 0 -75 26 -100 15 -15 27 -23 27 -17 0 6 -4 14 -10 17
-17 10 -13 170 5 185 8 7 15 20 15 30 0 10 7 23 15 30 8 7 15 19 15 28 0 8 8
24 17 34 12 13 13 22 6 29 -7 7 -17 2 -32 -19z"/>
<path d="M3107 2700 c-24 -29 -21 -49 4 -23 12 11 20 26 18 32 -3 7 -11 3 -22
-9z"/>
<path d="M6930 1472 c0 -11 10 -27 21 -38 12 -10 36 -41 54 -69 37 -57 147
-165 167 -165 8 0 27 -13 43 -30 16 -16 37 -30 46 -30 10 0 20 -4 24 -9 8 -14
65 -41 87 -41 11 0 18 7 18 20 0 13 -7 20 -18 20 -10 0 -31 14 -47 30 -16 17
-36 30 -46 30 -17 0 -189 173 -189 191 0 6 -9 8 -20 4 -11 -3 -20 -2 -20 3 0
5 -19 30 -43 56 -45 48 -77 59 -77 28z"/>
<path d="M7206 1015 c-9 -13 -16 -28 -16 -34 0 -16 -69 -71 -98 -76 -80 -17
-102 -26 -102 -44 0 -27 25 -71 54 -95 32 -27 43 -68 22 -89 -14 -13 -14 -16
-1 -21 8 -3 22 -3 30 0 26 10 65 -23 65 -55 0 -24 8 -34 43 -54 53 -31 81 -62
74 -81 -3 -8 2 -24 11 -36 16 -19 23 -20 87 -13 l70 8 -65 5 c-64 5 -65 5 -65
35 l0 30 127 1 c98 2 130 -1 139 -12 6 -8 16 -14 21 -14 6 0 27 -14 48 -30 21
-17 44 -30 51 -30 8 0 27 -14 43 -30 16 -17 37 -30 46 -30 10 0 23 -7 30 -15
19 -23 101 -20 134 6 37 29 36 81 -2 117 -42 40 -111 93 -157 123 -22 15 -53
41 -70 59 -16 17 -42 38 -57 46 -15 8 -50 35 -78 59 -28 25 -54 45 -58 45 -5
0 -46 36 -93 81 -90 86 -191 169 -207 169 -5 0 -17 -11 -26 -25z"/>
<path d="M973 948 c-31 -15 -39 -45 -17 -69 17 -19 53 -26 55 -11 8 74 -3 96
-38 80z"/>
<path d="M4830 877 c0 -53 4 -67 23 -85 24 -23 61 -29 72 -13 3 5 1 12 -5 16
-5 3 -10 17 -10 29 0 13 -7 29 -15 36 -8 7 -15 28 -15 46 0 30 -3 34 -25 34
-24 0 -25 -2 -25 -63z"/>
<path d="M3237 739 c-9 -6 -17 -14 -17 -19 0 -16 37 -11 43 5 8 19 -4 26 -26
14z"/>
<path d="M4300 621 c-8 -5 -28 -13 -45 -18 -16 -4 -31 -16 -33 -26 -6 -28 89
-24 124 6 16 14 24 29 20 35 -8 14 -44 15 -66 3z"/>
<path d="M3220 540 c0 -13 11 -13 30 0 12 8 11 10 -7 10 -13 0 -23 -4 -23 -10z"/>
<path d="M3051 521 c-10 -7 -10 -10 -1 -16 6 -4 16 -3 22 3 13 13 -4 23 -21
13z"/>
<path d="M3132 500 c-18 -10 -29 -21 -23 -24 9 -6 91 30 91 40 0 9 -37 0 -68
-16z"/>
<path d="M2985 489 c-4 -6 -4 -13 -1 -16 8 -8 36 5 36 17 0 13 -27 13 -35 -1z"/>
<path d="M2923 463 c-22 -8 -14 -23 12 -23 16 0 25 6 25 15 0 15 -14 18 -37 8z"/>
<path d="M3040 450 c0 -5 6 -10 14 -10 8 0 18 5 21 10 3 6 -3 10 -14 10 -12 0
-21 -4 -21 -10z"/>
</g>
</svg>
