<?xml version="1.0" standalone="no"?>
<!DOCTYPE svg PUBLIC "-//W3C//DTD SVG 20010904//EN"
 "http://www.w3.org/TR/2001/REC-SVG-20010904/DTD/svg10.dtd">
<svg version="1.0" xmlns="http://www.w3.org/2000/svg"
 width="654.000000pt" height="900.000000pt" viewBox="0 0 654.000000 900.000000"
 preserveAspectRatio="xMidYMid meet">
<metadata>
Created by potrace 1.10, written by Peter Selinger 2001-2011
</metadata>
<g transform="translate(0.000000,900.000000) scale(0.100000,-0.100000)"
fill="#000000" stroke="none">
<path d="M2713 8512 c-7 -12 -8 -24 -2 -33 5 -8 9 -39 9 -69 0 -31 4 -91 10
-135 20 -167 32 -471 20 -515 -14 -54 -50 -87 -103 -95 -51 -9 -67 -21 -67
-50 0 -24 24 -49 55 -59 23 -7 93 27 112 54 7 10 23 20 37 24 13 3 29 18 36
35 8 20 25 35 52 45 36 15 42 15 75 0 21 -11 39 -28 45 -46 8 -22 14 -27 32
-22 17 4 30 -3 54 -31 18 -19 32 -40 32 -45 0 -5 13 -16 29 -25 35 -18 110
-113 134 -170 9 -22 26 -73 38 -114 12 -41 28 -86 35 -100 8 -14 14 -33 14
-42 0 -9 3 -18 6 -22 18 -18 98 -270 102 -320 4 -53 7 -59 48 -93 24 -20 44
-42 44 -49 0 -6 13 -38 29 -71 16 -32 39 -81 51 -109 27 -61 104 -215 137
-273 27 -46 25 -72 -6 -72 -19 0 -20 -6 -17 -87 7 -156 32 -243 70 -243 12 0
41 6 66 14 26 8 54 10 66 6 18 -7 113 -183 175 -325 5 -11 13 -27 17 -35 9
-15 33 -63 56 -110 7 -14 21 -41 30 -60 75 -145 199 -396 222 -450 16 -36 53
-112 83 -170 101 -198 118 -234 281 -575 16 -33 39 -84 50 -114 12 -30 32 -78
45 -105 22 -49 57 -130 74 -171 5 -11 18 -40 29 -65 11 -25 30 -73 41 -107 19
-56 36 -97 87 -210 8 -17 14 -34 14 -37 0 -4 15 -39 34 -79 18 -40 43 -97 55
-127 21 -52 35 -83 66 -155 8 -16 23 -57 34 -90 12 -33 26 -69 31 -80 16 -36
58 -148 80 -215 12 -36 35 -93 51 -128 16 -35 29 -66 29 -69 0 -5 18 -49 45
-108 8 -16 30 -73 51 -125 20 -52 40 -99 44 -105 3 -5 15 -32 25 -60 9 -27 23
-63 31 -80 11 -26 85 -211 131 -330 9 -22 26 -64 39 -93 13 -29 24 -56 24 -60
0 -7 100 -206 191 -382 16 -30 29 -59 29 -65 1 -19 37 -58 48 -51 6 4 -7 42
-38 104 -26 53 -62 138 -80 187 -18 50 -45 117 -60 150 -15 33 -31 71 -35 85
-4 14 -11 30 -15 35 -4 6 -11 26 -15 45 -4 19 -13 44 -20 55 -7 11 -27 61 -45
110 -19 50 -37 94 -42 99 -4 6 -8 16 -8 24 0 8 -7 28 -15 45 -8 18 -30 75 -50
127 -19 52 -39 104 -44 115 -5 11 -22 54 -39 95 -76 189 -103 256 -111 270 -5
9 -12 30 -15 48 -4 17 -12 34 -17 37 -5 4 -9 13 -9 22 0 8 -6 29 -14 46 -8 18
-22 57 -31 87 -10 30 -23 69 -30 85 -7 17 -27 71 -45 120 -37 101 -54 142 -80
200 -10 22 -21 54 -25 70 -15 73 -29 121 -36 130 -5 5 -9 18 -9 30 0 11 -7 33
-15 49 -8 15 -15 36 -15 45 0 14 -26 90 -49 146 -5 11 -30 76 -56 145 -25 69
-53 139 -60 155 -7 17 -23 59 -35 95 -23 71 -24 75 -69 171 -17 36 -31 69 -31
72 0 4 -14 37 -31 74 -37 84 -57 129 -74 168 -7 17 -25 57 -40 90 -16 33 -32
74 -36 90 -26 98 -47 166 -67 209 -12 27 -22 53 -22 58 0 11 -65 120 -116 193
-19 27 -34 57 -34 67 0 9 -16 33 -35 54 -19 20 -35 41 -35 45 0 5 -31 42 -69
81 -49 52 -84 102 -120 173 -29 55 -65 117 -82 137 -36 45 -119 200 -119 222
0 20 38 21 64 1 29 -22 51 -18 64 10 7 14 20 28 29 32 25 9 63 45 63 60 0 7
20 26 45 43 41 28 67 72 51 87 -3 3 -1 12 5 19 7 9 7 19 0 33 -6 11 -11 28
-11 39 0 11 -16 37 -35 58 -19 22 -49 63 -66 92 -24 40 -36 52 -55 52 -14 0
-35 11 -48 25 -29 31 -42 31 -57 3 -16 -32 -89 -98 -115 -104 -55 -14 -59 26
-6 58 48 28 112 84 112 97 0 5 -20 33 -45 62 -25 29 -45 56 -45 61 0 4 -7 8
-15 8 -8 0 -15 -9 -15 -19 0 -11 -4 -22 -9 -26 -15 -9 -42 -67 -35 -74 4 -3 9
0 11 7 6 16 33 16 33 -1 0 -24 -24 -37 -67 -37 -35 0 -43 3 -43 19 0 10 8 29
18 42 31 41 72 128 72 153 0 15 -15 40 -37 63 -21 22 -54 60 -73 86 -55 73
-62 65 -54 -63 6 -95 4 -116 -11 -151 -13 -28 -15 -43 -8 -50 8 -8 20 8 41 53
17 34 34 77 40 93 14 49 37 38 36 -16 -2 -50 -23 -98 -60 -138 -27 -29 -29
-46 -9 -81 8 -14 14 -36 15 -49 0 -14 5 -39 12 -57 6 -17 8 -39 4 -49 -6 -17
-8 -17 -28 1 -11 11 -38 57 -60 104 -22 47 -57 120 -78 164 -21 43 -36 84 -33
91 5 15 29 10 56 -13 9 -8 20 -12 25 -8 4 4 5 69 4 144 -3 124 -6 140 -28 177
-39 64 -42 68 -54 103 -12 32 -42 44 -55 22 -9 -14 -58 -13 -73 2 -7 7 -12 20
-12 29 0 10 -3 19 -7 21 -5 2 -16 19 -26 38 -10 19 -45 72 -77 118 -33 46 -60
91 -60 100 0 9 -7 30 -15 46 -8 15 -15 37 -15 48 0 10 -7 32 -15 49 -35 68 14
65 108 -5 39 -30 75 -52 79 -50 17 11 7 51 -19 80 -38 41 -139 114 -158 114
-21 0 -35 39 -23 70 29 76 94 168 159 223 92 78 90 97 -9 97 -41 0 -54 6 -102
45 -30 24 -72 57 -92 72 -21 16 -40 36 -44 46 -3 9 -18 24 -34 32 -16 8 -53
43 -81 78 -105 127 -149 167 -149 137 0 -6 18 -37 39 -70 22 -32 37 -61 33
-64 -17 -18 -51 6 -157 109 -64 63 -120 115 -124 115 -3 0 -11 -8 -18 -18z
m242 -254 c33 -25 70 -48 83 -52 13 -4 39 -21 58 -38 32 -29 34 -33 34 -98 0
-80 -12 -97 -56 -78 -53 22 -84 58 -84 98 0 39 -23 80 -46 80 -25 0 -64 -31
-64 -52 0 -11 12 -42 26 -69 25 -46 26 -50 11 -73 -9 -14 -14 -32 -11 -40 8
-20 52 -20 77 -2 13 10 27 11 55 4 20 -5 49 -12 64 -15 43 -8 44 -11 64 -144
3 -20 2 -39 -3 -42 -5 -3 -34 6 -63 21 -48 24 -67 27 -162 28 -60 0 -111 4
-115 7 -3 4 -7 33 -9 64 -5 80 -22 297 -33 418 -13 133 -5 142 63 78 28 -27
78 -69 111 -95z m289 -188 c24 -22 47 -40 51 -40 15 0 85 -62 85 -76 0 -21
-51 -30 -62 -10 -13 23 -66 48 -88 41 -30 -10 -60 31 -60 82 0 55 16 56 74 3z
m-4 -160 c18 -11 2 -65 -20 -65 -16 0 -25 37 -16 61 6 16 15 17 36 4z m-140
-229 c0 -4 16 -13 35 -19 39 -15 85 -64 85 -93 0 -26 -44 -26 -56 0 -13 27
-82 101 -94 101 -11 0 -13 13 -4 23 7 7 34 -2 34 -12z m354 -533 c15 -18 31
-38 36 -45 17 -20 16 -57 0 -60 -18 -4 -80 86 -80 116 0 30 14 26 44 -11z
m447 -951 c23 -18 29 -43 15 -62 -12 -16 -14 -15 -34 13 -36 49 -23 82 19 49z
m526 -1021 c23 -30 54 -80 69 -111 14 -32 39 -71 54 -89 29 -34 90 -143 90
-161 0 -6 9 -28 20 -50 11 -22 20 -49 20 -62 0 -12 5 -25 10 -28 6 -3 10 -19
10 -34 0 -15 7 -36 15 -47 8 -10 15 -38 15 -61 0 -24 5 -43 10 -43 6 0 10 -10
10 -22 0 -34 -59 63 -136 222 -77 158 -219 444 -240 480 -17 31 -18 60 -1 60
6 0 31 -24 54 -54z"/>
<path d="M2997 7499 c-8 -38 -1 -69 14 -69 10 0 10 44 0 80 -7 24 -8 23 -14
-11z"/>
<path d="M2815 7481 c-8 -25 3 -64 16 -56 11 8 12 46 0 64 -7 11 -10 9 -16 -8z"/>
<path d="M3116 7442 c-4 -8 -5 -30 -1 -50 5 -30 8 -33 16 -19 12 20 -3 88 -15
69z"/>
<path d="M2830 7321 c0 -15 -5 -41 -10 -58 -9 -24 -7 -40 8 -79 25 -62 48 -65
68 -9 11 34 11 47 -2 92 -23 77 -64 113 -64 54z"/>
<path d="M3026 7329 c-4 -9 -3 -32 2 -50 8 -32 9 -33 13 -9 3 14 2 36 -2 50
-5 20 -8 22 -13 9z"/>
<path d="M3130 7252 c0 -15 4 -42 10 -61 6 -22 6 -40 -1 -53 -11 -20 -11 -19
-35 3 -13 12 -26 30 -29 40 -3 9 -13 20 -21 23 -17 7 -15 -33 12 -164 22 -108
47 -158 88 -175 35 -15 46 -36 46 -92 0 -17 4 -43 10 -58 5 -14 12 -63 14
-109 2 -46 9 -93 15 -104 10 -18 15 -20 42 -10 38 13 44 28 30 70 -13 40 -18
83 -20 165 -1 57 -4 66 -37 103 -20 22 -45 40 -56 40 -16 0 -17 3 -7 21 14 26
5 123 -17 189 -9 25 -15 65 -13 90 3 85 0 110 -16 110 -10 0 -15 -10 -15 -28z
m35 -280 c0 -30 -4 -51 -10 -49 -5 1 -10 26 -11 55 0 34 3 51 10 49 6 -2 11
-27 11 -55z"/>
<path d="M2837 6739 c-13 -15 -25 -19 -40 -14 -55 17 -82 17 -116 -1 -85 -43
-141 -126 -141 -210 0 -52 15 -58 29 -11 14 47 35 99 49 125 15 26 72 52 117
52 35 0 100 -23 110 -40 11 -18 25 -10 25 15 0 14 6 34 12 45 9 15 10 25 2 37
-16 25 -27 26 -47 2z"/>
<path d="M2932 6626 c-26 -19 -30 -25 -19 -34 7 -6 30 -45 52 -87 21 -41 44
-75 51 -75 25 0 64 -23 70 -43 3 -10 14 -27 25 -38 10 -10 29 -40 43 -67 30
-60 59 -80 134 -93 93 -16 102 -19 102 -33 0 -17 -70 -82 -99 -91 -29 -9 -51
-55 -51 -109 0 -28 -8 -58 -20 -78 -19 -32 -13 -58 14 -58 7 0 22 -10 34 -22
11 -13 28 -29 36 -36 22 -18 22 -124 0 -146 -20 -21 -69 -20 -105 1 -27 16
-34 29 -41 73 -3 25 13 78 28 91 17 14 19 39 3 39 -6 0 -13 -9 -16 -20 -3 -11
-9 -20 -14 -20 -5 0 -14 -10 -19 -22 -6 -13 -16 -32 -22 -43 -54 -85 -65 -103
-77 -127 -26 -51 -300 -288 -332 -288 -17 0 -20 6 -17 37 2 30 10 42 36 58
132 80 262 179 262 199 0 5 7 17 16 27 9 10 13 23 9 29 -5 8 -22 -3 -49 -33
-47 -52 -211 -167 -238 -167 -12 0 -18 8 -18 23 0 31 27 67 51 67 24 0 129 97
168 156 16 22 43 71 61 108 32 64 33 70 27 150 -6 74 -5 86 13 106 11 13 20
27 20 32 0 14 -22 9 -34 -8 -7 -9 -18 -12 -28 -9 -19 7 -58 81 -63 117 -5 42
-39 93 -104 158 -36 36 -74 78 -84 93 -9 14 -32 34 -49 43 l-32 17 -32 -37
c-32 -37 -61 -45 -82 -24 -17 17 -26 3 -34 -60 -9 -77 -23 -141 -37 -175 -6
-16 -9 -38 -6 -50 8 -30 -21 -280 -34 -306 -6 -11 -11 -39 -11 -62 0 -23 -4
-56 -9 -73 -5 -17 -13 -44 -18 -60 -6 -22 -23 -37 -68 -60 -80 -42 -144 -83
-177 -114 -23 -21 -28 -34 -28 -72 0 -25 -4 -50 -9 -55 -14 -15 -41 -106 -52
-174 -8 -55 -7 -65 13 -103 25 -50 36 -187 20 -280 -10 -66 0 -76 23 -22 18
44 41 40 38 -7 -2 -35 -36 -74 -58 -65 -7 2 -18 -13 -26 -37 -22 -72 -49 -115
-73 -121 -17 -4 -26 -15 -30 -41 -5 -24 -15 -39 -34 -49 -35 -18 -147 -56
-165 -56 -8 0 -30 -13 -48 -30 -19 -16 -39 -30 -44 -30 -6 0 -27 11 -47 25
-71 48 -130 42 -143 -14 -3 -16 -15 -37 -25 -46 -39 -35 -104 30 -70 70 10 12
9 16 -5 21 -26 10 -45 -5 -92 -74 -37 -54 -41 -65 -32 -90 8 -22 21 -32 67
-48 33 -11 75 -18 99 -16 36 3 46 -1 68 -24 16 -17 37 -28 53 -29 l27 0 7
-100 c11 -180 27 -359 34 -392 4 -20 13 -33 22 -33 13 0 14 15 9 106 l-6 105
33 47 c26 36 34 56 32 87 -1 34 2 40 22 43 14 2 24 -3 29 -15 3 -10 15 -29 25
-43 15 -19 18 -34 13 -70 -6 -51 10 -93 39 -98 17 -4 18 1 12 50 -6 47 -4 57
13 72 11 10 26 35 32 55 20 64 28 66 71 25 24 -25 40 -50 44 -73 3 -20 9 -45
14 -56 26 -63 27 -366 1 -420 -5 -11 -12 -51 -15 -90 -4 -38 -10 -101 -15
-140 -5 -49 -4 -87 5 -127 16 -69 19 -352 4 -453 -23 -161 -30 -249 -20 -259
7 -7 10 7 10 41 0 30 6 57 13 65 8 7 17 45 21 83 3 39 11 99 16 135 5 36 13
102 18 148 9 80 32 130 53 116 22 -13 -5 -369 -36 -488 -9 -32 -13 -61 -10
-64 11 -11 43 31 49 63 11 59 46 129 59 116 8 -8 7 -31 -2 -83 -7 -40 -15 -95
-18 -123 -3 -31 -14 -62 -28 -81 -20 -27 -24 -45 -28 -150 -3 -65 -10 -146
-16 -179 -6 -33 -15 -82 -20 -110 -4 -27 -13 -63 -20 -78 -6 -16 -11 -44 -11
-63 0 -19 -4 -42 -9 -52 -5 -9 -23 -73 -40 -142 -43 -171 -46 -180 -65 -224
-15 -36 -18 -38 -51 -32 -42 8 -43 5 -10 -30 14 -15 25 -32 25 -39 0 -7 -28
-47 -62 -90 -35 -43 -81 -104 -103 -135 -65 -92 -161 -213 -186 -237 -40 -36
-124 -73 -226 -99 -88 -22 -115 -24 -284 -23 l-186 2 -62 -32 c-69 -35 -89
-37 -146 -15 -85 33 -261 48 -355 30 -32 -7 -37 -4 -52 23 -15 27 -22 31 -62
31 -38 0 -48 -5 -71 -32 -39 -46 -85 -146 -85 -185 0 -18 6 -42 12 -53 10 -16
10 -24 0 -40 -18 -30 -15 -49 13 -62 31 -14 52 3 95 76 54 91 51 89 142 91
173 4 406 44 500 87 62 29 72 31 150 25 45 -3 104 -11 130 -18 41 -11 63 -10
177 10 72 12 135 19 141 16 18 -11 10 -23 -35 -49 -27 -16 -45 -34 -45 -45 0
-15 -14 -20 -87 -29 -49 -6 -108 -15 -133 -21 -25 -5 -70 -10 -100 -11 -50 0
-59 -3 -98 -40 -51 -48 -78 -60 -138 -60 -32 0 -55 -7 -77 -24 -18 -13 -48
-31 -67 -41 -19 -9 -47 -29 -62 -43 -23 -22 -31 -24 -50 -15 -27 14 -206 14
-214 2 -9 -15 84 -52 111 -45 15 4 40 -2 65 -15 42 -22 115 -22 129 -1 3 5 29
21 56 35 28 14 63 39 79 56 17 17 38 31 48 31 38 0 94 32 135 76 35 38 47 45
65 39 13 -4 66 -10 118 -14 52 -4 108 -13 123 -19 16 -7 54 -12 85 -12 47 0
61 4 80 25 31 32 80 45 174 45 42 0 89 5 105 11 15 6 87 12 158 14 121 2 135
4 193 32 57 26 68 28 115 20 29 -5 66 -13 83 -18 79 -24 129 1 224 110 41 47
59 61 80 61 30 0 40 -15 40 -59 0 -37 -17 -51 -52 -44 -22 4 -35 0 -53 -17
-14 -13 -25 -29 -25 -36 0 -8 -14 -21 -32 -30 -47 -24 -127 -102 -165 -161
-31 -49 -37 -53 -71 -53 -30 0 -45 -7 -69 -32 -38 -39 -56 -84 -48 -115 5 -20
12 -23 54 -23 46 0 50 2 114 69 49 52 77 73 109 82 45 13 114 48 258 129 47
27 101 51 120 55 19 4 40 11 47 17 6 5 76 11 156 13 80 2 154 8 166 14 11 6
26 11 34 11 9 0 39 16 68 35 58 38 94 44 125 20 30 -22 85 -18 126 10 36 25
40 25 237 25 122 0 202 4 206 10 9 15 32 12 78 -11 54 -26 117 -49 139 -49 9
0 30 11 46 25 32 27 52 31 68 15 5 -5 63 -37 129 -70 71 -36 131 -74 150 -95
36 -38 73 -46 99 -19 38 37 10 88 -64 120 -68 29 -100 49 -100 61 0 7 -9 21
-20 30 -22 19 -26 38 -10 48 6 4 34 0 63 -8 28 -8 79 -18 112 -22 74 -8 128
-21 180 -45 22 -9 69 -27 105 -39 117 -39 147 -63 186 -147 26 -56 39 -74 54
-74 24 0 27 35 6 66 -8 11 -17 38 -21 60 -12 72 -52 136 -113 177 -20 14 -79
40 -131 58 -52 18 -118 46 -148 62 -52 28 -53 29 -51 70 l3 41 -43 8 c-57 10
-132 60 -223 150 -75 74 -175 213 -186 258 -3 14 -26 59 -49 101 -24 42 -44
79 -44 82 0 3 -20 49 -45 101 -25 53 -45 99 -45 102 0 3 -11 30 -25 60 -14 30
-37 82 -51 117 -14 34 -30 66 -35 72 -5 5 -9 19 -9 31 0 12 -7 27 -15 34 -8 7
-15 18 -15 25 0 12 -32 91 -90 220 -15 33 -37 89 -49 125 -24 67 -30 84 -51
135 -6 16 -22 62 -35 101 -13 40 -28 80 -33 90 -42 84 -82 252 -82 348 0 83
-5 111 -32 191 -6 17 -13 48 -17 70 -4 23 -10 46 -14 52 -4 6 0 17 9 24 13 11
26 1 92 -64 43 -42 81 -77 85 -77 4 0 7 9 7 20 0 24 -39 141 -51 155 -5 5 -9
17 -9 26 0 9 -6 21 -13 27 -7 6 -23 43 -36 84 -13 40 -27 81 -32 90 -5 10 -9
27 -9 37 0 11 -4 22 -9 25 -11 7 -36 85 -51 161 -6 33 -16 68 -21 77 -5 10 -9
31 -9 47 0 16 -5 42 -11 58 -25 61 -53 249 -52 343 0 36 6 108 13 160 7 52 14
153 17 224 5 140 7 145 87 252 46 61 57 78 87 131 58 100 89 169 89 198 1 38
12 85 39 155 20 50 65 215 78 283 5 23 2 27 -16 25 -16 -2 -26 6 -40 32 -31
60 -51 135 -51 191 0 58 33 145 50 134 6 -3 10 -50 10 -108 0 -71 5 -111 15
-131 8 -15 15 -37 15 -47 0 -27 28 -35 48 -15 15 15 15 19 0 49 -25 49 -45
284 -25 303 13 14 7 24 -25 44 -19 11 -51 20 -73 20 -23 0 -46 5 -52 11 -6 6
-35 14 -64 19 -30 5 -98 18 -153 28 l-98 18 -67 71 c-80 87 -91 100 -91 110
-1 4 -14 24 -30 43 -21 23 -30 45 -30 70 -1 37 -28 102 -45 106 -5 2 -25 -7
-43 -20z m-212 -370 c0 -41 -7 -47 -37 -35 -17 6 -23 16 -23 39 0 27 3 30 30
30 28 0 30 -3 30 -34z m38 -52 c28 -8 32 -54 4 -54 -23 0 -56 35 -47 49 7 13
12 13 43 5z m1 -128 c9 -10 8 -16 -4 -26 -17 -14 -45 -7 -45 13 0 29 30 37 49
13z m595 -578 c11 -15 13 -34 9 -65 -4 -29 -2 -43 6 -43 7 0 11 -19 11 -50 0
-38 -7 -61 -31 -100 -24 -39 -30 -57 -24 -78 11 -45 6 -90 -15 -124 -13 -22
-20 -51 -20 -84 0 -42 -6 -59 -35 -100 -19 -27 -40 -65 -46 -84 -6 -19 -37
-89 -70 -156 -57 -117 -79 -146 -180 -230 -8 -7 -25 -25 -39 -40 -47 -54 -155
-132 -208 -149 -29 -10 -55 -21 -58 -26 -9 -15 -129 -10 -165 7 -57 26 -64 31
-67 47 -5 23 33 31 62 12 47 -31 234 -3 290 44 11 9 13 28 9 86 -7 89 10 235
38 325 12 36 22 70 24 76 2 6 -4 11 -13 10 -31 -2 -21 45 14 63 16 9 44 32 60
50 34 38 59 35 51 -5 -7 -36 19 -30 32 7 6 18 11 41 11 52 0 23 79 103 116
117 34 13 31 40 -4 40 -32 0 -67 22 -83 51 -9 18 -5 27 36 64 41 38 44 44 26
50 -42 13 -33 61 17 92 15 9 61 50 103 90 83 79 115 91 143 51z m116 2 c0 -25
-40 -81 -52 -74 -23 14 9 94 38 94 8 0 14 -9 14 -20z m-1135 -20 c-8 -35 1
-37 43 -13 25 14 32 15 46 4 9 -7 16 -19 16 -26 0 -14 -85 -96 -118 -114 -12
-6 -22 -18 -22 -26 0 -29 -117 -94 -142 -79 -5 4 -8 23 -5 43 10 75 32 115 96
178 71 71 96 80 86 33z m233 -279 c3 -16 -1 -22 -10 -19 -7 3 -15 15 -16 27
-3 16 1 22 10 19 7 -3 15 -15 16 -27z m365 -72 c11 -65 10 -79 -9 -100 -22
-24 -46 -24 -60 -1 -16 25 0 120 23 138 27 20 37 12 46 -37z m265 -614 c4 -40
-58 -115 -94 -115 -36 0 -34 5 43 128 20 32 47 25 51 -13z m-1624 -171 c21 -8
21 -30 0 -38 -16 -6 -54 9 -54 23 0 20 24 26 54 15z m1600 -9 c7 -20 -40 -143
-69 -180 -58 -74 -216 -225 -235 -225 -16 0 -12 35 8 61 10 13 34 58 52 99 27
61 51 93 124 167 50 51 96 93 102 93 7 0 14 -7 18 -15z m-186 -17 c-3 -26
-124 -128 -150 -128 -29 0 -21 18 30 64 100 93 126 106 120 64z m196 -203 c9
-13 16 -39 16 -57 0 -28 -9 -40 -62 -83 -81 -65 -88 -69 -101 -56 -7 7 0 27
25 68 19 32 46 79 58 106 26 53 40 58 64 22z m-436 -2 c-7 -35 -84 -74 -170
-87 -78 -11 -109 -28 -71 -40 34 -10 148 -28 211 -33 61 -5 63 -6 60 -32 -3
-22 -8 -26 -43 -29 -21 -2 -57 1 -80 7 -74 18 -90 20 -105 11 -12 -8 -12 -11
2 -27 9 -10 21 -36 27 -58 9 -35 18 -44 74 -72 51 -27 75 -33 124 -33 68 0 96
-17 73 -45 -9 -10 -31 -15 -74 -15 -61 0 -104 12 -162 43 -27 14 -34 14 -43 3
-9 -11 -5 -18 22 -35 19 -12 37 -21 41 -21 13 0 114 -75 126 -94 9 -15 9 -21
-2 -33 -13 -12 -22 -9 -69 23 -30 20 -94 60 -144 89 -102 61 -125 87 -101 114
14 15 14 19 0 39 -20 29 -9 45 28 40 16 -3 31 -1 34 3 6 11 -32 88 -58 116
-14 15 -21 37 -22 74 l-1 52 81 2 c73 3 152 21 193 45 27 16 53 12 49 -7z
m120 -45 c-3 -34 -15 -43 -38 -28 -12 7 -12 12 0 34 19 37 42 34 38 -6z m-592
-124 c7 -28 1 -150 -17 -364 -6 -69 -14 -173 -17 -233 -4 -59 -11 -107 -17
-108 -14 0 -38 89 -37 136 3 102 48 570 56 584 12 19 25 12 32 -15z m934 -42
c0 -38 -67 -149 -114 -189 -14 -13 -26 -29 -26 -36 0 -23 -126 -151 -142 -144
-22 8 -50 145 -35 172 12 22 191 188 257 238 32 25 36 25 48 10 6 -9 12 -32
12 -51z m-220 38 c0 -18 -23 -64 -40 -80 -3 -3 -16 -22 -30 -42 -26 -39 -47
-47 -68 -26 -23 23 -11 49 51 108 66 63 87 73 87 40z m232 -218 c5 -18 13 -69
19 -114 5 -46 14 -121 20 -167 5 -46 14 -92 19 -102 6 -10 10 -40 10 -67 0
-27 4 -62 10 -78 5 -16 16 -74 25 -129 19 -127 32 -190 45 -214 5 -11 10 -29
10 -40 0 -11 6 -35 14 -53 8 -18 25 -78 36 -133 12 -55 26 -107 30 -116 11
-21 -26 -59 -57 -59 -38 0 -55 32 -53 102 2 92 1 98 -13 98 -13 0 -47 -99 -47
-134 0 -26 -21 -29 -49 -8 l-27 20 -11 -28 c-7 -17 -20 -30 -34 -33 -15 -3 -9
-5 17 -6 56 -2 79 -20 70 -57 -4 -16 -11 -47 -16 -69 -5 -22 -16 -60 -25 -84
-11 -32 -12 -48 -4 -55 7 -8 26 5 64 47 30 31 59 57 64 57 5 0 21 -14 35 -32
34 -44 44 -29 22 32 -17 47 -17 52 -2 76 10 14 29 30 43 37 22 10 28 8 44 -12
11 -13 19 -39 19 -60 0 -37 31 -149 50 -183 6 -10 10 -25 10 -35 0 -9 6 -24
13 -32 18 -21 35 -83 41 -148 5 -55 40 -143 56 -143 14 0 12 30 -5 86 -8 27
-17 66 -20 87 -3 20 -10 37 -14 37 -5 0 -11 19 -13 43 -3 23 -8 50 -12 60 -6
13 -3 17 12 17 21 0 38 -30 83 -145 13 -33 27 -64 31 -69 4 -6 8 -16 8 -23 0
-7 16 -48 36 -90 34 -75 41 -92 69 -158 6 -16 27 -64 45 -105 18 -41 38 -88
45 -105 80 -183 105 -233 154 -298 23 -29 41 -59 41 -65 0 -6 6 -17 13 -24 13
-14 47 -106 47 -129 1 -8 9 -32 20 -54 27 -57 26 -119 -2 -139 -28 -20 -107
-21 -144 -1 -16 8 -38 15 -49 15 -11 0 -56 13 -100 28 -68 24 -81 32 -83 53
-5 32 -20 49 -37 42 -34 -13 -141 83 -130 117 4 13 0 20 -14 25 -23 7 -91 82
-91 101 0 6 -7 17 -15 24 -16 14 -21 60 -6 60 12 0 141 -130 141 -142 0 -4 7
-8 15 -8 24 0 18 10 -45 72 -33 32 -60 60 -60 63 0 4 -58 86 -152 215 -18 25
-43 72 -56 105 -52 131 -80 180 -121 213 -72 58 -92 101 -96 204 -1 49 -8 95
-14 101 -6 6 -11 24 -11 39 0 16 -6 41 -14 56 -7 15 -16 54 -20 86 -4 32 -14
88 -23 124 -13 52 -14 74 -5 107 11 41 1 118 -19 140 -5 5 -9 23 -9 41 0 17
-6 49 -14 70 -18 51 -26 326 -10 331 10 3 45 -43 66 -87 6 -13 7 -13 7 0 1 12
-11 52 -39 125 -36 97 -80 245 -80 271 0 11 -4 24 -8 30 -5 5 -14 33 -21 62
l-13 53 56 62 c31 34 72 79 91 100 19 21 48 57 63 80 43 67 61 72 74 19z
m-712 -198 c0 -8 11 -42 25 -75 20 -47 25 -74 23 -122 -3 -53 -6 -62 -23 -65
-11 -1 -33 8 -49 21 -27 22 -28 25 -17 60 9 26 9 46 2 74 -15 54 -13 94 5 114
18 20 34 17 34 -7z m230 -279 c54 -40 67 -70 73 -167 6 -103 -2 -117 -55 -95
-58 25 -73 50 -74 131 -1 39 -5 90 -9 114 -7 37 -6 42 12 42 10 0 34 -11 53
-25z m-530 -346 c0 -38 -24 -35 -28 4 -2 19 1 27 12 27 11 0 16 -10 16 -31z
m1138 -491 c-3 -7 -13 -13 -23 -13 -10 0 -20 6 -22 13 -3 7 5 12 22 12 17 0
25 -5 23 -12z m-31 -65 c2 -6 -6 -17 -18 -23 -17 -10 -23 -9 -30 1 -4 8 -3 19
3 27 13 15 40 12 45 -5z m-49 -752 c27 -23 47 -51 52 -72 9 -35 36 -118 49
-154 8 -21 105 -219 120 -245 5 -8 23 -39 40 -68 17 -29 31 -63 31 -75 0 -26
-37 -67 -61 -67 -22 0 -77 63 -84 98 -21 100 -58 203 -110 302 -21 41 -47 102
-58 135 -10 33 -25 80 -33 105 -29 90 -14 101 54 41z m389 -718 c30 -31 52
-62 49 -70 -4 -9 -26 -13 -75 -13 -60 0 -74 3 -100 26 -30 25 -30 26 -14 52
49 79 69 80 140 5z m649 -12 c36 -38 88 -85 117 -105 66 -44 190 -172 181
-187 -3 -6 -18 -8 -33 -5 -14 3 -47 9 -73 14 -27 5 -56 16 -66 25 -23 21 -79
22 -152 2 -70 -19 -90 -19 -90 0 0 10 -10 15 -30 15 -23 0 -30 5 -30 19 0 31
19 35 45 11 19 -18 27 -20 38 -11 8 6 36 13 64 16 64 6 129 33 115 47 -6 6
-28 8 -54 4 -101 -15 -93 -20 -94 64 0 53 -5 83 -17 101 -17 26 -14 59 5 59 6
0 39 -31 74 -69z m-2536 -15 c0 -7 -7 -19 -16 -27 -13 -11 -102 -151 -142
-224 -15 -29 -120 -125 -135 -125 -7 0 -25 -7 -41 -15 -34 -18 -53 -7 -38 22
6 10 67 72 136 138 82 78 126 126 126 140 0 38 59 104 93 105 9 0 17 -6 17
-14z m2090 -145 c32 -8 38 -44 11 -64 -19 -13 -27 -11 -81 15 -42 20 -60 34
-60 47 0 31 25 31 130 2z m-212 -57 c55 -26 72 -39 72 -54 0 -11 -8 -24 -17
-27 -25 -10 -334 16 -350 29 -14 11 -17 56 -5 75 9 14 56 19 152 14 59 -2 90
-10 148 -37z m-3474 -117 c-1 -30 -9 -44 -40 -71 -22 -19 -42 -32 -46 -29 -14
8 -8 70 7 83 8 7 15 18 15 26 0 16 30 35 50 31 10 -2 15 -14 14 -40z m4665 0
c36 -18 66 -38 69 -44 6 -20 -49 -16 -109 9 -64 26 -79 36 -79 54 0 23 51 15
119 -19z m-4291 -32 c6 -2 12 -9 12 -15 0 -6 -49 -10 -135 -10 -113 0 -135 2
-135 15 0 17 24 24 100 27 51 3 127 -6 158 -17z m1981 -76 c40 -14 38 -38 -4
-59 -17 -9 -49 -28 -73 -43 -24 -16 -51 -31 -60 -34 -9 -4 -29 -15 -44 -25
-35 -24 -48 -23 -48 5 0 17 18 36 68 72 37 26 75 59 85 72 21 26 31 28 76 12z"/>
<path d="M2917 4725 c-21 -69 -23 -184 -3 -211 12 -16 15 -16 20 -4 6 18 14
76 22 153 4 31 10 60 15 63 5 3 9 16 9 30 0 18 -5 24 -23 24 -19 0 -26 -9 -40
-55z"/>
<path d="M3180 2561 c0 -12 5 -21 10 -21 6 0 10 6 10 14 0 8 -4 18 -10 21 -5
3 -10 -3 -10 -14z"/>
<path d="M145 2050 c-3 -6 2 -13 12 -16 10 -3 32 -12 50 -20 36 -16 73 -18 73
-5 0 5 -12 19 -26 30 -28 22 -98 29 -109 11z"/>
</g>
</svg>
