<?xml version="1.0" standalone="no"?>
<!DOCTYPE svg PUBLIC "-//W3C//DTD SVG 20010904//EN"
 "http://www.w3.org/TR/2001/REC-SVG-20010904/DTD/svg10.dtd">
<svg version="1.0" xmlns="http://www.w3.org/2000/svg"
 width="537.000000pt" height="900.000000pt" viewBox="0 0 537.000000 900.000000"
 preserveAspectRatio="xMidYMid meet">
<metadata>
Created by potrace 1.10, written by Peter Selinger 2001-2011
</metadata>
<g transform="translate(0.000000,900.000000) scale(0.100000,-0.100000)"
fill="#000000" stroke="none">
<path d="M4129 8554 c-20 -47 -49 -198 -49 -251 1 -52 16 -114 31 -123 6 -4
30 -6 53 -3 50 6 92 45 130 122 15 28 35 55 44 58 9 3 24 15 33 26 16 20 17
20 33 -6 15 -22 16 -32 5 -84 -9 -45 -9 -67 -1 -92 9 -26 9 -37 -2 -54 -8 -12
-16 -34 -20 -48 -4 -17 -30 -44 -73 -76 -38 -28 -108 -90 -156 -138 -77 -78
-87 -92 -87 -124 0 -42 7 -54 38 -70 17 -9 31 -10 54 -2 17 6 43 11 57 11 14
0 51 12 81 26 42 19 63 24 92 19 80 -14 89 -59 22 -104 -52 -35 -69 -38 -83
-13 -9 14 -10 12 -9 -14 2 -39 -49 -104 -109 -139 -38 -23 -43 -30 -43 -61 0
-19 4 -42 10 -52 5 -9 23 -46 40 -81 17 -36 51 -87 76 -113 l45 -48 -3 -228
-3 -227 -48 -45 c-53 -49 -53 -49 -142 -75 -33 -10 -85 -26 -114 -35 -66 -21
-81 -17 -81 21 0 40 -24 37 -44 -5 -9 -19 -16 -38 -16 -44 0 -5 -7 -23 -15
-38 -8 -16 -15 -38 -15 -49 0 -34 -40 -139 -58 -152 -17 -14 -179 -18 -198 -5
-5 4 -23 24 -38 44 l-28 37 -111 3 -112 3 -3 70 c-2 40 4 107 14 157 13 64 15
90 6 100 -6 7 -11 44 -11 81 0 105 -28 258 -51 281 -5 5 -10 26 -10 46 0 54
-13 67 -36 33 -29 -43 -44 -74 -60 -120 -34 -99 -140 -314 -160 -326 -8 -4
-14 -14 -14 -21 0 -13 -47 -62 -54 -55 -8 10 -36 69 -36 78 0 9 -39 101 -75
176 -8 17 -17 41 -20 55 -3 14 -26 47 -51 73 -24 26 -56 66 -70 88 -31 49 -62
62 -139 56 -86 -6 -167 -33 -209 -70 -35 -31 -37 -36 -47 -127 -11 -93 -17
-136 -39 -275 -15 -92 -48 -129 -80 -90 -14 17 -127 75 -145 75 -17 0 -61 50
-84 97 -26 53 -38 60 -62 37 -18 -19 -17 -22 17 -134 19 -63 40 -135 46 -160
6 -24 21 -61 34 -82 13 -21 24 -46 24 -56 0 -19 37 -73 117 -171 28 -35 40
-57 36 -69 -12 -33 -188 -204 -234 -227 -25 -13 -51 -30 -58 -39 -8 -10 -17
-73 -24 -170 l-10 -154 26 -32 c15 -17 27 -36 27 -41 0 -18 -38 -84 -58 -102
-12 -11 -27 -42 -35 -70 -38 -133 -57 -208 -57 -219 0 -12 -52 -152 -70 -188
-4 -9 -11 -31 -15 -50 -14 -67 -29 -80 -94 -80 -77 0 -104 -24 -132 -117 -11
-38 -24 -76 -30 -86 -5 -10 -7 -27 -4 -38 4 -10 -1 -43 -9 -72 -14 -46 -29
-74 -98 -188 -13 -21 -19 -68 -25 -206 -5 -98 -6 -182 -1 -187 5 -6 21 3 40
21 18 18 45 35 60 38 43 11 68 46 79 114 5 34 7 66 4 71 -6 10 21 69 40 85 6
6 35 38 64 73 60 70 82 77 129 37 17 -14 36 -25 44 -25 8 0 23 -9 33 -21 16
-17 17 -24 7 -51 -10 -27 -9 -35 5 -50 14 -15 15 -34 9 -125 -3 -60 -13 -133
-21 -163 -27 -100 -19 -130 35 -130 10 0 28 -12 39 -26 16 -21 23 -23 40 -15
29 16 63 13 89 -7 l22 -17 -14 -195 c-12 -168 -12 -217 0 -355 8 -88 11 -178
8 -200 -4 -22 -8 -125 -10 -230 -1 -104 -7 -253 -13 -330 -6 -77 -14 -245 -17
-372 -4 -152 -11 -238 -18 -249 -10 -12 -36 -16 -136 -18 -163 -3 -222 -30
-184 -85 20 -28 44 -27 41 2 -2 21 1 22 96 25 l97 3 10 -27 c6 -15 24 -42 40
-61 33 -37 38 -76 16 -108 -8 -11 -45 -36 -82 -55 -38 -19 -71 -37 -74 -41 -3
-3 -22 -12 -43 -20 -21 -7 -46 -20 -55 -29 -9 -8 -41 -26 -69 -40 -29 -14 -53
-28 -53 -32 0 -5 -9 -8 -19 -8 -11 0 -26 -7 -35 -15 -8 -8 -21 -15 -28 -15 -8
0 -23 -7 -34 -15 -17 -13 -17 -14 -2 -15 14 0 171 72 218 101 8 5 22 12 30 15
8 3 44 20 79 37 49 25 65 29 69 18 5 -15 35 -47 49 -52 6 -2 13 -27 16 -56 6
-50 4 -53 -24 -74 -31 -22 -262 -139 -274 -139 -5 0 -50 -20 -101 -45 -51 -24
-105 -47 -119 -51 -14 -3 -28 -10 -31 -15 -7 -13 -64 -11 -64 1 0 6 8 14 18
17 16 6 71 42 82 53 3 3 16 11 30 17 19 9 20 12 7 12 -9 1 -25 -3 -35 -8 -9
-5 -53 -25 -97 -45 -44 -21 -87 -42 -95 -47 -8 -5 -23 -12 -33 -16 -10 -3 -16
-12 -13 -22 3 -9 -7 -25 -24 -39 -38 -30 -144 -82 -167 -82 -11 0 -34 -11 -52
-24 -18 -14 -57 -37 -87 -52 -36 -18 -54 -33 -54 -46 0 -10 -7 -30 -16 -43
-16 -24 -15 -24 13 -16 15 5 68 27 116 50 49 22 92 41 97 41 4 0 34 13 66 29
33 15 88 38 124 50 36 12 74 25 85 30 11 5 58 23 105 41 81 31 116 46 242 104
31 14 64 26 73 26 12 0 15 6 10 19 -4 14 3 24 28 40 19 12 40 21 47 21 8 0 21
7 31 16 23 20 53 11 45 -14 -7 -21 51 -86 136 -151 32 -24 60 -53 64 -65 4
-11 15 -27 25 -34 10 -7 16 -18 13 -25 -3 -8 9 -19 28 -28 28 -12 33 -20 36
-51 3 -37 2 -38 -30 -39 -37 -1 -93 -29 -87 -44 5 -14 35 -9 91 15 66 28 76
26 98 -22 27 -58 25 -68 -9 -68 -31 0 -49 -14 -31 -25 5 -3 25 1 44 10 26 13
39 14 55 6 29 -16 37 -14 55 14 13 20 14 28 4 45 -11 18 -6 27 61 90 40 39 88
82 105 95 51 39 234 98 288 93 30 -3 33 -6 30 -30 -3 -23 1 -28 18 -28 14 0
24 -9 32 -30 5 -17 19 -35 29 -41 25 -13 69 -101 69 -138 0 -28 -3 -30 -97
-60 -54 -16 -123 -33 -153 -36 -30 -4 -62 -9 -70 -13 -29 -11 -136 -33 -210
-43 -41 -5 -86 -13 -100 -18 -14 -5 -68 -12 -120 -14 -96 -5 -202 -34 -226
-63 -6 -7 -19 -11 -30 -8 -11 3 -40 -2 -64 -10 -25 -9 -55 -16 -66 -16 -12 0
-32 -8 -45 -18 -13 -10 -32 -22 -42 -25 -22 -8 -13 -27 11 -27 10 0 34 8 54
18 20 11 71 24 115 31 43 7 86 17 95 22 10 5 31 9 48 9 16 0 47 6 67 14 92 34
146 46 212 46 41 0 71 -4 71 -10 0 -5 -5 -10 -10 -10 -14 0 -30 -43 -20 -53 4
-5 35 -3 69 4 42 9 69 10 88 3 31 -11 83 0 193 40 80 28 156 50 236 68 55 12
63 12 90 -4 47 -29 85 -23 124 17 19 19 38 35 44 35 5 0 24 -11 42 -25 37 -28
86 -32 159 -13 35 9 50 10 64 1 15 -10 22 -8 40 11 25 27 92 51 115 43 17 -7
20 -13 30 -60 11 -47 28 -32 20 18 -6 44 -5 46 24 57 17 7 36 24 43 42 9 19
33 40 69 59 30 16 63 36 73 45 26 23 78 20 116 -7 18 -13 47 -24 64 -25 31 -1
32 1 37 44 5 42 9 47 39 42 4 -1 21 -20 36 -43 37 -53 59 -64 95 -49 25 10 32
9 58 -10 25 -19 33 -20 52 -10 18 10 21 18 17 43 -6 43 0 57 27 57 25 0 56 28
56 52 0 8 -17 33 -37 56 -64 69 -81 109 -43 99 30 -8 25 17 -12 71 -18 26 -36
49 -39 52 -8 8 -93 151 -108 185 -21 44 -50 128 -51 143 0 8 -6 28 -14 45 -36
81 -74 205 -69 228 2 13 -5 49 -17 79 -18 46 -61 175 -101 305 -5 17 -21 84
-35 150 -15 66 -32 147 -40 180 -8 33 -19 87 -24 120 -6 33 -20 91 -31 130
-11 38 -27 95 -36 125 -9 30 -22 78 -30 105 -8 28 -18 66 -23 85 -4 19 -17 71
-30 115 -12 44 -36 130 -52 190 -44 162 -45 164 -73 245 -31 91 -30 114 8 118
21 3 27 9 27 28 0 19 9 28 38 40 20 9 51 22 67 30 86 38 158 65 162 60 3 -3
18 3 32 13 14 10 61 33 103 51 73 31 79 32 102 17 22 -15 25 -15 30 -1 3 9 6
24 6 33 0 11 19 28 51 45 51 29 73 56 50 64 -31 10 -48 43 -65 123 -9 46 -28
122 -42 169 -54 182 -110 393 -125 473 -6 29 -14 72 -19 97 -4 25 -17 86 -29
135 -11 50 -27 122 -36 160 -15 66 -41 203 -51 270 -3 17 -12 59 -19 95 -21
94 -65 298 -74 347 -4 23 -4 48 1 57 12 21 109 47 147 40 24 -5 35 -2 49 16
17 21 21 22 55 9 32 -11 43 -11 89 5 91 32 129 91 68 106 -19 5 -24 12 -22 30
3 28 92 149 110 150 7 0 22 21 32 46 14 33 25 45 37 42 15 -3 18 -16 20 -83 2
-111 12 -210 28 -275 7 -30 15 -113 18 -184 5 -103 9 -132 23 -148 17 -18 17
-21 1 -51 -9 -18 -19 -49 -23 -71 -6 -36 -4 -41 32 -72 l39 -32 -19 -36 c-13
-24 -16 -43 -11 -63 4 -15 7 -52 6 -81 -1 -34 5 -65 18 -90 15 -30 20 -68 24
-202 4 -91 11 -214 17 -275 6 -60 15 -168 20 -240 13 -180 26 -264 47 -287 14
-16 19 -48 25 -166 5 -81 15 -194 23 -252 8 -58 15 -120 15 -139 0 -19 6 -60
14 -90 21 -84 36 -175 45 -281 11 -119 15 -890 6 -948 -5 -31 -3 -49 9 -67 23
-34 32 -184 16 -259 -9 -45 -9 -98 -1 -230 6 -94 16 -272 22 -396 15 -296 33
-488 47 -502 8 -8 15 -8 27 2 12 10 14 25 10 69 -15 146 -38 578 -37 676 10
544 -2 1060 -27 1225 -11 66 -58 618 -71 835 -5 66 -13 165 -20 220 -6 55 -16
156 -21 225 -13 184 -26 329 -49 575 -12 121 -25 267 -29 325 -5 58 -14 119
-20 135 -6 17 -15 104 -21 195 -22 339 -25 375 -33 387 -4 6 -12 110 -17 230
-5 121 -17 270 -25 333 -9 62 -14 124 -10 137 3 13 21 31 43 42 56 28 64 42
51 80 -6 17 -9 40 -6 50 2 10 1 25 -3 32 -11 17 -37 -9 -46 -46 -7 -30 -30
-43 -46 -27 -6 6 -12 35 -14 64 -1 29 -5 67 -9 85 -6 26 -3 34 18 48 14 9 38
15 54 13 23 -2 29 -9 33 -37 3 -19 10 -36 16 -38 22 -7 26 67 8 154 -5 25 -53
55 -99 63 l-30 5 0 170 c0 150 2 173 19 198 17 26 18 30 3 65 -10 24 -17 81
-20 160 l-5 123 28 32 c37 43 60 90 60 123 0 27 -35 94 -50 94 -4 0 -13 13
-20 30 -12 29 -12 29 -79 24 -36 -3 -102 -19 -145 -35 -66 -25 -82 -27 -93
-16 -19 19 20 53 137 120 52 29 122 71 156 93 88 56 131 129 84 141 -24 6 -25
32 -5 88 32 90 8 177 -78 279 -42 51 -87 66 -144 48 -26 -8 -40 -8 -55 1 -17
10 -23 8 -48 -22 -32 -37 -32 -37 -47 38 l-8 44 -16 -39z m59 -181 c-4 -22
-22 -20 -26 1 -2 10 3 16 13 16 10 0 15 -7 13 -17z m-1563 -1390 c15 -16 31
-37 36 -48 5 -11 18 -33 28 -50 11 -16 38 -67 62 -113 l42 -82 -18 -66 c-12
-44 -16 -83 -12 -121 7 -65 -4 -100 -41 -130 -28 -23 -76 -30 -87 -14 -3 5 0
21 7 36 9 19 9 28 0 37 -18 18 -14 35 10 41 18 5 19 9 9 21 -7 8 -24 16 -39
18 -33 4 -53 48 -34 78 13 21 3 27 -14 10 -7 -7 -19 -8 -36 -1 -24 9 -26 16
-33 90 -7 75 -9 82 -31 87 -37 9 -54 -12 -54 -65 0 -25 4 -52 9 -60 5 -8 5
-21 0 -30 -5 -9 -12 -31 -16 -49 -10 -40 -24 -43 -40 -11 -17 33 -16 118 2
236 9 54 18 114 21 133 6 33 6 34 21 15 10 -13 17 -16 20 -8 12 33 46 62 76
66 73 9 84 7 112 -20z m650 -77 c13 -9 19 -25 18 -47 -2 -72 -35 -354 -43
-369 -14 -27 -22 -130 -11 -130 14 0 14 -35 0 -63 -6 -12 -25 -37 -42 -54 -40
-42 -28 -52 28 -24 25 12 49 19 55 16 12 -7 14 -35 2 -35 -4 0 -41 -46 -83
-102 -88 -121 -112 -158 -106 -164 7 -8 137 142 137 158 0 11 52 81 82 111 24
24 51 23 43 -2 -10 -34 12 -32 55 4 42 35 80 44 110 25 13 -8 13 -14 -4 -44
-10 -19 -31 -47 -45 -63 -15 -15 -45 -55 -67 -88 -51 -75 -112 -165 -141 -206
-26 -36 -30 -57 -8 -39 15 13 35 6 35 -12 0 -25 -36 -88 -53 -94 -27 -9 -32 2
-19 43 6 20 9 39 7 42 -7 7 -46 -31 -61 -61 -7 -14 -20 -32 -28 -40 -7 -8 -23
-32 -34 -54 -12 -21 -33 -50 -47 -63 -32 -29 -58 -78 -50 -91 9 -15 31 -12 45
5 16 20 90 21 90 1 0 -8 -15 -35 -33 -61 -22 -33 -45 -52 -74 -64 -23 -9 -47
-21 -53 -27 -6 -6 -15 -74 -21 -150 -5 -77 -13 -186 -19 -244 -14 -151 -12
-324 6 -462 17 -135 14 -161 -15 -134 -47 43 -80 247 -81 503 0 135 -19 148
-32 23 -2 -17 -9 -25 -23 -25 -28 0 -40 49 -23 100 10 32 18 41 41 43 16 2 27
9 27 19 0 11 -6 14 -21 10 -13 -4 -27 2 -39 16 -10 12 -29 36 -43 52 -14 17
-28 28 -30 25 -3 -3 -9 -154 -13 -335 -6 -300 -5 -331 10 -344 9 -7 16 -22 16
-33 0 -14 6 -19 23 -16 20 3 23 11 29 72 8 79 19 97 40 64 15 -25 58 -150 58
-172 0 -17 -30 -43 -55 -48 -17 -3 -19 -10 -17 -41 3 -27 0 -37 -11 -37 -19 0
-27 12 -57 80 -14 30 -42 83 -62 118 -21 34 -38 67 -38 73 0 6 -13 40 -30 76
-16 35 -30 74 -30 86 0 12 -7 31 -15 41 -8 11 -15 31 -15 45 -1 14 -7 37 -15
51 -18 32 -20 93 -2 88 6 -3 13 -15 15 -29 2 -13 10 -38 18 -56 8 -17 14 -43
14 -58 0 -17 5 -25 13 -23 8 3 14 44 19 129 7 113 5 133 -18 227 -21 82 -24
112 -17 141 6 20 6 46 2 56 -10 26 -11 97 -1 111 22 33 81 43 106 18 29 -29
20 -61 -29 -94 -25 -17 -45 -35 -45 -40 0 -13 17 -13 25 0 9 14 52 12 62 -2 4
-7 6 -25 4 -40 -4 -38 19 -36 41 3 10 16 31 35 48 40 26 9 30 16 30 46 0 20 9
51 21 70 14 22 19 42 15 59 -5 18 1 36 22 67 38 55 45 77 27 77 -8 0 -25 -18
-37 -40 -33 -58 -78 -67 -78 -16 0 48 32 113 75 156 27 26 45 53 45 66 0 25
-24 54 -45 54 -22 0 -42 40 -50 98 -4 33 -16 63 -31 81 -28 34 -31 74 -8 131
20 49 39 51 54 5 16 -48 41 -52 100 -16 28 17 54 31 59 31 21 0 61 63 61 95 0
42 -17 56 -63 48 -51 -8 -57 14 -18 68 17 23 31 48 31 56 0 7 4 13 9 13 5 0
13 10 17 23 4 12 20 41 35 64 16 23 29 45 29 48 0 4 12 26 28 49 60 91 122
238 122 289 0 59 10 69 45 43z m-80 -86 c3 -5 -1 -20 -9 -32 -9 -12 -16 -29
-16 -38 0 -21 -25 -68 -91 -170 -58 -90 -89 -151 -89 -175 0 -8 -3 -15 -8 -15
-4 0 -18 -20 -32 -44 -37 -69 -99 -84 -63 -16 7 14 42 86 77 160 35 74 76 152
90 173 14 21 26 40 26 42 0 2 16 31 36 64 35 58 63 77 79 51z m-782 -515 l-7
-50 -8 55 c-4 30 -5 66 -2 80 l7 25 8 -30 c5 -16 6 -52 2 -80z m538 -145 c16
0 16 -2 -4 -23 -12 -13 -32 -29 -45 -36 -45 -24 -70 29 -36 77 l15 22 26 -20
c14 -11 34 -20 44 -20z m768 11 c17 -11 6 -31 -18 -31 -25 0 -33 11 -20 27 13
15 19 16 38 4z m-109 -75 c0 -17 -124 -146 -140 -146 -22 0 -2 57 37 110 32
42 42 50 70 50 21 0 33 -5 33 -14z m170 -26 c26 -16 -1 -42 -59 -57 -56 -14
-81 -7 -81 23 0 32 103 57 140 34z m-1332 -63 c2 -10 -3 -17 -12 -17 -10 0
-16 9 -16 21 0 24 23 21 28 -4z m-244 5 c7 -12 -52 -72 -70 -72 -20 0 -18 8
12 47 24 32 47 42 58 25z m486 -69 c62 -82 87 -124 104 -175 18 -53 18 -59 2
-91 -9 -19 -16 -49 -16 -66 0 -29 -3 -31 -27 -29 -26 3 -29 -1 -47 -54 -17
-52 -21 -58 -52 -64 -24 -4 -42 -1 -59 10 -25 16 -25 17 -22 144 2 70 7 135
12 145 8 19 59 24 70 7 17 -28 21 -3 8 58 -29 134 -20 175 27 115z m-374 -85
c-4 -22 -19 -68 -35 -102 -16 -33 -39 -95 -51 -136 -13 -41 -29 -89 -36 -107
-8 -17 -14 -37 -14 -45 0 -8 -11 -25 -24 -37 -31 -29 -58 -21 -87 26 -20 32
-68 62 -141 86 -28 10 -22 55 12 94 17 18 30 40 30 48 0 19 62 65 87 65 28 0
34 -20 40 -127 4 -67 9 -93 19 -93 21 0 27 18 25 79 -1 51 2 60 29 86 29 28
58 91 46 102 -10 10 -38 -7 -43 -28 -4 -16 -8 -17 -14 -7 -16 24 -9 38 43 89
65 63 78 70 101 57 16 -8 18 -17 13 -50z m100 -74 c13 -19 10 -24 -38 -62 -28
-24 -56 -41 -62 -39 -21 7 -18 72 5 101 26 33 74 33 95 0z m1344 -4 c5 -9 14
-66 20 -125 6 -60 13 -112 15 -115 2 -4 1 -20 -3 -35 l-8 -29 -22 42 c-12 24
-22 56 -22 72 0 17 -9 62 -20 101 -13 50 -16 77 -10 94 10 27 34 25 50 -5z
m-84 -12 c10 -15 23 -83 34 -174 4 -40 13 -81 19 -92 6 -12 11 -38 11 -59 0
-21 4 -52 9 -69 5 -17 14 -80 20 -140 7 -60 16 -131 21 -159 32 -183 52 -416
37 -432 -11 -11 -20 4 -27 49 -4 24 -15 72 -23 108 -16 65 -20 88 -57 280 -11
58 -25 128 -30 155 -51 252 -62 309 -71 373 -5 40 -14 83 -18 95 -11 28 2 55
32 67 30 12 35 12 43 -2z m-132 -70 c9 -41 18 -102 28 -183 5 -44 13 -109 18
-145 4 -36 15 -141 24 -235 10 -93 21 -186 26 -205 9 -39 28 -168 40 -275 5
-38 12 -80 15 -92 4 -13 4 -31 0 -40 -6 -16 -8 -16 -26 6 -13 16 -19 39 -19
77 0 29 -6 71 -14 91 -14 38 -26 102 -52 268 -7 50 -20 124 -29 165 -8 41 -19
111 -25 155 -5 44 -14 103 -20 130 -6 28 -13 67 -17 88 -7 47 -20 48 -29 1 -7
-38 8 -258 26 -379 17 -112 30 -223 40 -325 9 -102 22 -194 45 -305 7 -38 21
-124 30 -190 9 -66 21 -142 27 -170 6 -27 14 -77 19 -110 8 -65 36 -174 49
-190 4 -5 11 -25 15 -43 5 -25 10 -31 18 -23 9 9 7 24 -6 60 -19 55 -23 135
-6 129 12 -4 37 -65 45 -108 12 -62 15 -70 24 -70 15 0 12 61 -5 127 -17 65
-20 153 -5 153 5 0 12 -10 14 -22 3 -13 7 -34 10 -48 2 -14 14 -56 26 -95 31
-97 37 -155 17 -155 -9 0 -19 5 -22 10 -10 17 -23 11 -27 -12 -2 -12 -12 -25
-23 -28 -11 -3 -38 -18 -61 -33 -55 -37 -109 -46 -121 -21 -15 29 -45 194 -73
399 -6 44 -17 127 -26 185 -8 58 -19 155 -24 215 -6 61 -15 134 -20 164 -6 30
-10 79 -10 109 0 34 -5 59 -15 68 -8 9 -15 32 -16 52 0 20 -4 46 -8 57 -6 15
-9 11 -14 -20 -4 -22 -7 -53 -7 -68 0 -43 -24 -28 -30 19 -3 21 -9 44 -13 51
-4 6 -12 46 -17 88 -5 42 -22 112 -37 156 -27 79 -27 79 -8 111 10 18 27 39
37 46 13 9 18 26 18 56 0 27 7 52 19 67 10 13 21 40 25 60 9 50 39 109 70 138
14 14 26 35 26 48 0 56 64 91 74 41z m-1080 -67 c6 -9 -13 -93 -29 -133 -10
-24 -33 -30 -47 -12 -7 9 -25 28 -40 42 l-28 26 22 23 c12 13 26 23 31 23 5 0
20 9 34 20 28 22 48 25 57 11z m-146 -138 c52 -20 55 -49 4 -47 -47 3 -104 64
-59 64 6 0 31 -7 55 -17z m12 -138 c0 -14 -10 -35 -22 -47 l-22 -22 -9 22
c-15 34 -1 72 28 72 20 0 25 -5 25 -25z m60 -32 c0 -13 -4 -23 -10 -23 -5 0
-10 17 -10 38 0 27 3 33 10 22 5 -8 10 -25 10 -37z m19 -95 c0 -33 -2 -38 -9
-23 -12 28 -12 65 0 65 6 0 10 -19 9 -42z m59 -165 c6 -12 12 -33 12 -46 0
-14 7 -41 15 -60 8 -20 15 -49 15 -64 -1 -27 -1 -27 -15 -9 -8 11 -15 32 -15
47 0 15 -4 30 -9 33 -5 4 -12 25 -16 49 -3 23 -13 56 -22 73 -10 20 -13 38 -8
50 7 16 10 14 19 -16 6 -19 17 -45 24 -57z m796 53 c14 -58 28 -173 37 -316 5
-85 12 -179 15 -208 8 -68 -6 -85 -40 -53 -16 15 -26 38 -30 69 -3 26 -12 97
-20 157 -28 204 -17 375 24 375 4 0 11 -11 14 -24z m-191 -56 c9 -38 10 -586
1 -601 -9 -15 -33 -10 -55 12 -21 21 -21 28 -15 153 3 72 9 209 12 304 7 167
8 173 28 170 14 -2 23 -14 29 -38z m327 -372 c0 -16 -3 -19 -11 -11 -6 6 -8
16 -5 22 11 17 16 13 16 -11z m560 -48 c11 -21 20 -46 20 -54 0 -9 6 -35 14
-58 13 -41 29 -112 63 -278 8 -41 21 -93 29 -115 8 -23 14 -48 14 -58 0 -9 11
-27 25 -39 28 -24 34 -72 12 -103 -16 -21 -37 -12 -37 16 0 11 -9 41 -21 66
-11 25 -25 71 -31 102 -6 31 -17 74 -24 96 -8 23 -14 51 -14 63 0 13 -5 32
-10 42 -10 19 -27 88 -55 225 -15 69 -20 135 -10 135 2 0 14 -18 25 -40z
m-762 -71 c-2 -24 -7 -44 -13 -44 -12 0 -19 69 -10 93 11 29 26 -4 23 -49z
m510 -128 c2 -40 0 -52 -10 -49 -8 3 -14 25 -16 57 -2 40 0 52 10 49 8 -3 14
-25 16 -57z m-281 -58 c-2 -16 -4 -5 -4 22 0 28 2 40 4 28 2 -13 2 -35 0 -50z
m-77 28 c5 -11 10 -40 10 -65 0 -25 5 -48 10 -51 6 -3 10 -48 10 -101 l0 -94
-37 -42 c-53 -59 -83 -86 -118 -105 -16 -9 -50 -33 -75 -54 -51 -42 -117 -79
-141 -79 -22 0 -29 20 -29 78 0 40 -11 101 -37 209 -4 17 6 33 43 67 27 26 55
46 64 46 37 0 121 68 210 170 38 44 73 52 90 21z m115 -191 c-4 -11 -11 -18
-16 -15 -11 7 -12 48 -2 59 11 11 25 -23 18 -44z m515 1 c0 -9 6 -36 14 -61 8
-25 25 -81 37 -125 12 -44 25 -84 30 -90 5 -5 9 -24 9 -42 0 -26 -6 -36 -25
-45 -38 -17 -46 -2 -66 114 -10 57 -23 123 -28 148 -12 52 -14 124 -4 133 9
10 33 -13 33 -32z m-2108 -162 c-3 -143 0 -180 12 -204 32 -60 11 -96 -61
-111 -43 -9 -46 6 -28 161 44 372 82 449 77 154z m812 -51 c10 -38 7 -93 -6
-106 -21 -21 -66 -14 -84 14 -24 35 -9 74 36 96 44 23 46 23 54 -4z m714 -80
c5 -7 13 -44 17 -82 6 -56 5 -68 -6 -64 -8 3 -18 18 -23 34 -4 16 -15 43 -23
61 -9 18 -13 39 -10 47 8 19 31 21 45 4z m582 -93 c0 -26 -6 -39 -25 -51 -35
-23 -57 -14 -67 25 -14 50 -5 61 47 61 45 0 45 0 45 -35z m-678 -80 c21 -28
42 -50 47 -50 15 0 25 -14 39 -58 54 -172 65 -232 46 -270 -10 -18 -12 -33 -6
-45 22 -41 23 -88 2 -114 -17 -23 -18 -32 -10 -99 13 -102 26 -170 38 -199 6
-14 34 -99 64 -190 42 -131 54 -158 56 -131 2 18 -1 38 -7 44 -6 6 -11 24 -11
40 0 16 -6 43 -14 60 -7 18 -21 70 -31 117 -10 47 -24 112 -32 146 -20 87 -22
179 -4 179 8 0 18 -13 23 -30 5 -16 20 -52 33 -80 13 -27 26 -63 30 -80 10
-49 37 -115 46 -115 5 0 9 18 9 39 0 43 12 58 28 38 9 -11 34 -91 52 -167 12
-52 41 -161 50 -190 4 -14 18 -70 30 -125 13 -55 34 -143 48 -195 13 -52 28
-113 33 -135 4 -22 18 -83 30 -135 11 -52 25 -113 29 -135 8 -40 44 -185 60
-240 5 -16 16 -52 24 -80 8 -27 24 -84 36 -125 12 -41 28 -109 35 -150 14 -79
32 -139 46 -154 5 -6 9 -18 9 -28 0 -16 7 -35 52 -134 24 -54 23 -69 -8 -93
-45 -35 -60 -28 -98 47 -18 37 -37 82 -41 100 -3 17 -11 32 -16 32 -6 0 -8
-41 -3 -110 6 -95 5 -110 -8 -110 -16 0 -40 56 -59 138 -11 42 -11 42 -28 21
l-18 -22 -21 23 c-12 13 -22 29 -22 34 0 12 -39 53 -88 92 -33 26 -62 27 -62
0 0 -8 -12 -24 -26 -35 -32 -25 -46 -74 -36 -131 7 -44 8 -45 49 -48 30 -2 44
-8 48 -22 3 -10 17 -25 30 -34 53 -35 26 -53 -66 -47 -25 1 -48 -6 -74 -23
-75 -51 -96 -45 -116 37 -13 57 -62 151 -72 140 -12 -12 -7 -87 8 -116 8 -15
12 -34 8 -42 -6 -18 -42 -20 -47 -3 -22 74 -50 155 -57 162 -5 6 -9 22 -9 37
0 15 -4 39 -10 53 -5 14 -14 85 -20 158 -6 73 -18 166 -27 205 -15 71 -16 72
-36 58 -12 -8 -26 -24 -32 -36 -10 -18 -14 -11 -34 63 -12 45 -29 108 -37 138
-14 52 -57 240 -73 325 -5 22 -18 85 -31 140 -12 55 -26 125 -30 155 -5 30
-13 69 -18 85 -6 17 -13 56 -17 88 -4 31 -11 57 -17 57 -13 0 -2 -155 13 -182
5 -9 9 -43 9 -75 0 -31 6 -75 14 -98 8 -22 22 -85 32 -140 10 -55 24 -117 31
-139 7 -21 13 -51 13 -66 0 -15 6 -50 14 -76 47 -159 66 -329 37 -329 -15 0
-35 62 -51 160 -12 75 -39 214 -51 270 -6 28 -18 82 -26 120 -9 39 -21 93 -28
120 -8 28 -21 89 -30 138 -10 48 -22 87 -27 87 -5 0 -20 11 -34 25 -23 23 -24
29 -19 107 4 46 13 100 22 120 16 37 15 54 -8 139 -14 54 -6 104 16 95 8 -3
15 -1 15 4 0 6 -4 10 -8 10 -4 0 -16 14 -26 30 l-17 30 -30 -21 c-20 -14 -34
-18 -40 -12 -6 6 -13 51 -16 100 -6 96 2 128 34 128 16 0 18 9 17 90 0 50 -4
134 -9 187 -10 127 0 133 87 53 62 -55 63 -58 75 -128 6 -40 12 -98 12 -129 1
-31 7 -87 15 -125 8 -37 17 -111 21 -163 4 -52 10 -108 15 -125 12 -43 39
-197 50 -290 6 -44 17 -114 25 -155 8 -41 14 -76 15 -78 0 -2 5 0 10 3 16 10
25 -25 12 -46 -14 -22 -15 -79 -2 -134 5 -22 14 -78 19 -124 6 -47 15 -89 21
-95 5 -5 10 -21 10 -35 0 -15 7 -38 14 -53 8 -16 18 -48 22 -73 3 -25 9 -43
12 -40 9 9 2 89 -9 99 -5 6 -9 22 -9 37 0 15 -6 42 -14 60 -7 19 -17 61 -21
94 -4 33 -13 75 -21 93 -14 35 -9 152 7 152 9 0 9 -2 44 -130 15 -52 33 -117
40 -145 8 -27 33 -122 55 -210 23 -88 45 -178 51 -200 20 -78 62 -201 80 -235
10 -19 25 -65 34 -102 8 -37 24 -84 35 -105 11 -21 20 -48 20 -61 0 -21 24
-41 36 -29 3 3 -4 32 -16 64 -12 32 -24 69 -28 83 -3 14 -14 37 -25 51 -13 18
-17 34 -12 49 6 20 12 21 63 18 l57 -3 0 65 c0 63 -1 65 -37 90 -29 19 -48 46
-80 115 -24 50 -66 135 -94 190 -28 55 -65 127 -82 160 -32 62 -39 101 -67
350 -7 66 -18 152 -24 190 -12 75 -16 91 -61 285 -16 69 -38 172 -50 230 -12
58 -25 119 -31 136 -5 17 -9 42 -9 55 0 14 -9 63 -21 108 -19 74 -19 85 -6 98
13 13 17 13 38 0 13 -8 47 -23 74 -32 28 -10 54 -22 58 -25 5 -4 11 -35 13
-68 4 -48 1 -69 -15 -101 -31 -60 -27 -102 15 -161 42 -58 66 -63 113 -24 32
27 56 91 46 124 -3 10 -19 35 -36 56 -26 32 -29 44 -24 76 5 26 2 44 -9 60
-22 31 -21 32 24 63 22 15 40 32 40 36 0 14 -34 10 -58 -7 -17 -11 -38 -15
-80 -11 -66 5 -108 20 -174 62 -62 39 -69 58 -93 250 -16 126 -9 146 75 210
46 35 73 49 106 53 24 2 49 11 55 19 19 22 41 11 81 -42z m-472 -44 c4 -16 22
-33 53 -50 27 -14 52 -33 57 -41 4 -8 11 -63 15 -122 7 -99 6 -108 -11 -115
-14 -5 -32 8 -75 56 -63 68 -64 70 -73 224 -4 68 -3 78 12 75 9 -2 19 -14 22
-27z m-133 -317 c11 -29 -10 -69 -36 -69 -30 0 -46 24 -37 58 5 22 12 27 37
27 18 0 32 -6 36 -16z m-286 -1054 c7 -74 9 -147 6 -161 -7 -27 -31 -44 -48
-33 -10 6 -12 340 -2 399 l7 40 13 -55 c6 -30 18 -116 24 -190z m269 -496 c0
-9 -7 -14 -17 -12 -14 2 -19 15 -21 48 l-3 45 21 -33 c11 -18 20 -39 20 -48z
m68 -310 c2 -32 9 -66 16 -74 18 -20 41 -88 33 -96 -21 -21 -77 67 -77 122 0
12 -4 26 -10 29 -14 9 -13 58 2 73 22 22 33 6 36 -54z m420 -257 c3 -21 -1
-27 -17 -27 -21 0 -37 32 -26 50 12 20 40 5 43 -23z m-610 -80 c47 -48 53 -80
15 -85 -14 -2 -28 7 -44 30 -12 18 -35 48 -51 65 -15 19 -25 40 -22 48 8 21
47 -1 102 -58z m-461 -59 c13 -12 23 -32 23 -45 0 -22 -3 -24 -46 -21 -53 3
-70 21 -60 61 8 34 49 37 83 5z m2193 -178 c12 -23 6 -40 -15 -40 -17 0 -38
36 -30 50 10 17 34 11 45 -10z m-1841 -95 c1 -75 -14 -118 -42 -123 -21 -4
-23 21 -2 38 9 7 15 29 15 55 0 23 3 64 7 91 9 66 21 32 22 -61z m798 28 c24
-4 34 -13 43 -37 7 -17 16 -40 21 -51 6 -11 9 -56 7 -100 -3 -73 -5 -80 -25
-83 -36 -5 -183 97 -183 127 0 9 14 28 31 42 31 25 31 26 15 57 -22 43 -12 66
28 57 17 -3 45 -9 63 -12z m703 -120 c0 -31 -16 -37 -40 -13 -20 20 -27 69
-13 84 11 11 53 -45 53 -71z m-1733 -99 c7 -18 -17 -38 -31 -24 -11 11 -1 40
14 40 6 0 13 -7 17 -16z m719 -242 c-3 -5 -15 -12 -26 -15 -23 -6 -28 21 -8
41 10 10 15 9 26 -2 8 -8 12 -18 8 -24z m-87 -31 c12 -8 8 -11 -15 -16 -16 -4
-46 -13 -67 -21 -20 -8 -49 -14 -62 -14 -14 0 -25 -4 -25 -9 0 -4 -23 -11 -52
-14 -41 -5 -54 -3 -61 8 -4 8 -19 15 -32 15 -13 0 -27 5 -30 10 -12 19 27 23
61 6 44 -21 110 -21 118 -1 4 10 20 15 51 15 25 0 45 4 45 9 0 9 19 17 45 20
6 0 17 -3 24 -8z m-389 -61 c11 -7 -1 -9 -40 -9 -46 1 -50 3 -25 9 43 11 48
11 65 0z"/>
<path d="M2580 6805 c-11 -13 -9 -20 9 -39 41 -44 111 -41 111 4 0 42 -92 68
-120 35z"/>
<path d="M3062 6124 c-71 -48 -151 -130 -173 -179 -23 -49 -24 -65 -4 -65 8 0
15 5 15 10 0 6 17 10 38 10 37 0 39 2 61 53 23 53 77 144 96 162 21 19 37 45
29 45 -5 0 -33 -16 -62 -36z"/>
<path d="M2870 5295 c-9 -11 -10 -19 -2 -27 14 -14 32 -1 32 23 0 23 -13 25
-30 4z"/>
<path d="M2807 5162 c-18 -20 -22 -44 -9 -56 4 -4 12 -23 17 -43 17 -58 30
-43 33 40 3 82 -7 97 -41 59z"/>
<path d="M3416 5167 c-13 -28 3 -176 17 -156 1 2 0 42 -3 89 -4 58 -8 79 -14
67z"/>
<path d="M3447 4940 c-12 -45 -8 -152 6 -148 15 6 21 80 9 133 -7 37 -9 38
-15 15z"/>
<path d="M3472 4713 c3 -71 21 -93 26 -34 5 45 -6 101 -19 101 -6 0 -9 -27 -7
-67z"/>
<path d="M3507 4594 c-13 -14 -8 -148 8 -178 8 -15 15 -51 15 -80 0 -28 5 -67
10 -86 12 -39 36 -163 50 -257 5 -34 13 -70 19 -80 5 -10 14 -29 20 -43 10
-22 10 -20 5 15 -3 22 -8 72 -11 110 -2 39 -10 77 -18 85 -7 8 -15 46 -19 84
-4 38 -11 77 -16 87 -6 10 -10 42 -10 71 0 29 -7 66 -15 82 -8 15 -15 56 -16
90 -1 68 -10 111 -22 100z"/>
<path d="M3167 4213 c-15 -14 -7 -43 12 -43 18 0 35 33 23 44 -7 8 -27 7 -35
-1z"/>
<path d="M3240 4110 c0 -18 3 -19 20 -10 22 12 18 30 -6 30 -8 0 -14 -9 -14
-20z"/>
<path d="M3064 4035 c-13 -20 -14 -28 -4 -40 17 -21 37 -19 50 5 13 25 4 60
-15 60 -8 0 -22 -11 -31 -25z"/>
<path d="M3477 2004 c-7 -13 30 -222 45 -249 7 -11 13 -54 14 -95 6 -134 34
-195 51 -110 4 23 13 40 18 38 11 -2 32 -52 45 -108 15 -62 38 -138 44 -149 4
-6 14 -11 22 -11 16 0 14 15 -13 100 -8 25 -28 95 -44 155 -17 61 -37 135 -45
165 -9 30 -20 83 -26 118 -9 56 -14 65 -49 90 -21 15 -42 36 -47 46 -5 11 -11
15 -15 10z"/>
<path d="M3780 1680 c0 -20 4 -37 40 -190 11 -47 20 -93 20 -103 0 -9 5 -17
11 -17 12 0 5 106 -12 163 -5 18 -9 44 -9 59 0 24 -36 108 -46 108 -2 0 -4 -9
-4 -20z"/>
<path d="M4324 5988 c11 -110 25 -467 25 -645 1 -95 5 -173 10 -173 11 0 12
754 1 795 -4 17 -11 42 -14 58 -4 15 -11 27 -17 27 -8 0 -9 -20 -5 -62z"/>
<path d="M938 5265 c-19 -25 -23 -45 -10 -45 12 0 52 44 52 58 0 20 -24 13
-42 -13z"/>
<path d="M1070 1000 c-8 -5 -12 -11 -9 -14 7 -8 49 5 49 15 0 12 -21 11 -40
-1z"/>
<path d="M1007 973 c-10 -9 -9 -23 1 -23 5 0 17 7 28 15 19 14 19 14 -2 15
-11 0 -24 -3 -27 -7z"/>
<path d="M1766 665 c-15 -8 -33 -15 -38 -15 -11 0 -66 -23 -111 -46 -16 -8
-35 -14 -44 -14 -8 0 -27 -6 -41 -14 -15 -8 -45 -21 -67 -29 -105 -39 -212
-82 -230 -93 -11 -7 -36 -15 -55 -19 -19 -4 -39 -11 -45 -15 -5 -4 -27 -10
-47 -14 -48 -9 -49 -24 -3 -28 37 -3 49 -21 18 -26 -10 -2 -22 -9 -28 -16 -5
-6 -21 -17 -35 -23 l-25 -12 28 0 c15 -1 27 4 27 9 0 6 11 10 24 10 13 0 29 7
36 15 7 8 21 15 31 15 16 0 61 19 121 51 10 5 28 9 41 9 13 0 32 7 43 15 10 8
26 15 34 15 8 0 32 9 53 20 20 11 46 20 57 20 25 0 25 9 3 26 -16 12 -16 13
-2 14 9 0 26 9 39 20 13 11 30 20 39 20 9 0 25 7 35 15 11 8 27 15 35 15 9 0
43 13 76 29 33 16 68 31 78 35 9 3 17 10 17 16 0 15 -30 12 -64 -5z"/>
<path d="M2690 653 c-74 -34 -99 -43 -114 -43 -9 0 -16 -5 -16 -11 0 -8 11 -9
33 -4 17 4 47 7 65 6 37 -1 63 10 105 45 l29 24 -34 -1 c-18 0 -49 -7 -68 -16z"/>
<path d="M2475 574 c-16 -9 -43 -18 -60 -21 -39 -6 -45 -13 -13 -13 14 0 42 7
62 15 19 8 39 15 43 14 19 -3 33 2 33 11 0 15 -31 12 -65 -6z"/>
<path d="M1642 549 c2 -6 7 -10 11 -10 4 1 16 1 27 1 11 0 20 5 20 10 0 6 -14
10 -31 10 -17 0 -29 -5 -27 -11z"/>
<path d="M1857 544 c-6 -6 -115 -46 -227 -84 -30 -10 -72 -22 -93 -25 -20 -4
-41 -13 -45 -20 -4 -7 -20 -15 -37 -18 -28 -4 -29 -5 -7 -12 30 -10 23 -29
-13 -33 -18 -2 -31 2 -37 13 -7 12 -17 15 -41 9 -18 -3 -37 -10 -42 -14 -6 -5
-25 -10 -44 -12 -48 -4 -54 -28 -7 -28 19 0 37 -4 40 -9 7 -11 -17 -21 -50
-21 -19 0 -24 -5 -24 -25 0 -14 -4 -25 -10 -25 -14 0 -12 -28 3 -33 12 -4 128
33 137 44 3 4 31 9 62 13 32 4 60 12 63 17 9 14 75 11 91 -5 16 -17 23 -15
164 37 112 41 194 67 212 67 7 0 25 6 39 14 14 7 42 16 62 20 45 8 58 26 20
27 -52 2 -98 -3 -108 -11 -5 -4 -37 -10 -70 -13 -62 -5 -99 -13 -195 -42 -69
-21 -126 -35 -165 -41 -28 -4 -29 -4 -7 7 12 7 22 18 22 25 0 7 15 16 33 19
17 4 37 10 42 13 6 4 44 18 85 33 134 47 145 52 172 65 14 8 36 14 47 14 12 0
21 5 21 10 0 19 -77 39 -93 24z m-464 -209 c2 -12 -38 -19 -61 -10 -14 5 -14
7 -2 16 18 11 60 8 63 -6z"/>
<path d="M1550 520 c0 -5 14 -10 30 -10 17 0 30 5 30 10 0 6 -13 10 -30 10
-16 0 -30 -4 -30 -10z"/>
<path d="M2300 510 c0 -12 8 -12 35 0 18 8 17 9 -7 9 -16 1 -28 -3 -28 -9z"/>
<path d="M964 455 c-10 -8 -26 -15 -35 -15 -14 0 -51 -14 -134 -50 -11 -5 -31
-12 -45 -16 -14 -3 -32 -12 -40 -19 -8 -7 -24 -15 -35 -18 -16 -4 -16 -5 5 -6
14 0 48 6 75 14 51 15 58 18 135 52 25 12 64 29 87 39 23 9 40 21 37 26 -8 12
-28 10 -50 -7z"/>
<path d="M978 373 c-10 -2 -18 -9 -18 -15 0 -6 10 -8 23 -4 12 3 30 6 40 6 9
0 17 5 17 10 0 10 -30 12 -62 3z"/>
<path d="M1152 289 c-16 -25 0 -49 32 -48 21 0 21 0 -1 11 -31 15 -29 38 1 38
14 0 28 5 31 10 4 6 -6 10 -22 10 -18 0 -33 -8 -41 -21z"/>
<path d="M2114 240 c-12 -5 -25 -13 -28 -18 -17 -29 94 -20 120 9 16 18 15 19
-27 18 -24 0 -54 -4 -65 -9z"/>
<path d="M1140 190 c-12 -8 -9 -10 13 -10 15 0 27 5 27 10 0 13 -20 13 -40 0z"/>
</g>
</svg>
